<?xml version="1.0" encoding="utf-8" ?>
<svg baseProfile="full" height="600.0" version="1.1" width="800.0" xmlns="http://www.w3.org/2000/svg" xmlns:ev="http://www.w3.org/2001/xml-events" xmlns:xlink="http://www.w3.org/1999/xlink"><defs /><rect fill="white" height="600.0" stroke="black" stroke-width="2" width="800.0" x="0" y="0" /><rect fill="lightgray" height="50.0" stroke="black" stroke-width="1" width="780.0" x="10.0" y="10.0" /><rect fill="lightgray" height="50.0" stroke="black" stroke-width="1" width="780.0" x="10.0" y="540.0" /><rect fill="none" height="480.0" stroke="blue" stroke-dasharray="4" stroke-width="1" width="780.0" x="10.0" y="60.0" /><rect fill="none" height="480.0" stroke="red" stroke-width="1" width="780.0" x="10.0" y="60.0" /><rect fill="lightgrey" height="53.333333333333336" stroke="black" stroke-width="1" width="780.0" x="10.0" y="60.0" /><text dominant-baseline="middle" font-size="10" text-anchor="middle" x="400.0" y="86.66666666666667">2025</text><rect fill="lightgrey" height="53.333333333333336" stroke="black" stroke-width="1" width="780.0" x="10.0" y="113.33333333333334" /><line stroke="black" stroke-width="1" x1="150.58139534883722" x2="150.58139534883722" y1="113.33333333333334" y2="166.66666666666669" /><text dominant-baseline="middle" font-size="10" text-anchor="middle" x="80.29069767441861" y="140.0">Jan</text><line stroke="black" stroke-width="1" x1="277.5581395348837" x2="277.5581395348837" y1="113.33333333333334" y2="166.66666666666669" /><text dominant-baseline="middle" font-size="10" text-anchor="middle" x="214.06976744186045" y="140.0">Feb</text><line stroke="black" stroke-width="1" x1="418.13953488372096" x2="418.13953488372096" y1="113.33333333333334" y2="166.66666666666669" /><text dominant-baseline="middle" font-size="10" text-anchor="middle" x="347.84883720930236" y="140.0">Mar</text><line stroke="black" stroke-width="1" x1="554.1860465116279" x2="554.1860465116279" y1="113.33333333333334" y2="166.66666666666669" /><text dominant-baseline="middle" font-size="10" text-anchor="middle" x="486.1627906976744" y="140.0">Apr</text><line stroke="black" stroke-width="1" x1="694.7674418604652" x2="694.7674418604652" y1="113.33333333333334" y2="166.66666666666669" /><text dominant-baseline="middle" font-size="10" text-anchor="middle" x="624.4767441860465" y="140.0">May</text><text dominant-baseline="middle" font-size="10" text-anchor="middle" x="742.3837209302326" y="140.0">Jun</text><rect fill="lightgrey" height="53.333333333333336" stroke="black" stroke-width="1" width="780.0" x="10.0" y="166.66666666666669" /><line stroke="black" stroke-width="1" x1="32.674418604651166" x2="32.674418604651166" y1="166.66666666666669" y2="220.00000000000003" /><text dominant-baseline="middle" font-size="10" text-anchor="middle" x="21.337209302325583" y="193.33333333333334">01</text><line stroke="black" stroke-width="1" x1="64.4186046511628" x2="64.4186046511628" y1="166.66666666666669" y2="220.00000000000003" /><text dominant-baseline="middle" font-size="10" text-anchor="middle" x="48.54651162790698" y="193.33333333333334">02</text><line stroke="black" stroke-width="1" x1="96.16279069767442" x2="96.16279069767442" y1="166.66666666666669" y2="220.00000000000003" /><text dominant-baseline="middle" font-size="10" text-anchor="middle" x="80.29069767441861" y="193.33333333333334">03</text><line stroke="black" stroke-width="1" x1="127.90697674418605" x2="127.90697674418605" y1="166.66666666666669" y2="220.00000000000003" /><text dominant-baseline="middle" font-size="10" text-anchor="middle" x="112.03488372093024" y="193.33333333333334">04</text><line stroke="black" stroke-width="1" x1="159.65116279069767" x2="159.65116279069767" y1="166.66666666666669" y2="220.00000000000003" /><text dominant-baseline="middle" font-size="10" text-anchor="middle" x="143.77906976744185" y="193.33333333333334">05</text><line stroke="black" stroke-width="1" x1="191.3953488372093" x2="191.3953488372093" y1="166.66666666666669" y2="220.00000000000003" /><text dominant-baseline="middle" font-size="10" text-anchor="middle" x="175.52325581395348" y="193.33333333333334">06</text><line stroke="black" stroke-width="1" x1="223.13953488372093" x2="223.13953488372093" y1="166.66666666666669" y2="220.00000000000003" /><text dominant-baseline="middle" font-size="10" text-anchor="middle" x="207.2674418604651" y="193.33333333333334">07</text><line stroke="black" stroke-width="1" x1="254.88372093023256" x2="254.88372093023256" y1="166.66666666666669" y2="220.00000000000003" /><text dominant-baseline="middle" font-size="10" text-anchor="middle" x="239.01162790697674" y="193.33333333333334">08</text><line stroke="black" stroke-width="1" x1="286.6279069767442" x2="286.6279069767442" y1="166.66666666666669" y2="220.00000000000003" /><text dominant-baseline="middle" font-size="10" text-anchor="middle" x="270.75581395348837" y="193.33333333333334">09</text><line stroke="black" stroke-width="1" x1="318.37209302325584" x2="318.37209302325584" y1="166.66666666666669" y2="220.00000000000003" /><text dominant-baseline="middle" font-size="10" text-anchor="middle" x="302.5" y="193.33333333333334">10</text><line stroke="black" stroke-width="1" x1="350.1162790697675" x2="350.1162790697675" y1="166.66666666666669" y2="220.00000000000003" /><text dominant-baseline="middle" font-size="10" text-anchor="middle" x="334.2441860465117" y="193.33333333333334">11</text><line stroke="black" stroke-width="1" x1="381.8604651162791" x2="381.8604651162791" y1="166.66666666666669" y2="220.00000000000003" /><text dominant-baseline="middle" font-size="10" text-anchor="middle" x="365.98837209302326" y="193.33333333333334">12</text><line stroke="black" stroke-width="1" x1="413.60465116279073" x2="413.60465116279073" y1="166.66666666666669" y2="220.00000000000003" /><text dominant-baseline="middle" font-size="10" text-anchor="middle" x="397.73255813953494" y="193.33333333333334">13</text><line stroke="black" stroke-width="1" x1="445.34883720930236" x2="445.34883720930236" y1="166.66666666666669" y2="220.00000000000003" /><text dominant-baseline="middle" font-size="10" text-anchor="middle" x="429.4767441860465" y="193.33333333333334">14</text><line stroke="black" stroke-width="1" x1="477.09302325581393" x2="477.09302325581393" y1="166.66666666666669" y2="220.00000000000003" /><text dominant-baseline="middle" font-size="10" text-anchor="middle" x="461.22093023255815" y="193.33333333333334">15</text><line stroke="black" stroke-width="1" x1="508.83720930232556" x2="508.83720930232556" y1="166.66666666666669" y2="220.00000000000003" /><text dominant-baseline="middle" font-size="10" text-anchor="middle" x="492.9651162790698" y="193.33333333333334">16</text><line stroke="black" stroke-width="1" x1="540.5813953488372" x2="540.5813953488372" y1="166.66666666666669" y2="220.00000000000003" /><text dominant-baseline="middle" font-size="10" text-anchor="middle" x="524.7093023255813" y="193.33333333333334">17</text><line stroke="black" stroke-width="1" x1="572.3255813953489" x2="572.3255813953489" y1="166.66666666666669" y2="220.00000000000003" /><text dominant-baseline="middle" font-size="10" text-anchor="middle" x="556.453488372093" y="193.33333333333334">18</text><line stroke="black" stroke-width="1" x1="604.0697674418604" x2="604.0697674418604" y1="166.66666666666669" y2="220.00000000000003" /><text dominant-baseline="middle" font-size="10" text-anchor="middle" x="588.1976744186047" y="193.33333333333334">19</text><line stroke="black" stroke-width="1" x1="635.8139534883721" x2="635.8139534883721" y1="166.66666666666669" y2="220.00000000000003" /><text dominant-baseline="middle" font-size="10" text-anchor="middle" x="619.9418604651163" y="193.33333333333334">20</text><line stroke="black" stroke-width="1" x1="667.5581395348837" x2="667.5581395348837" y1="166.66666666666669" y2="220.00000000000003" /><text dominant-baseline="middle" font-size="10" text-anchor="middle" x="651.6860465116279" y="193.33333333333334">21</text><line stroke="black" stroke-width="1" x1="699.3023255813954" x2="699.3023255813954" y1="166.66666666666669" y2="220.00000000000003" /><text dominant-baseline="middle" font-size="10" text-anchor="middle" x="683.4302325581396" y="193.33333333333334">22</text><line stroke="black" stroke-width="1" x1="731.046511627907" x2="731.046511627907" y1="166.66666666666669" y2="220.00000000000003" /><text dominant-baseline="middle" font-size="10" text-anchor="middle" x="715.1744186046512" y="193.33333333333334">23</text><line stroke="black" stroke-width="1" x1="762.7906976744187" x2="762.7906976744187" y1="166.66666666666669" y2="220.00000000000003" /><text dominant-baseline="middle" font-size="10" text-anchor="middle" x="746.9186046511628" y="193.33333333333334">24</text><text dominant-baseline="middle" font-size="10" text-anchor="middle" x="776.3953488372093" y="193.33333333333334">25</text><rect fill="lightgrey" height="53.333333333333336" stroke="black" stroke-width="1" width="780.0" x="10.0" y="220.00000000000003" /><rect fill="none" height="266.6666666666667" stroke="purple" stroke-width="1" width="780.0" x="10.0" y="273.33333333333337" /><line stroke="gray" stroke-width="1" x1="10.0" x2="790.0" y1="273.33333333333337" y2="273.33333333333337" /><line stroke="gray" stroke-width="1" x1="10.0" x2="790.0" y1="300.00000000000006" y2="300.00000000000006" /><line stroke="gray" stroke-width="1" x1="10.0" x2="790.0" y1="326.6666666666667" y2="326.6666666666667" /><line stroke="gray" stroke-width="1" x1="10.0" x2="790.0" y1="353.33333333333337" y2="353.33333333333337" /><line stroke="gray" stroke-width="1" x1="10.0" x2="790.0" y1="380.00000000000006" y2="380.00000000000006" /><line stroke="gray" stroke-width="1" x1="10.0" x2="790.0" y1="406.66666666666674" y2="406.66666666666674" /><line stroke="gray" stroke-width="1" x1="10.0" x2="790.0" y1="433.33333333333337" y2="433.33333333333337" /><line stroke="gray" stroke-width="1" x1="10.0" x2="790.0" y1="460.00000000000006" y2="460.00000000000006" /><line stroke="gray" stroke-width="1" x1="10.0" x2="790.0" y1="486.66666666666674" y2="486.66666666666674" /><line stroke="gray" stroke-width="1" x1="10.0" x2="790.0" y1="513.3333333333334" y2="513.3333333333334" /><line stroke="gray" stroke-width="1" x1="10.0" x2="790.0" y1="540.0" y2="540.0" /><line stroke="gray" stroke-width="1" x1="150.58139534883722" x2="150.58139534883722" y1="273.33333333333337" y2="540.0" /><line stroke="gray" stroke-width="1" x1="277.5581395348837" x2="277.5581395348837" y1="273.33333333333337" y2="540.0" /><line stroke="gray" stroke-width="1" x1="418.13953488372096" x2="418.13953488372096" y1="273.33333333333337" y2="540.0" /><line stroke="gray" stroke-width="1" x1="554.1860465116279" x2="554.1860465116279" y1="273.33333333333337" y2="540.0" /><line stroke="gray" stroke-width="1" x1="694.7674418604652" x2="694.7674418604652" y1="273.33333333333337" y2="540.0" /><line stroke="gray" stroke-width="1" x1="32.674418604651166" x2="32.674418604651166" y1="273.33333333333337" y2="540.0" /><line stroke="gray" stroke-width="1" x1="64.4186046511628" x2="64.4186046511628" y1="273.33333333333337" y2="540.0" /><line stroke="gray" stroke-width="1" x1="96.16279069767442" x2="96.16279069767442" y1="273.33333333333337" y2="540.0" /><line stroke="gray" stroke-width="1" x1="127.90697674418605" x2="127.90697674418605" y1="273.33333333333337" y2="540.0" /><line stroke="gray" stroke-width="1" x1="159.65116279069767" x2="159.65116279069767" y1="273.33333333333337" y2="540.0" /><line stroke="gray" stroke-width="1" x1="191.3953488372093" x2="191.3953488372093" y1="273.33333333333337" y2="540.0" /><line stroke="gray" stroke-width="1" x1="223.13953488372093" x2="223.13953488372093" y1="273.33333333333337" y2="540.0" /><line stroke="gray" stroke-width="1" x1="254.88372093023256" x2="254.88372093023256" y1="273.33333333333337" y2="540.0" /><line stroke="gray" stroke-width="1" x1="286.6279069767442" x2="286.6279069767442" y1="273.33333333333337" y2="540.0" /><line stroke="gray" stroke-width="1" x1="318.37209302325584" x2="318.37209302325584" y1="273.33333333333337" y2="540.0" /><line stroke="gray" stroke-width="1" x1="350.1162790697675" x2="350.1162790697675" y1="273.33333333333337" y2="540.0" /><line stroke="gray" stroke-width="1" x1="381.8604651162791" x2="381.8604651162791" y1="273.33333333333337" y2="540.0" /><line stroke="gray" stroke-width="1" x1="413.60465116279073" x2="413.60465116279073" y1="273.33333333333337" y2="540.0" /><line stroke="gray" stroke-width="1" x1="445.34883720930236" x2="445.34883720930236" y1="273.33333333333337" y2="540.0" /><line stroke="gray" stroke-width="1" x1="477.09302325581393" x2="477.09302325581393" y1="273.33333333333337" y2="540.0" /><line stroke="gray" stroke-width="1" x1="508.83720930232556" x2="508.83720930232556" y1="273.33333333333337" y2="540.0" /><line stroke="gray" stroke-width="1" x1="540.5813953488372" x2="540.5813953488372" y1="273.33333333333337" y2="540.0" /><line stroke="gray" stroke-width="1" x1="572.3255813953489" x2="572.3255813953489" y1="273.33333333333337" y2="540.0" /><line stroke="gray" stroke-width="1" x1="604.0697674418604" x2="604.0697674418604" y1="273.33333333333337" y2="540.0" /><line stroke="gray" stroke-width="1" x1="635.8139534883721" x2="635.8139534883721" y1="273.33333333333337" y2="540.0" /><line stroke="gray" stroke-width="1" x1="667.5581395348837" x2="667.5581395348837" y1="273.33333333333337" y2="540.0" /><line stroke="gray" stroke-width="1" x1="699.3023255813954" x2="699.3023255813954" y1="273.33333333333337" y2="540.0" /><line stroke="gray" stroke-width="1" x1="731.046511627907" x2="731.046511627907" y1="273.33333333333337" y2="540.0" /><line stroke="gray" stroke-width="1" x1="762.7906976744187" x2="762.7906976744187" y1="273.33333333333337" y2="540.0" /><line stroke="gray" stroke-width="1" x1="14.534883720930232" x2="14.534883720930232" y1="273.33333333333337" y2="540.0" /><line stroke="gray" stroke-width="1" x1="19.069767441860463" x2="19.069767441860463" y1="273.33333333333337" y2="540.0" /><line stroke="gray" stroke-width="1" x1="23.6046511627907" x2="23.6046511627907" y1="273.33333333333337" y2="540.0" /><line stroke="gray" stroke-width="1" x1="28.13953488372093" x2="28.13953488372093" y1="273.33333333333337" y2="540.0" /><line stroke="gray" stroke-width="1" x1="32.674418604651166" x2="32.674418604651166" y1="273.33333333333337" y2="540.0" /><line stroke="gray" stroke-width="1" x1="37.2093023255814" x2="37.2093023255814" y1="273.33333333333337" y2="540.0" /><line stroke="gray" stroke-width="1" x1="41.74418604651163" x2="41.74418604651163" y1="273.33333333333337" y2="540.0" /><line stroke="gray" stroke-width="1" x1="46.27906976744186" x2="46.27906976744186" y1="273.33333333333337" y2="540.0" /><line stroke="gray" stroke-width="1" x1="50.81395348837209" x2="50.81395348837209" y1="273.33333333333337" y2="540.0" /><line stroke="gray" stroke-width="1" x1="55.348837209302324" x2="55.348837209302324" y1="273.33333333333337" y2="540.0" /><line stroke="gray" stroke-width="1" x1="59.883720930232556" x2="59.883720930232556" y1="273.33333333333337" y2="540.0" /><line stroke="gray" stroke-width="1" x1="64.4186046511628" x2="64.4186046511628" y1="273.33333333333337" y2="540.0" /><line stroke="gray" stroke-width="1" x1="68.95348837209303" x2="68.95348837209303" y1="273.33333333333337" y2="540.0" /><line stroke="gray" stroke-width="1" x1="73.48837209302326" x2="73.48837209302326" y1="273.33333333333337" y2="540.0" /><line stroke="gray" stroke-width="1" x1="78.02325581395348" x2="78.02325581395348" y1="273.33333333333337" y2="540.0" /><line stroke="gray" stroke-width="1" x1="82.55813953488372" x2="82.55813953488372" y1="273.33333333333337" y2="540.0" /><line stroke="gray" stroke-width="1" x1="87.09302325581396" x2="87.09302325581396" y1="273.33333333333337" y2="540.0" /><line stroke="gray" stroke-width="1" x1="91.62790697674419" x2="91.62790697674419" y1="273.33333333333337" y2="540.0" /><line stroke="gray" stroke-width="1" x1="96.16279069767442" x2="96.16279069767442" y1="273.33333333333337" y2="540.0" /><line stroke="gray" stroke-width="1" x1="100.69767441860465" x2="100.69767441860465" y1="273.33333333333337" y2="540.0" /><line stroke="gray" stroke-width="1" x1="105.23255813953489" x2="105.23255813953489" y1="273.33333333333337" y2="540.0" /><line stroke="gray" stroke-width="1" x1="109.76744186046511" x2="109.76744186046511" y1="273.33333333333337" y2="540.0" /><line stroke="gray" stroke-width="1" x1="114.30232558139535" x2="114.30232558139535" y1="273.33333333333337" y2="540.0" /><line stroke="gray" stroke-width="1" x1="118.83720930232559" x2="118.83720930232559" y1="273.33333333333337" y2="540.0" /><line stroke="gray" stroke-width="1" x1="123.37209302325581" x2="123.37209302325581" y1="273.33333333333337" y2="540.0" /><line stroke="gray" stroke-width="1" x1="127.90697674418605" x2="127.90697674418605" y1="273.33333333333337" y2="540.0" /><line stroke="gray" stroke-width="1" x1="132.4418604651163" x2="132.4418604651163" y1="273.33333333333337" y2="540.0" /><line stroke="gray" stroke-width="1" x1="136.97674418604652" x2="136.97674418604652" y1="273.33333333333337" y2="540.0" /><line stroke="gray" stroke-width="1" x1="141.51162790697674" x2="141.51162790697674" y1="273.33333333333337" y2="540.0" /><line stroke="gray" stroke-width="1" x1="146.04651162790697" x2="146.04651162790697" y1="273.33333333333337" y2="540.0" /><line stroke="gray" stroke-width="1" x1="150.58139534883722" x2="150.58139534883722" y1="273.33333333333337" y2="540.0" /><line stroke="gray" stroke-width="1" x1="155.11627906976744" x2="155.11627906976744" y1="273.33333333333337" y2="540.0" /><line stroke="gray" stroke-width="1" x1="159.65116279069767" x2="159.65116279069767" y1="273.33333333333337" y2="540.0" /><line stroke="gray" stroke-width="1" x1="164.18604651162792" x2="164.18604651162792" y1="273.33333333333337" y2="540.0" /><line stroke="gray" stroke-width="1" x1="168.72093023255815" x2="168.72093023255815" y1="273.33333333333337" y2="540.0" /><line stroke="gray" stroke-width="1" x1="173.25581395348837" x2="173.25581395348837" y1="273.33333333333337" y2="540.0" /><line stroke="gray" stroke-width="1" x1="177.7906976744186" x2="177.7906976744186" y1="273.33333333333337" y2="540.0" /><line stroke="gray" stroke-width="1" x1="182.32558139534885" x2="182.32558139534885" y1="273.33333333333337" y2="540.0" /><line stroke="gray" stroke-width="1" x1="186.86046511627907" x2="186.86046511627907" y1="273.33333333333337" y2="540.0" /><line stroke="gray" stroke-width="1" x1="191.3953488372093" x2="191.3953488372093" y1="273.33333333333337" y2="540.0" /><line stroke="gray" stroke-width="1" x1="195.93023255813955" x2="195.93023255813955" y1="273.33333333333337" y2="540.0" /><line stroke="gray" stroke-width="1" x1="200.46511627906978" x2="200.46511627906978" y1="273.33333333333337" y2="540.0" /><line stroke="gray" stroke-width="1" x1="205.0" x2="205.0" y1="273.33333333333337" y2="540.0" /><line stroke="gray" stroke-width="1" x1="209.53488372093022" x2="209.53488372093022" y1="273.33333333333337" y2="540.0" /><line stroke="gray" stroke-width="1" x1="214.06976744186048" x2="214.06976744186048" y1="273.33333333333337" y2="540.0" /><line stroke="gray" stroke-width="1" x1="218.6046511627907" x2="218.6046511627907" y1="273.33333333333337" y2="540.0" /><line stroke="gray" stroke-width="1" x1="223.13953488372093" x2="223.13953488372093" y1="273.33333333333337" y2="540.0" /><line stroke="gray" stroke-width="1" x1="227.67441860465118" x2="227.67441860465118" y1="273.33333333333337" y2="540.0" /><line stroke="gray" stroke-width="1" x1="232.2093023255814" x2="232.2093023255814" y1="273.33333333333337" y2="540.0" /><line stroke="gray" stroke-width="1" x1="236.74418604651163" x2="236.74418604651163" y1="273.33333333333337" y2="540.0" /><line stroke="gray" stroke-width="1" x1="241.27906976744185" x2="241.27906976744185" y1="273.33333333333337" y2="540.0" /><line stroke="gray" stroke-width="1" x1="245.8139534883721" x2="245.8139534883721" y1="273.33333333333337" y2="540.0" /><line stroke="gray" stroke-width="1" x1="250.34883720930233" x2="250.34883720930233" y1="273.33333333333337" y2="540.0" /><line stroke="gray" stroke-width="1" x1="254.88372093023256" x2="254.88372093023256" y1="273.33333333333337" y2="540.0" /><line stroke="gray" stroke-width="1" x1="259.4186046511628" x2="259.4186046511628" y1="273.33333333333337" y2="540.0" /><line stroke="gray" stroke-width="1" x1="263.95348837209303" x2="263.95348837209303" y1="273.33333333333337" y2="540.0" /><line stroke="gray" stroke-width="1" x1="268.48837209302326" x2="268.48837209302326" y1="273.33333333333337" y2="540.0" /><line stroke="gray" stroke-width="1" x1="273.0232558139535" x2="273.0232558139535" y1="273.33333333333337" y2="540.0" /><line stroke="gray" stroke-width="1" x1="277.5581395348837" x2="277.5581395348837" y1="273.33333333333337" y2="540.0" /><line stroke="gray" stroke-width="1" x1="282.09302325581393" x2="282.09302325581393" y1="273.33333333333337" y2="540.0" /><line stroke="gray" stroke-width="1" x1="286.6279069767442" x2="286.6279069767442" y1="273.33333333333337" y2="540.0" /><line stroke="gray" stroke-width="1" x1="291.16279069767444" x2="291.16279069767444" y1="273.33333333333337" y2="540.0" /><line stroke="gray" stroke-width="1" x1="295.69767441860466" x2="295.69767441860466" y1="273.33333333333337" y2="540.0" /><line stroke="gray" stroke-width="1" x1="300.2325581395349" x2="300.2325581395349" y1="273.33333333333337" y2="540.0" /><line stroke="gray" stroke-width="1" x1="304.7674418604651" x2="304.7674418604651" y1="273.33333333333337" y2="540.0" /><line stroke="gray" stroke-width="1" x1="309.30232558139534" x2="309.30232558139534" y1="273.33333333333337" y2="540.0" /><line stroke="gray" stroke-width="1" x1="313.83720930232556" x2="313.83720930232556" y1="273.33333333333337" y2="540.0" /><line stroke="gray" stroke-width="1" x1="318.37209302325584" x2="318.37209302325584" y1="273.33333333333337" y2="540.0" /><line stroke="gray" stroke-width="1" x1="322.90697674418607" x2="322.90697674418607" y1="273.33333333333337" y2="540.0" /><line stroke="gray" stroke-width="1" x1="327.4418604651163" x2="327.4418604651163" y1="273.33333333333337" y2="540.0" /><line stroke="gray" stroke-width="1" x1="331.9767441860465" x2="331.9767441860465" y1="273.33333333333337" y2="540.0" /><line stroke="gray" stroke-width="1" x1="336.51162790697674" x2="336.51162790697674" y1="273.33333333333337" y2="540.0" /><line stroke="gray" stroke-width="1" x1="341.04651162790697" x2="341.04651162790697" y1="273.33333333333337" y2="540.0" /><line stroke="gray" stroke-width="1" x1="345.5813953488372" x2="345.5813953488372" y1="273.33333333333337" y2="540.0" /><line stroke="gray" stroke-width="1" x1="350.1162790697675" x2="350.1162790697675" y1="273.33333333333337" y2="540.0" /><line stroke="gray" stroke-width="1" x1="354.6511627906977" x2="354.6511627906977" y1="273.33333333333337" y2="540.0" /><line stroke="gray" stroke-width="1" x1="359.1860465116279" x2="359.1860465116279" y1="273.33333333333337" y2="540.0" /><line stroke="gray" stroke-width="1" x1="363.72093023255815" x2="363.72093023255815" y1="273.33333333333337" y2="540.0" /><line stroke="gray" stroke-width="1" x1="368.25581395348837" x2="368.25581395348837" y1="273.33333333333337" y2="540.0" /><line stroke="gray" stroke-width="1" x1="372.7906976744186" x2="372.7906976744186" y1="273.33333333333337" y2="540.0" /><line stroke="gray" stroke-width="1" x1="377.3255813953488" x2="377.3255813953488" y1="273.33333333333337" y2="540.0" /><line stroke="gray" stroke-width="1" x1="381.8604651162791" x2="381.8604651162791" y1="273.33333333333337" y2="540.0" /><line stroke="gray" stroke-width="1" x1="386.3953488372093" x2="386.3953488372093" y1="273.33333333333337" y2="540.0" /><line stroke="gray" stroke-width="1" x1="390.93023255813955" x2="390.93023255813955" y1="273.33333333333337" y2="540.0" /><line stroke="gray" stroke-width="1" x1="395.4651162790698" x2="395.4651162790698" y1="273.33333333333337" y2="540.0" /><line stroke="gray" stroke-width="1" x1="400.0" x2="400.0" y1="273.33333333333337" y2="540.0" /><line stroke="gray" stroke-width="1" x1="404.5348837209302" x2="404.5348837209302" y1="273.33333333333337" y2="540.0" /><line stroke="gray" stroke-width="1" x1="409.06976744186045" x2="409.06976744186045" y1="273.33333333333337" y2="540.0" /><line stroke="gray" stroke-width="1" x1="413.60465116279073" x2="413.60465116279073" y1="273.33333333333337" y2="540.0" /><line stroke="gray" stroke-width="1" x1="418.13953488372096" x2="418.13953488372096" y1="273.33333333333337" y2="540.0" /><line stroke="gray" stroke-width="1" x1="422.6744186046512" x2="422.6744186046512" y1="273.33333333333337" y2="540.0" /><line stroke="gray" stroke-width="1" x1="427.2093023255814" x2="427.2093023255814" y1="273.33333333333337" y2="540.0" /><line stroke="gray" stroke-width="1" x1="431.74418604651163" x2="431.74418604651163" y1="273.33333333333337" y2="540.0" /><line stroke="gray" stroke-width="1" x1="436.27906976744185" x2="436.27906976744185" y1="273.33333333333337" y2="540.0" /><line stroke="gray" stroke-width="1" x1="440.8139534883721" x2="440.8139534883721" y1="273.33333333333337" y2="540.0" /><line stroke="gray" stroke-width="1" x1="445.34883720930236" x2="445.34883720930236" y1="273.33333333333337" y2="540.0" /><line stroke="gray" stroke-width="1" x1="449.8837209302326" x2="449.8837209302326" y1="273.33333333333337" y2="540.0" /><line stroke="gray" stroke-width="1" x1="454.4186046511628" x2="454.4186046511628" y1="273.33333333333337" y2="540.0" /><line stroke="gray" stroke-width="1" x1="458.95348837209303" x2="458.95348837209303" y1="273.33333333333337" y2="540.0" /><line stroke="gray" stroke-width="1" x1="463.48837209302326" x2="463.48837209302326" y1="273.33333333333337" y2="540.0" /><line stroke="gray" stroke-width="1" x1="468.0232558139535" x2="468.0232558139535" y1="273.33333333333337" y2="540.0" /><line stroke="gray" stroke-width="1" x1="472.5581395348837" x2="472.5581395348837" y1="273.33333333333337" y2="540.0" /><line stroke="gray" stroke-width="1" x1="477.09302325581393" x2="477.09302325581393" y1="273.33333333333337" y2="540.0" /><line stroke="gray" stroke-width="1" x1="481.6279069767442" x2="481.6279069767442" y1="273.33333333333337" y2="540.0" /><line stroke="gray" stroke-width="1" x1="486.16279069767444" x2="486.16279069767444" y1="273.33333333333337" y2="540.0" /><line stroke="gray" stroke-width="1" x1="490.69767441860466" x2="490.69767441860466" y1="273.33333333333337" y2="540.0" /><line stroke="gray" stroke-width="1" x1="495.2325581395349" x2="495.2325581395349" y1="273.33333333333337" y2="540.0" /><line stroke="gray" stroke-width="1" x1="499.7674418604651" x2="499.7674418604651" y1="273.33333333333337" y2="540.0" /><line stroke="gray" stroke-width="1" x1="504.30232558139534" x2="504.30232558139534" y1="273.33333333333337" y2="540.0" /><line stroke="gray" stroke-width="1" x1="508.83720930232556" x2="508.83720930232556" y1="273.33333333333337" y2="540.0" /><line stroke="gray" stroke-width="1" x1="513.3720930232558" x2="513.3720930232558" y1="273.33333333333337" y2="540.0" /><line stroke="gray" stroke-width="1" x1="517.9069767441861" x2="517.9069767441861" y1="273.33333333333337" y2="540.0" /><line stroke="gray" stroke-width="1" x1="522.4418604651163" x2="522.4418604651163" y1="273.33333333333337" y2="540.0" /><line stroke="gray" stroke-width="1" x1="526.9767441860465" x2="526.9767441860465" y1="273.33333333333337" y2="540.0" /><line stroke="gray" stroke-width="1" x1="531.5116279069767" x2="531.5116279069767" y1="273.33333333333337" y2="540.0" /><line stroke="gray" stroke-width="1" x1="536.046511627907" x2="536.046511627907" y1="273.33333333333337" y2="540.0" /><line stroke="gray" stroke-width="1" x1="540.5813953488372" x2="540.5813953488372" y1="273.33333333333337" y2="540.0" /><line stroke="gray" stroke-width="1" x1="545.1162790697674" x2="545.1162790697674" y1="273.33333333333337" y2="540.0" /><line stroke="gray" stroke-width="1" x1="549.6511627906976" x2="549.6511627906976" y1="273.33333333333337" y2="540.0" /><line stroke="gray" stroke-width="1" x1="554.1860465116279" x2="554.1860465116279" y1="273.33333333333337" y2="540.0" /><line stroke="gray" stroke-width="1" x1="558.7209302325582" x2="558.7209302325582" y1="273.33333333333337" y2="540.0" /><line stroke="gray" stroke-width="1" x1="563.2558139534884" x2="563.2558139534884" y1="273.33333333333337" y2="540.0" /><line stroke="gray" stroke-width="1" x1="567.7906976744187" x2="567.7906976744187" y1="273.33333333333337" y2="540.0" /><line stroke="gray" stroke-width="1" x1="572.3255813953489" x2="572.3255813953489" y1="273.33333333333337" y2="540.0" /><line stroke="gray" stroke-width="1" x1="576.8604651162791" x2="576.8604651162791" y1="273.33333333333337" y2="540.0" /><line stroke="gray" stroke-width="1" x1="581.3953488372093" x2="581.3953488372093" y1="273.33333333333337" y2="540.0" /><line stroke="gray" stroke-width="1" x1="585.9302325581396" x2="585.9302325581396" y1="273.33333333333337" y2="540.0" /><line stroke="gray" stroke-width="1" x1="590.4651162790698" x2="590.4651162790698" y1="273.33333333333337" y2="540.0" /><line stroke="gray" stroke-width="1" x1="595.0" x2="595.0" y1="273.33333333333337" y2="540.0" /><line stroke="gray" stroke-width="1" x1="599.5348837209302" x2="599.5348837209302" y1="273.33333333333337" y2="540.0" /><line stroke="gray" stroke-width="1" x1="604.0697674418604" x2="604.0697674418604" y1="273.33333333333337" y2="540.0" /><line stroke="gray" stroke-width="1" x1="608.6046511627907" x2="608.6046511627907" y1="273.33333333333337" y2="540.0" /><line stroke="gray" stroke-width="1" x1="613.1395348837209" x2="613.1395348837209" y1="273.33333333333337" y2="540.0" /><line stroke="gray" stroke-width="1" x1="617.6744186046511" x2="617.6744186046511" y1="273.33333333333337" y2="540.0" /><line stroke="gray" stroke-width="1" x1="622.2093023255813" x2="622.2093023255813" y1="273.33333333333337" y2="540.0" /><line stroke="gray" stroke-width="1" x1="626.7441860465117" x2="626.7441860465117" y1="273.33333333333337" y2="540.0" /><line stroke="gray" stroke-width="1" x1="631.2790697674419" x2="631.2790697674419" y1="273.33333333333337" y2="540.0" /><line stroke="gray" stroke-width="1" x1="635.8139534883721" x2="635.8139534883721" y1="273.33333333333337" y2="540.0" /><line stroke="gray" stroke-width="1" x1="640.3488372093024" x2="640.3488372093024" y1="273.33333333333337" y2="540.0" /><line stroke="gray" stroke-width="1" x1="644.8837209302326" x2="644.8837209302326" y1="273.33333333333337" y2="540.0" /><line stroke="gray" stroke-width="1" x1="649.4186046511628" x2="649.4186046511628" y1="273.33333333333337" y2="540.0" /><line stroke="gray" stroke-width="1" x1="653.953488372093" x2="653.953488372093" y1="273.33333333333337" y2="540.0" /><line stroke="gray" stroke-width="1" x1="658.4883720930233" x2="658.4883720930233" y1="273.33333333333337" y2="540.0" /><line stroke="gray" stroke-width="1" x1="663.0232558139535" x2="663.0232558139535" y1="273.33333333333337" y2="540.0" /><line stroke="gray" stroke-width="1" x1="667.5581395348837" x2="667.5581395348837" y1="273.33333333333337" y2="540.0" /><line stroke="gray" stroke-width="1" x1="672.0930232558139" x2="672.0930232558139" y1="273.33333333333337" y2="540.0" /><line stroke="gray" stroke-width="1" x1="676.6279069767442" x2="676.6279069767442" y1="273.33333333333337" y2="540.0" /><line stroke="gray" stroke-width="1" x1="681.1627906976744" x2="681.1627906976744" y1="273.33333333333337" y2="540.0" /><line stroke="gray" stroke-width="1" x1="685.6976744186046" x2="685.6976744186046" y1="273.33333333333337" y2="540.0" /><line stroke="gray" stroke-width="1" x1="690.232558139535" x2="690.232558139535" y1="273.33333333333337" y2="540.0" /><line stroke="gray" stroke-width="1" x1="694.7674418604652" x2="694.7674418604652" y1="273.33333333333337" y2="540.0" /><line stroke="gray" stroke-width="1" x1="699.3023255813954" x2="699.3023255813954" y1="273.33333333333337" y2="540.0" /><line stroke="gray" stroke-width="1" x1="703.8372093023256" x2="703.8372093023256" y1="273.33333333333337" y2="540.0" /><line stroke="gray" stroke-width="1" x1="708.3720930232558" x2="708.3720930232558" y1="273.33333333333337" y2="540.0" /><line stroke="gray" stroke-width="1" x1="712.9069767441861" x2="712.9069767441861" y1="273.33333333333337" y2="540.0" /><line stroke="gray" stroke-width="1" x1="717.4418604651163" x2="717.4418604651163" y1="273.33333333333337" y2="540.0" /><line stroke="gray" stroke-width="1" x1="721.9767441860465" x2="721.9767441860465" y1="273.33333333333337" y2="540.0" /><line stroke="gray" stroke-width="1" x1="726.5116279069767" x2="726.5116279069767" y1="273.33333333333337" y2="540.0" /><line stroke="gray" stroke-width="1" x1="731.046511627907" x2="731.046511627907" y1="273.33333333333337" y2="540.0" /><line stroke="gray" stroke-width="1" x1="735.5813953488372" x2="735.5813953488372" y1="273.33333333333337" y2="540.0" /><line stroke="gray" stroke-width="1" x1="740.1162790697674" x2="740.1162790697674" y1="273.33333333333337" y2="540.0" /><line stroke="gray" stroke-width="1" x1="744.6511627906976" x2="744.6511627906976" y1="273.33333333333337" y2="540.0" /><line stroke="gray" stroke-width="1" x1="749.1860465116279" x2="749.1860465116279" y1="273.33333333333337" y2="540.0" /><line stroke="gray" stroke-width="1" x1="753.7209302325582" x2="753.7209302325582" y1="273.33333333333337" y2="540.0" /><line stroke="gray" stroke-width="1" x1="758.2558139534884" x2="758.2558139534884" y1="273.33333333333337" y2="540.0" /><line stroke="gray" stroke-width="1" x1="762.7906976744187" x2="762.7906976744187" y1="273.33333333333337" y2="540.0" /><line stroke="gray" stroke-width="1" x1="767.3255813953489" x2="767.3255813953489" y1="273.33333333333337" y2="540.0" /><line stroke="gray" stroke-width="1" x1="771.8604651162791" x2="771.8604651162791" y1="273.33333333333337" y2="540.0" /><line stroke="gray" stroke-width="1" x1="776.3953488372093" x2="776.3953488372093" y1="273.33333333333337" y2="540.0" /><line stroke="gray" stroke-width="1" x1="780.9302325581396" x2="780.9302325581396" y1="273.33333333333337" y2="540.0" /><line stroke="gray" stroke-width="1" x1="785.4651162790698" x2="785.4651162790698" y1="273.33333333333337" y2="540.0" /><line stroke="gray" stroke-width="1" x1="790.0" x2="790.0" y1="273.33333333333337" y2="540.0" /><rect fill="blue" height="21.333333333333336" width="4.534883720930233" x="513.3720930232558" y="276.00000000000006" /><text fill="white" font-family="Arial" font-size="10" text-anchor="start" x="513.3720930232558" y="289.66666666666674" /><rect fill="blue" height="21.333333333333336" width="4.534883720930233" x="513.3720930232558" y="276.00000000000006" /><text fill="white" font-family="Arial" font-size="10" text-anchor="start" x="513.3720930232558" y="289.66666666666674" /><rect fill="blue" height="21.333333333333336" width="4.534883720930233" x="513.3720930232558" y="276.00000000000006" /><text fill="white" font-family="Arial" font-size="10" text-anchor="start" x="513.3720930232558" y="289.66666666666674" /><rect fill="blue" height="21.333333333333336" width="4.534883720930233" x="513.3720930232558" y="276.00000000000006" /><text fill="white" font-family="Arial" font-size="10" text-anchor="start" x="513.3720930232558" y="289.66666666666674" /><rect fill="blue" height="21.333333333333336" width="4.534883720930233" x="513.3720930232558" y="276.00000000000006" /><text fill="white" font-family="Arial" font-size="10" text-anchor="start" x="513.3720930232558" y="289.66666666666674" /><rect fill="blue" height="21.333333333333336" width="4.534883720930233" x="513.3720930232558" y="276.00000000000006" /><text fill="white" font-family="Arial" font-size="10" text-anchor="start" x="513.3720930232558" y="289.66666666666674" /><rect fill="blue" height="21.333333333333336" width="4.534883720930233" x="513.3720930232558" y="276.00000000000006" /><text fill="white" font-family="Arial" font-size="10" text-anchor="start" x="513.3720930232558" y="289.66666666666674" /><rect fill="blue" height="21.333333333333336" width="4.534883720930233" x="513.3720930232558" y="276.00000000000006" /><text fill="white" font-family="Arial" font-size="10" text-anchor="start" x="513.3720930232558" y="289.66666666666674" /><rect fill="blue" height="21.333333333333336" width="4.534883720930233" x="513.3720930232558" y="276.00000000000006" /><text fill="white" font-family="Arial" font-size="10" text-anchor="start" x="513.3720930232558" y="289.66666666666674" /><rect fill="blue" height="21.333333333333336" width="4.534883720930233" x="513.3720930232558" y="276.00000000000006" /><text fill="white" font-family="Arial" font-size="10" text-anchor="start" x="513.3720930232558" y="289.66666666666674" /><rect fill="blue" height="21.333333333333336" width="4.534883720930233" x="513.3720930232558" y="276.00000000000006" /><text fill="white" font-family="Arial" font-size="10" text-anchor="start" x="513.3720930232558" y="289.66666666666674" /></svg>