<?xml version="1.0" encoding="utf-8" ?>
<svg baseProfile="full" height="600.0" version="1.1" width="800.0" xmlns="http://www.w3.org/2000/svg" xmlns:ev="http://www.w3.org/2001/xml-events" xmlns:xlink="http://www.w3.org/1999/xlink"><defs /><rect fill="white" height="600.0" stroke="black" stroke-width="2" width="800.0" x="0" y="0" /><rect fill="lightgray" height="50.0" stroke="black" stroke-width="1" width="780.0" x="10.0" y="10.0" /><rect fill="lightgray" height="50.0" stroke="black" stroke-width="1" width="780.0" x="10.0" y="540.0" /><rect fill="none" height="480.0" stroke="blue" stroke-dasharray="4" stroke-width="1" width="780.0" x="10.0" y="60.0" /><rect fill="none" height="480.0" stroke="red" stroke-width="1" width="780.0" x="10.0" y="60.0" /><rect fill="lightgrey" height="53.333333333333336" stroke="black" stroke-width="1" width="780.0" x="10.0" y="60.0" /><text dominant-baseline="middle" font-size="10" text-anchor="middle" x="400.0" y="86.66666666666667">2025</text><rect fill="lightgrey" height="53.333333333333336" stroke="black" stroke-width="1" width="780.0" x="10.0" y="113.33333333333334" /><line stroke="black" stroke-width="1" x1="169.07894736842107" x2="169.07894736842107" y1="113.33333333333334" y2="166.66666666666669" /><text dominant-baseline="middle" font-size="10" text-anchor="middle" x="89.53947368421053" y="140.0">Jan</text><line stroke="black" stroke-width="1" x1="312.7631578947369" x2="312.7631578947369" y1="113.33333333333334" y2="166.66666666666669" /><text dominant-baseline="middle" font-size="10" text-anchor="middle" x="240.92105263157896" y="140.0">Feb</text><line stroke="black" stroke-width="1" x1="471.8421052631579" x2="471.8421052631579" y1="113.33333333333334" y2="166.66666666666669" /><text dominant-baseline="middle" font-size="10" text-anchor="middle" x="392.3026315789474" y="140.0">Mar</text><line stroke="black" stroke-width="1" x1="625.7894736842105" x2="625.7894736842105" y1="113.33333333333334" y2="166.66666666666669" /><text dominant-baseline="middle" font-size="10" text-anchor="middle" x="548.8157894736842" y="140.0">Apr</text><line stroke="black" stroke-width="1" x1="784.8684210526316" x2="784.8684210526316" y1="113.33333333333334" y2="166.66666666666669" /><text dominant-baseline="middle" font-size="10" text-anchor="middle" x="705.328947368421" y="140.0">May</text><rect fill="lightgrey" height="53.333333333333336" stroke="black" stroke-width="1" width="780.0" x="10.0" y="166.66666666666669" /><line stroke="black" stroke-width="1" x1="35.65789473684211" x2="35.65789473684211" y1="166.66666666666669" y2="220.00000000000003" /><text dominant-baseline="middle" font-size="10" text-anchor="middle" x="22.828947368421055" y="193.33333333333334">01</text><line stroke="black" stroke-width="1" x1="71.57894736842105" x2="71.57894736842105" y1="166.66666666666669" y2="220.00000000000003" /><text dominant-baseline="middle" font-size="10" text-anchor="middle" x="53.61842105263158" y="193.33333333333334">02</text><line stroke="black" stroke-width="1" x1="107.5" x2="107.5" y1="166.66666666666669" y2="220.00000000000003" /><text dominant-baseline="middle" font-size="10" text-anchor="middle" x="89.53947368421052" y="193.33333333333334">03</text><line stroke="black" stroke-width="1" x1="143.42105263157896" x2="143.42105263157896" y1="166.66666666666669" y2="220.00000000000003" /><text dominant-baseline="middle" font-size="10" text-anchor="middle" x="125.46052631578948" y="193.33333333333334">04</text><line stroke="black" stroke-width="1" x1="179.3421052631579" x2="179.3421052631579" y1="166.66666666666669" y2="220.00000000000003" /><text dominant-baseline="middle" font-size="10" text-anchor="middle" x="161.38157894736844" y="193.33333333333334">05</text><line stroke="black" stroke-width="1" x1="215.26315789473685" x2="215.26315789473685" y1="166.66666666666669" y2="220.00000000000003" /><text dominant-baseline="middle" font-size="10" text-anchor="middle" x="197.30263157894737" y="193.33333333333334">06</text><line stroke="black" stroke-width="1" x1="251.1842105263158" x2="251.1842105263158" y1="166.66666666666669" y2="220.00000000000003" /><text dominant-baseline="middle" font-size="10" text-anchor="middle" x="233.22368421052633" y="193.33333333333334">07</text><line stroke="black" stroke-width="1" x1="287.10526315789474" x2="287.10526315789474" y1="166.66666666666669" y2="220.00000000000003" /><text dominant-baseline="middle" font-size="10" text-anchor="middle" x="269.14473684210526" y="193.33333333333334">08</text><line stroke="black" stroke-width="1" x1="323.0263157894737" x2="323.0263157894737" y1="166.66666666666669" y2="220.00000000000003" /><text dominant-baseline="middle" font-size="10" text-anchor="middle" x="305.0657894736842" y="193.33333333333334">09</text><line stroke="black" stroke-width="1" x1="358.94736842105266" x2="358.94736842105266" y1="166.66666666666669" y2="220.00000000000003" /><text dominant-baseline="middle" font-size="10" text-anchor="middle" x="340.9868421052632" y="193.33333333333334">10</text><line stroke="black" stroke-width="1" x1="394.8684210526316" x2="394.8684210526316" y1="166.66666666666669" y2="220.00000000000003" /><text dominant-baseline="middle" font-size="10" text-anchor="middle" x="376.90789473684214" y="193.33333333333334">11</text><line stroke="black" stroke-width="1" x1="430.7894736842105" x2="430.7894736842105" y1="166.66666666666669" y2="220.00000000000003" /><text dominant-baseline="middle" font-size="10" text-anchor="middle" x="412.82894736842104" y="193.33333333333334">12</text><line stroke="black" stroke-width="1" x1="466.7105263157895" x2="466.7105263157895" y1="166.66666666666669" y2="220.00000000000003" /><text dominant-baseline="middle" font-size="10" text-anchor="middle" x="448.75" y="193.33333333333334">13</text><line stroke="black" stroke-width="1" x1="502.63157894736844" x2="502.63157894736844" y1="166.66666666666669" y2="220.00000000000003" /><text dominant-baseline="middle" font-size="10" text-anchor="middle" x="484.67105263157896" y="193.33333333333334">14</text><line stroke="black" stroke-width="1" x1="538.5526315789474" x2="538.5526315789474" y1="166.66666666666669" y2="220.00000000000003" /><text dominant-baseline="middle" font-size="10" text-anchor="middle" x="520.5921052631579" y="193.33333333333334">15</text><line stroke="black" stroke-width="1" x1="574.4736842105264" x2="574.4736842105264" y1="166.66666666666669" y2="220.00000000000003" /><text dominant-baseline="middle" font-size="10" text-anchor="middle" x="556.5131578947369" y="193.33333333333334">16</text><line stroke="black" stroke-width="1" x1="610.3947368421053" x2="610.3947368421053" y1="166.66666666666669" y2="220.00000000000003" /><text dominant-baseline="middle" font-size="10" text-anchor="middle" x="592.4342105263158" y="193.33333333333334">17</text><line stroke="black" stroke-width="1" x1="646.3157894736843" x2="646.3157894736843" y1="166.66666666666669" y2="220.00000000000003" /><text dominant-baseline="middle" font-size="10" text-anchor="middle" x="628.3552631578948" y="193.33333333333334">18</text><line stroke="black" stroke-width="1" x1="682.2368421052632" x2="682.2368421052632" y1="166.66666666666669" y2="220.00000000000003" /><text dominant-baseline="middle" font-size="10" text-anchor="middle" x="664.2763157894738" y="193.33333333333334">19</text><line stroke="black" stroke-width="1" x1="718.1578947368421" x2="718.1578947368421" y1="166.66666666666669" y2="220.00000000000003" /><text dominant-baseline="middle" font-size="10" text-anchor="middle" x="700.1973684210527" y="193.33333333333334">20</text><line stroke="black" stroke-width="1" x1="754.078947368421" x2="754.078947368421" y1="166.66666666666669" y2="220.00000000000003" /><text dominant-baseline="middle" font-size="10" text-anchor="middle" x="736.1184210526316" y="193.33333333333334">21</text><line stroke="black" stroke-width="1" x1="790.0" x2="790.0" y1="166.66666666666669" y2="220.00000000000003" /><text dominant-baseline="middle" font-size="10" text-anchor="middle" x="772.0394736842105" y="193.33333333333334">22</text><rect fill="lightgrey" height="53.333333333333336" stroke="black" stroke-width="1" width="780.0" x="10.0" y="220.00000000000003" /><line stroke="black" stroke-width="1" x1="15.131578947368421" x2="15.131578947368421" y1="220.00000000000003" y2="273.33333333333337" /><line stroke="black" stroke-width="1" x1="20.263157894736842" x2="20.263157894736842" y1="220.00000000000003" y2="273.33333333333337" /><line stroke="black" stroke-width="1" x1="25.394736842105264" x2="25.394736842105264" y1="220.00000000000003" y2="273.33333333333337" /><line stroke="black" stroke-width="1" x1="30.526315789473685" x2="30.526315789473685" y1="220.00000000000003" y2="273.33333333333337" /><line stroke="black" stroke-width="1" x1="35.65789473684211" x2="35.65789473684211" y1="220.00000000000003" y2="273.33333333333337" /><line stroke="black" stroke-width="1" x1="40.78947368421053" x2="40.78947368421053" y1="220.00000000000003" y2="273.33333333333337" /><line stroke="black" stroke-width="1" x1="45.921052631578945" x2="45.921052631578945" y1="220.00000000000003" y2="273.33333333333337" /><line stroke="black" stroke-width="1" x1="51.05263157894737" x2="51.05263157894737" y1="220.00000000000003" y2="273.33333333333337" /><line stroke="black" stroke-width="1" x1="56.184210526315795" x2="56.184210526315795" y1="220.00000000000003" y2="273.33333333333337" /><line stroke="black" stroke-width="1" x1="61.31578947368421" x2="61.31578947368421" y1="220.00000000000003" y2="273.33333333333337" /><line stroke="black" stroke-width="1" x1="66.44736842105263" x2="66.44736842105263" y1="220.00000000000003" y2="273.33333333333337" /><line stroke="black" stroke-width="1" x1="71.57894736842105" x2="71.57894736842105" y1="220.00000000000003" y2="273.33333333333337" /><line stroke="black" stroke-width="1" x1="76.71052631578948" x2="76.71052631578948" y1="220.00000000000003" y2="273.33333333333337" /><line stroke="black" stroke-width="1" x1="81.84210526315789" x2="81.84210526315789" y1="220.00000000000003" y2="273.33333333333337" /><line stroke="black" stroke-width="1" x1="86.97368421052632" x2="86.97368421052632" y1="220.00000000000003" y2="273.33333333333337" /><line stroke="black" stroke-width="1" x1="92.10526315789474" x2="92.10526315789474" y1="220.00000000000003" y2="273.33333333333337" /><line stroke="black" stroke-width="1" x1="97.23684210526316" x2="97.23684210526316" y1="220.00000000000003" y2="273.33333333333337" /><line stroke="black" stroke-width="1" x1="102.36842105263159" x2="102.36842105263159" y1="220.00000000000003" y2="273.33333333333337" /><line stroke="black" stroke-width="1" x1="107.5" x2="107.5" y1="220.00000000000003" y2="273.33333333333337" /><line stroke="black" stroke-width="1" x1="112.63157894736842" x2="112.63157894736842" y1="220.00000000000003" y2="273.33333333333337" /><line stroke="black" stroke-width="1" x1="117.76315789473685" x2="117.76315789473685" y1="220.00000000000003" y2="273.33333333333337" /><line stroke="black" stroke-width="1" x1="122.89473684210526" x2="122.89473684210526" y1="220.00000000000003" y2="273.33333333333337" /><line stroke="black" stroke-width="1" x1="128.0263157894737" x2="128.0263157894737" y1="220.00000000000003" y2="273.33333333333337" /><line stroke="black" stroke-width="1" x1="133.1578947368421" x2="133.1578947368421" y1="220.00000000000003" y2="273.33333333333337" /><line stroke="black" stroke-width="1" x1="138.28947368421052" x2="138.28947368421052" y1="220.00000000000003" y2="273.33333333333337" /><line stroke="black" stroke-width="1" x1="143.42105263157896" x2="143.42105263157896" y1="220.00000000000003" y2="273.33333333333337" /><line stroke="black" stroke-width="1" x1="148.55263157894737" x2="148.55263157894737" y1="220.00000000000003" y2="273.33333333333337" /><line stroke="black" stroke-width="1" x1="153.68421052631578" x2="153.68421052631578" y1="220.00000000000003" y2="273.33333333333337" /><line stroke="black" stroke-width="1" x1="158.81578947368422" x2="158.81578947368422" y1="220.00000000000003" y2="273.33333333333337" /><line stroke="black" stroke-width="1" x1="163.94736842105263" x2="163.94736842105263" y1="220.00000000000003" y2="273.33333333333337" /><line stroke="black" stroke-width="1" x1="169.07894736842107" x2="169.07894736842107" y1="220.00000000000003" y2="273.33333333333337" /><line stroke="black" stroke-width="1" x1="174.21052631578948" x2="174.21052631578948" y1="220.00000000000003" y2="273.33333333333337" /><line stroke="black" stroke-width="1" x1="179.3421052631579" x2="179.3421052631579" y1="220.00000000000003" y2="273.33333333333337" /><line stroke="black" stroke-width="1" x1="184.47368421052633" x2="184.47368421052633" y1="220.00000000000003" y2="273.33333333333337" /><line stroke="black" stroke-width="1" x1="189.60526315789474" x2="189.60526315789474" y1="220.00000000000003" y2="273.33333333333337" /><line stroke="black" stroke-width="1" x1="194.73684210526318" x2="194.73684210526318" y1="220.00000000000003" y2="273.33333333333337" /><line stroke="black" stroke-width="1" x1="199.8684210526316" x2="199.8684210526316" y1="220.00000000000003" y2="273.33333333333337" /><line stroke="black" stroke-width="1" x1="205.0" x2="205.0" y1="220.00000000000003" y2="273.33333333333337" /><line stroke="black" stroke-width="1" x1="210.13157894736844" x2="210.13157894736844" y1="220.00000000000003" y2="273.33333333333337" /><line stroke="black" stroke-width="1" x1="215.26315789473685" x2="215.26315789473685" y1="220.00000000000003" y2="273.33333333333337" /><line stroke="black" stroke-width="1" x1="220.39473684210526" x2="220.39473684210526" y1="220.00000000000003" y2="273.33333333333337" /><line stroke="black" stroke-width="1" x1="225.5263157894737" x2="225.5263157894737" y1="220.00000000000003" y2="273.33333333333337" /><line stroke="black" stroke-width="1" x1="230.6578947368421" x2="230.6578947368421" y1="220.00000000000003" y2="273.33333333333337" /><line stroke="black" stroke-width="1" x1="235.78947368421052" x2="235.78947368421052" y1="220.00000000000003" y2="273.33333333333337" /><line stroke="black" stroke-width="1" x1="240.92105263157896" x2="240.92105263157896" y1="220.00000000000003" y2="273.33333333333337" /><line stroke="black" stroke-width="1" x1="246.05263157894737" x2="246.05263157894737" y1="220.00000000000003" y2="273.33333333333337" /><line stroke="black" stroke-width="1" x1="251.1842105263158" x2="251.1842105263158" y1="220.00000000000003" y2="273.33333333333337" /><line stroke="black" stroke-width="1" x1="256.3157894736842" x2="256.3157894736842" y1="220.00000000000003" y2="273.33333333333337" /><line stroke="black" stroke-width="1" x1="261.4473684210526" x2="261.4473684210526" y1="220.00000000000003" y2="273.33333333333337" /><line stroke="black" stroke-width="1" x1="266.57894736842104" x2="266.57894736842104" y1="220.00000000000003" y2="273.33333333333337" /><line stroke="black" stroke-width="1" x1="271.7105263157895" x2="271.7105263157895" y1="220.00000000000003" y2="273.33333333333337" /><line stroke="black" stroke-width="1" x1="276.8421052631579" x2="276.8421052631579" y1="220.00000000000003" y2="273.33333333333337" /><line stroke="black" stroke-width="1" x1="281.9736842105263" x2="281.9736842105263" y1="220.00000000000003" y2="273.33333333333337" /><line stroke="black" stroke-width="1" x1="287.10526315789474" x2="287.10526315789474" y1="220.00000000000003" y2="273.33333333333337" /><line stroke="black" stroke-width="1" x1="292.2368421052632" x2="292.2368421052632" y1="220.00000000000003" y2="273.33333333333337" /><line stroke="black" stroke-width="1" x1="297.36842105263156" x2="297.36842105263156" y1="220.00000000000003" y2="273.33333333333337" /><line stroke="black" stroke-width="1" x1="302.5" x2="302.5" y1="220.00000000000003" y2="273.33333333333337" /><line stroke="black" stroke-width="1" x1="307.63157894736844" x2="307.63157894736844" y1="220.00000000000003" y2="273.33333333333337" /><line stroke="black" stroke-width="1" x1="312.7631578947369" x2="312.7631578947369" y1="220.00000000000003" y2="273.33333333333337" /><line stroke="black" stroke-width="1" x1="317.89473684210526" x2="317.89473684210526" y1="220.00000000000003" y2="273.33333333333337" /><line stroke="black" stroke-width="1" x1="323.0263157894737" x2="323.0263157894737" y1="220.00000000000003" y2="273.33333333333337" /><line stroke="black" stroke-width="1" x1="328.15789473684214" x2="328.15789473684214" y1="220.00000000000003" y2="273.33333333333337" /><line stroke="black" stroke-width="1" x1="333.2894736842105" x2="333.2894736842105" y1="220.00000000000003" y2="273.33333333333337" /><line stroke="black" stroke-width="1" x1="338.42105263157896" x2="338.42105263157896" y1="220.00000000000003" y2="273.33333333333337" /><line stroke="black" stroke-width="1" x1="343.5526315789474" x2="343.5526315789474" y1="220.00000000000003" y2="273.33333333333337" /><line stroke="black" stroke-width="1" x1="348.6842105263158" x2="348.6842105263158" y1="220.00000000000003" y2="273.33333333333337" /><line stroke="black" stroke-width="1" x1="353.8157894736842" x2="353.8157894736842" y1="220.00000000000003" y2="273.33333333333337" /><line stroke="black" stroke-width="1" x1="358.94736842105266" x2="358.94736842105266" y1="220.00000000000003" y2="273.33333333333337" /><line stroke="black" stroke-width="1" x1="364.07894736842104" x2="364.07894736842104" y1="220.00000000000003" y2="273.33333333333337" /><line stroke="black" stroke-width="1" x1="369.2105263157895" x2="369.2105263157895" y1="220.00000000000003" y2="273.33333333333337" /><line stroke="black" stroke-width="1" x1="374.3421052631579" x2="374.3421052631579" y1="220.00000000000003" y2="273.33333333333337" /><line stroke="black" stroke-width="1" x1="379.47368421052636" x2="379.47368421052636" y1="220.00000000000003" y2="273.33333333333337" /><line stroke="black" stroke-width="1" x1="384.60526315789474" x2="384.60526315789474" y1="220.00000000000003" y2="273.33333333333337" /><line stroke="black" stroke-width="1" x1="389.7368421052632" x2="389.7368421052632" y1="220.00000000000003" y2="273.33333333333337" /><line stroke="black" stroke-width="1" x1="394.8684210526316" x2="394.8684210526316" y1="220.00000000000003" y2="273.33333333333337" /><line stroke="black" stroke-width="1" x1="400.0" x2="400.0" y1="220.00000000000003" y2="273.33333333333337" /><line stroke="black" stroke-width="1" x1="405.13157894736844" x2="405.13157894736844" y1="220.00000000000003" y2="273.33333333333337" /><line stroke="black" stroke-width="1" x1="410.2631578947369" x2="410.2631578947369" y1="220.00000000000003" y2="273.33333333333337" /><line stroke="black" stroke-width="1" x1="415.39473684210526" x2="415.39473684210526" y1="220.00000000000003" y2="273.33333333333337" /><line stroke="black" stroke-width="1" x1="420.5263157894737" x2="420.5263157894737" y1="220.00000000000003" y2="273.33333333333337" /><line stroke="black" stroke-width="1" x1="425.65789473684214" x2="425.65789473684214" y1="220.00000000000003" y2="273.33333333333337" /><line stroke="black" stroke-width="1" x1="430.7894736842105" x2="430.7894736842105" y1="220.00000000000003" y2="273.33333333333337" /><line stroke="black" stroke-width="1" x1="435.92105263157896" x2="435.92105263157896" y1="220.00000000000003" y2="273.33333333333337" /><line stroke="black" stroke-width="1" x1="441.0526315789474" x2="441.0526315789474" y1="220.00000000000003" y2="273.33333333333337" /><line stroke="black" stroke-width="1" x1="446.1842105263158" x2="446.1842105263158" y1="220.00000000000003" y2="273.33333333333337" /><line stroke="black" stroke-width="1" x1="451.3157894736842" x2="451.3157894736842" y1="220.00000000000003" y2="273.33333333333337" /><line stroke="black" stroke-width="1" x1="456.44736842105266" x2="456.44736842105266" y1="220.00000000000003" y2="273.33333333333337" /><line stroke="black" stroke-width="1" x1="461.57894736842104" x2="461.57894736842104" y1="220.00000000000003" y2="273.33333333333337" /><line stroke="black" stroke-width="1" x1="466.7105263157895" x2="466.7105263157895" y1="220.00000000000003" y2="273.33333333333337" /><line stroke="black" stroke-width="1" x1="471.8421052631579" x2="471.8421052631579" y1="220.00000000000003" y2="273.33333333333337" /><line stroke="black" stroke-width="1" x1="476.97368421052636" x2="476.97368421052636" y1="220.00000000000003" y2="273.33333333333337" /><line stroke="black" stroke-width="1" x1="482.10526315789474" x2="482.10526315789474" y1="220.00000000000003" y2="273.33333333333337" /><line stroke="black" stroke-width="1" x1="487.2368421052632" x2="487.2368421052632" y1="220.00000000000003" y2="273.33333333333337" /><line stroke="black" stroke-width="1" x1="492.3684210526316" x2="492.3684210526316" y1="220.00000000000003" y2="273.33333333333337" /><line stroke="black" stroke-width="1" x1="497.5" x2="497.5" y1="220.00000000000003" y2="273.33333333333337" /><line stroke="black" stroke-width="1" x1="502.63157894736844" x2="502.63157894736844" y1="220.00000000000003" y2="273.33333333333337" /><line stroke="black" stroke-width="1" x1="507.7631578947369" x2="507.7631578947369" y1="220.00000000000003" y2="273.33333333333337" /><line stroke="black" stroke-width="1" x1="512.8947368421052" x2="512.8947368421052" y1="220.00000000000003" y2="273.33333333333337" /><line stroke="black" stroke-width="1" x1="518.0263157894738" x2="518.0263157894738" y1="220.00000000000003" y2="273.33333333333337" /><line stroke="black" stroke-width="1" x1="523.1578947368421" x2="523.1578947368421" y1="220.00000000000003" y2="273.33333333333337" /><line stroke="black" stroke-width="1" x1="528.2894736842105" x2="528.2894736842105" y1="220.00000000000003" y2="273.33333333333337" /><line stroke="black" stroke-width="1" x1="533.421052631579" x2="533.421052631579" y1="220.00000000000003" y2="273.33333333333337" /><line stroke="black" stroke-width="1" x1="538.5526315789474" x2="538.5526315789474" y1="220.00000000000003" y2="273.33333333333337" /><line stroke="black" stroke-width="1" x1="543.6842105263158" x2="543.6842105263158" y1="220.00000000000003" y2="273.33333333333337" /><line stroke="black" stroke-width="1" x1="548.8157894736843" x2="548.8157894736843" y1="220.00000000000003" y2="273.33333333333337" /><line stroke="black" stroke-width="1" x1="553.9473684210526" x2="553.9473684210526" y1="220.00000000000003" y2="273.33333333333337" /><line stroke="black" stroke-width="1" x1="559.078947368421" x2="559.078947368421" y1="220.00000000000003" y2="273.33333333333337" /><line stroke="black" stroke-width="1" x1="564.2105263157895" x2="564.2105263157895" y1="220.00000000000003" y2="273.33333333333337" /><line stroke="black" stroke-width="1" x1="569.3421052631579" x2="569.3421052631579" y1="220.00000000000003" y2="273.33333333333337" /><line stroke="black" stroke-width="1" x1="574.4736842105264" x2="574.4736842105264" y1="220.00000000000003" y2="273.33333333333337" /><line stroke="black" stroke-width="1" x1="579.6052631578948" x2="579.6052631578948" y1="220.00000000000003" y2="273.33333333333337" /><line stroke="black" stroke-width="1" x1="584.7368421052631" x2="584.7368421052631" y1="220.00000000000003" y2="273.33333333333337" /><line stroke="black" stroke-width="1" x1="589.8684210526316" x2="589.8684210526316" y1="220.00000000000003" y2="273.33333333333337" /><line stroke="black" stroke-width="1" x1="595.0" x2="595.0" y1="220.00000000000003" y2="273.33333333333337" /><line stroke="black" stroke-width="1" x1="600.1315789473684" x2="600.1315789473684" y1="220.00000000000003" y2="273.33333333333337" /><line stroke="black" stroke-width="1" x1="605.2631578947369" x2="605.2631578947369" y1="220.00000000000003" y2="273.33333333333337" /><line stroke="black" stroke-width="1" x1="610.3947368421053" x2="610.3947368421053" y1="220.00000000000003" y2="273.33333333333337" /><line stroke="black" stroke-width="1" x1="615.5263157894738" x2="615.5263157894738" y1="220.00000000000003" y2="273.33333333333337" /><line stroke="black" stroke-width="1" x1="620.6578947368421" x2="620.6578947368421" y1="220.00000000000003" y2="273.33333333333337" /><line stroke="black" stroke-width="1" x1="625.7894736842105" x2="625.7894736842105" y1="220.00000000000003" y2="273.33333333333337" /><line stroke="black" stroke-width="1" x1="630.921052631579" x2="630.921052631579" y1="220.00000000000003" y2="273.33333333333337" /><line stroke="black" stroke-width="1" x1="636.0526315789474" x2="636.0526315789474" y1="220.00000000000003" y2="273.33333333333337" /><line stroke="black" stroke-width="1" x1="641.1842105263158" x2="641.1842105263158" y1="220.00000000000003" y2="273.33333333333337" /><line stroke="black" stroke-width="1" x1="646.3157894736843" x2="646.3157894736843" y1="220.00000000000003" y2="273.33333333333337" /><line stroke="black" stroke-width="1" x1="651.4473684210526" x2="651.4473684210526" y1="220.00000000000003" y2="273.33333333333337" /><line stroke="black" stroke-width="1" x1="656.578947368421" x2="656.578947368421" y1="220.00000000000003" y2="273.33333333333337" /><line stroke="black" stroke-width="1" x1="661.7105263157895" x2="661.7105263157895" y1="220.00000000000003" y2="273.33333333333337" /><line stroke="black" stroke-width="1" x1="666.8421052631579" x2="666.8421052631579" y1="220.00000000000003" y2="273.33333333333337" /><line stroke="black" stroke-width="1" x1="671.9736842105264" x2="671.9736842105264" y1="220.00000000000003" y2="273.33333333333337" /><line stroke="black" stroke-width="1" x1="677.1052631578948" x2="677.1052631578948" y1="220.00000000000003" y2="273.33333333333337" /><line stroke="black" stroke-width="1" x1="682.2368421052632" x2="682.2368421052632" y1="220.00000000000003" y2="273.33333333333337" /><line stroke="black" stroke-width="1" x1="687.3684210526316" x2="687.3684210526316" y1="220.00000000000003" y2="273.33333333333337" /><line stroke="black" stroke-width="1" x1="692.5" x2="692.5" y1="220.00000000000003" y2="273.33333333333337" /><line stroke="black" stroke-width="1" x1="697.6315789473684" x2="697.6315789473684" y1="220.00000000000003" y2="273.33333333333337" /><line stroke="black" stroke-width="1" x1="702.7631578947369" x2="702.7631578947369" y1="220.00000000000003" y2="273.33333333333337" /><line stroke="black" stroke-width="1" x1="707.8947368421053" x2="707.8947368421053" y1="220.00000000000003" y2="273.33333333333337" /><line stroke="black" stroke-width="1" x1="713.0263157894738" x2="713.0263157894738" y1="220.00000000000003" y2="273.33333333333337" /><line stroke="black" stroke-width="1" x1="718.1578947368421" x2="718.1578947368421" y1="220.00000000000003" y2="273.33333333333337" /><line stroke="black" stroke-width="1" x1="723.2894736842105" x2="723.2894736842105" y1="220.00000000000003" y2="273.33333333333337" /><line stroke="black" stroke-width="1" x1="728.421052631579" x2="728.421052631579" y1="220.00000000000003" y2="273.33333333333337" /><line stroke="black" stroke-width="1" x1="733.5526315789474" x2="733.5526315789474" y1="220.00000000000003" y2="273.33333333333337" /><line stroke="black" stroke-width="1" x1="738.6842105263158" x2="738.6842105263158" y1="220.00000000000003" y2="273.33333333333337" /><line stroke="black" stroke-width="1" x1="743.8157894736843" x2="743.8157894736843" y1="220.00000000000003" y2="273.33333333333337" /><line stroke="black" stroke-width="1" x1="748.9473684210527" x2="748.9473684210527" y1="220.00000000000003" y2="273.33333333333337" /><line stroke="black" stroke-width="1" x1="754.078947368421" x2="754.078947368421" y1="220.00000000000003" y2="273.33333333333337" /><line stroke="black" stroke-width="1" x1="759.2105263157895" x2="759.2105263157895" y1="220.00000000000003" y2="273.33333333333337" /><line stroke="black" stroke-width="1" x1="764.3421052631579" x2="764.3421052631579" y1="220.00000000000003" y2="273.33333333333337" /><line stroke="black" stroke-width="1" x1="769.4736842105264" x2="769.4736842105264" y1="220.00000000000003" y2="273.33333333333337" /><line stroke="black" stroke-width="1" x1="774.6052631578948" x2="774.6052631578948" y1="220.00000000000003" y2="273.33333333333337" /><line stroke="black" stroke-width="1" x1="779.7368421052632" x2="779.7368421052632" y1="220.00000000000003" y2="273.33333333333337" /><line stroke="black" stroke-width="1" x1="784.8684210526316" x2="784.8684210526316" y1="220.00000000000003" y2="273.33333333333337" /><line stroke="black" stroke-width="1" x1="790.0" x2="790.0" y1="220.00000000000003" y2="273.33333333333337" /><rect fill="none" height="266.6666666666667" stroke="purple" stroke-width="1" width="780.0" x="10.0" y="273.33333333333337" /><line stroke="gray" stroke-width="1" x1="10.0" x2="790.0" y1="273.33333333333337" y2="273.33333333333337" /><line stroke="gray" stroke-width="1" x1="10.0" x2="790.0" y1="300.00000000000006" y2="300.00000000000006" /><line stroke="gray" stroke-width="1" x1="10.0" x2="790.0" y1="326.6666666666667" y2="326.6666666666667" /><line stroke="gray" stroke-width="1" x1="10.0" x2="790.0" y1="353.33333333333337" y2="353.33333333333337" /><line stroke="gray" stroke-width="1" x1="10.0" x2="790.0" y1="380.00000000000006" y2="380.00000000000006" /><line stroke="gray" stroke-width="1" x1="10.0" x2="790.0" y1="406.66666666666674" y2="406.66666666666674" /><line stroke="gray" stroke-width="1" x1="10.0" x2="790.0" y1="433.33333333333337" y2="433.33333333333337" /><line stroke="gray" stroke-width="1" x1="10.0" x2="790.0" y1="460.00000000000006" y2="460.00000000000006" /><line stroke="gray" stroke-width="1" x1="10.0" x2="790.0" y1="486.66666666666674" y2="486.66666666666674" /><line stroke="gray" stroke-width="1" x1="10.0" x2="790.0" y1="513.3333333333334" y2="513.3333333333334" /><line stroke="gray" stroke-width="1" x1="10.0" x2="790.0" y1="540.0" y2="540.0" /><line stroke="gray" stroke-width="1" x1="169.07894736842107" x2="169.07894736842107" y1="273.33333333333337" y2="540.0" /><line stroke="gray" stroke-width="1" x1="312.7631578947369" x2="312.7631578947369" y1="273.33333333333337" y2="540.0" /><line stroke="gray" stroke-width="1" x1="471.8421052631579" x2="471.8421052631579" y1="273.33333333333337" y2="540.0" /><line stroke="gray" stroke-width="1" x1="625.7894736842105" x2="625.7894736842105" y1="273.33333333333337" y2="540.0" /><line stroke="gray" stroke-width="1" x1="784.8684210526316" x2="784.8684210526316" y1="273.33333333333337" y2="540.0" /><line stroke="gray" stroke-width="1" x1="35.65789473684211" x2="35.65789473684211" y1="273.33333333333337" y2="540.0" /><line stroke="gray" stroke-width="1" x1="71.57894736842105" x2="71.57894736842105" y1="273.33333333333337" y2="540.0" /><line stroke="gray" stroke-width="1" x1="107.5" x2="107.5" y1="273.33333333333337" y2="540.0" /><line stroke="gray" stroke-width="1" x1="143.42105263157896" x2="143.42105263157896" y1="273.33333333333337" y2="540.0" /><line stroke="gray" stroke-width="1" x1="179.3421052631579" x2="179.3421052631579" y1="273.33333333333337" y2="540.0" /><line stroke="gray" stroke-width="1" x1="215.26315789473685" x2="215.26315789473685" y1="273.33333333333337" y2="540.0" /><line stroke="gray" stroke-width="1" x1="251.1842105263158" x2="251.1842105263158" y1="273.33333333333337" y2="540.0" /><line stroke="gray" stroke-width="1" x1="287.10526315789474" x2="287.10526315789474" y1="273.33333333333337" y2="540.0" /><line stroke="gray" stroke-width="1" x1="323.0263157894737" x2="323.0263157894737" y1="273.33333333333337" y2="540.0" /><line stroke="gray" stroke-width="1" x1="358.94736842105266" x2="358.94736842105266" y1="273.33333333333337" y2="540.0" /><line stroke="gray" stroke-width="1" x1="394.8684210526316" x2="394.8684210526316" y1="273.33333333333337" y2="540.0" /><line stroke="gray" stroke-width="1" x1="430.7894736842105" x2="430.7894736842105" y1="273.33333333333337" y2="540.0" /><line stroke="gray" stroke-width="1" x1="466.7105263157895" x2="466.7105263157895" y1="273.33333333333337" y2="540.0" /><line stroke="gray" stroke-width="1" x1="502.63157894736844" x2="502.63157894736844" y1="273.33333333333337" y2="540.0" /><line stroke="gray" stroke-width="1" x1="538.5526315789474" x2="538.5526315789474" y1="273.33333333333337" y2="540.0" /><line stroke="gray" stroke-width="1" x1="574.4736842105264" x2="574.4736842105264" y1="273.33333333333337" y2="540.0" /><line stroke="gray" stroke-width="1" x1="610.3947368421053" x2="610.3947368421053" y1="273.33333333333337" y2="540.0" /><line stroke="gray" stroke-width="1" x1="646.3157894736843" x2="646.3157894736843" y1="273.33333333333337" y2="540.0" /><line stroke="gray" stroke-width="1" x1="682.2368421052632" x2="682.2368421052632" y1="273.33333333333337" y2="540.0" /><line stroke="gray" stroke-width="1" x1="718.1578947368421" x2="718.1578947368421" y1="273.33333333333337" y2="540.0" /><line stroke="gray" stroke-width="1" x1="754.078947368421" x2="754.078947368421" y1="273.33333333333337" y2="540.0" /><line stroke="gray" stroke-width="1" x1="790.0" x2="790.0" y1="273.33333333333337" y2="540.0" /><line stroke="gray" stroke-width="1" x1="15.131578947368421" x2="15.131578947368421" y1="273.33333333333337" y2="540.0" /><line stroke="gray" stroke-width="1" x1="20.263157894736842" x2="20.263157894736842" y1="273.33333333333337" y2="540.0" /><line stroke="gray" stroke-width="1" x1="25.394736842105264" x2="25.394736842105264" y1="273.33333333333337" y2="540.0" /><line stroke="gray" stroke-width="1" x1="30.526315789473685" x2="30.526315789473685" y1="273.33333333333337" y2="540.0" /><line stroke="gray" stroke-width="1" x1="35.65789473684211" x2="35.65789473684211" y1="273.33333333333337" y2="540.0" /><line stroke="gray" stroke-width="1" x1="40.78947368421053" x2="40.78947368421053" y1="273.33333333333337" y2="540.0" /><line stroke="gray" stroke-width="1" x1="45.921052631578945" x2="45.921052631578945" y1="273.33333333333337" y2="540.0" /><line stroke="gray" stroke-width="1" x1="51.05263157894737" x2="51.05263157894737" y1="273.33333333333337" y2="540.0" /><line stroke="gray" stroke-width="1" x1="56.184210526315795" x2="56.184210526315795" y1="273.33333333333337" y2="540.0" /><line stroke="gray" stroke-width="1" x1="61.31578947368421" x2="61.31578947368421" y1="273.33333333333337" y2="540.0" /><line stroke="gray" stroke-width="1" x1="66.44736842105263" x2="66.44736842105263" y1="273.33333333333337" y2="540.0" /><line stroke="gray" stroke-width="1" x1="71.57894736842105" x2="71.57894736842105" y1="273.33333333333337" y2="540.0" /><line stroke="gray" stroke-width="1" x1="76.71052631578948" x2="76.71052631578948" y1="273.33333333333337" y2="540.0" /><line stroke="gray" stroke-width="1" x1="81.84210526315789" x2="81.84210526315789" y1="273.33333333333337" y2="540.0" /><line stroke="gray" stroke-width="1" x1="86.97368421052632" x2="86.97368421052632" y1="273.33333333333337" y2="540.0" /><line stroke="gray" stroke-width="1" x1="92.10526315789474" x2="92.10526315789474" y1="273.33333333333337" y2="540.0" /><line stroke="gray" stroke-width="1" x1="97.23684210526316" x2="97.23684210526316" y1="273.33333333333337" y2="540.0" /><line stroke="gray" stroke-width="1" x1="102.36842105263159" x2="102.36842105263159" y1="273.33333333333337" y2="540.0" /><line stroke="gray" stroke-width="1" x1="107.5" x2="107.5" y1="273.33333333333337" y2="540.0" /><line stroke="gray" stroke-width="1" x1="112.63157894736842" x2="112.63157894736842" y1="273.33333333333337" y2="540.0" /><line stroke="gray" stroke-width="1" x1="117.76315789473685" x2="117.76315789473685" y1="273.33333333333337" y2="540.0" /><line stroke="gray" stroke-width="1" x1="122.89473684210526" x2="122.89473684210526" y1="273.33333333333337" y2="540.0" /><line stroke="gray" stroke-width="1" x1="128.0263157894737" x2="128.0263157894737" y1="273.33333333333337" y2="540.0" /><line stroke="gray" stroke-width="1" x1="133.1578947368421" x2="133.1578947368421" y1="273.33333333333337" y2="540.0" /><line stroke="gray" stroke-width="1" x1="138.28947368421052" x2="138.28947368421052" y1="273.33333333333337" y2="540.0" /><line stroke="gray" stroke-width="1" x1="143.42105263157896" x2="143.42105263157896" y1="273.33333333333337" y2="540.0" /><line stroke="gray" stroke-width="1" x1="148.55263157894737" x2="148.55263157894737" y1="273.33333333333337" y2="540.0" /><line stroke="gray" stroke-width="1" x1="153.68421052631578" x2="153.68421052631578" y1="273.33333333333337" y2="540.0" /><line stroke="gray" stroke-width="1" x1="158.81578947368422" x2="158.81578947368422" y1="273.33333333333337" y2="540.0" /><line stroke="gray" stroke-width="1" x1="163.94736842105263" x2="163.94736842105263" y1="273.33333333333337" y2="540.0" /><line stroke="gray" stroke-width="1" x1="169.07894736842107" x2="169.07894736842107" y1="273.33333333333337" y2="540.0" /><line stroke="gray" stroke-width="1" x1="174.21052631578948" x2="174.21052631578948" y1="273.33333333333337" y2="540.0" /><line stroke="gray" stroke-width="1" x1="179.3421052631579" x2="179.3421052631579" y1="273.33333333333337" y2="540.0" /><line stroke="gray" stroke-width="1" x1="184.47368421052633" x2="184.47368421052633" y1="273.33333333333337" y2="540.0" /><line stroke="gray" stroke-width="1" x1="189.60526315789474" x2="189.60526315789474" y1="273.33333333333337" y2="540.0" /><line stroke="gray" stroke-width="1" x1="194.73684210526318" x2="194.73684210526318" y1="273.33333333333337" y2="540.0" /><line stroke="gray" stroke-width="1" x1="199.8684210526316" x2="199.8684210526316" y1="273.33333333333337" y2="540.0" /><line stroke="gray" stroke-width="1" x1="205.0" x2="205.0" y1="273.33333333333337" y2="540.0" /><line stroke="gray" stroke-width="1" x1="210.13157894736844" x2="210.13157894736844" y1="273.33333333333337" y2="540.0" /><line stroke="gray" stroke-width="1" x1="215.26315789473685" x2="215.26315789473685" y1="273.33333333333337" y2="540.0" /><line stroke="gray" stroke-width="1" x1="220.39473684210526" x2="220.39473684210526" y1="273.33333333333337" y2="540.0" /><line stroke="gray" stroke-width="1" x1="225.5263157894737" x2="225.5263157894737" y1="273.33333333333337" y2="540.0" /><line stroke="gray" stroke-width="1" x1="230.6578947368421" x2="230.6578947368421" y1="273.33333333333337" y2="540.0" /><line stroke="gray" stroke-width="1" x1="235.78947368421052" x2="235.78947368421052" y1="273.33333333333337" y2="540.0" /><line stroke="gray" stroke-width="1" x1="240.92105263157896" x2="240.92105263157896" y1="273.33333333333337" y2="540.0" /><line stroke="gray" stroke-width="1" x1="246.05263157894737" x2="246.05263157894737" y1="273.33333333333337" y2="540.0" /><line stroke="gray" stroke-width="1" x1="251.1842105263158" x2="251.1842105263158" y1="273.33333333333337" y2="540.0" /><line stroke="gray" stroke-width="1" x1="256.3157894736842" x2="256.3157894736842" y1="273.33333333333337" y2="540.0" /><line stroke="gray" stroke-width="1" x1="261.4473684210526" x2="261.4473684210526" y1="273.33333333333337" y2="540.0" /><line stroke="gray" stroke-width="1" x1="266.57894736842104" x2="266.57894736842104" y1="273.33333333333337" y2="540.0" /><line stroke="gray" stroke-width="1" x1="271.7105263157895" x2="271.7105263157895" y1="273.33333333333337" y2="540.0" /><line stroke="gray" stroke-width="1" x1="276.8421052631579" x2="276.8421052631579" y1="273.33333333333337" y2="540.0" /><line stroke="gray" stroke-width="1" x1="281.9736842105263" x2="281.9736842105263" y1="273.33333333333337" y2="540.0" /><line stroke="gray" stroke-width="1" x1="287.10526315789474" x2="287.10526315789474" y1="273.33333333333337" y2="540.0" /><line stroke="gray" stroke-width="1" x1="292.2368421052632" x2="292.2368421052632" y1="273.33333333333337" y2="540.0" /><line stroke="gray" stroke-width="1" x1="297.36842105263156" x2="297.36842105263156" y1="273.33333333333337" y2="540.0" /><line stroke="gray" stroke-width="1" x1="302.5" x2="302.5" y1="273.33333333333337" y2="540.0" /><line stroke="gray" stroke-width="1" x1="307.63157894736844" x2="307.63157894736844" y1="273.33333333333337" y2="540.0" /><line stroke="gray" stroke-width="1" x1="312.7631578947369" x2="312.7631578947369" y1="273.33333333333337" y2="540.0" /><line stroke="gray" stroke-width="1" x1="317.89473684210526" x2="317.89473684210526" y1="273.33333333333337" y2="540.0" /><line stroke="gray" stroke-width="1" x1="323.0263157894737" x2="323.0263157894737" y1="273.33333333333337" y2="540.0" /><line stroke="gray" stroke-width="1" x1="328.15789473684214" x2="328.15789473684214" y1="273.33333333333337" y2="540.0" /><line stroke="gray" stroke-width="1" x1="333.2894736842105" x2="333.2894736842105" y1="273.33333333333337" y2="540.0" /><line stroke="gray" stroke-width="1" x1="338.42105263157896" x2="338.42105263157896" y1="273.33333333333337" y2="540.0" /><line stroke="gray" stroke-width="1" x1="343.5526315789474" x2="343.5526315789474" y1="273.33333333333337" y2="540.0" /><line stroke="gray" stroke-width="1" x1="348.6842105263158" x2="348.6842105263158" y1="273.33333333333337" y2="540.0" /><line stroke="gray" stroke-width="1" x1="353.8157894736842" x2="353.8157894736842" y1="273.33333333333337" y2="540.0" /><line stroke="gray" stroke-width="1" x1="358.94736842105266" x2="358.94736842105266" y1="273.33333333333337" y2="540.0" /><line stroke="gray" stroke-width="1" x1="364.07894736842104" x2="364.07894736842104" y1="273.33333333333337" y2="540.0" /><line stroke="gray" stroke-width="1" x1="369.2105263157895" x2="369.2105263157895" y1="273.33333333333337" y2="540.0" /><line stroke="gray" stroke-width="1" x1="374.3421052631579" x2="374.3421052631579" y1="273.33333333333337" y2="540.0" /><line stroke="gray" stroke-width="1" x1="379.47368421052636" x2="379.47368421052636" y1="273.33333333333337" y2="540.0" /><line stroke="gray" stroke-width="1" x1="384.60526315789474" x2="384.60526315789474" y1="273.33333333333337" y2="540.0" /><line stroke="gray" stroke-width="1" x1="389.7368421052632" x2="389.7368421052632" y1="273.33333333333337" y2="540.0" /><line stroke="gray" stroke-width="1" x1="394.8684210526316" x2="394.8684210526316" y1="273.33333333333337" y2="540.0" /><line stroke="gray" stroke-width="1" x1="400.0" x2="400.0" y1="273.33333333333337" y2="540.0" /><line stroke="gray" stroke-width="1" x1="405.13157894736844" x2="405.13157894736844" y1="273.33333333333337" y2="540.0" /><line stroke="gray" stroke-width="1" x1="410.2631578947369" x2="410.2631578947369" y1="273.33333333333337" y2="540.0" /><line stroke="gray" stroke-width="1" x1="415.39473684210526" x2="415.39473684210526" y1="273.33333333333337" y2="540.0" /><line stroke="gray" stroke-width="1" x1="420.5263157894737" x2="420.5263157894737" y1="273.33333333333337" y2="540.0" /><line stroke="gray" stroke-width="1" x1="425.65789473684214" x2="425.65789473684214" y1="273.33333333333337" y2="540.0" /><line stroke="gray" stroke-width="1" x1="430.7894736842105" x2="430.7894736842105" y1="273.33333333333337" y2="540.0" /><line stroke="gray" stroke-width="1" x1="435.92105263157896" x2="435.92105263157896" y1="273.33333333333337" y2="540.0" /><line stroke="gray" stroke-width="1" x1="441.0526315789474" x2="441.0526315789474" y1="273.33333333333337" y2="540.0" /><line stroke="gray" stroke-width="1" x1="446.1842105263158" x2="446.1842105263158" y1="273.33333333333337" y2="540.0" /><line stroke="gray" stroke-width="1" x1="451.3157894736842" x2="451.3157894736842" y1="273.33333333333337" y2="540.0" /><line stroke="gray" stroke-width="1" x1="456.44736842105266" x2="456.44736842105266" y1="273.33333333333337" y2="540.0" /><line stroke="gray" stroke-width="1" x1="461.57894736842104" x2="461.57894736842104" y1="273.33333333333337" y2="540.0" /><line stroke="gray" stroke-width="1" x1="466.7105263157895" x2="466.7105263157895" y1="273.33333333333337" y2="540.0" /><line stroke="gray" stroke-width="1" x1="471.8421052631579" x2="471.8421052631579" y1="273.33333333333337" y2="540.0" /><line stroke="gray" stroke-width="1" x1="476.97368421052636" x2="476.97368421052636" y1="273.33333333333337" y2="540.0" /><line stroke="gray" stroke-width="1" x1="482.10526315789474" x2="482.10526315789474" y1="273.33333333333337" y2="540.0" /><line stroke="gray" stroke-width="1" x1="487.2368421052632" x2="487.2368421052632" y1="273.33333333333337" y2="540.0" /><line stroke="gray" stroke-width="1" x1="492.3684210526316" x2="492.3684210526316" y1="273.33333333333337" y2="540.0" /><line stroke="gray" stroke-width="1" x1="497.5" x2="497.5" y1="273.33333333333337" y2="540.0" /><line stroke="gray" stroke-width="1" x1="502.63157894736844" x2="502.63157894736844" y1="273.33333333333337" y2="540.0" /><line stroke="gray" stroke-width="1" x1="507.7631578947369" x2="507.7631578947369" y1="273.33333333333337" y2="540.0" /><line stroke="gray" stroke-width="1" x1="512.8947368421052" x2="512.8947368421052" y1="273.33333333333337" y2="540.0" /><line stroke="gray" stroke-width="1" x1="518.0263157894738" x2="518.0263157894738" y1="273.33333333333337" y2="540.0" /><line stroke="gray" stroke-width="1" x1="523.1578947368421" x2="523.1578947368421" y1="273.33333333333337" y2="540.0" /><line stroke="gray" stroke-width="1" x1="528.2894736842105" x2="528.2894736842105" y1="273.33333333333337" y2="540.0" /><line stroke="gray" stroke-width="1" x1="533.421052631579" x2="533.421052631579" y1="273.33333333333337" y2="540.0" /><line stroke="gray" stroke-width="1" x1="538.5526315789474" x2="538.5526315789474" y1="273.33333333333337" y2="540.0" /><line stroke="gray" stroke-width="1" x1="543.6842105263158" x2="543.6842105263158" y1="273.33333333333337" y2="540.0" /><line stroke="gray" stroke-width="1" x1="548.8157894736843" x2="548.8157894736843" y1="273.33333333333337" y2="540.0" /><line stroke="gray" stroke-width="1" x1="553.9473684210526" x2="553.9473684210526" y1="273.33333333333337" y2="540.0" /><line stroke="gray" stroke-width="1" x1="559.078947368421" x2="559.078947368421" y1="273.33333333333337" y2="540.0" /><line stroke="gray" stroke-width="1" x1="564.2105263157895" x2="564.2105263157895" y1="273.33333333333337" y2="540.0" /><line stroke="gray" stroke-width="1" x1="569.3421052631579" x2="569.3421052631579" y1="273.33333333333337" y2="540.0" /><line stroke="gray" stroke-width="1" x1="574.4736842105264" x2="574.4736842105264" y1="273.33333333333337" y2="540.0" /><line stroke="gray" stroke-width="1" x1="579.6052631578948" x2="579.6052631578948" y1="273.33333333333337" y2="540.0" /><line stroke="gray" stroke-width="1" x1="584.7368421052631" x2="584.7368421052631" y1="273.33333333333337" y2="540.0" /><line stroke="gray" stroke-width="1" x1="589.8684210526316" x2="589.8684210526316" y1="273.33333333333337" y2="540.0" /><line stroke="gray" stroke-width="1" x1="595.0" x2="595.0" y1="273.33333333333337" y2="540.0" /><line stroke="gray" stroke-width="1" x1="600.1315789473684" x2="600.1315789473684" y1="273.33333333333337" y2="540.0" /><line stroke="gray" stroke-width="1" x1="605.2631578947369" x2="605.2631578947369" y1="273.33333333333337" y2="540.0" /><line stroke="gray" stroke-width="1" x1="610.3947368421053" x2="610.3947368421053" y1="273.33333333333337" y2="540.0" /><line stroke="gray" stroke-width="1" x1="615.5263157894738" x2="615.5263157894738" y1="273.33333333333337" y2="540.0" /><line stroke="gray" stroke-width="1" x1="620.6578947368421" x2="620.6578947368421" y1="273.33333333333337" y2="540.0" /><line stroke="gray" stroke-width="1" x1="625.7894736842105" x2="625.7894736842105" y1="273.33333333333337" y2="540.0" /><line stroke="gray" stroke-width="1" x1="630.921052631579" x2="630.921052631579" y1="273.33333333333337" y2="540.0" /><line stroke="gray" stroke-width="1" x1="636.0526315789474" x2="636.0526315789474" y1="273.33333333333337" y2="540.0" /><line stroke="gray" stroke-width="1" x1="641.1842105263158" x2="641.1842105263158" y1="273.33333333333337" y2="540.0" /><line stroke="gray" stroke-width="1" x1="646.3157894736843" x2="646.3157894736843" y1="273.33333333333337" y2="540.0" /><line stroke="gray" stroke-width="1" x1="651.4473684210526" x2="651.4473684210526" y1="273.33333333333337" y2="540.0" /><line stroke="gray" stroke-width="1" x1="656.578947368421" x2="656.578947368421" y1="273.33333333333337" y2="540.0" /><line stroke="gray" stroke-width="1" x1="661.7105263157895" x2="661.7105263157895" y1="273.33333333333337" y2="540.0" /><line stroke="gray" stroke-width="1" x1="666.8421052631579" x2="666.8421052631579" y1="273.33333333333337" y2="540.0" /><line stroke="gray" stroke-width="1" x1="671.9736842105264" x2="671.9736842105264" y1="273.33333333333337" y2="540.0" /><line stroke="gray" stroke-width="1" x1="677.1052631578948" x2="677.1052631578948" y1="273.33333333333337" y2="540.0" /><line stroke="gray" stroke-width="1" x1="682.2368421052632" x2="682.2368421052632" y1="273.33333333333337" y2="540.0" /><line stroke="gray" stroke-width="1" x1="687.3684210526316" x2="687.3684210526316" y1="273.33333333333337" y2="540.0" /><line stroke="gray" stroke-width="1" x1="692.5" x2="692.5" y1="273.33333333333337" y2="540.0" /><line stroke="gray" stroke-width="1" x1="697.6315789473684" x2="697.6315789473684" y1="273.33333333333337" y2="540.0" /><line stroke="gray" stroke-width="1" x1="702.7631578947369" x2="702.7631578947369" y1="273.33333333333337" y2="540.0" /><line stroke="gray" stroke-width="1" x1="707.8947368421053" x2="707.8947368421053" y1="273.33333333333337" y2="540.0" /><line stroke="gray" stroke-width="1" x1="713.0263157894738" x2="713.0263157894738" y1="273.33333333333337" y2="540.0" /><line stroke="gray" stroke-width="1" x1="718.1578947368421" x2="718.1578947368421" y1="273.33333333333337" y2="540.0" /><line stroke="gray" stroke-width="1" x1="723.2894736842105" x2="723.2894736842105" y1="273.33333333333337" y2="540.0" /><line stroke="gray" stroke-width="1" x1="728.421052631579" x2="728.421052631579" y1="273.33333333333337" y2="540.0" /><line stroke="gray" stroke-width="1" x1="733.5526315789474" x2="733.5526315789474" y1="273.33333333333337" y2="540.0" /><line stroke="gray" stroke-width="1" x1="738.6842105263158" x2="738.6842105263158" y1="273.33333333333337" y2="540.0" /><line stroke="gray" stroke-width="1" x1="743.8157894736843" x2="743.8157894736843" y1="273.33333333333337" y2="540.0" /><line stroke="gray" stroke-width="1" x1="748.9473684210527" x2="748.9473684210527" y1="273.33333333333337" y2="540.0" /><line stroke="gray" stroke-width="1" x1="754.078947368421" x2="754.078947368421" y1="273.33333333333337" y2="540.0" /><line stroke="gray" stroke-width="1" x1="759.2105263157895" x2="759.2105263157895" y1="273.33333333333337" y2="540.0" /><line stroke="gray" stroke-width="1" x1="764.3421052631579" x2="764.3421052631579" y1="273.33333333333337" y2="540.0" /><line stroke="gray" stroke-width="1" x1="769.4736842105264" x2="769.4736842105264" y1="273.33333333333337" y2="540.0" /><line stroke="gray" stroke-width="1" x1="774.6052631578948" x2="774.6052631578948" y1="273.33333333333337" y2="540.0" /><line stroke="gray" stroke-width="1" x1="779.7368421052632" x2="779.7368421052632" y1="273.33333333333337" y2="540.0" /><line stroke="gray" stroke-width="1" x1="784.8684210526316" x2="784.8684210526316" y1="273.33333333333337" y2="540.0" /><line stroke="gray" stroke-width="1" x1="790.0" x2="790.0" y1="273.33333333333337" y2="540.0" /><rect fill="blue" height="21.333333333333336" width="5.131578947368421" x="595.0" y="276.00000000000006" /><text fill="white" font-family="Arial" font-size="10" text-anchor="start" x="595.0" y="289.66666666666674" /><rect fill="blue" height="21.333333333333336" width="5.131578947368421" x="595.0" y="276.00000000000006" /><text fill="white" font-family="Arial" font-size="10" text-anchor="start" x="595.0" y="289.66666666666674" /><rect fill="blue" height="21.333333333333336" width="5.131578947368421" x="595.0" y="276.00000000000006" /><text fill="white" font-family="Arial" font-size="10" text-anchor="start" x="595.0" y="289.66666666666674" /><rect fill="blue" height="21.333333333333336" width="5.131578947368421" x="595.0" y="276.00000000000006" /><text fill="white" font-family="Arial" font-size="10" text-anchor="start" x="595.0" y="289.66666666666674" /></svg>