<?xml version="1.0" encoding="utf-8" ?>
<svg baseProfile="full" height="600.0" version="1.1" width="800.0" xmlns="http://www.w3.org/2000/svg" xmlns:ev="http://www.w3.org/2001/xml-events" xmlns:xlink="http://www.w3.org/1999/xlink"><defs /><rect fill="white" height="600.0" stroke="black" stroke-width="2" width="800.0" x="0" y="0" /><rect fill="lightgray" height="50.0" stroke="black" stroke-width="1" width="780.0" x="10.0" y="10.0" /><rect fill="lightgray" height="50.0" stroke="black" stroke-width="1" width="780.0" x="10.0" y="540.0" /><rect fill="none" height="480.0" stroke="blue" stroke-dasharray="4" stroke-width="1" width="780.0" x="10.0" y="60.0" /><rect fill="none" height="480.0" stroke="red" stroke-width="1" width="390.0" x="10.0" y="60.0" /><rect fill="lightgrey" height="53.333333333333336" stroke="black" stroke-width="1" width="390.0" x="10.0" y="60.0" /><text dominant-baseline="middle" font-size="10" text-anchor="middle" x="205.0" y="86.66666666666667">2025</text><rect fill="lightgrey" height="53.333333333333336" stroke="black" stroke-width="1" width="390.0" x="10.0" y="113.33333333333334" /><text dominant-baseline="middle" font-size="10" text-anchor="middle" x="205.0" y="140.0">Jan</text><rect fill="lightgrey" height="53.333333333333336" stroke="black" stroke-width="1" width="390.0" x="10.0" y="166.66666666666669" /><line stroke="black" stroke-width="1" x1="149.28571428571428" x2="149.28571428571428" y1="166.66666666666669" y2="220.00000000000003" /><text dominant-baseline="middle" font-size="10" text-anchor="middle" x="79.64285714285714" y="193.33333333333334">01 (05)</text><line stroke="black" stroke-width="1" x1="344.2857142857143" x2="344.2857142857143" y1="166.66666666666669" y2="220.00000000000003" /><text dominant-baseline="middle" font-size="10" text-anchor="middle" x="246.78571428571428" y="193.33333333333334">02 (12)</text><text dominant-baseline="middle" font-size="10" text-anchor="middle" x="372.1428571428571" y="193.33333333333334">03 (19)</text><rect fill="lightgrey" height="53.333333333333336" stroke="black" stroke-width="1" width="390.0" x="10.0" y="220.00000000000003" /><line stroke="black" stroke-width="1" x1="37.85714285714286" x2="37.85714285714286" y1="220.00000000000003" y2="273.33333333333337" /><text dominant-baseline="middle" font-size="10" text-anchor="middle" x="23.92857142857143" y="246.66666666666669">W</text><line stroke="black" stroke-width="1" x1="65.71428571428572" x2="65.71428571428572" y1="220.00000000000003" y2="273.33333333333337" /><text dominant-baseline="middle" font-size="10" text-anchor="middle" x="51.78571428571429" y="246.66666666666669">T</text><line stroke="black" stroke-width="1" x1="93.57142857142857" x2="93.57142857142857" y1="220.00000000000003" y2="273.33333333333337" /><text dominant-baseline="middle" font-size="10" text-anchor="middle" x="79.64285714285714" y="246.66666666666669">F</text><line stroke="black" stroke-width="1" x1="121.42857142857143" x2="121.42857142857143" y1="220.00000000000003" y2="273.33333333333337" /><text dominant-baseline="middle" font-size="10" text-anchor="middle" x="107.5" y="246.66666666666669">S</text><line stroke="black" stroke-width="1" x1="149.28571428571428" x2="149.28571428571428" y1="220.00000000000003" y2="273.33333333333337" /><text dominant-baseline="middle" font-size="10" text-anchor="middle" x="135.35714285714286" y="246.66666666666669">S</text><line stroke="black" stroke-width="1" x1="177.14285714285714" x2="177.14285714285714" y1="220.00000000000003" y2="273.33333333333337" /><text dominant-baseline="middle" font-size="10" text-anchor="middle" x="163.21428571428572" y="246.66666666666669">M</text><line stroke="black" stroke-width="1" x1="205.0" x2="205.0" y1="220.00000000000003" y2="273.33333333333337" /><text dominant-baseline="middle" font-size="10" text-anchor="middle" x="191.07142857142856" y="246.66666666666669">T</text><line stroke="black" stroke-width="1" x1="232.85714285714286" x2="232.85714285714286" y1="220.00000000000003" y2="273.33333333333337" /><text dominant-baseline="middle" font-size="10" text-anchor="middle" x="218.92857142857144" y="246.66666666666669">W</text><line stroke="black" stroke-width="1" x1="260.7142857142857" x2="260.7142857142857" y1="220.00000000000003" y2="273.33333333333337" /><text dominant-baseline="middle" font-size="10" text-anchor="middle" x="246.78571428571428" y="246.66666666666669">T</text><line stroke="black" stroke-width="1" x1="288.57142857142856" x2="288.57142857142856" y1="220.00000000000003" y2="273.33333333333337" /><text dominant-baseline="middle" font-size="10" text-anchor="middle" x="274.6428571428571" y="246.66666666666669">F</text><line stroke="black" stroke-width="1" x1="316.42857142857144" x2="316.42857142857144" y1="220.00000000000003" y2="273.33333333333337" /><text dominant-baseline="middle" font-size="10" text-anchor="middle" x="302.5" y="246.66666666666669">S</text><line stroke="black" stroke-width="1" x1="344.2857142857143" x2="344.2857142857143" y1="220.00000000000003" y2="273.33333333333337" /><text dominant-baseline="middle" font-size="10" text-anchor="middle" x="330.3571428571429" y="246.66666666666669">S</text><line stroke="black" stroke-width="1" x1="372.14285714285717" x2="372.14285714285717" y1="220.00000000000003" y2="273.33333333333337" /><text dominant-baseline="middle" font-size="10" text-anchor="middle" x="358.2142857142857" y="246.66666666666669">M</text><line stroke="black" stroke-width="1" x1="400.0" x2="400.0" y1="220.00000000000003" y2="273.33333333333337" /><text dominant-baseline="middle" font-size="10" text-anchor="middle" x="386.07142857142856" y="246.66666666666669">T</text><rect fill="none" height="266.6666666666667" stroke="purple" stroke-width="1" width="390.0" x="10.0" y="273.33333333333337" /><line stroke="gray" stroke-width="1" x1="10.0" x2="400.0" y1="273.33333333333337" y2="273.33333333333337" /><line stroke="gray" stroke-width="1" x1="10.0" x2="400.0" y1="300.00000000000006" y2="300.00000000000006" /><line stroke="gray" stroke-width="1" x1="10.0" x2="400.0" y1="326.6666666666667" y2="326.6666666666667" /><line stroke="gray" stroke-width="1" x1="10.0" x2="400.0" y1="353.33333333333337" y2="353.33333333333337" /><line stroke="gray" stroke-width="1" x1="10.0" x2="400.0" y1="380.00000000000006" y2="380.00000000000006" /><line stroke="gray" stroke-width="1" x1="10.0" x2="400.0" y1="406.66666666666674" y2="406.66666666666674" /><line stroke="gray" stroke-width="1" x1="10.0" x2="400.0" y1="433.33333333333337" y2="433.33333333333337" /><line stroke="gray" stroke-width="1" x1="10.0" x2="400.0" y1="460.00000000000006" y2="460.00000000000006" /><line stroke="gray" stroke-width="1" x1="10.0" x2="400.0" y1="486.66666666666674" y2="486.66666666666674" /><line stroke="gray" stroke-width="1" x1="10.0" x2="400.0" y1="513.3333333333334" y2="513.3333333333334" /><line stroke="gray" stroke-width="1" x1="10.0" x2="400.0" y1="540.0" y2="540.0" /><line stroke="gray" stroke-width="1" x1="149.28571428571428" x2="149.28571428571428" y1="273.33333333333337" y2="540.0" /><line stroke="gray" stroke-width="1" x1="344.2857142857143" x2="344.2857142857143" y1="273.33333333333337" y2="540.0" /><line stroke="gray" stroke-width="1" x1="37.85714285714286" x2="37.85714285714286" y1="273.33333333333337" y2="540.0" /><line stroke="gray" stroke-width="1" x1="65.71428571428572" x2="65.71428571428572" y1="273.33333333333337" y2="540.0" /><line stroke="gray" stroke-width="1" x1="93.57142857142857" x2="93.57142857142857" y1="273.33333333333337" y2="540.0" /><line stroke="gray" stroke-width="1" x1="121.42857142857143" x2="121.42857142857143" y1="273.33333333333337" y2="540.0" /><line stroke="gray" stroke-width="1" x1="149.28571428571428" x2="149.28571428571428" y1="273.33333333333337" y2="540.0" /><line stroke="gray" stroke-width="1" x1="177.14285714285714" x2="177.14285714285714" y1="273.33333333333337" y2="540.0" /><line stroke="gray" stroke-width="1" x1="205.0" x2="205.0" y1="273.33333333333337" y2="540.0" /><line stroke="gray" stroke-width="1" x1="232.85714285714286" x2="232.85714285714286" y1="273.33333333333337" y2="540.0" /><line stroke="gray" stroke-width="1" x1="260.7142857142857" x2="260.7142857142857" y1="273.33333333333337" y2="540.0" /><line stroke="gray" stroke-width="1" x1="288.57142857142856" x2="288.57142857142856" y1="273.33333333333337" y2="540.0" /><line stroke="gray" stroke-width="1" x1="316.42857142857144" x2="316.42857142857144" y1="273.33333333333337" y2="540.0" /><line stroke="gray" stroke-width="1" x1="344.2857142857143" x2="344.2857142857143" y1="273.33333333333337" y2="540.0" /><line stroke="gray" stroke-width="1" x1="372.14285714285717" x2="372.14285714285717" y1="273.33333333333337" y2="540.0" /><line stroke="gray" stroke-width="1" x1="400.0" x2="400.0" y1="273.33333333333337" y2="540.0" /><rect fill="blue" height="21.333333333333336" width="27.857142857142858" x="65.71428571428572" y="273.33333333333337" /><text fill="white" font-size="10" x="70.71428571428572" y="281.86666666666673">Task 1</text><rect fill="blue" height="21.333333333333336" width="334.2857142857143" x="65.71428571428572" y="300.00000000000006" /><text fill="white" font-size="10" x="70.71428571428572" y="308.5333333333334">Task 2</text><rect fill="none" height="480.0" stroke="red" stroke-width="1" width="390.0" x="400.0" y="60.0" /><rect fill="lightgrey" height="53.333333333333336" stroke="black" stroke-width="1" width="390.0" x="400.0" y="60.0" /><text dominant-baseline="middle" font-size="10" text-anchor="middle" x="595.0" y="86.66666666666667">2025</text><rect fill="lightgrey" height="53.333333333333336" stroke="black" stroke-width="1" width="390.0" x="400.0" y="113.33333333333334" /><line stroke="black" stroke-width="1" x1="423.3707865168539" x2="423.3707865168539" y1="113.33333333333334" y2="166.66666666666669" /><text dominant-baseline="middle" font-size="10" text-anchor="middle" x="411.685393258427" y="140.0">J</text><line stroke="black" stroke-width="1" x1="464.2696629213483" x2="464.2696629213483" y1="113.33333333333334" y2="166.66666666666669" /><text dominant-baseline="middle" font-size="10" text-anchor="middle" x="443.82022471910113" y="140.0">F</text><line stroke="black" stroke-width="1" x1="509.55056179775283" x2="509.55056179775283" y1="113.33333333333334" y2="166.66666666666669" /><text dominant-baseline="middle" font-size="10" text-anchor="middle" x="486.91011235955057" y="140.0">M</text><line stroke="black" stroke-width="1" x1="553.370786516854" x2="553.370786516854" y1="113.33333333333334" y2="166.66666666666669" /><text dominant-baseline="middle" font-size="10" text-anchor="middle" x="531.4606741573034" y="140.0">A</text><line stroke="black" stroke-width="1" x1="598.6516853932584" x2="598.6516853932584" y1="113.33333333333334" y2="166.66666666666669" /><text dominant-baseline="middle" font-size="10" text-anchor="middle" x="576.0112359550562" y="140.0">M</text><line stroke="black" stroke-width="1" x1="642.4719101123595" x2="642.4719101123595" y1="113.33333333333334" y2="166.66666666666669" /><text dominant-baseline="middle" font-size="10" text-anchor="middle" x="620.561797752809" y="140.0">J</text><line stroke="black" stroke-width="1" x1="687.7528089887641" x2="687.7528089887641" y1="113.33333333333334" y2="166.66666666666669" /><text dominant-baseline="middle" font-size="10" text-anchor="middle" x="665.1123595505618" y="140.0">J</text><line stroke="black" stroke-width="1" x1="733.0337078651685" x2="733.0337078651685" y1="113.33333333333334" y2="166.66666666666669" /><text dominant-baseline="middle" font-size="10" text-anchor="middle" x="710.3932584269662" y="140.0">A</text><line stroke="black" stroke-width="1" x1="776.8539325842696" x2="776.8539325842696" y1="113.33333333333334" y2="166.66666666666669" /><text dominant-baseline="middle" font-size="10" text-anchor="middle" x="754.943820224719" y="140.0">S</text><rect fill="lightgrey" height="53.333333333333336" stroke="black" stroke-width="1" width="390.0" x="400.0" y="166.66666666666669" /><line stroke="black" stroke-width="1" x1="405.8426966292135" x2="405.8426966292135" y1="166.66666666666669" y2="220.00000000000003" /><line stroke="black" stroke-width="1" x1="416.0674157303371" x2="416.0674157303371" y1="166.66666666666669" y2="220.00000000000003" /><line stroke="black" stroke-width="1" x1="426.29213483146066" x2="426.29213483146066" y1="166.66666666666669" y2="220.00000000000003" /><line stroke="black" stroke-width="1" x1="436.51685393258424" x2="436.51685393258424" y1="166.66666666666669" y2="220.00000000000003" /><line stroke="black" stroke-width="1" x1="446.7415730337079" x2="446.7415730337079" y1="166.66666666666669" y2="220.00000000000003" /><line stroke="black" stroke-width="1" x1="456.96629213483146" x2="456.96629213483146" y1="166.66666666666669" y2="220.00000000000003" /><line stroke="black" stroke-width="1" x1="467.19101123595505" x2="467.19101123595505" y1="166.66666666666669" y2="220.00000000000003" /><line stroke="black" stroke-width="1" x1="477.4157303370787" x2="477.4157303370787" y1="166.66666666666669" y2="220.00000000000003" /><line stroke="black" stroke-width="1" x1="487.64044943820227" x2="487.64044943820227" y1="166.66666666666669" y2="220.00000000000003" /><line stroke="black" stroke-width="1" x1="497.86516853932585" x2="497.86516853932585" y1="166.66666666666669" y2="220.00000000000003" /><line stroke="black" stroke-width="1" x1="508.08988764044943" x2="508.08988764044943" y1="166.66666666666669" y2="220.00000000000003" /><line stroke="black" stroke-width="1" x1="518.314606741573" x2="518.314606741573" y1="166.66666666666669" y2="220.00000000000003" /><line stroke="black" stroke-width="1" x1="528.5393258426966" x2="528.5393258426966" y1="166.66666666666669" y2="220.00000000000003" /><line stroke="black" stroke-width="1" x1="538.7640449438202" x2="538.7640449438202" y1="166.66666666666669" y2="220.00000000000003" /><line stroke="black" stroke-width="1" x1="548.9887640449438" x2="548.9887640449438" y1="166.66666666666669" y2="220.00000000000003" /><line stroke="black" stroke-width="1" x1="559.2134831460673" x2="559.2134831460673" y1="166.66666666666669" y2="220.00000000000003" /><line stroke="black" stroke-width="1" x1="569.438202247191" x2="569.438202247191" y1="166.66666666666669" y2="220.00000000000003" /><line stroke="black" stroke-width="1" x1="579.6629213483146" x2="579.6629213483146" y1="166.66666666666669" y2="220.00000000000003" /><line stroke="black" stroke-width="1" x1="589.8876404494382" x2="589.8876404494382" y1="166.66666666666669" y2="220.00000000000003" /><line stroke="black" stroke-width="1" x1="600.1123595505618" x2="600.1123595505618" y1="166.66666666666669" y2="220.00000000000003" /><line stroke="black" stroke-width="1" x1="610.3370786516854" x2="610.3370786516854" y1="166.66666666666669" y2="220.00000000000003" /><line stroke="black" stroke-width="1" x1="620.561797752809" x2="620.561797752809" y1="166.66666666666669" y2="220.00000000000003" /><line stroke="black" stroke-width="1" x1="630.7865168539327" x2="630.7865168539327" y1="166.66666666666669" y2="220.00000000000003" /><line stroke="black" stroke-width="1" x1="641.0112359550562" x2="641.0112359550562" y1="166.66666666666669" y2="220.00000000000003" /><line stroke="black" stroke-width="1" x1="651.2359550561798" x2="651.2359550561798" y1="166.66666666666669" y2="220.00000000000003" /><line stroke="black" stroke-width="1" x1="661.4606741573034" x2="661.4606741573034" y1="166.66666666666669" y2="220.00000000000003" /><line stroke="black" stroke-width="1" x1="671.685393258427" x2="671.685393258427" y1="166.66666666666669" y2="220.00000000000003" /><line stroke="black" stroke-width="1" x1="681.9101123595506" x2="681.9101123595506" y1="166.66666666666669" y2="220.00000000000003" /><line stroke="black" stroke-width="1" x1="692.1348314606741" x2="692.1348314606741" y1="166.66666666666669" y2="220.00000000000003" /><line stroke="black" stroke-width="1" x1="702.3595505617977" x2="702.3595505617977" y1="166.66666666666669" y2="220.00000000000003" /><line stroke="black" stroke-width="1" x1="712.5842696629213" x2="712.5842696629213" y1="166.66666666666669" y2="220.00000000000003" /><line stroke="black" stroke-width="1" x1="722.8089887640449" x2="722.8089887640449" y1="166.66666666666669" y2="220.00000000000003" /><line stroke="black" stroke-width="1" x1="733.0337078651685" x2="733.0337078651685" y1="166.66666666666669" y2="220.00000000000003" /><line stroke="black" stroke-width="1" x1="743.2584269662921" x2="743.2584269662921" y1="166.66666666666669" y2="220.00000000000003" /><line stroke="black" stroke-width="1" x1="753.4831460674158" x2="753.4831460674158" y1="166.66666666666669" y2="220.00000000000003" /><line stroke="black" stroke-width="1" x1="763.7078651685393" x2="763.7078651685393" y1="166.66666666666669" y2="220.00000000000003" /><line stroke="black" stroke-width="1" x1="773.9325842696629" x2="773.9325842696629" y1="166.66666666666669" y2="220.00000000000003" /><line stroke="black" stroke-width="1" x1="784.1573033707865" x2="784.1573033707865" y1="166.66666666666669" y2="220.00000000000003" /><rect fill="lightgrey" height="53.333333333333336" stroke="black" stroke-width="1" width="390.0" x="400.0" y="220.00000000000003" /><rect fill="none" height="266.6666666666667" stroke="purple" stroke-width="1" width="390.0" x="400.0" y="273.33333333333337" /><line stroke="gray" stroke-width="1" x1="400.0" x2="790.0" y1="273.33333333333337" y2="273.33333333333337" /><line stroke="gray" stroke-width="1" x1="400.0" x2="790.0" y1="300.00000000000006" y2="300.00000000000006" /><line stroke="gray" stroke-width="1" x1="400.0" x2="790.0" y1="326.6666666666667" y2="326.6666666666667" /><line stroke="gray" stroke-width="1" x1="400.0" x2="790.0" y1="353.33333333333337" y2="353.33333333333337" /><line stroke="gray" stroke-width="1" x1="400.0" x2="790.0" y1="380.00000000000006" y2="380.00000000000006" /><line stroke="gray" stroke-width="1" x1="400.0" x2="790.0" y1="406.66666666666674" y2="406.66666666666674" /><line stroke="gray" stroke-width="1" x1="400.0" x2="790.0" y1="433.33333333333337" y2="433.33333333333337" /><line stroke="gray" stroke-width="1" x1="400.0" x2="790.0" y1="460.00000000000006" y2="460.00000000000006" /><line stroke="gray" stroke-width="1" x1="400.0" x2="790.0" y1="486.66666666666674" y2="486.66666666666674" /><line stroke="gray" stroke-width="1" x1="400.0" x2="790.0" y1="513.3333333333334" y2="513.3333333333334" /><line stroke="gray" stroke-width="1" x1="400.0" x2="790.0" y1="540.0" y2="540.0" /><line stroke="gray" stroke-width="1" x1="423.3707865168539" x2="423.3707865168539" y1="273.33333333333337" y2="540.0" /><line stroke="gray" stroke-width="1" x1="464.2696629213483" x2="464.2696629213483" y1="273.33333333333337" y2="540.0" /><line stroke="gray" stroke-width="1" x1="509.55056179775283" x2="509.55056179775283" y1="273.33333333333337" y2="540.0" /><line stroke="gray" stroke-width="1" x1="553.370786516854" x2="553.370786516854" y1="273.33333333333337" y2="540.0" /><line stroke="gray" stroke-width="1" x1="598.6516853932584" x2="598.6516853932584" y1="273.33333333333337" y2="540.0" /><line stroke="gray" stroke-width="1" x1="642.4719101123595" x2="642.4719101123595" y1="273.33333333333337" y2="540.0" /><line stroke="gray" stroke-width="1" x1="687.7528089887641" x2="687.7528089887641" y1="273.33333333333337" y2="540.0" /><line stroke="gray" stroke-width="1" x1="733.0337078651685" x2="733.0337078651685" y1="273.33333333333337" y2="540.0" /><line stroke="gray" stroke-width="1" x1="776.8539325842696" x2="776.8539325842696" y1="273.33333333333337" y2="540.0" /><line stroke="gray" stroke-width="1" x1="405.8426966292135" x2="405.8426966292135" y1="273.33333333333337" y2="540.0" /><line stroke="gray" stroke-width="1" x1="416.0674157303371" x2="416.0674157303371" y1="273.33333333333337" y2="540.0" /><line stroke="gray" stroke-width="1" x1="426.29213483146066" x2="426.29213483146066" y1="273.33333333333337" y2="540.0" /><line stroke="gray" stroke-width="1" x1="436.51685393258424" x2="436.51685393258424" y1="273.33333333333337" y2="540.0" /><line stroke="gray" stroke-width="1" x1="446.7415730337079" x2="446.7415730337079" y1="273.33333333333337" y2="540.0" /><line stroke="gray" stroke-width="1" x1="456.96629213483146" x2="456.96629213483146" y1="273.33333333333337" y2="540.0" /><line stroke="gray" stroke-width="1" x1="467.19101123595505" x2="467.19101123595505" y1="273.33333333333337" y2="540.0" /><line stroke="gray" stroke-width="1" x1="477.4157303370787" x2="477.4157303370787" y1="273.33333333333337" y2="540.0" /><line stroke="gray" stroke-width="1" x1="487.64044943820227" x2="487.64044943820227" y1="273.33333333333337" y2="540.0" /><line stroke="gray" stroke-width="1" x1="497.86516853932585" x2="497.86516853932585" y1="273.33333333333337" y2="540.0" /><line stroke="gray" stroke-width="1" x1="508.08988764044943" x2="508.08988764044943" y1="273.33333333333337" y2="540.0" /><line stroke="gray" stroke-width="1" x1="518.314606741573" x2="518.314606741573" y1="273.33333333333337" y2="540.0" /><line stroke="gray" stroke-width="1" x1="528.5393258426966" x2="528.5393258426966" y1="273.33333333333337" y2="540.0" /><line stroke="gray" stroke-width="1" x1="538.7640449438202" x2="538.7640449438202" y1="273.33333333333337" y2="540.0" /><line stroke="gray" stroke-width="1" x1="548.9887640449438" x2="548.9887640449438" y1="273.33333333333337" y2="540.0" /><line stroke="gray" stroke-width="1" x1="559.2134831460673" x2="559.2134831460673" y1="273.33333333333337" y2="540.0" /><line stroke="gray" stroke-width="1" x1="569.438202247191" x2="569.438202247191" y1="273.33333333333337" y2="540.0" /><line stroke="gray" stroke-width="1" x1="579.6629213483146" x2="579.6629213483146" y1="273.33333333333337" y2="540.0" /><line stroke="gray" stroke-width="1" x1="589.8876404494382" x2="589.8876404494382" y1="273.33333333333337" y2="540.0" /><line stroke="gray" stroke-width="1" x1="600.1123595505618" x2="600.1123595505618" y1="273.33333333333337" y2="540.0" /><line stroke="gray" stroke-width="1" x1="610.3370786516854" x2="610.3370786516854" y1="273.33333333333337" y2="540.0" /><line stroke="gray" stroke-width="1" x1="620.561797752809" x2="620.561797752809" y1="273.33333333333337" y2="540.0" /><line stroke="gray" stroke-width="1" x1="630.7865168539327" x2="630.7865168539327" y1="273.33333333333337" y2="540.0" /><line stroke="gray" stroke-width="1" x1="641.0112359550562" x2="641.0112359550562" y1="273.33333333333337" y2="540.0" /><line stroke="gray" stroke-width="1" x1="651.2359550561798" x2="651.2359550561798" y1="273.33333333333337" y2="540.0" /><line stroke="gray" stroke-width="1" x1="661.4606741573034" x2="661.4606741573034" y1="273.33333333333337" y2="540.0" /><line stroke="gray" stroke-width="1" x1="671.685393258427" x2="671.685393258427" y1="273.33333333333337" y2="540.0" /><line stroke="gray" stroke-width="1" x1="681.9101123595506" x2="681.9101123595506" y1="273.33333333333337" y2="540.0" /><line stroke="gray" stroke-width="1" x1="692.1348314606741" x2="692.1348314606741" y1="273.33333333333337" y2="540.0" /><line stroke="gray" stroke-width="1" x1="702.3595505617977" x2="702.3595505617977" y1="273.33333333333337" y2="540.0" /><line stroke="gray" stroke-width="1" x1="712.5842696629213" x2="712.5842696629213" y1="273.33333333333337" y2="540.0" /><line stroke="gray" stroke-width="1" x1="722.8089887640449" x2="722.8089887640449" y1="273.33333333333337" y2="540.0" /><line stroke="gray" stroke-width="1" x1="733.0337078651685" x2="733.0337078651685" y1="273.33333333333337" y2="540.0" /><line stroke="gray" stroke-width="1" x1="743.2584269662921" x2="743.2584269662921" y1="273.33333333333337" y2="540.0" /><line stroke="gray" stroke-width="1" x1="753.4831460674158" x2="753.4831460674158" y1="273.33333333333337" y2="540.0" /><line stroke="gray" stroke-width="1" x1="763.7078651685393" x2="763.7078651685393" y1="273.33333333333337" y2="540.0" /><line stroke="gray" stroke-width="1" x1="773.9325842696629" x2="773.9325842696629" y1="273.33333333333337" y2="540.0" /><line stroke="gray" stroke-width="1" x1="784.1573033707865" x2="784.1573033707865" y1="273.33333333333337" y2="540.0" /><line stroke="gray" stroke-width="1" x1="401.46067415730334" x2="401.46067415730334" y1="273.33333333333337" y2="540.0" /><line stroke="gray" stroke-width="1" x1="402.92134831460675" x2="402.92134831460675" y1="273.33333333333337" y2="540.0" /><line stroke="gray" stroke-width="1" x1="404.3820224719101" x2="404.3820224719101" y1="273.33333333333337" y2="540.0" /><line stroke="gray" stroke-width="1" x1="405.8426966292135" x2="405.8426966292135" y1="273.33333333333337" y2="540.0" /><line stroke="gray" stroke-width="1" x1="407.30337078651684" x2="407.30337078651684" y1="273.33333333333337" y2="540.0" /><line stroke="gray" stroke-width="1" x1="408.76404494382024" x2="408.76404494382024" y1="273.33333333333337" y2="540.0" /><line stroke="gray" stroke-width="1" x1="410.2247191011236" x2="410.2247191011236" y1="273.33333333333337" y2="540.0" /><line stroke="gray" stroke-width="1" x1="411.685393258427" x2="411.685393258427" y1="273.33333333333337" y2="540.0" /><line stroke="gray" stroke-width="1" x1="413.14606741573033" x2="413.14606741573033" y1="273.33333333333337" y2="540.0" /><line stroke="gray" stroke-width="1" x1="414.60674157303373" x2="414.60674157303373" y1="273.33333333333337" y2="540.0" /><line stroke="gray" stroke-width="1" x1="416.0674157303371" x2="416.0674157303371" y1="273.33333333333337" y2="540.0" /><line stroke="gray" stroke-width="1" x1="417.5280898876405" x2="417.5280898876405" y1="273.33333333333337" y2="540.0" /><line stroke="gray" stroke-width="1" x1="418.9887640449438" x2="418.9887640449438" y1="273.33333333333337" y2="540.0" /><line stroke="gray" stroke-width="1" x1="420.44943820224717" x2="420.44943820224717" y1="273.33333333333337" y2="540.0" /><line stroke="gray" stroke-width="1" x1="421.91011235955057" x2="421.91011235955057" y1="273.33333333333337" y2="540.0" /><line stroke="gray" stroke-width="1" x1="423.3707865168539" x2="423.3707865168539" y1="273.33333333333337" y2="540.0" /><line stroke="gray" stroke-width="1" x1="424.8314606741573" x2="424.8314606741573" y1="273.33333333333337" y2="540.0" /><line stroke="gray" stroke-width="1" x1="426.29213483146066" x2="426.29213483146066" y1="273.33333333333337" y2="540.0" /><line stroke="gray" stroke-width="1" x1="427.75280898876406" x2="427.75280898876406" y1="273.33333333333337" y2="540.0" /><line stroke="gray" stroke-width="1" x1="429.2134831460674" x2="429.2134831460674" y1="273.33333333333337" y2="540.0" /><line stroke="gray" stroke-width="1" x1="430.6741573033708" x2="430.6741573033708" y1="273.33333333333337" y2="540.0" /><line stroke="gray" stroke-width="1" x1="432.13483146067415" x2="432.13483146067415" y1="273.33333333333337" y2="540.0" /><line stroke="gray" stroke-width="1" x1="433.59550561797755" x2="433.59550561797755" y1="273.33333333333337" y2="540.0" /><line stroke="gray" stroke-width="1" x1="435.0561797752809" x2="435.0561797752809" y1="273.33333333333337" y2="540.0" /><line stroke="gray" stroke-width="1" x1="436.51685393258424" x2="436.51685393258424" y1="273.33333333333337" y2="540.0" /><line stroke="gray" stroke-width="1" x1="437.97752808988764" x2="437.97752808988764" y1="273.33333333333337" y2="540.0" /><line stroke="gray" stroke-width="1" x1="439.43820224719104" x2="439.43820224719104" y1="273.33333333333337" y2="540.0" /><line stroke="gray" stroke-width="1" x1="440.8988764044944" x2="440.8988764044944" y1="273.33333333333337" y2="540.0" /><line stroke="gray" stroke-width="1" x1="442.35955056179773" x2="442.35955056179773" y1="273.33333333333337" y2="540.0" /><line stroke="gray" stroke-width="1" x1="443.82022471910113" x2="443.82022471910113" y1="273.33333333333337" y2="540.0" /><line stroke="gray" stroke-width="1" x1="445.2808988764045" x2="445.2808988764045" y1="273.33333333333337" y2="540.0" /><line stroke="gray" stroke-width="1" x1="446.7415730337079" x2="446.7415730337079" y1="273.33333333333337" y2="540.0" /><line stroke="gray" stroke-width="1" x1="448.2022471910112" x2="448.2022471910112" y1="273.33333333333337" y2="540.0" /><line stroke="gray" stroke-width="1" x1="449.6629213483146" x2="449.6629213483146" y1="273.33333333333337" y2="540.0" /><line stroke="gray" stroke-width="1" x1="451.12359550561797" x2="451.12359550561797" y1="273.33333333333337" y2="540.0" /><line stroke="gray" stroke-width="1" x1="452.5842696629214" x2="452.5842696629214" y1="273.33333333333337" y2="540.0" /><line stroke="gray" stroke-width="1" x1="454.0449438202247" x2="454.0449438202247" y1="273.33333333333337" y2="540.0" /><line stroke="gray" stroke-width="1" x1="455.5056179775281" x2="455.5056179775281" y1="273.33333333333337" y2="540.0" /><line stroke="gray" stroke-width="1" x1="456.96629213483146" x2="456.96629213483146" y1="273.33333333333337" y2="540.0" /><line stroke="gray" stroke-width="1" x1="458.4269662921348" x2="458.4269662921348" y1="273.33333333333337" y2="540.0" /><line stroke="gray" stroke-width="1" x1="459.8876404494382" x2="459.8876404494382" y1="273.33333333333337" y2="540.0" /><line stroke="gray" stroke-width="1" x1="461.34831460674155" x2="461.34831460674155" y1="273.33333333333337" y2="540.0" /><line stroke="gray" stroke-width="1" x1="462.80898876404495" x2="462.80898876404495" y1="273.33333333333337" y2="540.0" /><line stroke="gray" stroke-width="1" x1="464.2696629213483" x2="464.2696629213483" y1="273.33333333333337" y2="540.0" /><line stroke="gray" stroke-width="1" x1="465.7303370786517" x2="465.7303370786517" y1="273.33333333333337" y2="540.0" /><line stroke="gray" stroke-width="1" x1="467.19101123595505" x2="467.19101123595505" y1="273.33333333333337" y2="540.0" /><line stroke="gray" stroke-width="1" x1="468.65168539325845" x2="468.65168539325845" y1="273.33333333333337" y2="540.0" /><line stroke="gray" stroke-width="1" x1="470.1123595505618" x2="470.1123595505618" y1="273.33333333333337" y2="540.0" /><line stroke="gray" stroke-width="1" x1="471.5730337078652" x2="471.5730337078652" y1="273.33333333333337" y2="540.0" /><line stroke="gray" stroke-width="1" x1="473.03370786516854" x2="473.03370786516854" y1="273.33333333333337" y2="540.0" /><line stroke="gray" stroke-width="1" x1="474.4943820224719" x2="474.4943820224719" y1="273.33333333333337" y2="540.0" /><line stroke="gray" stroke-width="1" x1="475.9550561797753" x2="475.9550561797753" y1="273.33333333333337" y2="540.0" /><line stroke="gray" stroke-width="1" x1="477.4157303370787" x2="477.4157303370787" y1="273.33333333333337" y2="540.0" /><line stroke="gray" stroke-width="1" x1="478.87640449438203" x2="478.87640449438203" y1="273.33333333333337" y2="540.0" /><line stroke="gray" stroke-width="1" x1="480.3370786516854" x2="480.3370786516854" y1="273.33333333333337" y2="540.0" /><line stroke="gray" stroke-width="1" x1="481.7977528089888" x2="481.7977528089888" y1="273.33333333333337" y2="540.0" /><line stroke="gray" stroke-width="1" x1="483.2584269662921" x2="483.2584269662921" y1="273.33333333333337" y2="540.0" /><line stroke="gray" stroke-width="1" x1="484.7191011235955" x2="484.7191011235955" y1="273.33333333333337" y2="540.0" /><line stroke="gray" stroke-width="1" x1="486.17977528089887" x2="486.17977528089887" y1="273.33333333333337" y2="540.0" /><line stroke="gray" stroke-width="1" x1="487.64044943820227" x2="487.64044943820227" y1="273.33333333333337" y2="540.0" /><line stroke="gray" stroke-width="1" x1="489.1011235955056" x2="489.1011235955056" y1="273.33333333333337" y2="540.0" /><line stroke="gray" stroke-width="1" x1="490.56179775280896" x2="490.56179775280896" y1="273.33333333333337" y2="540.0" /><line stroke="gray" stroke-width="1" x1="492.02247191011236" x2="492.02247191011236" y1="273.33333333333337" y2="540.0" /><line stroke="gray" stroke-width="1" x1="493.48314606741576" x2="493.48314606741576" y1="273.33333333333337" y2="540.0" /><line stroke="gray" stroke-width="1" x1="494.9438202247191" x2="494.9438202247191" y1="273.33333333333337" y2="540.0" /><line stroke="gray" stroke-width="1" x1="496.40449438202245" x2="496.40449438202245" y1="273.33333333333337" y2="540.0" /><line stroke="gray" stroke-width="1" x1="497.86516853932585" x2="497.86516853932585" y1="273.33333333333337" y2="540.0" /><line stroke="gray" stroke-width="1" x1="499.3258426966292" x2="499.3258426966292" y1="273.33333333333337" y2="540.0" /><line stroke="gray" stroke-width="1" x1="500.7865168539326" x2="500.7865168539326" y1="273.33333333333337" y2="540.0" /><line stroke="gray" stroke-width="1" x1="502.24719101123594" x2="502.24719101123594" y1="273.33333333333337" y2="540.0" /><line stroke="gray" stroke-width="1" x1="503.70786516853934" x2="503.70786516853934" y1="273.33333333333337" y2="540.0" /><line stroke="gray" stroke-width="1" x1="505.1685393258427" x2="505.1685393258427" y1="273.33333333333337" y2="540.0" /><line stroke="gray" stroke-width="1" x1="506.6292134831461" x2="506.6292134831461" y1="273.33333333333337" y2="540.0" /><line stroke="gray" stroke-width="1" x1="508.08988764044943" x2="508.08988764044943" y1="273.33333333333337" y2="540.0" /><line stroke="gray" stroke-width="1" x1="509.55056179775283" x2="509.55056179775283" y1="273.33333333333337" y2="540.0" /><line stroke="gray" stroke-width="1" x1="511.0112359550562" x2="511.0112359550562" y1="273.33333333333337" y2="540.0" /><line stroke="gray" stroke-width="1" x1="512.4719101123595" x2="512.4719101123595" y1="273.33333333333337" y2="540.0" /><line stroke="gray" stroke-width="1" x1="513.9325842696629" x2="513.9325842696629" y1="273.33333333333337" y2="540.0" /><line stroke="gray" stroke-width="1" x1="515.3932584269663" x2="515.3932584269663" y1="273.33333333333337" y2="540.0" /><line stroke="gray" stroke-width="1" x1="516.8539325842696" x2="516.8539325842696" y1="273.33333333333337" y2="540.0" /><line stroke="gray" stroke-width="1" x1="518.314606741573" x2="518.314606741573" y1="273.33333333333337" y2="540.0" /><line stroke="gray" stroke-width="1" x1="519.7752808988764" x2="519.7752808988764" y1="273.33333333333337" y2="540.0" /><line stroke="gray" stroke-width="1" x1="521.2359550561798" x2="521.2359550561798" y1="273.33333333333337" y2="540.0" /><line stroke="gray" stroke-width="1" x1="522.6966292134831" x2="522.6966292134831" y1="273.33333333333337" y2="540.0" /><line stroke="gray" stroke-width="1" x1="524.1573033707865" x2="524.1573033707865" y1="273.33333333333337" y2="540.0" /><line stroke="gray" stroke-width="1" x1="525.6179775280899" x2="525.6179775280899" y1="273.33333333333337" y2="540.0" /><line stroke="gray" stroke-width="1" x1="527.0786516853932" x2="527.0786516853932" y1="273.33333333333337" y2="540.0" /><line stroke="gray" stroke-width="1" x1="528.5393258426966" x2="528.5393258426966" y1="273.33333333333337" y2="540.0" /><line stroke="gray" stroke-width="1" x1="530.0" x2="530.0" y1="273.33333333333337" y2="540.0" /><line stroke="gray" stroke-width="1" x1="531.4606741573034" x2="531.4606741573034" y1="273.33333333333337" y2="540.0" /><line stroke="gray" stroke-width="1" x1="532.9213483146068" x2="532.9213483146068" y1="273.33333333333337" y2="540.0" /><line stroke="gray" stroke-width="1" x1="534.3820224719101" x2="534.3820224719101" y1="273.33333333333337" y2="540.0" /><line stroke="gray" stroke-width="1" x1="535.8426966292135" x2="535.8426966292135" y1="273.33333333333337" y2="540.0" /><line stroke="gray" stroke-width="1" x1="537.3033707865169" x2="537.3033707865169" y1="273.33333333333337" y2="540.0" /><line stroke="gray" stroke-width="1" x1="538.7640449438202" x2="538.7640449438202" y1="273.33333333333337" y2="540.0" /><line stroke="gray" stroke-width="1" x1="540.2247191011236" x2="540.2247191011236" y1="273.33333333333337" y2="540.0" /><line stroke="gray" stroke-width="1" x1="541.685393258427" x2="541.685393258427" y1="273.33333333333337" y2="540.0" /><line stroke="gray" stroke-width="1" x1="543.1460674157304" x2="543.1460674157304" y1="273.33333333333337" y2="540.0" /><line stroke="gray" stroke-width="1" x1="544.6067415730337" x2="544.6067415730337" y1="273.33333333333337" y2="540.0" /><line stroke="gray" stroke-width="1" x1="546.0674157303371" x2="546.0674157303371" y1="273.33333333333337" y2="540.0" /><line stroke="gray" stroke-width="1" x1="547.5280898876405" x2="547.5280898876405" y1="273.33333333333337" y2="540.0" /><line stroke="gray" stroke-width="1" x1="548.9887640449438" x2="548.9887640449438" y1="273.33333333333337" y2="540.0" /><line stroke="gray" stroke-width="1" x1="550.4494382022472" x2="550.4494382022472" y1="273.33333333333337" y2="540.0" /><line stroke="gray" stroke-width="1" x1="551.9101123595506" x2="551.9101123595506" y1="273.33333333333337" y2="540.0" /><line stroke="gray" stroke-width="1" x1="553.370786516854" x2="553.370786516854" y1="273.33333333333337" y2="540.0" /><line stroke="gray" stroke-width="1" x1="554.8314606741574" x2="554.8314606741574" y1="273.33333333333337" y2="540.0" /><line stroke="gray" stroke-width="1" x1="556.2921348314607" x2="556.2921348314607" y1="273.33333333333337" y2="540.0" /><line stroke="gray" stroke-width="1" x1="557.7528089887641" x2="557.7528089887641" y1="273.33333333333337" y2="540.0" /><line stroke="gray" stroke-width="1" x1="559.2134831460673" x2="559.2134831460673" y1="273.33333333333337" y2="540.0" /><line stroke="gray" stroke-width="1" x1="560.6741573033707" x2="560.6741573033707" y1="273.33333333333337" y2="540.0" /><line stroke="gray" stroke-width="1" x1="562.1348314606741" x2="562.1348314606741" y1="273.33333333333337" y2="540.0" /><line stroke="gray" stroke-width="1" x1="563.5955056179776" x2="563.5955056179776" y1="273.33333333333337" y2="540.0" /><line stroke="gray" stroke-width="1" x1="565.056179775281" x2="565.056179775281" y1="273.33333333333337" y2="540.0" /><line stroke="gray" stroke-width="1" x1="566.5168539325842" x2="566.5168539325842" y1="273.33333333333337" y2="540.0" /><line stroke="gray" stroke-width="1" x1="567.9775280898876" x2="567.9775280898876" y1="273.33333333333337" y2="540.0" /><line stroke="gray" stroke-width="1" x1="569.438202247191" x2="569.438202247191" y1="273.33333333333337" y2="540.0" /><line stroke="gray" stroke-width="1" x1="570.8988764044943" x2="570.8988764044943" y1="273.33333333333337" y2="540.0" /><line stroke="gray" stroke-width="1" x1="572.3595505617977" x2="572.3595505617977" y1="273.33333333333337" y2="540.0" /><line stroke="gray" stroke-width="1" x1="573.8202247191011" x2="573.8202247191011" y1="273.33333333333337" y2="540.0" /><line stroke="gray" stroke-width="1" x1="575.2808988764045" x2="575.2808988764045" y1="273.33333333333337" y2="540.0" /><line stroke="gray" stroke-width="1" x1="576.7415730337079" x2="576.7415730337079" y1="273.33333333333337" y2="540.0" /><line stroke="gray" stroke-width="1" x1="578.2022471910112" x2="578.2022471910112" y1="273.33333333333337" y2="540.0" /><line stroke="gray" stroke-width="1" x1="579.6629213483146" x2="579.6629213483146" y1="273.33333333333337" y2="540.0" /><line stroke="gray" stroke-width="1" x1="581.1235955056179" x2="581.1235955056179" y1="273.33333333333337" y2="540.0" /><line stroke="gray" stroke-width="1" x1="582.5842696629213" x2="582.5842696629213" y1="273.33333333333337" y2="540.0" /><line stroke="gray" stroke-width="1" x1="584.0449438202247" x2="584.0449438202247" y1="273.33333333333337" y2="540.0" /><line stroke="gray" stroke-width="1" x1="585.5056179775281" x2="585.5056179775281" y1="273.33333333333337" y2="540.0" /><line stroke="gray" stroke-width="1" x1="586.9662921348315" x2="586.9662921348315" y1="273.33333333333337" y2="540.0" /><line stroke="gray" stroke-width="1" x1="588.4269662921348" x2="588.4269662921348" y1="273.33333333333337" y2="540.0" /><line stroke="gray" stroke-width="1" x1="589.8876404494382" x2="589.8876404494382" y1="273.33333333333337" y2="540.0" /><line stroke="gray" stroke-width="1" x1="591.3483146067416" x2="591.3483146067416" y1="273.33333333333337" y2="540.0" /><line stroke="gray" stroke-width="1" x1="592.8089887640449" x2="592.8089887640449" y1="273.33333333333337" y2="540.0" /><line stroke="gray" stroke-width="1" x1="594.2696629213483" x2="594.2696629213483" y1="273.33333333333337" y2="540.0" /><line stroke="gray" stroke-width="1" x1="595.7303370786517" x2="595.7303370786517" y1="273.33333333333337" y2="540.0" /><line stroke="gray" stroke-width="1" x1="597.1910112359551" x2="597.1910112359551" y1="273.33333333333337" y2="540.0" /><line stroke="gray" stroke-width="1" x1="598.6516853932584" x2="598.6516853932584" y1="273.33333333333337" y2="540.0" /><line stroke="gray" stroke-width="1" x1="600.1123595505618" x2="600.1123595505618" y1="273.33333333333337" y2="540.0" /><line stroke="gray" stroke-width="1" x1="601.5730337078652" x2="601.5730337078652" y1="273.33333333333337" y2="540.0" /><line stroke="gray" stroke-width="1" x1="603.0337078651685" x2="603.0337078651685" y1="273.33333333333337" y2="540.0" /><line stroke="gray" stroke-width="1" x1="604.4943820224719" x2="604.4943820224719" y1="273.33333333333337" y2="540.0" /><line stroke="gray" stroke-width="1" x1="605.9550561797753" x2="605.9550561797753" y1="273.33333333333337" y2="540.0" /><line stroke="gray" stroke-width="1" x1="607.4157303370787" x2="607.4157303370787" y1="273.33333333333337" y2="540.0" /><line stroke="gray" stroke-width="1" x1="608.8764044943821" x2="608.8764044943821" y1="273.33333333333337" y2="540.0" /><line stroke="gray" stroke-width="1" x1="610.3370786516854" x2="610.3370786516854" y1="273.33333333333337" y2="540.0" /><line stroke="gray" stroke-width="1" x1="611.7977528089888" x2="611.7977528089888" y1="273.33333333333337" y2="540.0" /><line stroke="gray" stroke-width="1" x1="613.2584269662922" x2="613.2584269662922" y1="273.33333333333337" y2="540.0" /><line stroke="gray" stroke-width="1" x1="614.7191011235955" x2="614.7191011235955" y1="273.33333333333337" y2="540.0" /><line stroke="gray" stroke-width="1" x1="616.1797752808989" x2="616.1797752808989" y1="273.33333333333337" y2="540.0" /><line stroke="gray" stroke-width="1" x1="617.6404494382023" x2="617.6404494382023" y1="273.33333333333337" y2="540.0" /><line stroke="gray" stroke-width="1" x1="619.1011235955057" x2="619.1011235955057" y1="273.33333333333337" y2="540.0" /><line stroke="gray" stroke-width="1" x1="620.561797752809" x2="620.561797752809" y1="273.33333333333337" y2="540.0" /><line stroke="gray" stroke-width="1" x1="622.0224719101124" x2="622.0224719101124" y1="273.33333333333337" y2="540.0" /><line stroke="gray" stroke-width="1" x1="623.4831460674158" x2="623.4831460674158" y1="273.33333333333337" y2="540.0" /><line stroke="gray" stroke-width="1" x1="624.943820224719" x2="624.943820224719" y1="273.33333333333337" y2="540.0" /><line stroke="gray" stroke-width="1" x1="626.4044943820224" x2="626.4044943820224" y1="273.33333333333337" y2="540.0" /><line stroke="gray" stroke-width="1" x1="627.8651685393259" x2="627.8651685393259" y1="273.33333333333337" y2="540.0" /><line stroke="gray" stroke-width="1" x1="629.3258426966293" x2="629.3258426966293" y1="273.33333333333337" y2="540.0" /><line stroke="gray" stroke-width="1" x1="630.7865168539327" x2="630.7865168539327" y1="273.33333333333337" y2="540.0" /><line stroke="gray" stroke-width="1" x1="632.2471910112359" x2="632.2471910112359" y1="273.33333333333337" y2="540.0" /><line stroke="gray" stroke-width="1" x1="633.7078651685393" x2="633.7078651685393" y1="273.33333333333337" y2="540.0" /><line stroke="gray" stroke-width="1" x1="635.1685393258426" x2="635.1685393258426" y1="273.33333333333337" y2="540.0" /><line stroke="gray" stroke-width="1" x1="636.629213483146" x2="636.629213483146" y1="273.33333333333337" y2="540.0" /><line stroke="gray" stroke-width="1" x1="638.0898876404494" x2="638.0898876404494" y1="273.33333333333337" y2="540.0" /><line stroke="gray" stroke-width="1" x1="639.5505617977528" x2="639.5505617977528" y1="273.33333333333337" y2="540.0" /><line stroke="gray" stroke-width="1" x1="641.0112359550562" x2="641.0112359550562" y1="273.33333333333337" y2="540.0" /><line stroke="gray" stroke-width="1" x1="642.4719101123595" x2="642.4719101123595" y1="273.33333333333337" y2="540.0" /><line stroke="gray" stroke-width="1" x1="643.9325842696629" x2="643.9325842696629" y1="273.33333333333337" y2="540.0" /><line stroke="gray" stroke-width="1" x1="645.3932584269663" x2="645.3932584269663" y1="273.33333333333337" y2="540.0" /><line stroke="gray" stroke-width="1" x1="646.8539325842696" x2="646.8539325842696" y1="273.33333333333337" y2="540.0" /><line stroke="gray" stroke-width="1" x1="648.314606741573" x2="648.314606741573" y1="273.33333333333337" y2="540.0" /><line stroke="gray" stroke-width="1" x1="649.7752808988764" x2="649.7752808988764" y1="273.33333333333337" y2="540.0" /><line stroke="gray" stroke-width="1" x1="651.2359550561798" x2="651.2359550561798" y1="273.33333333333337" y2="540.0" /><line stroke="gray" stroke-width="1" x1="652.6966292134831" x2="652.6966292134831" y1="273.33333333333337" y2="540.0" /><line stroke="gray" stroke-width="1" x1="654.1573033707865" x2="654.1573033707865" y1="273.33333333333337" y2="540.0" /><line stroke="gray" stroke-width="1" x1="655.6179775280899" x2="655.6179775280899" y1="273.33333333333337" y2="540.0" /><line stroke="gray" stroke-width="1" x1="657.0786516853932" x2="657.0786516853932" y1="273.33333333333337" y2="540.0" /><line stroke="gray" stroke-width="1" x1="658.5393258426966" x2="658.5393258426966" y1="273.33333333333337" y2="540.0" /><line stroke="gray" stroke-width="1" x1="660.0" x2="660.0" y1="273.33333333333337" y2="540.0" /><line stroke="gray" stroke-width="1" x1="661.4606741573034" x2="661.4606741573034" y1="273.33333333333337" y2="540.0" /><line stroke="gray" stroke-width="1" x1="662.9213483146068" x2="662.9213483146068" y1="273.33333333333337" y2="540.0" /><line stroke="gray" stroke-width="1" x1="664.3820224719101" x2="664.3820224719101" y1="273.33333333333337" y2="540.0" /><line stroke="gray" stroke-width="1" x1="665.8426966292135" x2="665.8426966292135" y1="273.33333333333337" y2="540.0" /><line stroke="gray" stroke-width="1" x1="667.3033707865168" x2="667.3033707865168" y1="273.33333333333337" y2="540.0" /><line stroke="gray" stroke-width="1" x1="668.7640449438202" x2="668.7640449438202" y1="273.33333333333337" y2="540.0" /><line stroke="gray" stroke-width="1" x1="670.2247191011236" x2="670.2247191011236" y1="273.33333333333337" y2="540.0" /><line stroke="gray" stroke-width="1" x1="671.685393258427" x2="671.685393258427" y1="273.33333333333337" y2="540.0" /><line stroke="gray" stroke-width="1" x1="673.1460674157304" x2="673.1460674157304" y1="273.33333333333337" y2="540.0" /><line stroke="gray" stroke-width="1" x1="674.6067415730338" x2="674.6067415730338" y1="273.33333333333337" y2="540.0" /><line stroke="gray" stroke-width="1" x1="676.0674157303371" x2="676.0674157303371" y1="273.33333333333337" y2="540.0" /><line stroke="gray" stroke-width="1" x1="677.5280898876405" x2="677.5280898876405" y1="273.33333333333337" y2="540.0" /><line stroke="gray" stroke-width="1" x1="678.9887640449438" x2="678.9887640449438" y1="273.33333333333337" y2="540.0" /><line stroke="gray" stroke-width="1" x1="680.4494382022472" x2="680.4494382022472" y1="273.33333333333337" y2="540.0" /><line stroke="gray" stroke-width="1" x1="681.9101123595506" x2="681.9101123595506" y1="273.33333333333337" y2="540.0" /><line stroke="gray" stroke-width="1" x1="683.370786516854" x2="683.370786516854" y1="273.33333333333337" y2="540.0" /><line stroke="gray" stroke-width="1" x1="684.8314606741574" x2="684.8314606741574" y1="273.33333333333337" y2="540.0" /><line stroke="gray" stroke-width="1" x1="686.2921348314607" x2="686.2921348314607" y1="273.33333333333337" y2="540.0" /><line stroke="gray" stroke-width="1" x1="687.7528089887641" x2="687.7528089887641" y1="273.33333333333337" y2="540.0" /><line stroke="gray" stroke-width="1" x1="689.2134831460673" x2="689.2134831460673" y1="273.33333333333337" y2="540.0" /><line stroke="gray" stroke-width="1" x1="690.6741573033707" x2="690.6741573033707" y1="273.33333333333337" y2="540.0" /><line stroke="gray" stroke-width="1" x1="692.1348314606741" x2="692.1348314606741" y1="273.33333333333337" y2="540.0" /><line stroke="gray" stroke-width="1" x1="693.5955056179776" x2="693.5955056179776" y1="273.33333333333337" y2="540.0" /><line stroke="gray" stroke-width="1" x1="695.056179775281" x2="695.056179775281" y1="273.33333333333337" y2="540.0" /><line stroke="gray" stroke-width="1" x1="696.5168539325844" x2="696.5168539325844" y1="273.33333333333337" y2="540.0" /><line stroke="gray" stroke-width="1" x1="697.9775280898876" x2="697.9775280898876" y1="273.33333333333337" y2="540.0" /><line stroke="gray" stroke-width="1" x1="699.4382022471909" x2="699.4382022471909" y1="273.33333333333337" y2="540.0" /><line stroke="gray" stroke-width="1" x1="700.8988764044943" x2="700.8988764044943" y1="273.33333333333337" y2="540.0" /><line stroke="gray" stroke-width="1" x1="702.3595505617977" x2="702.3595505617977" y1="273.33333333333337" y2="540.0" /><line stroke="gray" stroke-width="1" x1="703.8202247191011" x2="703.8202247191011" y1="273.33333333333337" y2="540.0" /><line stroke="gray" stroke-width="1" x1="705.2808988764045" x2="705.2808988764045" y1="273.33333333333337" y2="540.0" /><line stroke="gray" stroke-width="1" x1="706.7415730337079" x2="706.7415730337079" y1="273.33333333333337" y2="540.0" /><line stroke="gray" stroke-width="1" x1="708.2022471910112" x2="708.2022471910112" y1="273.33333333333337" y2="540.0" /><line stroke="gray" stroke-width="1" x1="709.6629213483146" x2="709.6629213483146" y1="273.33333333333337" y2="540.0" /><line stroke="gray" stroke-width="1" x1="711.1235955056179" x2="711.1235955056179" y1="273.33333333333337" y2="540.0" /><line stroke="gray" stroke-width="1" x1="712.5842696629213" x2="712.5842696629213" y1="273.33333333333337" y2="540.0" /><line stroke="gray" stroke-width="1" x1="714.0449438202247" x2="714.0449438202247" y1="273.33333333333337" y2="540.0" /><line stroke="gray" stroke-width="1" x1="715.5056179775281" x2="715.5056179775281" y1="273.33333333333337" y2="540.0" /><line stroke="gray" stroke-width="1" x1="716.9662921348315" x2="716.9662921348315" y1="273.33333333333337" y2="540.0" /><line stroke="gray" stroke-width="1" x1="718.4269662921348" x2="718.4269662921348" y1="273.33333333333337" y2="540.0" /><line stroke="gray" stroke-width="1" x1="719.8876404494382" x2="719.8876404494382" y1="273.33333333333337" y2="540.0" /><line stroke="gray" stroke-width="1" x1="721.3483146067415" x2="721.3483146067415" y1="273.33333333333337" y2="540.0" /><line stroke="gray" stroke-width="1" x1="722.8089887640449" x2="722.8089887640449" y1="273.33333333333337" y2="540.0" /><line stroke="gray" stroke-width="1" x1="724.2696629213483" x2="724.2696629213483" y1="273.33333333333337" y2="540.0" /><line stroke="gray" stroke-width="1" x1="725.7303370786517" x2="725.7303370786517" y1="273.33333333333337" y2="540.0" /><line stroke="gray" stroke-width="1" x1="727.1910112359551" x2="727.1910112359551" y1="273.33333333333337" y2="540.0" /><line stroke="gray" stroke-width="1" x1="728.6516853932585" x2="728.6516853932585" y1="273.33333333333337" y2="540.0" /><line stroke="gray" stroke-width="1" x1="730.1123595505618" x2="730.1123595505618" y1="273.33333333333337" y2="540.0" /><line stroke="gray" stroke-width="1" x1="731.5730337078652" x2="731.5730337078652" y1="273.33333333333337" y2="540.0" /><line stroke="gray" stroke-width="1" x1="733.0337078651685" x2="733.0337078651685" y1="273.33333333333337" y2="540.0" /><line stroke="gray" stroke-width="1" x1="734.4943820224719" x2="734.4943820224719" y1="273.33333333333337" y2="540.0" /><line stroke="gray" stroke-width="1" x1="735.9550561797753" x2="735.9550561797753" y1="273.33333333333337" y2="540.0" /><line stroke="gray" stroke-width="1" x1="737.4157303370787" x2="737.4157303370787" y1="273.33333333333337" y2="540.0" /><line stroke="gray" stroke-width="1" x1="738.8764044943821" x2="738.8764044943821" y1="273.33333333333337" y2="540.0" /><line stroke="gray" stroke-width="1" x1="740.3370786516854" x2="740.3370786516854" y1="273.33333333333337" y2="540.0" /><line stroke="gray" stroke-width="1" x1="741.7977528089888" x2="741.7977528089888" y1="273.33333333333337" y2="540.0" /><line stroke="gray" stroke-width="1" x1="743.2584269662921" x2="743.2584269662921" y1="273.33333333333337" y2="540.0" /><line stroke="gray" stroke-width="1" x1="744.7191011235955" x2="744.7191011235955" y1="273.33333333333337" y2="540.0" /><line stroke="gray" stroke-width="1" x1="746.1797752808989" x2="746.1797752808989" y1="273.33333333333337" y2="540.0" /><line stroke="gray" stroke-width="1" x1="747.6404494382023" x2="747.6404494382023" y1="273.33333333333337" y2="540.0" /><line stroke="gray" stroke-width="1" x1="749.1011235955057" x2="749.1011235955057" y1="273.33333333333337" y2="540.0" /><line stroke="gray" stroke-width="1" x1="750.5617977528091" x2="750.5617977528091" y1="273.33333333333337" y2="540.0" /><line stroke="gray" stroke-width="1" x1="752.0224719101124" x2="752.0224719101124" y1="273.33333333333337" y2="540.0" /><line stroke="gray" stroke-width="1" x1="753.4831460674158" x2="753.4831460674158" y1="273.33333333333337" y2="540.0" /><line stroke="gray" stroke-width="1" x1="754.943820224719" x2="754.943820224719" y1="273.33333333333337" y2="540.0" /><line stroke="gray" stroke-width="1" x1="756.4044943820224" x2="756.4044943820224" y1="273.33333333333337" y2="540.0" /><line stroke="gray" stroke-width="1" x1="757.8651685393259" x2="757.8651685393259" y1="273.33333333333337" y2="540.0" /><line stroke="gray" stroke-width="1" x1="759.3258426966293" x2="759.3258426966293" y1="273.33333333333337" y2="540.0" /><line stroke="gray" stroke-width="1" x1="760.7865168539327" x2="760.7865168539327" y1="273.33333333333337" y2="540.0" /><line stroke="gray" stroke-width="1" x1="762.2471910112359" x2="762.2471910112359" y1="273.33333333333337" y2="540.0" /><line stroke="gray" stroke-width="1" x1="763.7078651685393" x2="763.7078651685393" y1="273.33333333333337" y2="540.0" /><line stroke="gray" stroke-width="1" x1="765.1685393258426" x2="765.1685393258426" y1="273.33333333333337" y2="540.0" /><line stroke="gray" stroke-width="1" x1="766.629213483146" x2="766.629213483146" y1="273.33333333333337" y2="540.0" /><line stroke="gray" stroke-width="1" x1="768.0898876404494" x2="768.0898876404494" y1="273.33333333333337" y2="540.0" /><line stroke="gray" stroke-width="1" x1="769.5505617977528" x2="769.5505617977528" y1="273.33333333333337" y2="540.0" /><line stroke="gray" stroke-width="1" x1="771.0112359550562" x2="771.0112359550562" y1="273.33333333333337" y2="540.0" /><line stroke="gray" stroke-width="1" x1="772.4719101123596" x2="772.4719101123596" y1="273.33333333333337" y2="540.0" /><line stroke="gray" stroke-width="1" x1="773.9325842696629" x2="773.9325842696629" y1="273.33333333333337" y2="540.0" /><line stroke="gray" stroke-width="1" x1="775.3932584269662" x2="775.3932584269662" y1="273.33333333333337" y2="540.0" /><line stroke="gray" stroke-width="1" x1="776.8539325842696" x2="776.8539325842696" y1="273.33333333333337" y2="540.0" /><line stroke="gray" stroke-width="1" x1="778.314606741573" x2="778.314606741573" y1="273.33333333333337" y2="540.0" /><line stroke="gray" stroke-width="1" x1="779.7752808988764" x2="779.7752808988764" y1="273.33333333333337" y2="540.0" /><line stroke="gray" stroke-width="1" x1="781.2359550561798" x2="781.2359550561798" y1="273.33333333333337" y2="540.0" /><line stroke="gray" stroke-width="1" x1="782.6966292134832" x2="782.6966292134832" y1="273.33333333333337" y2="540.0" /><line stroke="gray" stroke-width="1" x1="784.1573033707865" x2="784.1573033707865" y1="273.33333333333337" y2="540.0" /><line stroke="gray" stroke-width="1" x1="785.6179775280899" x2="785.6179775280899" y1="273.33333333333337" y2="540.0" /><line stroke="gray" stroke-width="1" x1="787.0786516853932" x2="787.0786516853932" y1="273.33333333333337" y2="540.0" /><line stroke="gray" stroke-width="1" x1="788.5393258426966" x2="788.5393258426966" y1="273.33333333333337" y2="540.0" /><line stroke="gray" stroke-width="1" x1="790.0" x2="790.0" y1="273.33333333333337" y2="540.0" /><rect fill="blue" height="21.333333333333336" width="26.292134831460658" x="400.0" y="300.00000000000006" /><text fill="white" font-size="10" x="405.0" y="308.5333333333334">Task 2</text></svg>