<?xml version="1.0" encoding="utf-8" ?>
<svg baseProfile="full" height="600.0" version="1.1" width="800.0" xmlns="http://www.w3.org/2000/svg" xmlns:ev="http://www.w3.org/2001/xml-events" xmlns:xlink="http://www.w3.org/1999/xlink"><defs /><rect fill="white" height="600.0" stroke="black" stroke-width="2" width="800.0" x="0" y="0" /><rect fill="lightgray" height="50.0" stroke="black" stroke-width="1" width="780.0" x="10.0" y="10.0" /><text font-size="14" text-anchor="middle" x="400.0" y="35.0">header</text><rect fill="lightgray" height="50.0" stroke="black" stroke-width="1" width="780.0" x="10.0" y="540.0" /><text font-size="14" text-anchor="middle" x="400.0" y="565.0">footer</text><rect fill="none" height="480.0" stroke="blue" stroke-dasharray="4" stroke-width="1" width="780.0" x="10.0" y="60.0" /><rect fill="none" height="480.0" stroke="red" stroke-width="1" width="546.0" x="10.0" y="60.0" /><rect fill="none" height="20.0" stroke="green" stroke-width="1" width="546.0" x="10.0" y="60.0" /><rect fill="none" height="20.0" stroke="orange" stroke-width="1" width="546.0" x="10.0" y="80.0" /><rect fill="none" height="440.0" stroke="purple" stroke-width="1" width="546.0" x="10.0" y="100.0" /><line stroke="gray" stroke-width="1" x1="10.0" x2="556.0" y1="100.0" y2="100.0" /><line stroke="gray" stroke-width="1" x1="10.0" x2="556.0" y1="144.0" y2="144.0" /><line stroke="gray" stroke-width="1" x1="10.0" x2="556.0" y1="188.0" y2="188.0" /><line stroke="gray" stroke-width="1" x1="10.0" x2="556.0" y1="232.0" y2="232.0" /><line stroke="gray" stroke-width="1" x1="10.0" x2="556.0" y1="276.0" y2="276.0" /><line stroke="gray" stroke-width="1" x1="10.0" x2="556.0" y1="320.0" y2="320.0" /><line stroke="gray" stroke-width="1" x1="10.0" x2="556.0" y1="364.0" y2="364.0" /><line stroke="gray" stroke-width="1" x1="10.0" x2="556.0" y1="408.0" y2="408.0" /><line stroke="gray" stroke-width="1" x1="10.0" x2="556.0" y1="452.0" y2="452.0" /><line stroke="gray" stroke-width="1" x1="10.0" x2="556.0" y1="496.0" y2="496.0" /><line stroke="gray" stroke-width="1" x1="10.0" x2="556.0" y1="540.0" y2="540.0" /><line stroke="black" stroke-width="2" x1="27.901639344262296" x2="27.901639344262296" y1="100.0" y2="540.0" /><line stroke="black" stroke-width="2" x1="296.42622950819674" x2="296.42622950819674" y1="100.0" y2="540.0" /><line stroke="gray" stroke-width="1" x1="18.950819672131146" x2="18.950819672131146" y1="100.0" y2="540.0" /><line stroke="gray" stroke-width="1" x1="81.60655737704919" x2="81.60655737704919" y1="100.0" y2="540.0" /><line stroke="gray" stroke-width="1" x1="144.2622950819672" x2="144.2622950819672" y1="100.0" y2="540.0" /><line stroke="gray" stroke-width="1" x1="206.91803278688525" x2="206.91803278688525" y1="100.0" y2="540.0" /><line stroke="gray" stroke-width="1" x1="269.5737704918033" x2="269.5737704918033" y1="100.0" y2="540.0" /><line stroke="gray" stroke-width="1" x1="332.2295081967213" x2="332.2295081967213" y1="100.0" y2="540.0" /><line stroke="gray" stroke-width="1" x1="394.8852459016394" x2="394.8852459016394" y1="100.0" y2="540.0" /><line stroke="gray" stroke-width="1" x1="457.5409836065574" x2="457.5409836065574" y1="100.0" y2="540.0" /><line stroke="gray" stroke-width="1" x1="520.1967213114755" x2="520.1967213114755" y1="100.0" y2="540.0" /><rect fill="none" height="480.0" stroke="red" stroke-width="1" width="234.0" x="556.0" y="60.0" /><rect fill="none" height="20.0" stroke="green" stroke-width="1" width="234.0" x="556.0" y="60.0" /><rect fill="none" height="20.0" stroke="orange" stroke-width="1" width="234.0" x="556.0" y="80.0" /><rect fill="none" height="440.0" stroke="purple" stroke-width="1" width="234.0" x="556.0" y="100.0" /><line stroke="gray" stroke-width="1" x1="556.0" x2="790.0" y1="100.0" y2="100.0" /><line stroke="gray" stroke-width="1" x1="556.0" x2="790.0" y1="144.0" y2="144.0" /><line stroke="gray" stroke-width="1" x1="556.0" x2="790.0" y1="188.0" y2="188.0" /><line stroke="gray" stroke-width="1" x1="556.0" x2="790.0" y1="232.0" y2="232.0" /><line stroke="gray" stroke-width="1" x1="556.0" x2="790.0" y1="276.0" y2="276.0" /><line stroke="gray" stroke-width="1" x1="556.0" x2="790.0" y1="320.0" y2="320.0" /><line stroke="gray" stroke-width="1" x1="556.0" x2="790.0" y1="364.0" y2="364.0" /><line stroke="gray" stroke-width="1" x1="556.0" x2="790.0" y1="408.0" y2="408.0" /><line stroke="gray" stroke-width="1" x1="556.0" x2="790.0" y1="452.0" y2="452.0" /><line stroke="gray" stroke-width="1" x1="556.0" x2="790.0" y1="496.0" y2="496.0" /><line stroke="gray" stroke-width="1" x1="556.0" x2="790.0" y1="540.0" y2="540.0" /><line stroke="black" stroke-width="2" x1="559.9" x2="559.9" y1="100.0" y2="540.0" /><line stroke="black" stroke-width="2" x1="676.9" x2="676.9" y1="100.0" y2="540.0" /><line stroke="gray" stroke-width="1" x1="563.8" x2="563.8" y1="100.0" y2="540.0" /><line stroke="gray" stroke-width="1" x1="591.1" x2="591.1" y1="100.0" y2="540.0" /><line stroke="gray" stroke-width="1" x1="618.4" x2="618.4" y1="100.0" y2="540.0" /><line stroke="gray" stroke-width="1" x1="645.7" x2="645.7" y1="100.0" y2="540.0" /><line stroke="gray" stroke-width="1" x1="673.0" x2="673.0" y1="100.0" y2="540.0" /><line stroke="gray" stroke-width="1" x1="700.3" x2="700.3" y1="100.0" y2="540.0" /><line stroke="gray" stroke-width="1" x1="727.6" x2="727.6" y1="100.0" y2="540.0" /><line stroke="gray" stroke-width="1" x1="754.9" x2="754.9" y1="100.0" y2="540.0" /><line stroke="gray" stroke-width="1" x1="782.2" x2="782.2" y1="100.0" y2="540.0" /></svg>