<?xml version="1.0" encoding="utf-8" ?>
<svg baseProfile="full" height="600.0" version="1.1" width="800.0" xmlns="http://www.w3.org/2000/svg" xmlns:ev="http://www.w3.org/2001/xml-events" xmlns:xlink="http://www.w3.org/1999/xlink"><defs /><rect fill="white" height="600.0" stroke="black" stroke-width="2" width="800.0" x="0" y="0" /><rect fill="lightgray" height="50.0" stroke="black" stroke-width="1" width="780.0" x="10.0" y="10.0" /><rect fill="lightgray" height="50.0" stroke="black" stroke-width="1" width="780.0" x="10.0" y="540.0" /><rect fill="none" height="480.0" stroke="blue" stroke-dasharray="4" stroke-width="1" width="780.0" x="10.0" y="60.0" /><rect fill="none" height="480.0" stroke="red" stroke-width="1" width="780.0" x="10.0" y="60.0" /><rect fill="lightgrey" height="53.333333333333336" stroke="black" stroke-width="1" width="780.0" x="10.0" y="60.0" /><text dominant-baseline="middle" font-size="10" text-anchor="middle" x="400.0" y="86.66666666666667">2025</text><rect fill="lightgrey" height="53.333333333333336" stroke="black" stroke-width="1" width="780.0" x="10.0" y="113.33333333333334" /><line stroke="black" stroke-width="1" x1="168.0392156862745" x2="168.0392156862745" y1="113.33333333333334" y2="166.66666666666669" /><text dominant-baseline="middle" font-size="10" text-anchor="middle" x="89.01960784313725" y="140.0">Jan</text><line stroke="black" stroke-width="1" x1="310.78431372549016" x2="310.78431372549016" y1="113.33333333333334" y2="166.66666666666669" /><text dominant-baseline="middle" font-size="10" text-anchor="middle" x="239.41176470588232" y="140.0">Feb</text><line stroke="black" stroke-width="1" x1="468.8235294117647" x2="468.8235294117647" y1="113.33333333333334" y2="166.66666666666669" /><text dominant-baseline="middle" font-size="10" text-anchor="middle" x="389.8039215686274" y="140.0">Mar</text><line stroke="black" stroke-width="1" x1="621.7647058823529" x2="621.7647058823529" y1="113.33333333333334" y2="166.66666666666669" /><text dominant-baseline="middle" font-size="10" text-anchor="middle" x="545.2941176470588" y="140.0">Apr</text><line stroke="black" stroke-width="1" x1="779.8039215686274" x2="779.8039215686274" y1="113.33333333333334" y2="166.66666666666669" /><text dominant-baseline="middle" font-size="10" text-anchor="middle" x="700.7843137254902" y="140.0">May</text><rect fill="lightgrey" height="53.333333333333336" stroke="black" stroke-width="1" width="780.0" x="10.0" y="166.66666666666669" /><line stroke="black" stroke-width="1" x1="35.49019607843137" x2="35.49019607843137" y1="166.66666666666669" y2="220.00000000000003" /><text dominant-baseline="middle" font-size="10" text-anchor="middle" x="22.745098039215684" y="193.33333333333334">01</text><line stroke="black" stroke-width="1" x1="71.17647058823529" x2="71.17647058823529" y1="166.66666666666669" y2="220.00000000000003" /><text dominant-baseline="middle" font-size="10" text-anchor="middle" x="53.33333333333333" y="193.33333333333334">02</text><line stroke="black" stroke-width="1" x1="106.86274509803921" x2="106.86274509803921" y1="166.66666666666669" y2="220.00000000000003" /><text dominant-baseline="middle" font-size="10" text-anchor="middle" x="89.01960784313725" y="193.33333333333334">03</text><line stroke="black" stroke-width="1" x1="142.54901960784312" x2="142.54901960784312" y1="166.66666666666669" y2="220.00000000000003" /><text dominant-baseline="middle" font-size="10" text-anchor="middle" x="124.70588235294116" y="193.33333333333334">04</text><line stroke="black" stroke-width="1" x1="178.23529411764704" x2="178.23529411764704" y1="166.66666666666669" y2="220.00000000000003" /><text dominant-baseline="middle" font-size="10" text-anchor="middle" x="160.39215686274508" y="193.33333333333334">05</text><line stroke="black" stroke-width="1" x1="213.92156862745097" x2="213.92156862745097" y1="166.66666666666669" y2="220.00000000000003" /><text dominant-baseline="middle" font-size="10" text-anchor="middle" x="196.078431372549" y="193.33333333333334">06</text><line stroke="black" stroke-width="1" x1="249.6078431372549" x2="249.6078431372549" y1="166.66666666666669" y2="220.00000000000003" /><text dominant-baseline="middle" font-size="10" text-anchor="middle" x="231.76470588235293" y="193.33333333333334">07</text><line stroke="black" stroke-width="1" x1="285.2941176470588" x2="285.2941176470588" y1="166.66666666666669" y2="220.00000000000003" /><text dominant-baseline="middle" font-size="10" text-anchor="middle" x="267.45098039215685" y="193.33333333333334">08</text><line stroke="black" stroke-width="1" x1="320.9803921568627" x2="320.9803921568627" y1="166.66666666666669" y2="220.00000000000003" /><text dominant-baseline="middle" font-size="10" text-anchor="middle" x="303.1372549019608" y="193.33333333333334">09</text><line stroke="black" stroke-width="1" x1="356.66666666666663" x2="356.66666666666663" y1="166.66666666666669" y2="220.00000000000003" /><text dominant-baseline="middle" font-size="10" text-anchor="middle" x="338.82352941176464" y="193.33333333333334">10</text><line stroke="black" stroke-width="1" x1="392.35294117647055" x2="392.35294117647055" y1="166.66666666666669" y2="220.00000000000003" /><text dominant-baseline="middle" font-size="10" text-anchor="middle" x="374.5098039215686" y="193.33333333333334">11</text><line stroke="black" stroke-width="1" x1="428.0392156862745" x2="428.0392156862745" y1="166.66666666666669" y2="220.00000000000003" /><text dominant-baseline="middle" font-size="10" text-anchor="middle" x="410.1960784313725" y="193.33333333333334">12</text><line stroke="black" stroke-width="1" x1="463.7254901960784" x2="463.7254901960784" y1="166.66666666666669" y2="220.00000000000003" /><text dominant-baseline="middle" font-size="10" text-anchor="middle" x="445.88235294117646" y="193.33333333333334">13</text><line stroke="black" stroke-width="1" x1="499.4117647058823" x2="499.4117647058823" y1="166.66666666666669" y2="220.00000000000003" /><text dominant-baseline="middle" font-size="10" text-anchor="middle" x="481.56862745098033" y="193.33333333333334">14</text><line stroke="black" stroke-width="1" x1="535.0980392156862" x2="535.0980392156862" y1="166.66666666666669" y2="220.00000000000003" /><text dominant-baseline="middle" font-size="10" text-anchor="middle" x="517.2549019607843" y="193.33333333333334">15</text><line stroke="black" stroke-width="1" x1="570.7843137254902" x2="570.7843137254902" y1="166.66666666666669" y2="220.00000000000003" /><text dominant-baseline="middle" font-size="10" text-anchor="middle" x="552.9411764705882" y="193.33333333333334">16</text><line stroke="black" stroke-width="1" x1="606.470588235294" x2="606.470588235294" y1="166.66666666666669" y2="220.00000000000003" /><text dominant-baseline="middle" font-size="10" text-anchor="middle" x="588.627450980392" y="193.33333333333334">17</text><line stroke="black" stroke-width="1" x1="642.156862745098" x2="642.156862745098" y1="166.66666666666669" y2="220.00000000000003" /><text dominant-baseline="middle" font-size="10" text-anchor="middle" x="624.313725490196" y="193.33333333333334">18</text><line stroke="black" stroke-width="1" x1="677.8431372549019" x2="677.8431372549019" y1="166.66666666666669" y2="220.00000000000003" /><text dominant-baseline="middle" font-size="10" text-anchor="middle" x="660.0" y="193.33333333333334">19</text><line stroke="black" stroke-width="1" x1="713.5294117647059" x2="713.5294117647059" y1="166.66666666666669" y2="220.00000000000003" /><text dominant-baseline="middle" font-size="10" text-anchor="middle" x="695.6862745098039" y="193.33333333333334">20</text><line stroke="black" stroke-width="1" x1="749.2156862745097" x2="749.2156862745097" y1="166.66666666666669" y2="220.00000000000003" /><text dominant-baseline="middle" font-size="10" text-anchor="middle" x="731.3725490196077" y="193.33333333333334">21</text><line stroke="black" stroke-width="1" x1="784.9019607843137" x2="784.9019607843137" y1="166.66666666666669" y2="220.00000000000003" /><text dominant-baseline="middle" font-size="10" text-anchor="middle" x="767.0588235294117" y="193.33333333333334">22</text><rect fill="lightgrey" height="53.333333333333336" stroke="black" stroke-width="1" width="780.0" x="10.0" y="220.00000000000003" /><line stroke="black" stroke-width="1" x1="15.098039215686274" x2="15.098039215686274" y1="220.00000000000003" y2="273.33333333333337" /><line stroke="black" stroke-width="1" x1="20.19607843137255" x2="20.19607843137255" y1="220.00000000000003" y2="273.33333333333337" /><line stroke="black" stroke-width="1" x1="25.294117647058822" x2="25.294117647058822" y1="220.00000000000003" y2="273.33333333333337" /><line stroke="black" stroke-width="1" x1="30.392156862745097" x2="30.392156862745097" y1="220.00000000000003" y2="273.33333333333337" /><line stroke="black" stroke-width="1" x1="35.49019607843137" x2="35.49019607843137" y1="220.00000000000003" y2="273.33333333333337" /><line stroke="black" stroke-width="1" x1="40.588235294117645" x2="40.588235294117645" y1="220.00000000000003" y2="273.33333333333337" /><line stroke="black" stroke-width="1" x1="45.68627450980392" x2="45.68627450980392" y1="220.00000000000003" y2="273.33333333333337" /><line stroke="black" stroke-width="1" x1="50.78431372549019" x2="50.78431372549019" y1="220.00000000000003" y2="273.33333333333337" /><line stroke="black" stroke-width="1" x1="55.882352941176464" x2="55.882352941176464" y1="220.00000000000003" y2="273.33333333333337" /><line stroke="black" stroke-width="1" x1="60.98039215686274" x2="60.98039215686274" y1="220.00000000000003" y2="273.33333333333337" /><line stroke="black" stroke-width="1" x1="66.07843137254902" x2="66.07843137254902" y1="220.00000000000003" y2="273.33333333333337" /><line stroke="black" stroke-width="1" x1="71.17647058823529" x2="71.17647058823529" y1="220.00000000000003" y2="273.33333333333337" /><line stroke="black" stroke-width="1" x1="76.27450980392156" x2="76.27450980392156" y1="220.00000000000003" y2="273.33333333333337" /><line stroke="black" stroke-width="1" x1="81.37254901960785" x2="81.37254901960785" y1="220.00000000000003" y2="273.33333333333337" /><line stroke="black" stroke-width="1" x1="86.47058823529412" x2="86.47058823529412" y1="220.00000000000003" y2="273.33333333333337" /><line stroke="black" stroke-width="1" x1="91.56862745098039" x2="91.56862745098039" y1="220.00000000000003" y2="273.33333333333337" /><line stroke="black" stroke-width="1" x1="96.66666666666666" x2="96.66666666666666" y1="220.00000000000003" y2="273.33333333333337" /><line stroke="black" stroke-width="1" x1="101.76470588235293" x2="101.76470588235293" y1="220.00000000000003" y2="273.33333333333337" /><line stroke="black" stroke-width="1" x1="106.86274509803921" x2="106.86274509803921" y1="220.00000000000003" y2="273.33333333333337" /><line stroke="black" stroke-width="1" x1="111.96078431372548" x2="111.96078431372548" y1="220.00000000000003" y2="273.33333333333337" /><line stroke="black" stroke-width="1" x1="117.05882352941175" x2="117.05882352941175" y1="220.00000000000003" y2="273.33333333333337" /><line stroke="black" stroke-width="1" x1="122.15686274509804" x2="122.15686274509804" y1="220.00000000000003" y2="273.33333333333337" /><line stroke="black" stroke-width="1" x1="127.25490196078431" x2="127.25490196078431" y1="220.00000000000003" y2="273.33333333333337" /><line stroke="black" stroke-width="1" x1="132.35294117647058" x2="132.35294117647058" y1="220.00000000000003" y2="273.33333333333337" /><line stroke="black" stroke-width="1" x1="137.45098039215685" x2="137.45098039215685" y1="220.00000000000003" y2="273.33333333333337" /><line stroke="black" stroke-width="1" x1="142.54901960784312" x2="142.54901960784312" y1="220.00000000000003" y2="273.33333333333337" /><line stroke="black" stroke-width="1" x1="147.6470588235294" x2="147.6470588235294" y1="220.00000000000003" y2="273.33333333333337" /><line stroke="black" stroke-width="1" x1="152.7450980392157" x2="152.7450980392157" y1="220.00000000000003" y2="273.33333333333337" /><line stroke="black" stroke-width="1" x1="157.84313725490196" x2="157.84313725490196" y1="220.00000000000003" y2="273.33333333333337" /><line stroke="black" stroke-width="1" x1="162.94117647058823" x2="162.94117647058823" y1="220.00000000000003" y2="273.33333333333337" /><line stroke="black" stroke-width="1" x1="168.0392156862745" x2="168.0392156862745" y1="220.00000000000003" y2="273.33333333333337" /><line stroke="black" stroke-width="1" x1="173.13725490196077" x2="173.13725490196077" y1="220.00000000000003" y2="273.33333333333337" /><line stroke="black" stroke-width="1" x1="178.23529411764704" x2="178.23529411764704" y1="220.00000000000003" y2="273.33333333333337" /><line stroke="black" stroke-width="1" x1="183.33333333333331" x2="183.33333333333331" y1="220.00000000000003" y2="273.33333333333337" /><line stroke="black" stroke-width="1" x1="188.43137254901958" x2="188.43137254901958" y1="220.00000000000003" y2="273.33333333333337" /><line stroke="black" stroke-width="1" x1="193.52941176470586" x2="193.52941176470586" y1="220.00000000000003" y2="273.33333333333337" /><line stroke="black" stroke-width="1" x1="198.62745098039215" x2="198.62745098039215" y1="220.00000000000003" y2="273.33333333333337" /><line stroke="black" stroke-width="1" x1="203.72549019607843" x2="203.72549019607843" y1="220.00000000000003" y2="273.33333333333337" /><line stroke="black" stroke-width="1" x1="208.8235294117647" x2="208.8235294117647" y1="220.00000000000003" y2="273.33333333333337" /><line stroke="black" stroke-width="1" x1="213.92156862745097" x2="213.92156862745097" y1="220.00000000000003" y2="273.33333333333337" /><line stroke="black" stroke-width="1" x1="219.01960784313724" x2="219.01960784313724" y1="220.00000000000003" y2="273.33333333333337" /><line stroke="black" stroke-width="1" x1="224.1176470588235" x2="224.1176470588235" y1="220.00000000000003" y2="273.33333333333337" /><line stroke="black" stroke-width="1" x1="229.21568627450978" x2="229.21568627450978" y1="220.00000000000003" y2="273.33333333333337" /><line stroke="black" stroke-width="1" x1="234.31372549019608" x2="234.31372549019608" y1="220.00000000000003" y2="273.33333333333337" /><line stroke="black" stroke-width="1" x1="239.41176470588235" x2="239.41176470588235" y1="220.00000000000003" y2="273.33333333333337" /><line stroke="black" stroke-width="1" x1="244.50980392156862" x2="244.50980392156862" y1="220.00000000000003" y2="273.33333333333337" /><line stroke="black" stroke-width="1" x1="249.6078431372549" x2="249.6078431372549" y1="220.00000000000003" y2="273.33333333333337" /><line stroke="black" stroke-width="1" x1="254.70588235294116" x2="254.70588235294116" y1="220.00000000000003" y2="273.33333333333337" /><line stroke="black" stroke-width="1" x1="259.8039215686274" x2="259.8039215686274" y1="220.00000000000003" y2="273.33333333333337" /><line stroke="black" stroke-width="1" x1="264.9019607843137" x2="264.9019607843137" y1="220.00000000000003" y2="273.33333333333337" /><line stroke="black" stroke-width="1" x1="270.0" x2="270.0" y1="220.00000000000003" y2="273.33333333333337" /><line stroke="black" stroke-width="1" x1="275.09803921568624" x2="275.09803921568624" y1="220.00000000000003" y2="273.33333333333337" /><line stroke="black" stroke-width="1" x1="280.19607843137254" x2="280.19607843137254" y1="220.00000000000003" y2="273.33333333333337" /><line stroke="black" stroke-width="1" x1="285.2941176470588" x2="285.2941176470588" y1="220.00000000000003" y2="273.33333333333337" /><line stroke="black" stroke-width="1" x1="290.3921568627451" x2="290.3921568627451" y1="220.00000000000003" y2="273.33333333333337" /><line stroke="black" stroke-width="1" x1="295.4901960784314" x2="295.4901960784314" y1="220.00000000000003" y2="273.33333333333337" /><line stroke="black" stroke-width="1" x1="300.5882352941176" x2="300.5882352941176" y1="220.00000000000003" y2="273.33333333333337" /><line stroke="black" stroke-width="1" x1="305.6862745098039" x2="305.6862745098039" y1="220.00000000000003" y2="273.33333333333337" /><line stroke="black" stroke-width="1" x1="310.78431372549016" x2="310.78431372549016" y1="220.00000000000003" y2="273.33333333333337" /><line stroke="black" stroke-width="1" x1="315.88235294117646" x2="315.88235294117646" y1="220.00000000000003" y2="273.33333333333337" /><line stroke="black" stroke-width="1" x1="320.9803921568627" x2="320.9803921568627" y1="220.00000000000003" y2="273.33333333333337" /><line stroke="black" stroke-width="1" x1="326.078431372549" x2="326.078431372549" y1="220.00000000000003" y2="273.33333333333337" /><line stroke="black" stroke-width="1" x1="331.17647058823525" x2="331.17647058823525" y1="220.00000000000003" y2="273.33333333333337" /><line stroke="black" stroke-width="1" x1="336.27450980392155" x2="336.27450980392155" y1="220.00000000000003" y2="273.33333333333337" /><line stroke="black" stroke-width="1" x1="341.37254901960785" x2="341.37254901960785" y1="220.00000000000003" y2="273.33333333333337" /><line stroke="black" stroke-width="1" x1="346.4705882352941" x2="346.4705882352941" y1="220.00000000000003" y2="273.33333333333337" /><line stroke="black" stroke-width="1" x1="351.5686274509804" x2="351.5686274509804" y1="220.00000000000003" y2="273.33333333333337" /><line stroke="black" stroke-width="1" x1="356.66666666666663" x2="356.66666666666663" y1="220.00000000000003" y2="273.33333333333337" /><line stroke="black" stroke-width="1" x1="361.7647058823529" x2="361.7647058823529" y1="220.00000000000003" y2="273.33333333333337" /><line stroke="black" stroke-width="1" x1="366.86274509803917" x2="366.86274509803917" y1="220.00000000000003" y2="273.33333333333337" /><line stroke="black" stroke-width="1" x1="371.96078431372547" x2="371.96078431372547" y1="220.00000000000003" y2="273.33333333333337" /><line stroke="black" stroke-width="1" x1="377.0588235294117" x2="377.0588235294117" y1="220.00000000000003" y2="273.33333333333337" /><line stroke="black" stroke-width="1" x1="382.156862745098" x2="382.156862745098" y1="220.00000000000003" y2="273.33333333333337" /><line stroke="black" stroke-width="1" x1="387.2549019607843" x2="387.2549019607843" y1="220.00000000000003" y2="273.33333333333337" /><line stroke="black" stroke-width="1" x1="392.35294117647055" x2="392.35294117647055" y1="220.00000000000003" y2="273.33333333333337" /><line stroke="black" stroke-width="1" x1="397.45098039215685" x2="397.45098039215685" y1="220.00000000000003" y2="273.33333333333337" /><line stroke="black" stroke-width="1" x1="402.5490196078431" x2="402.5490196078431" y1="220.00000000000003" y2="273.33333333333337" /><line stroke="black" stroke-width="1" x1="407.6470588235294" x2="407.6470588235294" y1="220.00000000000003" y2="273.33333333333337" /><line stroke="black" stroke-width="1" x1="412.74509803921563" x2="412.74509803921563" y1="220.00000000000003" y2="273.33333333333337" /><line stroke="black" stroke-width="1" x1="417.84313725490193" x2="417.84313725490193" y1="220.00000000000003" y2="273.33333333333337" /><line stroke="black" stroke-width="1" x1="422.94117647058823" x2="422.94117647058823" y1="220.00000000000003" y2="273.33333333333337" /><line stroke="black" stroke-width="1" x1="428.0392156862745" x2="428.0392156862745" y1="220.00000000000003" y2="273.33333333333337" /><line stroke="black" stroke-width="1" x1="433.1372549019608" x2="433.1372549019608" y1="220.00000000000003" y2="273.33333333333337" /><line stroke="black" stroke-width="1" x1="438.235294117647" x2="438.235294117647" y1="220.00000000000003" y2="273.33333333333337" /><line stroke="black" stroke-width="1" x1="443.3333333333333" x2="443.3333333333333" y1="220.00000000000003" y2="273.33333333333337" /><line stroke="black" stroke-width="1" x1="448.43137254901956" x2="448.43137254901956" y1="220.00000000000003" y2="273.33333333333337" /><line stroke="black" stroke-width="1" x1="453.52941176470586" x2="453.52941176470586" y1="220.00000000000003" y2="273.33333333333337" /><line stroke="black" stroke-width="1" x1="458.62745098039215" x2="458.62745098039215" y1="220.00000000000003" y2="273.33333333333337" /><line stroke="black" stroke-width="1" x1="463.7254901960784" x2="463.7254901960784" y1="220.00000000000003" y2="273.33333333333337" /><line stroke="black" stroke-width="1" x1="468.8235294117647" x2="468.8235294117647" y1="220.00000000000003" y2="273.33333333333337" /><line stroke="black" stroke-width="1" x1="473.92156862745094" x2="473.92156862745094" y1="220.00000000000003" y2="273.33333333333337" /><line stroke="black" stroke-width="1" x1="479.01960784313724" x2="479.01960784313724" y1="220.00000000000003" y2="273.33333333333337" /><line stroke="black" stroke-width="1" x1="484.1176470588235" x2="484.1176470588235" y1="220.00000000000003" y2="273.33333333333337" /><line stroke="black" stroke-width="1" x1="489.2156862745098" x2="489.2156862745098" y1="220.00000000000003" y2="273.33333333333337" /><line stroke="black" stroke-width="1" x1="494.313725490196" x2="494.313725490196" y1="220.00000000000003" y2="273.33333333333337" /><line stroke="black" stroke-width="1" x1="499.4117647058823" x2="499.4117647058823" y1="220.00000000000003" y2="273.33333333333337" /><line stroke="black" stroke-width="1" x1="504.5098039215686" x2="504.5098039215686" y1="220.00000000000003" y2="273.33333333333337" /><line stroke="black" stroke-width="1" x1="509.60784313725486" x2="509.60784313725486" y1="220.00000000000003" y2="273.33333333333337" /><line stroke="black" stroke-width="1" x1="514.7058823529412" x2="514.7058823529412" y1="220.00000000000003" y2="273.33333333333337" /><line stroke="black" stroke-width="1" x1="519.8039215686274" x2="519.8039215686274" y1="220.00000000000003" y2="273.33333333333337" /><line stroke="black" stroke-width="1" x1="524.9019607843137" x2="524.9019607843137" y1="220.00000000000003" y2="273.33333333333337" /><line stroke="black" stroke-width="1" x1="530.0" x2="530.0" y1="220.00000000000003" y2="273.33333333333337" /><line stroke="black" stroke-width="1" x1="535.0980392156862" x2="535.0980392156862" y1="220.00000000000003" y2="273.33333333333337" /><line stroke="black" stroke-width="1" x1="540.1960784313725" x2="540.1960784313725" y1="220.00000000000003" y2="273.33333333333337" /><line stroke="black" stroke-width="1" x1="545.2941176470588" x2="545.2941176470588" y1="220.00000000000003" y2="273.33333333333337" /><line stroke="black" stroke-width="1" x1="550.3921568627451" x2="550.3921568627451" y1="220.00000000000003" y2="273.33333333333337" /><line stroke="black" stroke-width="1" x1="555.4901960784314" x2="555.4901960784314" y1="220.00000000000003" y2="273.33333333333337" /><line stroke="black" stroke-width="1" x1="560.5882352941176" x2="560.5882352941176" y1="220.00000000000003" y2="273.33333333333337" /><line stroke="black" stroke-width="1" x1="565.6862745098039" x2="565.6862745098039" y1="220.00000000000003" y2="273.33333333333337" /><line stroke="black" stroke-width="1" x1="570.7843137254902" x2="570.7843137254902" y1="220.00000000000003" y2="273.33333333333337" /><line stroke="black" stroke-width="1" x1="575.8823529411765" x2="575.8823529411765" y1="220.00000000000003" y2="273.33333333333337" /><line stroke="black" stroke-width="1" x1="580.9803921568628" x2="580.9803921568628" y1="220.00000000000003" y2="273.33333333333337" /><line stroke="black" stroke-width="1" x1="586.078431372549" x2="586.078431372549" y1="220.00000000000003" y2="273.33333333333337" /><line stroke="black" stroke-width="1" x1="591.1764705882352" x2="591.1764705882352" y1="220.00000000000003" y2="273.33333333333337" /><line stroke="black" stroke-width="1" x1="596.2745098039215" x2="596.2745098039215" y1="220.00000000000003" y2="273.33333333333337" /><line stroke="black" stroke-width="1" x1="601.3725490196078" x2="601.3725490196078" y1="220.00000000000003" y2="273.33333333333337" /><line stroke="black" stroke-width="1" x1="606.470588235294" x2="606.470588235294" y1="220.00000000000003" y2="273.33333333333337" /><line stroke="black" stroke-width="1" x1="611.5686274509803" x2="611.5686274509803" y1="220.00000000000003" y2="273.33333333333337" /><line stroke="black" stroke-width="1" x1="616.6666666666666" x2="616.6666666666666" y1="220.00000000000003" y2="273.33333333333337" /><line stroke="black" stroke-width="1" x1="621.7647058823529" x2="621.7647058823529" y1="220.00000000000003" y2="273.33333333333337" /><line stroke="black" stroke-width="1" x1="626.8627450980392" x2="626.8627450980392" y1="220.00000000000003" y2="273.33333333333337" /><line stroke="black" stroke-width="1" x1="631.9607843137254" x2="631.9607843137254" y1="220.00000000000003" y2="273.33333333333337" /><line stroke="black" stroke-width="1" x1="637.0588235294117" x2="637.0588235294117" y1="220.00000000000003" y2="273.33333333333337" /><line stroke="black" stroke-width="1" x1="642.156862745098" x2="642.156862745098" y1="220.00000000000003" y2="273.33333333333337" /><line stroke="black" stroke-width="1" x1="647.2549019607843" x2="647.2549019607843" y1="220.00000000000003" y2="273.33333333333337" /><line stroke="black" stroke-width="1" x1="652.3529411764705" x2="652.3529411764705" y1="220.00000000000003" y2="273.33333333333337" /><line stroke="black" stroke-width="1" x1="657.4509803921568" x2="657.4509803921568" y1="220.00000000000003" y2="273.33333333333337" /><line stroke="black" stroke-width="1" x1="662.5490196078431" x2="662.5490196078431" y1="220.00000000000003" y2="273.33333333333337" /><line stroke="black" stroke-width="1" x1="667.6470588235294" x2="667.6470588235294" y1="220.00000000000003" y2="273.33333333333337" /><line stroke="black" stroke-width="1" x1="672.7450980392157" x2="672.7450980392157" y1="220.00000000000003" y2="273.33333333333337" /><line stroke="black" stroke-width="1" x1="677.8431372549019" x2="677.8431372549019" y1="220.00000000000003" y2="273.33333333333337" /><line stroke="black" stroke-width="1" x1="682.9411764705882" x2="682.9411764705882" y1="220.00000000000003" y2="273.33333333333337" /><line stroke="black" stroke-width="1" x1="688.0392156862745" x2="688.0392156862745" y1="220.00000000000003" y2="273.33333333333337" /><line stroke="black" stroke-width="1" x1="693.1372549019608" x2="693.1372549019608" y1="220.00000000000003" y2="273.33333333333337" /><line stroke="black" stroke-width="1" x1="698.235294117647" x2="698.235294117647" y1="220.00000000000003" y2="273.33333333333337" /><line stroke="black" stroke-width="1" x1="703.3333333333333" x2="703.3333333333333" y1="220.00000000000003" y2="273.33333333333337" /><line stroke="black" stroke-width="1" x1="708.4313725490196" x2="708.4313725490196" y1="220.00000000000003" y2="273.33333333333337" /><line stroke="black" stroke-width="1" x1="713.5294117647059" x2="713.5294117647059" y1="220.00000000000003" y2="273.33333333333337" /><line stroke="black" stroke-width="1" x1="718.6274509803922" x2="718.6274509803922" y1="220.00000000000003" y2="273.33333333333337" /><line stroke="black" stroke-width="1" x1="723.7254901960783" x2="723.7254901960783" y1="220.00000000000003" y2="273.33333333333337" /><line stroke="black" stroke-width="1" x1="728.8235294117646" x2="728.8235294117646" y1="220.00000000000003" y2="273.33333333333337" /><line stroke="black" stroke-width="1" x1="733.9215686274509" x2="733.9215686274509" y1="220.00000000000003" y2="273.33333333333337" /><line stroke="black" stroke-width="1" x1="739.0196078431372" x2="739.0196078431372" y1="220.00000000000003" y2="273.33333333333337" /><line stroke="black" stroke-width="1" x1="744.1176470588234" x2="744.1176470588234" y1="220.00000000000003" y2="273.33333333333337" /><line stroke="black" stroke-width="1" x1="749.2156862745097" x2="749.2156862745097" y1="220.00000000000003" y2="273.33333333333337" /><line stroke="black" stroke-width="1" x1="754.313725490196" x2="754.313725490196" y1="220.00000000000003" y2="273.33333333333337" /><line stroke="black" stroke-width="1" x1="759.4117647058823" x2="759.4117647058823" y1="220.00000000000003" y2="273.33333333333337" /><line stroke="black" stroke-width="1" x1="764.5098039215686" x2="764.5098039215686" y1="220.00000000000003" y2="273.33333333333337" /><line stroke="black" stroke-width="1" x1="769.6078431372548" x2="769.6078431372548" y1="220.00000000000003" y2="273.33333333333337" /><line stroke="black" stroke-width="1" x1="774.7058823529411" x2="774.7058823529411" y1="220.00000000000003" y2="273.33333333333337" /><line stroke="black" stroke-width="1" x1="779.8039215686274" x2="779.8039215686274" y1="220.00000000000003" y2="273.33333333333337" /><line stroke="black" stroke-width="1" x1="784.9019607843137" x2="784.9019607843137" y1="220.00000000000003" y2="273.33333333333337" /><line stroke="black" stroke-width="1" x1="790.0" x2="790.0" y1="220.00000000000003" y2="273.33333333333337" /><rect fill="none" height="266.6666666666667" stroke="purple" stroke-width="1" width="780.0" x="10.0" y="273.33333333333337" /><line stroke="gray" stroke-width="1" x1="10.0" x2="790.0" y1="273.33333333333337" y2="273.33333333333337" /><line stroke="gray" stroke-width="1" x1="10.0" x2="790.0" y1="540.0" y2="540.0" /><line stroke="gray" stroke-width="1" x1="168.0392156862745" x2="168.0392156862745" y1="273.33333333333337" y2="540.0" /><line stroke="gray" stroke-width="1" x1="310.78431372549016" x2="310.78431372549016" y1="273.33333333333337" y2="540.0" /><line stroke="gray" stroke-width="1" x1="468.8235294117647" x2="468.8235294117647" y1="273.33333333333337" y2="540.0" /><line stroke="gray" stroke-width="1" x1="621.7647058823529" x2="621.7647058823529" y1="273.33333333333337" y2="540.0" /><line stroke="gray" stroke-width="1" x1="779.8039215686274" x2="779.8039215686274" y1="273.33333333333337" y2="540.0" /><line stroke="gray" stroke-width="1" x1="35.49019607843137" x2="35.49019607843137" y1="273.33333333333337" y2="540.0" /><line stroke="gray" stroke-width="1" x1="71.17647058823529" x2="71.17647058823529" y1="273.33333333333337" y2="540.0" /><line stroke="gray" stroke-width="1" x1="106.86274509803921" x2="106.86274509803921" y1="273.33333333333337" y2="540.0" /><line stroke="gray" stroke-width="1" x1="142.54901960784312" x2="142.54901960784312" y1="273.33333333333337" y2="540.0" /><line stroke="gray" stroke-width="1" x1="178.23529411764704" x2="178.23529411764704" y1="273.33333333333337" y2="540.0" /><line stroke="gray" stroke-width="1" x1="213.92156862745097" x2="213.92156862745097" y1="273.33333333333337" y2="540.0" /><line stroke="gray" stroke-width="1" x1="249.6078431372549" x2="249.6078431372549" y1="273.33333333333337" y2="540.0" /><line stroke="gray" stroke-width="1" x1="285.2941176470588" x2="285.2941176470588" y1="273.33333333333337" y2="540.0" /><line stroke="gray" stroke-width="1" x1="320.9803921568627" x2="320.9803921568627" y1="273.33333333333337" y2="540.0" /><line stroke="gray" stroke-width="1" x1="356.66666666666663" x2="356.66666666666663" y1="273.33333333333337" y2="540.0" /><line stroke="gray" stroke-width="1" x1="392.35294117647055" x2="392.35294117647055" y1="273.33333333333337" y2="540.0" /><line stroke="gray" stroke-width="1" x1="428.0392156862745" x2="428.0392156862745" y1="273.33333333333337" y2="540.0" /><line stroke="gray" stroke-width="1" x1="463.7254901960784" x2="463.7254901960784" y1="273.33333333333337" y2="540.0" /><line stroke="gray" stroke-width="1" x1="499.4117647058823" x2="499.4117647058823" y1="273.33333333333337" y2="540.0" /><line stroke="gray" stroke-width="1" x1="535.0980392156862" x2="535.0980392156862" y1="273.33333333333337" y2="540.0" /><line stroke="gray" stroke-width="1" x1="570.7843137254902" x2="570.7843137254902" y1="273.33333333333337" y2="540.0" /><line stroke="gray" stroke-width="1" x1="606.470588235294" x2="606.470588235294" y1="273.33333333333337" y2="540.0" /><line stroke="gray" stroke-width="1" x1="642.156862745098" x2="642.156862745098" y1="273.33333333333337" y2="540.0" /><line stroke="gray" stroke-width="1" x1="677.8431372549019" x2="677.8431372549019" y1="273.33333333333337" y2="540.0" /><line stroke="gray" stroke-width="1" x1="713.5294117647059" x2="713.5294117647059" y1="273.33333333333337" y2="540.0" /><line stroke="gray" stroke-width="1" x1="749.2156862745097" x2="749.2156862745097" y1="273.33333333333337" y2="540.0" /><line stroke="gray" stroke-width="1" x1="784.9019607843137" x2="784.9019607843137" y1="273.33333333333337" y2="540.0" /><line stroke="gray" stroke-width="1" x1="15.098039215686274" x2="15.098039215686274" y1="273.33333333333337" y2="540.0" /><line stroke="gray" stroke-width="1" x1="20.19607843137255" x2="20.19607843137255" y1="273.33333333333337" y2="540.0" /><line stroke="gray" stroke-width="1" x1="25.294117647058822" x2="25.294117647058822" y1="273.33333333333337" y2="540.0" /><line stroke="gray" stroke-width="1" x1="30.392156862745097" x2="30.392156862745097" y1="273.33333333333337" y2="540.0" /><line stroke="gray" stroke-width="1" x1="35.49019607843137" x2="35.49019607843137" y1="273.33333333333337" y2="540.0" /><line stroke="gray" stroke-width="1" x1="40.588235294117645" x2="40.588235294117645" y1="273.33333333333337" y2="540.0" /><line stroke="gray" stroke-width="1" x1="45.68627450980392" x2="45.68627450980392" y1="273.33333333333337" y2="540.0" /><line stroke="gray" stroke-width="1" x1="50.78431372549019" x2="50.78431372549019" y1="273.33333333333337" y2="540.0" /><line stroke="gray" stroke-width="1" x1="55.882352941176464" x2="55.882352941176464" y1="273.33333333333337" y2="540.0" /><line stroke="gray" stroke-width="1" x1="60.98039215686274" x2="60.98039215686274" y1="273.33333333333337" y2="540.0" /><line stroke="gray" stroke-width="1" x1="66.07843137254902" x2="66.07843137254902" y1="273.33333333333337" y2="540.0" /><line stroke="gray" stroke-width="1" x1="71.17647058823529" x2="71.17647058823529" y1="273.33333333333337" y2="540.0" /><line stroke="gray" stroke-width="1" x1="76.27450980392156" x2="76.27450980392156" y1="273.33333333333337" y2="540.0" /><line stroke="gray" stroke-width="1" x1="81.37254901960785" x2="81.37254901960785" y1="273.33333333333337" y2="540.0" /><line stroke="gray" stroke-width="1" x1="86.47058823529412" x2="86.47058823529412" y1="273.33333333333337" y2="540.0" /><line stroke="gray" stroke-width="1" x1="91.56862745098039" x2="91.56862745098039" y1="273.33333333333337" y2="540.0" /><line stroke="gray" stroke-width="1" x1="96.66666666666666" x2="96.66666666666666" y1="273.33333333333337" y2="540.0" /><line stroke="gray" stroke-width="1" x1="101.76470588235293" x2="101.76470588235293" y1="273.33333333333337" y2="540.0" /><line stroke="gray" stroke-width="1" x1="106.86274509803921" x2="106.86274509803921" y1="273.33333333333337" y2="540.0" /><line stroke="gray" stroke-width="1" x1="111.96078431372548" x2="111.96078431372548" y1="273.33333333333337" y2="540.0" /><line stroke="gray" stroke-width="1" x1="117.05882352941175" x2="117.05882352941175" y1="273.33333333333337" y2="540.0" /><line stroke="gray" stroke-width="1" x1="122.15686274509804" x2="122.15686274509804" y1="273.33333333333337" y2="540.0" /><line stroke="gray" stroke-width="1" x1="127.25490196078431" x2="127.25490196078431" y1="273.33333333333337" y2="540.0" /><line stroke="gray" stroke-width="1" x1="132.35294117647058" x2="132.35294117647058" y1="273.33333333333337" y2="540.0" /><line stroke="gray" stroke-width="1" x1="137.45098039215685" x2="137.45098039215685" y1="273.33333333333337" y2="540.0" /><line stroke="gray" stroke-width="1" x1="142.54901960784312" x2="142.54901960784312" y1="273.33333333333337" y2="540.0" /><line stroke="gray" stroke-width="1" x1="147.6470588235294" x2="147.6470588235294" y1="273.33333333333337" y2="540.0" /><line stroke="gray" stroke-width="1" x1="152.7450980392157" x2="152.7450980392157" y1="273.33333333333337" y2="540.0" /><line stroke="gray" stroke-width="1" x1="157.84313725490196" x2="157.84313725490196" y1="273.33333333333337" y2="540.0" /><line stroke="gray" stroke-width="1" x1="162.94117647058823" x2="162.94117647058823" y1="273.33333333333337" y2="540.0" /><line stroke="gray" stroke-width="1" x1="168.0392156862745" x2="168.0392156862745" y1="273.33333333333337" y2="540.0" /><line stroke="gray" stroke-width="1" x1="173.13725490196077" x2="173.13725490196077" y1="273.33333333333337" y2="540.0" /><line stroke="gray" stroke-width="1" x1="178.23529411764704" x2="178.23529411764704" y1="273.33333333333337" y2="540.0" /><line stroke="gray" stroke-width="1" x1="183.33333333333331" x2="183.33333333333331" y1="273.33333333333337" y2="540.0" /><line stroke="gray" stroke-width="1" x1="188.43137254901958" x2="188.43137254901958" y1="273.33333333333337" y2="540.0" /><line stroke="gray" stroke-width="1" x1="193.52941176470586" x2="193.52941176470586" y1="273.33333333333337" y2="540.0" /><line stroke="gray" stroke-width="1" x1="198.62745098039215" x2="198.62745098039215" y1="273.33333333333337" y2="540.0" /><line stroke="gray" stroke-width="1" x1="203.72549019607843" x2="203.72549019607843" y1="273.33333333333337" y2="540.0" /><line stroke="gray" stroke-width="1" x1="208.8235294117647" x2="208.8235294117647" y1="273.33333333333337" y2="540.0" /><line stroke="gray" stroke-width="1" x1="213.92156862745097" x2="213.92156862745097" y1="273.33333333333337" y2="540.0" /><line stroke="gray" stroke-width="1" x1="219.01960784313724" x2="219.01960784313724" y1="273.33333333333337" y2="540.0" /><line stroke="gray" stroke-width="1" x1="224.1176470588235" x2="224.1176470588235" y1="273.33333333333337" y2="540.0" /><line stroke="gray" stroke-width="1" x1="229.21568627450978" x2="229.21568627450978" y1="273.33333333333337" y2="540.0" /><line stroke="gray" stroke-width="1" x1="234.31372549019608" x2="234.31372549019608" y1="273.33333333333337" y2="540.0" /><line stroke="gray" stroke-width="1" x1="239.41176470588235" x2="239.41176470588235" y1="273.33333333333337" y2="540.0" /><line stroke="gray" stroke-width="1" x1="244.50980392156862" x2="244.50980392156862" y1="273.33333333333337" y2="540.0" /><line stroke="gray" stroke-width="1" x1="249.6078431372549" x2="249.6078431372549" y1="273.33333333333337" y2="540.0" /><line stroke="gray" stroke-width="1" x1="254.70588235294116" x2="254.70588235294116" y1="273.33333333333337" y2="540.0" /><line stroke="gray" stroke-width="1" x1="259.8039215686274" x2="259.8039215686274" y1="273.33333333333337" y2="540.0" /><line stroke="gray" stroke-width="1" x1="264.9019607843137" x2="264.9019607843137" y1="273.33333333333337" y2="540.0" /><line stroke="gray" stroke-width="1" x1="270.0" x2="270.0" y1="273.33333333333337" y2="540.0" /><line stroke="gray" stroke-width="1" x1="275.09803921568624" x2="275.09803921568624" y1="273.33333333333337" y2="540.0" /><line stroke="gray" stroke-width="1" x1="280.19607843137254" x2="280.19607843137254" y1="273.33333333333337" y2="540.0" /><line stroke="gray" stroke-width="1" x1="285.2941176470588" x2="285.2941176470588" y1="273.33333333333337" y2="540.0" /><line stroke="gray" stroke-width="1" x1="290.3921568627451" x2="290.3921568627451" y1="273.33333333333337" y2="540.0" /><line stroke="gray" stroke-width="1" x1="295.4901960784314" x2="295.4901960784314" y1="273.33333333333337" y2="540.0" /><line stroke="gray" stroke-width="1" x1="300.5882352941176" x2="300.5882352941176" y1="273.33333333333337" y2="540.0" /><line stroke="gray" stroke-width="1" x1="305.6862745098039" x2="305.6862745098039" y1="273.33333333333337" y2="540.0" /><line stroke="gray" stroke-width="1" x1="310.78431372549016" x2="310.78431372549016" y1="273.33333333333337" y2="540.0" /><line stroke="gray" stroke-width="1" x1="315.88235294117646" x2="315.88235294117646" y1="273.33333333333337" y2="540.0" /><line stroke="gray" stroke-width="1" x1="320.9803921568627" x2="320.9803921568627" y1="273.33333333333337" y2="540.0" /><line stroke="gray" stroke-width="1" x1="326.078431372549" x2="326.078431372549" y1="273.33333333333337" y2="540.0" /><line stroke="gray" stroke-width="1" x1="331.17647058823525" x2="331.17647058823525" y1="273.33333333333337" y2="540.0" /><line stroke="gray" stroke-width="1" x1="336.27450980392155" x2="336.27450980392155" y1="273.33333333333337" y2="540.0" /><line stroke="gray" stroke-width="1" x1="341.37254901960785" x2="341.37254901960785" y1="273.33333333333337" y2="540.0" /><line stroke="gray" stroke-width="1" x1="346.4705882352941" x2="346.4705882352941" y1="273.33333333333337" y2="540.0" /><line stroke="gray" stroke-width="1" x1="351.5686274509804" x2="351.5686274509804" y1="273.33333333333337" y2="540.0" /><line stroke="gray" stroke-width="1" x1="356.66666666666663" x2="356.66666666666663" y1="273.33333333333337" y2="540.0" /><line stroke="gray" stroke-width="1" x1="361.7647058823529" x2="361.7647058823529" y1="273.33333333333337" y2="540.0" /><line stroke="gray" stroke-width="1" x1="366.86274509803917" x2="366.86274509803917" y1="273.33333333333337" y2="540.0" /><line stroke="gray" stroke-width="1" x1="371.96078431372547" x2="371.96078431372547" y1="273.33333333333337" y2="540.0" /><line stroke="gray" stroke-width="1" x1="377.0588235294117" x2="377.0588235294117" y1="273.33333333333337" y2="540.0" /><line stroke="gray" stroke-width="1" x1="382.156862745098" x2="382.156862745098" y1="273.33333333333337" y2="540.0" /><line stroke="gray" stroke-width="1" x1="387.2549019607843" x2="387.2549019607843" y1="273.33333333333337" y2="540.0" /><line stroke="gray" stroke-width="1" x1="392.35294117647055" x2="392.35294117647055" y1="273.33333333333337" y2="540.0" /><line stroke="gray" stroke-width="1" x1="397.45098039215685" x2="397.45098039215685" y1="273.33333333333337" y2="540.0" /><line stroke="gray" stroke-width="1" x1="402.5490196078431" x2="402.5490196078431" y1="273.33333333333337" y2="540.0" /><line stroke="gray" stroke-width="1" x1="407.6470588235294" x2="407.6470588235294" y1="273.33333333333337" y2="540.0" /><line stroke="gray" stroke-width="1" x1="412.74509803921563" x2="412.74509803921563" y1="273.33333333333337" y2="540.0" /><line stroke="gray" stroke-width="1" x1="417.84313725490193" x2="417.84313725490193" y1="273.33333333333337" y2="540.0" /><line stroke="gray" stroke-width="1" x1="422.94117647058823" x2="422.94117647058823" y1="273.33333333333337" y2="540.0" /><line stroke="gray" stroke-width="1" x1="428.0392156862745" x2="428.0392156862745" y1="273.33333333333337" y2="540.0" /><line stroke="gray" stroke-width="1" x1="433.1372549019608" x2="433.1372549019608" y1="273.33333333333337" y2="540.0" /><line stroke="gray" stroke-width="1" x1="438.235294117647" x2="438.235294117647" y1="273.33333333333337" y2="540.0" /><line stroke="gray" stroke-width="1" x1="443.3333333333333" x2="443.3333333333333" y1="273.33333333333337" y2="540.0" /><line stroke="gray" stroke-width="1" x1="448.43137254901956" x2="448.43137254901956" y1="273.33333333333337" y2="540.0" /><line stroke="gray" stroke-width="1" x1="453.52941176470586" x2="453.52941176470586" y1="273.33333333333337" y2="540.0" /><line stroke="gray" stroke-width="1" x1="458.62745098039215" x2="458.62745098039215" y1="273.33333333333337" y2="540.0" /><line stroke="gray" stroke-width="1" x1="463.7254901960784" x2="463.7254901960784" y1="273.33333333333337" y2="540.0" /><line stroke="gray" stroke-width="1" x1="468.8235294117647" x2="468.8235294117647" y1="273.33333333333337" y2="540.0" /><line stroke="gray" stroke-width="1" x1="473.92156862745094" x2="473.92156862745094" y1="273.33333333333337" y2="540.0" /><line stroke="gray" stroke-width="1" x1="479.01960784313724" x2="479.01960784313724" y1="273.33333333333337" y2="540.0" /><line stroke="gray" stroke-width="1" x1="484.1176470588235" x2="484.1176470588235" y1="273.33333333333337" y2="540.0" /><line stroke="gray" stroke-width="1" x1="489.2156862745098" x2="489.2156862745098" y1="273.33333333333337" y2="540.0" /><line stroke="gray" stroke-width="1" x1="494.313725490196" x2="494.313725490196" y1="273.33333333333337" y2="540.0" /><line stroke="gray" stroke-width="1" x1="499.4117647058823" x2="499.4117647058823" y1="273.33333333333337" y2="540.0" /><line stroke="gray" stroke-width="1" x1="504.5098039215686" x2="504.5098039215686" y1="273.33333333333337" y2="540.0" /><line stroke="gray" stroke-width="1" x1="509.60784313725486" x2="509.60784313725486" y1="273.33333333333337" y2="540.0" /><line stroke="gray" stroke-width="1" x1="514.7058823529412" x2="514.7058823529412" y1="273.33333333333337" y2="540.0" /><line stroke="gray" stroke-width="1" x1="519.8039215686274" x2="519.8039215686274" y1="273.33333333333337" y2="540.0" /><line stroke="gray" stroke-width="1" x1="524.9019607843137" x2="524.9019607843137" y1="273.33333333333337" y2="540.0" /><line stroke="gray" stroke-width="1" x1="530.0" x2="530.0" y1="273.33333333333337" y2="540.0" /><line stroke="gray" stroke-width="1" x1="535.0980392156862" x2="535.0980392156862" y1="273.33333333333337" y2="540.0" /><line stroke="gray" stroke-width="1" x1="540.1960784313725" x2="540.1960784313725" y1="273.33333333333337" y2="540.0" /><line stroke="gray" stroke-width="1" x1="545.2941176470588" x2="545.2941176470588" y1="273.33333333333337" y2="540.0" /><line stroke="gray" stroke-width="1" x1="550.3921568627451" x2="550.3921568627451" y1="273.33333333333337" y2="540.0" /><line stroke="gray" stroke-width="1" x1="555.4901960784314" x2="555.4901960784314" y1="273.33333333333337" y2="540.0" /><line stroke="gray" stroke-width="1" x1="560.5882352941176" x2="560.5882352941176" y1="273.33333333333337" y2="540.0" /><line stroke="gray" stroke-width="1" x1="565.6862745098039" x2="565.6862745098039" y1="273.33333333333337" y2="540.0" /><line stroke="gray" stroke-width="1" x1="570.7843137254902" x2="570.7843137254902" y1="273.33333333333337" y2="540.0" /><line stroke="gray" stroke-width="1" x1="575.8823529411765" x2="575.8823529411765" y1="273.33333333333337" y2="540.0" /><line stroke="gray" stroke-width="1" x1="580.9803921568628" x2="580.9803921568628" y1="273.33333333333337" y2="540.0" /><line stroke="gray" stroke-width="1" x1="586.078431372549" x2="586.078431372549" y1="273.33333333333337" y2="540.0" /><line stroke="gray" stroke-width="1" x1="591.1764705882352" x2="591.1764705882352" y1="273.33333333333337" y2="540.0" /><line stroke="gray" stroke-width="1" x1="596.2745098039215" x2="596.2745098039215" y1="273.33333333333337" y2="540.0" /><line stroke="gray" stroke-width="1" x1="601.3725490196078" x2="601.3725490196078" y1="273.33333333333337" y2="540.0" /><line stroke="gray" stroke-width="1" x1="606.470588235294" x2="606.470588235294" y1="273.33333333333337" y2="540.0" /><line stroke="gray" stroke-width="1" x1="611.5686274509803" x2="611.5686274509803" y1="273.33333333333337" y2="540.0" /><line stroke="gray" stroke-width="1" x1="616.6666666666666" x2="616.6666666666666" y1="273.33333333333337" y2="540.0" /><line stroke="gray" stroke-width="1" x1="621.7647058823529" x2="621.7647058823529" y1="273.33333333333337" y2="540.0" /><line stroke="gray" stroke-width="1" x1="626.8627450980392" x2="626.8627450980392" y1="273.33333333333337" y2="540.0" /><line stroke="gray" stroke-width="1" x1="631.9607843137254" x2="631.9607843137254" y1="273.33333333333337" y2="540.0" /><line stroke="gray" stroke-width="1" x1="637.0588235294117" x2="637.0588235294117" y1="273.33333333333337" y2="540.0" /><line stroke="gray" stroke-width="1" x1="642.156862745098" x2="642.156862745098" y1="273.33333333333337" y2="540.0" /><line stroke="gray" stroke-width="1" x1="647.2549019607843" x2="647.2549019607843" y1="273.33333333333337" y2="540.0" /><line stroke="gray" stroke-width="1" x1="652.3529411764705" x2="652.3529411764705" y1="273.33333333333337" y2="540.0" /><line stroke="gray" stroke-width="1" x1="657.4509803921568" x2="657.4509803921568" y1="273.33333333333337" y2="540.0" /><line stroke="gray" stroke-width="1" x1="662.5490196078431" x2="662.5490196078431" y1="273.33333333333337" y2="540.0" /><line stroke="gray" stroke-width="1" x1="667.6470588235294" x2="667.6470588235294" y1="273.33333333333337" y2="540.0" /><line stroke="gray" stroke-width="1" x1="672.7450980392157" x2="672.7450980392157" y1="273.33333333333337" y2="540.0" /><line stroke="gray" stroke-width="1" x1="677.8431372549019" x2="677.8431372549019" y1="273.33333333333337" y2="540.0" /><line stroke="gray" stroke-width="1" x1="682.9411764705882" x2="682.9411764705882" y1="273.33333333333337" y2="540.0" /><line stroke="gray" stroke-width="1" x1="688.0392156862745" x2="688.0392156862745" y1="273.33333333333337" y2="540.0" /><line stroke="gray" stroke-width="1" x1="693.1372549019608" x2="693.1372549019608" y1="273.33333333333337" y2="540.0" /><line stroke="gray" stroke-width="1" x1="698.235294117647" x2="698.235294117647" y1="273.33333333333337" y2="540.0" /><line stroke="gray" stroke-width="1" x1="703.3333333333333" x2="703.3333333333333" y1="273.33333333333337" y2="540.0" /><line stroke="gray" stroke-width="1" x1="708.4313725490196" x2="708.4313725490196" y1="273.33333333333337" y2="540.0" /><line stroke="gray" stroke-width="1" x1="713.5294117647059" x2="713.5294117647059" y1="273.33333333333337" y2="540.0" /><line stroke="gray" stroke-width="1" x1="718.6274509803922" x2="718.6274509803922" y1="273.33333333333337" y2="540.0" /><line stroke="gray" stroke-width="1" x1="723.7254901960783" x2="723.7254901960783" y1="273.33333333333337" y2="540.0" /><line stroke="gray" stroke-width="1" x1="728.8235294117646" x2="728.8235294117646" y1="273.33333333333337" y2="540.0" /><line stroke="gray" stroke-width="1" x1="733.9215686274509" x2="733.9215686274509" y1="273.33333333333337" y2="540.0" /><line stroke="gray" stroke-width="1" x1="739.0196078431372" x2="739.0196078431372" y1="273.33333333333337" y2="540.0" /><line stroke="gray" stroke-width="1" x1="744.1176470588234" x2="744.1176470588234" y1="273.33333333333337" y2="540.0" /><line stroke="gray" stroke-width="1" x1="749.2156862745097" x2="749.2156862745097" y1="273.33333333333337" y2="540.0" /><line stroke="gray" stroke-width="1" x1="754.313725490196" x2="754.313725490196" y1="273.33333333333337" y2="540.0" /><line stroke="gray" stroke-width="1" x1="759.4117647058823" x2="759.4117647058823" y1="273.33333333333337" y2="540.0" /><line stroke="gray" stroke-width="1" x1="764.5098039215686" x2="764.5098039215686" y1="273.33333333333337" y2="540.0" /><line stroke="gray" stroke-width="1" x1="769.6078431372548" x2="769.6078431372548" y1="273.33333333333337" y2="540.0" /><line stroke="gray" stroke-width="1" x1="774.7058823529411" x2="774.7058823529411" y1="273.33333333333337" y2="540.0" /><line stroke="gray" stroke-width="1" x1="779.8039215686274" x2="779.8039215686274" y1="273.33333333333337" y2="540.0" /><line stroke="gray" stroke-width="1" x1="784.9019607843137" x2="784.9019607843137" y1="273.33333333333337" y2="540.0" /><line stroke="gray" stroke-width="1" x1="790.0" x2="790.0" y1="273.33333333333337" y2="540.0" /></svg>