<?xml version="1.0" encoding="utf-8" ?>
<svg baseProfile="full" height="600" version="1.1" width="800" xmlns="http://www.w3.org/2000/svg" xmlns:ev="http://www.w3.org/2001/xml-events" xmlns:xlink="http://www.w3.org/1999/xlink"><defs /><rect fill="white" height="600" stroke="black" stroke-width="2" width="800" x="0" y="0" /><rect fill="lightgray" height="50" stroke="black" stroke-width="1" width="780" x="10" y="10" /><rect fill="lightgray" height="50" stroke="black" stroke-width="1" width="780" x="10" y="540" /><rect fill="none" height="480" stroke="blue" stroke-dasharray="4" stroke-width="1" width="780" x="10" y="60" /><rect fill="none" height="480" stroke="red" stroke-width="1" width="390.0" x="10" y="60" /><rect fill="lightgrey" height="53.333333333333336" stroke="black" stroke-width="1" width="390.0" x="10" y="60" /><text dominant-baseline="middle" font-size="10" text-anchor="middle" x="205.0" y="86.66666666666667">2025</text><rect fill="lightgrey" height="53.333333333333336" stroke="black" stroke-width="1" width="390.0" x="10" y="113.33333333333334" /><text dominant-baseline="middle" font-size="10" text-anchor="middle" x="205.0" y="140.0">Jan</text><rect fill="lightgrey" height="53.333333333333336" stroke="black" stroke-width="1" width="390.0" x="10" y="166.66666666666669" /><text dominant-baseline="middle" font-size="10" text-anchor="middle" x="205.0" y="193.33333333333334">01 (05)</text><rect fill="lightgrey" height="53.333333333333336" stroke="black" stroke-width="1" width="390.0" x="10" y="220.00000000000003" /><line stroke="black" stroke-width="1" x1="107.5" x2="107.5" y1="220.00000000000003" y2="273.33333333333337" /><text dominant-baseline="middle" font-size="10" text-anchor="middle" x="58.75" y="246.66666666666669">Wed</text><line stroke="black" stroke-width="1" x1="205.0" x2="205.0" y1="220.00000000000003" y2="273.33333333333337" /><text dominant-baseline="middle" font-size="10" text-anchor="middle" x="156.25" y="246.66666666666669">Thu</text><line stroke="black" stroke-width="1" x1="302.5" x2="302.5" y1="220.00000000000003" y2="273.33333333333337" /><text dominant-baseline="middle" font-size="10" text-anchor="middle" x="253.75" y="246.66666666666669">Fri</text><line stroke="black" stroke-width="1" x1="400.0" x2="400.0" y1="220.00000000000003" y2="273.33333333333337" /><text dominant-baseline="middle" font-size="10" text-anchor="middle" x="351.25" y="246.66666666666669">Sat</text><rect fill="none" height="266.6666666666667" stroke="purple" stroke-width="1" width="390.0" x="10" y="273.33333333333337" /><line stroke="gray" stroke-width="1" x1="10" x2="400.0" y1="273.33333333333337" y2="273.33333333333337" /><line stroke="gray" stroke-width="1" x1="10" x2="400.0" y1="540.0" y2="540.0" /><line stroke="gray" stroke-width="1" x1="107.5" x2="107.5" y1="273.33333333333337" y2="540.0" /><line stroke="gray" stroke-width="1" x1="205.0" x2="205.0" y1="273.33333333333337" y2="540.0" /><line stroke="gray" stroke-width="1" x1="302.5" x2="302.5" y1="273.33333333333337" y2="540.0" /><line stroke="gray" stroke-width="1" x1="400.0" x2="400.0" y1="273.33333333333337" y2="540.0" /><rect fill="none" height="480" stroke="red" stroke-width="1" width="390.0" x="400.0" y="60" /><rect fill="lightgrey" height="53.333333333333336" stroke="black" stroke-width="1" width="390.0" x="400.0" y="60" /><text dominant-baseline="middle" font-size="10" text-anchor="middle" x="595.0" y="86.66666666666667">2025</text><rect fill="lightgrey" height="53.333333333333336" stroke="black" stroke-width="1" width="390.0" x="400.0" y="113.33333333333334" /><line stroke="black" stroke-width="1" x1="480.4761904761905" x2="480.4761904761905" y1="113.33333333333334" y2="166.66666666666669" /><text dominant-baseline="middle" font-size="10" text-anchor="middle" x="440.23809523809524" y="140.0">Jan</text><line stroke="black" stroke-width="1" x1="567.1428571428571" x2="567.1428571428571" y1="113.33333333333334" y2="166.66666666666669" /><text dominant-baseline="middle" font-size="10" text-anchor="middle" x="523.8095238095239" y="140.0">Feb</text><line stroke="black" stroke-width="1" x1="663.0952380952381" x2="663.0952380952381" y1="113.33333333333334" y2="166.66666666666669" /><text dominant-baseline="middle" font-size="10" text-anchor="middle" x="615.1190476190476" y="140.0">Mar</text><line stroke="black" stroke-width="1" x1="755.952380952381" x2="755.952380952381" y1="113.33333333333334" y2="166.66666666666669" /><text dominant-baseline="middle" font-size="10" text-anchor="middle" x="709.5238095238095" y="140.0">Apr</text><text dominant-baseline="middle" font-size="10" text-anchor="middle" x="772.9761904761905" y="140.0">M</text><rect fill="lightgrey" height="53.333333333333336" stroke="black" stroke-width="1" width="390.0" x="400.0" y="166.66666666666669" /><line stroke="black" stroke-width="1" x1="421.6666666666667" x2="421.6666666666667" y1="166.66666666666669" y2="220.00000000000003" /><text dominant-baseline="middle" font-size="10" text-anchor="middle" x="410.83333333333337" y="193.33333333333334">02</text><line stroke="black" stroke-width="1" x1="443.3333333333333" x2="443.3333333333333" y1="166.66666666666669" y2="220.00000000000003" /><text dominant-baseline="middle" font-size="10" text-anchor="middle" x="432.5" y="193.33333333333334">03</text><line stroke="black" stroke-width="1" x1="465.0" x2="465.0" y1="166.66666666666669" y2="220.00000000000003" /><text dominant-baseline="middle" font-size="10" text-anchor="middle" x="454.16666666666663" y="193.33333333333334">04</text><line stroke="black" stroke-width="1" x1="486.6666666666667" x2="486.6666666666667" y1="166.66666666666669" y2="220.00000000000003" /><text dominant-baseline="middle" font-size="10" text-anchor="middle" x="475.83333333333337" y="193.33333333333334">05</text><line stroke="black" stroke-width="1" x1="508.33333333333337" x2="508.33333333333337" y1="166.66666666666669" y2="220.00000000000003" /><text dominant-baseline="middle" font-size="10" text-anchor="middle" x="497.5" y="193.33333333333334">06</text><line stroke="black" stroke-width="1" x1="530.0" x2="530.0" y1="166.66666666666669" y2="220.00000000000003" /><text dominant-baseline="middle" font-size="10" text-anchor="middle" x="519.1666666666667" y="193.33333333333334">07</text><line stroke="black" stroke-width="1" x1="551.6666666666667" x2="551.6666666666667" y1="166.66666666666669" y2="220.00000000000003" /><text dominant-baseline="middle" font-size="10" text-anchor="middle" x="540.8333333333334" y="193.33333333333334">08</text><line stroke="black" stroke-width="1" x1="573.3333333333334" x2="573.3333333333334" y1="166.66666666666669" y2="220.00000000000003" /><text dominant-baseline="middle" font-size="10" text-anchor="middle" x="562.5" y="193.33333333333334">09</text><line stroke="black" stroke-width="1" x1="595.0" x2="595.0" y1="166.66666666666669" y2="220.00000000000003" /><text dominant-baseline="middle" font-size="10" text-anchor="middle" x="584.1666666666667" y="193.33333333333334">10</text><line stroke="black" stroke-width="1" x1="616.6666666666667" x2="616.6666666666667" y1="166.66666666666669" y2="220.00000000000003" /><text dominant-baseline="middle" font-size="10" text-anchor="middle" x="605.8333333333334" y="193.33333333333334">11</text><line stroke="black" stroke-width="1" x1="638.3333333333334" x2="638.3333333333334" y1="166.66666666666669" y2="220.00000000000003" /><text dominant-baseline="middle" font-size="10" text-anchor="middle" x="627.5" y="193.33333333333334">12</text><line stroke="black" stroke-width="1" x1="660.0" x2="660.0" y1="166.66666666666669" y2="220.00000000000003" /><text dominant-baseline="middle" font-size="10" text-anchor="middle" x="649.1666666666667" y="193.33333333333334">13</text><line stroke="black" stroke-width="1" x1="681.6666666666667" x2="681.6666666666667" y1="166.66666666666669" y2="220.00000000000003" /><text dominant-baseline="middle" font-size="10" text-anchor="middle" x="670.8333333333334" y="193.33333333333334">14</text><line stroke="black" stroke-width="1" x1="703.3333333333334" x2="703.3333333333334" y1="166.66666666666669" y2="220.00000000000003" /><text dominant-baseline="middle" font-size="10" text-anchor="middle" x="692.5" y="193.33333333333334">15</text><line stroke="black" stroke-width="1" x1="725.0" x2="725.0" y1="166.66666666666669" y2="220.00000000000003" /><text dominant-baseline="middle" font-size="10" text-anchor="middle" x="714.1666666666667" y="193.33333333333334">16</text><line stroke="black" stroke-width="1" x1="746.6666666666667" x2="746.6666666666667" y1="166.66666666666669" y2="220.00000000000003" /><text dominant-baseline="middle" font-size="10" text-anchor="middle" x="735.8333333333334" y="193.33333333333334">17</text><line stroke="black" stroke-width="1" x1="768.3333333333334" x2="768.3333333333334" y1="166.66666666666669" y2="220.00000000000003" /><text dominant-baseline="middle" font-size="10" text-anchor="middle" x="757.5" y="193.33333333333334">18</text><line stroke="black" stroke-width="1" x1="790.0" x2="790.0" y1="166.66666666666669" y2="220.00000000000003" /><text dominant-baseline="middle" font-size="10" text-anchor="middle" x="779.1666666666667" y="193.33333333333334">19</text><rect fill="lightgrey" height="53.333333333333336" stroke="black" stroke-width="1" width="390.0" x="400.0" y="220.00000000000003" /><rect fill="none" height="266.6666666666667" stroke="purple" stroke-width="1" width="390.0" x="400.0" y="273.33333333333337" /><line stroke="gray" stroke-width="1" x1="400.0" x2="790.0" y1="273.33333333333337" y2="273.33333333333337" /><line stroke="gray" stroke-width="1" x1="400.0" x2="790.0" y1="540.0" y2="540.0" /><line stroke="gray" stroke-width="1" x1="480.4761904761905" x2="480.4761904761905" y1="273.33333333333337" y2="540.0" /><line stroke="gray" stroke-width="1" x1="567.1428571428571" x2="567.1428571428571" y1="273.33333333333337" y2="540.0" /><line stroke="gray" stroke-width="1" x1="663.0952380952381" x2="663.0952380952381" y1="273.33333333333337" y2="540.0" /><line stroke="gray" stroke-width="1" x1="755.952380952381" x2="755.952380952381" y1="273.33333333333337" y2="540.0" /><line stroke="gray" stroke-width="1" x1="421.6666666666667" x2="421.6666666666667" y1="273.33333333333337" y2="540.0" /><line stroke="gray" stroke-width="1" x1="443.3333333333333" x2="443.3333333333333" y1="273.33333333333337" y2="540.0" /><line stroke="gray" stroke-width="1" x1="465.0" x2="465.0" y1="273.33333333333337" y2="540.0" /><line stroke="gray" stroke-width="1" x1="486.6666666666667" x2="486.6666666666667" y1="273.33333333333337" y2="540.0" /><line stroke="gray" stroke-width="1" x1="508.33333333333337" x2="508.33333333333337" y1="273.33333333333337" y2="540.0" /><line stroke="gray" stroke-width="1" x1="530.0" x2="530.0" y1="273.33333333333337" y2="540.0" /><line stroke="gray" stroke-width="1" x1="551.6666666666667" x2="551.6666666666667" y1="273.33333333333337" y2="540.0" /><line stroke="gray" stroke-width="1" x1="573.3333333333334" x2="573.3333333333334" y1="273.33333333333337" y2="540.0" /><line stroke="gray" stroke-width="1" x1="595.0" x2="595.0" y1="273.33333333333337" y2="540.0" /><line stroke="gray" stroke-width="1" x1="616.6666666666667" x2="616.6666666666667" y1="273.33333333333337" y2="540.0" /><line stroke="gray" stroke-width="1" x1="638.3333333333334" x2="638.3333333333334" y1="273.33333333333337" y2="540.0" /><line stroke="gray" stroke-width="1" x1="660.0" x2="660.0" y1="273.33333333333337" y2="540.0" /><line stroke="gray" stroke-width="1" x1="681.6666666666667" x2="681.6666666666667" y1="273.33333333333337" y2="540.0" /><line stroke="gray" stroke-width="1" x1="703.3333333333334" x2="703.3333333333334" y1="273.33333333333337" y2="540.0" /><line stroke="gray" stroke-width="1" x1="725.0" x2="725.0" y1="273.33333333333337" y2="540.0" /><line stroke="gray" stroke-width="1" x1="746.6666666666667" x2="746.6666666666667" y1="273.33333333333337" y2="540.0" /><line stroke="gray" stroke-width="1" x1="768.3333333333334" x2="768.3333333333334" y1="273.33333333333337" y2="540.0" /><line stroke="gray" stroke-width="1" x1="790.0" x2="790.0" y1="273.33333333333337" y2="540.0" /><line stroke="gray" stroke-width="1" x1="403.0952380952381" x2="403.0952380952381" y1="273.33333333333337" y2="540.0" /><line stroke="gray" stroke-width="1" x1="406.1904761904762" x2="406.1904761904762" y1="273.33333333333337" y2="540.0" /><line stroke="gray" stroke-width="1" x1="409.2857142857143" x2="409.2857142857143" y1="273.33333333333337" y2="540.0" /><line stroke="gray" stroke-width="1" x1="412.3809523809524" x2="412.3809523809524" y1="273.33333333333337" y2="540.0" /><line stroke="gray" stroke-width="1" x1="415.4761904761905" x2="415.4761904761905" y1="273.33333333333337" y2="540.0" /><line stroke="gray" stroke-width="1" x1="418.57142857142856" x2="418.57142857142856" y1="273.33333333333337" y2="540.0" /><line stroke="gray" stroke-width="1" x1="421.6666666666667" x2="421.6666666666667" y1="273.33333333333337" y2="540.0" /><line stroke="gray" stroke-width="1" x1="424.76190476190476" x2="424.76190476190476" y1="273.33333333333337" y2="540.0" /><line stroke="gray" stroke-width="1" x1="427.85714285714283" x2="427.85714285714283" y1="273.33333333333337" y2="540.0" /><line stroke="gray" stroke-width="1" x1="430.95238095238096" x2="430.95238095238096" y1="273.33333333333337" y2="540.0" /><line stroke="gray" stroke-width="1" x1="434.04761904761904" x2="434.04761904761904" y1="273.33333333333337" y2="540.0" /><line stroke="gray" stroke-width="1" x1="437.14285714285717" x2="437.14285714285717" y1="273.33333333333337" y2="540.0" /><line stroke="gray" stroke-width="1" x1="440.23809523809524" x2="440.23809523809524" y1="273.33333333333337" y2="540.0" /><line stroke="gray" stroke-width="1" x1="443.3333333333333" x2="443.3333333333333" y1="273.33333333333337" y2="540.0" /><line stroke="gray" stroke-width="1" x1="446.42857142857144" x2="446.42857142857144" y1="273.33333333333337" y2="540.0" /><line stroke="gray" stroke-width="1" x1="449.5238095238095" x2="449.5238095238095" y1="273.33333333333337" y2="540.0" /><line stroke="gray" stroke-width="1" x1="452.6190476190476" x2="452.6190476190476" y1="273.33333333333337" y2="540.0" /><line stroke="gray" stroke-width="1" x1="455.7142857142857" x2="455.7142857142857" y1="273.33333333333337" y2="540.0" /><line stroke="gray" stroke-width="1" x1="458.8095238095238" x2="458.8095238095238" y1="273.33333333333337" y2="540.0" /><line stroke="gray" stroke-width="1" x1="461.9047619047619" x2="461.9047619047619" y1="273.33333333333337" y2="540.0" /><line stroke="gray" stroke-width="1" x1="465.0" x2="465.0" y1="273.33333333333337" y2="540.0" /><line stroke="gray" stroke-width="1" x1="468.0952380952381" x2="468.0952380952381" y1="273.33333333333337" y2="540.0" /><line stroke="gray" stroke-width="1" x1="471.1904761904762" x2="471.1904761904762" y1="273.33333333333337" y2="540.0" /><line stroke="gray" stroke-width="1" x1="474.2857142857143" x2="474.2857142857143" y1="273.33333333333337" y2="540.0" /><line stroke="gray" stroke-width="1" x1="477.3809523809524" x2="477.3809523809524" y1="273.33333333333337" y2="540.0" /><line stroke="gray" stroke-width="1" x1="480.4761904761905" x2="480.4761904761905" y1="273.33333333333337" y2="540.0" /><line stroke="gray" stroke-width="1" x1="483.57142857142856" x2="483.57142857142856" y1="273.33333333333337" y2="540.0" /><line stroke="gray" stroke-width="1" x1="486.6666666666667" x2="486.6666666666667" y1="273.33333333333337" y2="540.0" /><line stroke="gray" stroke-width="1" x1="489.76190476190476" x2="489.76190476190476" y1="273.33333333333337" y2="540.0" /><line stroke="gray" stroke-width="1" x1="492.8571428571429" x2="492.8571428571429" y1="273.33333333333337" y2="540.0" /><line stroke="gray" stroke-width="1" x1="495.95238095238096" x2="495.95238095238096" y1="273.33333333333337" y2="540.0" /><line stroke="gray" stroke-width="1" x1="499.04761904761904" x2="499.04761904761904" y1="273.33333333333337" y2="540.0" /><line stroke="gray" stroke-width="1" x1="502.14285714285717" x2="502.14285714285717" y1="273.33333333333337" y2="540.0" /><line stroke="gray" stroke-width="1" x1="505.23809523809524" x2="505.23809523809524" y1="273.33333333333337" y2="540.0" /><line stroke="gray" stroke-width="1" x1="508.33333333333337" x2="508.33333333333337" y1="273.33333333333337" y2="540.0" /><line stroke="gray" stroke-width="1" x1="511.42857142857144" x2="511.42857142857144" y1="273.33333333333337" y2="540.0" /><line stroke="gray" stroke-width="1" x1="514.5238095238095" x2="514.5238095238095" y1="273.33333333333337" y2="540.0" /><line stroke="gray" stroke-width="1" x1="517.6190476190476" x2="517.6190476190476" y1="273.33333333333337" y2="540.0" /><line stroke="gray" stroke-width="1" x1="520.7142857142858" x2="520.7142857142858" y1="273.33333333333337" y2="540.0" /><line stroke="gray" stroke-width="1" x1="523.8095238095239" x2="523.8095238095239" y1="273.33333333333337" y2="540.0" /><line stroke="gray" stroke-width="1" x1="526.9047619047619" x2="526.9047619047619" y1="273.33333333333337" y2="540.0" /><line stroke="gray" stroke-width="1" x1="530.0" x2="530.0" y1="273.33333333333337" y2="540.0" /><line stroke="gray" stroke-width="1" x1="533.0952380952381" x2="533.0952380952381" y1="273.33333333333337" y2="540.0" /><line stroke="gray" stroke-width="1" x1="536.1904761904761" x2="536.1904761904761" y1="273.33333333333337" y2="540.0" /><line stroke="gray" stroke-width="1" x1="539.2857142857142" x2="539.2857142857142" y1="273.33333333333337" y2="540.0" /><line stroke="gray" stroke-width="1" x1="542.3809523809524" x2="542.3809523809524" y1="273.33333333333337" y2="540.0" /><line stroke="gray" stroke-width="1" x1="545.4761904761905" x2="545.4761904761905" y1="273.33333333333337" y2="540.0" /><line stroke="gray" stroke-width="1" x1="548.5714285714286" x2="548.5714285714286" y1="273.33333333333337" y2="540.0" /><line stroke="gray" stroke-width="1" x1="551.6666666666667" x2="551.6666666666667" y1="273.33333333333337" y2="540.0" /><line stroke="gray" stroke-width="1" x1="554.7619047619048" x2="554.7619047619048" y1="273.33333333333337" y2="540.0" /><line stroke="gray" stroke-width="1" x1="557.8571428571429" x2="557.8571428571429" y1="273.33333333333337" y2="540.0" /><line stroke="gray" stroke-width="1" x1="560.952380952381" x2="560.952380952381" y1="273.33333333333337" y2="540.0" /><line stroke="gray" stroke-width="1" x1="564.047619047619" x2="564.047619047619" y1="273.33333333333337" y2="540.0" /><line stroke="gray" stroke-width="1" x1="567.1428571428571" x2="567.1428571428571" y1="273.33333333333337" y2="540.0" /><line stroke="gray" stroke-width="1" x1="570.2380952380952" x2="570.2380952380952" y1="273.33333333333337" y2="540.0" /><line stroke="gray" stroke-width="1" x1="573.3333333333334" x2="573.3333333333334" y1="273.33333333333337" y2="540.0" /><line stroke="gray" stroke-width="1" x1="576.4285714285714" x2="576.4285714285714" y1="273.33333333333337" y2="540.0" /><line stroke="gray" stroke-width="1" x1="579.5238095238095" x2="579.5238095238095" y1="273.33333333333337" y2="540.0" /><line stroke="gray" stroke-width="1" x1="582.6190476190476" x2="582.6190476190476" y1="273.33333333333337" y2="540.0" /><line stroke="gray" stroke-width="1" x1="585.7142857142858" x2="585.7142857142858" y1="273.33333333333337" y2="540.0" /><line stroke="gray" stroke-width="1" x1="588.8095238095239" x2="588.8095238095239" y1="273.33333333333337" y2="540.0" /><line stroke="gray" stroke-width="1" x1="591.9047619047619" x2="591.9047619047619" y1="273.33333333333337" y2="540.0" /><line stroke="gray" stroke-width="1" x1="595.0" x2="595.0" y1="273.33333333333337" y2="540.0" /><line stroke="gray" stroke-width="1" x1="598.0952380952381" x2="598.0952380952381" y1="273.33333333333337" y2="540.0" /><line stroke="gray" stroke-width="1" x1="601.1904761904761" x2="601.1904761904761" y1="273.33333333333337" y2="540.0" /><line stroke="gray" stroke-width="1" x1="604.2857142857143" x2="604.2857142857143" y1="273.33333333333337" y2="540.0" /><line stroke="gray" stroke-width="1" x1="607.3809523809524" x2="607.3809523809524" y1="273.33333333333337" y2="540.0" /><line stroke="gray" stroke-width="1" x1="610.4761904761905" x2="610.4761904761905" y1="273.33333333333337" y2="540.0" /><line stroke="gray" stroke-width="1" x1="613.5714285714286" x2="613.5714285714286" y1="273.33333333333337" y2="540.0" /><line stroke="gray" stroke-width="1" x1="616.6666666666667" x2="616.6666666666667" y1="273.33333333333337" y2="540.0" /><line stroke="gray" stroke-width="1" x1="619.7619047619048" x2="619.7619047619048" y1="273.33333333333337" y2="540.0" /><line stroke="gray" stroke-width="1" x1="622.8571428571429" x2="622.8571428571429" y1="273.33333333333337" y2="540.0" /><line stroke="gray" stroke-width="1" x1="625.952380952381" x2="625.952380952381" y1="273.33333333333337" y2="540.0" /><line stroke="gray" stroke-width="1" x1="629.047619047619" x2="629.047619047619" y1="273.33333333333337" y2="540.0" /><line stroke="gray" stroke-width="1" x1="632.1428571428571" x2="632.1428571428571" y1="273.33333333333337" y2="540.0" /><line stroke="gray" stroke-width="1" x1="635.2380952380952" x2="635.2380952380952" y1="273.33333333333337" y2="540.0" /><line stroke="gray" stroke-width="1" x1="638.3333333333334" x2="638.3333333333334" y1="273.33333333333337" y2="540.0" /><line stroke="gray" stroke-width="1" x1="641.4285714285714" x2="641.4285714285714" y1="273.33333333333337" y2="540.0" /><line stroke="gray" stroke-width="1" x1="644.5238095238095" x2="644.5238095238095" y1="273.33333333333337" y2="540.0" /><line stroke="gray" stroke-width="1" x1="647.6190476190476" x2="647.6190476190476" y1="273.33333333333337" y2="540.0" /><line stroke="gray" stroke-width="1" x1="650.7142857142858" x2="650.7142857142858" y1="273.33333333333337" y2="540.0" /><line stroke="gray" stroke-width="1" x1="653.8095238095239" x2="653.8095238095239" y1="273.33333333333337" y2="540.0" /><line stroke="gray" stroke-width="1" x1="656.9047619047619" x2="656.9047619047619" y1="273.33333333333337" y2="540.0" /><line stroke="gray" stroke-width="1" x1="660.0" x2="660.0" y1="273.33333333333337" y2="540.0" /><line stroke="gray" stroke-width="1" x1="663.0952380952381" x2="663.0952380952381" y1="273.33333333333337" y2="540.0" /><line stroke="gray" stroke-width="1" x1="666.1904761904761" x2="666.1904761904761" y1="273.33333333333337" y2="540.0" /><line stroke="gray" stroke-width="1" x1="669.2857142857142" x2="669.2857142857142" y1="273.33333333333337" y2="540.0" /><line stroke="gray" stroke-width="1" x1="672.3809523809524" x2="672.3809523809524" y1="273.33333333333337" y2="540.0" /><line stroke="gray" stroke-width="1" x1="675.4761904761905" x2="675.4761904761905" y1="273.33333333333337" y2="540.0" /><line stroke="gray" stroke-width="1" x1="678.5714285714286" x2="678.5714285714286" y1="273.33333333333337" y2="540.0" /><line stroke="gray" stroke-width="1" x1="681.6666666666667" x2="681.6666666666667" y1="273.33333333333337" y2="540.0" /><line stroke="gray" stroke-width="1" x1="684.7619047619048" x2="684.7619047619048" y1="273.33333333333337" y2="540.0" /><line stroke="gray" stroke-width="1" x1="687.8571428571429" x2="687.8571428571429" y1="273.33333333333337" y2="540.0" /><line stroke="gray" stroke-width="1" x1="690.952380952381" x2="690.952380952381" y1="273.33333333333337" y2="540.0" /><line stroke="gray" stroke-width="1" x1="694.047619047619" x2="694.047619047619" y1="273.33333333333337" y2="540.0" /><line stroke="gray" stroke-width="1" x1="697.1428571428571" x2="697.1428571428571" y1="273.33333333333337" y2="540.0" /><line stroke="gray" stroke-width="1" x1="700.2380952380952" x2="700.2380952380952" y1="273.33333333333337" y2="540.0" /><line stroke="gray" stroke-width="1" x1="703.3333333333334" x2="703.3333333333334" y1="273.33333333333337" y2="540.0" /><line stroke="gray" stroke-width="1" x1="706.4285714285714" x2="706.4285714285714" y1="273.33333333333337" y2="540.0" /><line stroke="gray" stroke-width="1" x1="709.5238095238095" x2="709.5238095238095" y1="273.33333333333337" y2="540.0" /><line stroke="gray" stroke-width="1" x1="712.6190476190477" x2="712.6190476190477" y1="273.33333333333337" y2="540.0" /><line stroke="gray" stroke-width="1" x1="715.7142857142858" x2="715.7142857142858" y1="273.33333333333337" y2="540.0" /><line stroke="gray" stroke-width="1" x1="718.8095238095239" x2="718.8095238095239" y1="273.33333333333337" y2="540.0" /><line stroke="gray" stroke-width="1" x1="721.9047619047619" x2="721.9047619047619" y1="273.33333333333337" y2="540.0" /><line stroke="gray" stroke-width="1" x1="725.0" x2="725.0" y1="273.33333333333337" y2="540.0" /><line stroke="gray" stroke-width="1" x1="728.0952380952381" x2="728.0952380952381" y1="273.33333333333337" y2="540.0" /><line stroke="gray" stroke-width="1" x1="731.1904761904761" x2="731.1904761904761" y1="273.33333333333337" y2="540.0" /><line stroke="gray" stroke-width="1" x1="734.2857142857142" x2="734.2857142857142" y1="273.33333333333337" y2="540.0" /><line stroke="gray" stroke-width="1" x1="737.3809523809524" x2="737.3809523809524" y1="273.33333333333337" y2="540.0" /><line stroke="gray" stroke-width="1" x1="740.4761904761905" x2="740.4761904761905" y1="273.33333333333337" y2="540.0" /><line stroke="gray" stroke-width="1" x1="743.5714285714286" x2="743.5714285714286" y1="273.33333333333337" y2="540.0" /><line stroke="gray" stroke-width="1" x1="746.6666666666667" x2="746.6666666666667" y1="273.33333333333337" y2="540.0" /><line stroke="gray" stroke-width="1" x1="749.7619047619048" x2="749.7619047619048" y1="273.33333333333337" y2="540.0" /><line stroke="gray" stroke-width="1" x1="752.8571428571429" x2="752.8571428571429" y1="273.33333333333337" y2="540.0" /><line stroke="gray" stroke-width="1" x1="755.952380952381" x2="755.952380952381" y1="273.33333333333337" y2="540.0" /><line stroke="gray" stroke-width="1" x1="759.047619047619" x2="759.047619047619" y1="273.33333333333337" y2="540.0" /><line stroke="gray" stroke-width="1" x1="762.1428571428571" x2="762.1428571428571" y1="273.33333333333337" y2="540.0" /><line stroke="gray" stroke-width="1" x1="765.2380952380952" x2="765.2380952380952" y1="273.33333333333337" y2="540.0" /><line stroke="gray" stroke-width="1" x1="768.3333333333334" x2="768.3333333333334" y1="273.33333333333337" y2="540.0" /><line stroke="gray" stroke-width="1" x1="771.4285714285714" x2="771.4285714285714" y1="273.33333333333337" y2="540.0" /><line stroke="gray" stroke-width="1" x1="774.5238095238095" x2="774.5238095238095" y1="273.33333333333337" y2="540.0" /><line stroke="gray" stroke-width="1" x1="777.6190476190477" x2="777.6190476190477" y1="273.33333333333337" y2="540.0" /><line stroke="gray" stroke-width="1" x1="780.7142857142858" x2="780.7142857142858" y1="273.33333333333337" y2="540.0" /><line stroke="gray" stroke-width="1" x1="783.8095238095239" x2="783.8095238095239" y1="273.33333333333337" y2="540.0" /><line stroke="gray" stroke-width="1" x1="786.9047619047619" x2="786.9047619047619" y1="273.33333333333337" y2="540.0" /><line stroke="gray" stroke-width="1" x1="790.0" x2="790.0" y1="273.33333333333337" y2="540.0" /></svg>