<?xml version="1.0" encoding="utf-8" ?>
<svg baseProfile="full" height="600.0" version="1.1" width="800.0" xmlns="http://www.w3.org/2000/svg" xmlns:ev="http://www.w3.org/2001/xml-events" xmlns:xlink="http://www.w3.org/1999/xlink"><defs /><rect fill="white" height="600.0" stroke="black" stroke-width="2" width="800.0" x="0" y="0" /><rect fill="lightgray" height="50.0" stroke="black" stroke-width="1" width="780.0" x="10.0" y="10.0" /><text font-size="14" text-anchor="middle" x="400.0" y="35.0">header</text><rect fill="lightgray" height="50.0" stroke="black" stroke-width="1" width="780.0" x="10.0" y="540.0" /><text font-size="14" text-anchor="middle" x="400.0" y="565.0">footer</text><rect fill="none" height="480.0" stroke="blue" stroke-dasharray="4" stroke-width="1" width="780.0" x="10.0" y="60.0" /><rect fill="none" height="480.0" stroke="red" stroke-width="1" width="780.0" x="10.0" y="60.0" /><rect fill="lightgrey" height="53.333333333333336" stroke="black" stroke-width="1" width="780.0" x="10.0" y="60.0" /><text dominant-baseline="middle" font-size="10" text-anchor="middle" x="400.0" y="86.66666666666667">2025</text><rect fill="lightgrey" height="53.333333333333336" stroke="black" stroke-width="1" width="780.0" x="10.0" y="113.33333333333334" /><line stroke="black" stroke-width="1" x1="196.0" x2="196.0" y1="113.33333333333334" y2="166.66666666666669" /><text dominant-baseline="middle" font-size="10" text-anchor="middle" x="103.0" y="140.0">Jan</text><line stroke="black" stroke-width="1" x1="364.0" x2="364.0" y1="113.33333333333334" y2="166.66666666666669" /><text dominant-baseline="middle" font-size="10" text-anchor="middle" x="280.0" y="140.0">Feb</text><line stroke="black" stroke-width="1" x1="550.0" x2="550.0" y1="113.33333333333334" y2="166.66666666666669" /><text dominant-baseline="middle" font-size="10" text-anchor="middle" x="457.0" y="140.0">Mar</text><line stroke="black" stroke-width="1" x1="730.0" x2="730.0" y1="113.33333333333334" y2="166.66666666666669" /><text dominant-baseline="middle" font-size="10" text-anchor="middle" x="640.0" y="140.0">Apr</text><text dominant-baseline="middle" font-size="10" text-anchor="middle" x="760.0" y="140.0">May</text><rect fill="lightgrey" height="53.333333333333336" stroke="black" stroke-width="1" width="780.0" x="10.0" y="166.66666666666669" /><line stroke="black" stroke-width="1" x1="40.0" x2="40.0" y1="166.66666666666669" y2="220.00000000000003" /><text dominant-baseline="middle" font-size="10" text-anchor="middle" x="25.0" y="193.33333333333334">01</text><line stroke="black" stroke-width="1" x1="82.0" x2="82.0" y1="166.66666666666669" y2="220.00000000000003" /><text dominant-baseline="middle" font-size="10" text-anchor="middle" x="61.0" y="193.33333333333334">02</text><line stroke="black" stroke-width="1" x1="124.0" x2="124.0" y1="166.66666666666669" y2="220.00000000000003" /><text dominant-baseline="middle" font-size="10" text-anchor="middle" x="103.0" y="193.33333333333334">03</text><line stroke="black" stroke-width="1" x1="166.0" x2="166.0" y1="166.66666666666669" y2="220.00000000000003" /><text dominant-baseline="middle" font-size="10" text-anchor="middle" x="145.0" y="193.33333333333334">04</text><line stroke="black" stroke-width="1" x1="208.0" x2="208.0" y1="166.66666666666669" y2="220.00000000000003" /><text dominant-baseline="middle" font-size="10" text-anchor="middle" x="187.0" y="193.33333333333334">05</text><line stroke="black" stroke-width="1" x1="250.0" x2="250.0" y1="166.66666666666669" y2="220.00000000000003" /><text dominant-baseline="middle" font-size="10" text-anchor="middle" x="229.0" y="193.33333333333334">06</text><line stroke="black" stroke-width="1" x1="292.0" x2="292.0" y1="166.66666666666669" y2="220.00000000000003" /><text dominant-baseline="middle" font-size="10" text-anchor="middle" x="271.0" y="193.33333333333334">07</text><line stroke="black" stroke-width="1" x1="334.0" x2="334.0" y1="166.66666666666669" y2="220.00000000000003" /><text dominant-baseline="middle" font-size="10" text-anchor="middle" x="313.0" y="193.33333333333334">08</text><line stroke="black" stroke-width="1" x1="376.0" x2="376.0" y1="166.66666666666669" y2="220.00000000000003" /><text dominant-baseline="middle" font-size="10" text-anchor="middle" x="355.0" y="193.33333333333334">09</text><line stroke="black" stroke-width="1" x1="418.0" x2="418.0" y1="166.66666666666669" y2="220.00000000000003" /><text dominant-baseline="middle" font-size="10" text-anchor="middle" x="397.0" y="193.33333333333334">10</text><line stroke="black" stroke-width="1" x1="460.0" x2="460.0" y1="166.66666666666669" y2="220.00000000000003" /><text dominant-baseline="middle" font-size="10" text-anchor="middle" x="439.0" y="193.33333333333334">11</text><line stroke="black" stroke-width="1" x1="502.0" x2="502.0" y1="166.66666666666669" y2="220.00000000000003" /><text dominant-baseline="middle" font-size="10" text-anchor="middle" x="481.0" y="193.33333333333334">12</text><line stroke="black" stroke-width="1" x1="544.0" x2="544.0" y1="166.66666666666669" y2="220.00000000000003" /><text dominant-baseline="middle" font-size="10" text-anchor="middle" x="523.0" y="193.33333333333334">13</text><line stroke="black" stroke-width="1" x1="586.0" x2="586.0" y1="166.66666666666669" y2="220.00000000000003" /><text dominant-baseline="middle" font-size="10" text-anchor="middle" x="565.0" y="193.33333333333334">14</text><line stroke="black" stroke-width="1" x1="628.0" x2="628.0" y1="166.66666666666669" y2="220.00000000000003" /><text dominant-baseline="middle" font-size="10" text-anchor="middle" x="607.0" y="193.33333333333334">15</text><line stroke="black" stroke-width="1" x1="670.0" x2="670.0" y1="166.66666666666669" y2="220.00000000000003" /><text dominant-baseline="middle" font-size="10" text-anchor="middle" x="649.0" y="193.33333333333334">16</text><line stroke="black" stroke-width="1" x1="712.0" x2="712.0" y1="166.66666666666669" y2="220.00000000000003" /><text dominant-baseline="middle" font-size="10" text-anchor="middle" x="691.0" y="193.33333333333334">17</text><line stroke="black" stroke-width="1" x1="754.0" x2="754.0" y1="166.66666666666669" y2="220.00000000000003" /><text dominant-baseline="middle" font-size="10" text-anchor="middle" x="733.0" y="193.33333333333334">18</text><text dominant-baseline="middle" font-size="10" text-anchor="middle" x="772.0" y="193.33333333333334">19</text><rect fill="lightgrey" height="53.333333333333336" stroke="black" stroke-width="1" width="780.0" x="10.0" y="220.00000000000003" /><line stroke="black" stroke-width="1" x1="16.0" x2="16.0" y1="220.00000000000003" y2="273.33333333333337" /><line stroke="black" stroke-width="1" x1="22.0" x2="22.0" y1="220.00000000000003" y2="273.33333333333337" /><line stroke="black" stroke-width="1" x1="28.0" x2="28.0" y1="220.00000000000003" y2="273.33333333333337" /><line stroke="black" stroke-width="1" x1="34.0" x2="34.0" y1="220.00000000000003" y2="273.33333333333337" /><line stroke="black" stroke-width="1" x1="40.0" x2="40.0" y1="220.00000000000003" y2="273.33333333333337" /><line stroke="black" stroke-width="1" x1="46.0" x2="46.0" y1="220.00000000000003" y2="273.33333333333337" /><line stroke="black" stroke-width="1" x1="52.0" x2="52.0" y1="220.00000000000003" y2="273.33333333333337" /><line stroke="black" stroke-width="1" x1="58.0" x2="58.0" y1="220.00000000000003" y2="273.33333333333337" /><line stroke="black" stroke-width="1" x1="64.0" x2="64.0" y1="220.00000000000003" y2="273.33333333333337" /><line stroke="black" stroke-width="1" x1="70.0" x2="70.0" y1="220.00000000000003" y2="273.33333333333337" /><line stroke="black" stroke-width="1" x1="76.0" x2="76.0" y1="220.00000000000003" y2="273.33333333333337" /><line stroke="black" stroke-width="1" x1="82.0" x2="82.0" y1="220.00000000000003" y2="273.33333333333337" /><line stroke="black" stroke-width="1" x1="88.0" x2="88.0" y1="220.00000000000003" y2="273.33333333333337" /><line stroke="black" stroke-width="1" x1="94.0" x2="94.0" y1="220.00000000000003" y2="273.33333333333337" /><line stroke="black" stroke-width="1" x1="100.0" x2="100.0" y1="220.00000000000003" y2="273.33333333333337" /><line stroke="black" stroke-width="1" x1="106.0" x2="106.0" y1="220.00000000000003" y2="273.33333333333337" /><line stroke="black" stroke-width="1" x1="112.0" x2="112.0" y1="220.00000000000003" y2="273.33333333333337" /><line stroke="black" stroke-width="1" x1="118.0" x2="118.0" y1="220.00000000000003" y2="273.33333333333337" /><line stroke="black" stroke-width="1" x1="124.0" x2="124.0" y1="220.00000000000003" y2="273.33333333333337" /><line stroke="black" stroke-width="1" x1="130.0" x2="130.0" y1="220.00000000000003" y2="273.33333333333337" /><line stroke="black" stroke-width="1" x1="136.0" x2="136.0" y1="220.00000000000003" y2="273.33333333333337" /><line stroke="black" stroke-width="1" x1="142.0" x2="142.0" y1="220.00000000000003" y2="273.33333333333337" /><line stroke="black" stroke-width="1" x1="148.0" x2="148.0" y1="220.00000000000003" y2="273.33333333333337" /><line stroke="black" stroke-width="1" x1="154.0" x2="154.0" y1="220.00000000000003" y2="273.33333333333337" /><line stroke="black" stroke-width="1" x1="160.0" x2="160.0" y1="220.00000000000003" y2="273.33333333333337" /><line stroke="black" stroke-width="1" x1="166.0" x2="166.0" y1="220.00000000000003" y2="273.33333333333337" /><line stroke="black" stroke-width="1" x1="172.0" x2="172.0" y1="220.00000000000003" y2="273.33333333333337" /><line stroke="black" stroke-width="1" x1="178.0" x2="178.0" y1="220.00000000000003" y2="273.33333333333337" /><line stroke="black" stroke-width="1" x1="184.0" x2="184.0" y1="220.00000000000003" y2="273.33333333333337" /><line stroke="black" stroke-width="1" x1="190.0" x2="190.0" y1="220.00000000000003" y2="273.33333333333337" /><line stroke="black" stroke-width="1" x1="196.0" x2="196.0" y1="220.00000000000003" y2="273.33333333333337" /><line stroke="black" stroke-width="1" x1="202.0" x2="202.0" y1="220.00000000000003" y2="273.33333333333337" /><line stroke="black" stroke-width="1" x1="208.0" x2="208.0" y1="220.00000000000003" y2="273.33333333333337" /><line stroke="black" stroke-width="1" x1="214.0" x2="214.0" y1="220.00000000000003" y2="273.33333333333337" /><line stroke="black" stroke-width="1" x1="220.0" x2="220.0" y1="220.00000000000003" y2="273.33333333333337" /><line stroke="black" stroke-width="1" x1="226.0" x2="226.0" y1="220.00000000000003" y2="273.33333333333337" /><line stroke="black" stroke-width="1" x1="232.0" x2="232.0" y1="220.00000000000003" y2="273.33333333333337" /><line stroke="black" stroke-width="1" x1="238.0" x2="238.0" y1="220.00000000000003" y2="273.33333333333337" /><line stroke="black" stroke-width="1" x1="244.0" x2="244.0" y1="220.00000000000003" y2="273.33333333333337" /><line stroke="black" stroke-width="1" x1="250.0" x2="250.0" y1="220.00000000000003" y2="273.33333333333337" /><line stroke="black" stroke-width="1" x1="256.0" x2="256.0" y1="220.00000000000003" y2="273.33333333333337" /><line stroke="black" stroke-width="1" x1="262.0" x2="262.0" y1="220.00000000000003" y2="273.33333333333337" /><line stroke="black" stroke-width="1" x1="268.0" x2="268.0" y1="220.00000000000003" y2="273.33333333333337" /><line stroke="black" stroke-width="1" x1="274.0" x2="274.0" y1="220.00000000000003" y2="273.33333333333337" /><line stroke="black" stroke-width="1" x1="280.0" x2="280.0" y1="220.00000000000003" y2="273.33333333333337" /><line stroke="black" stroke-width="1" x1="286.0" x2="286.0" y1="220.00000000000003" y2="273.33333333333337" /><line stroke="black" stroke-width="1" x1="292.0" x2="292.0" y1="220.00000000000003" y2="273.33333333333337" /><line stroke="black" stroke-width="1" x1="298.0" x2="298.0" y1="220.00000000000003" y2="273.33333333333337" /><line stroke="black" stroke-width="1" x1="304.0" x2="304.0" y1="220.00000000000003" y2="273.33333333333337" /><line stroke="black" stroke-width="1" x1="310.0" x2="310.0" y1="220.00000000000003" y2="273.33333333333337" /><line stroke="black" stroke-width="1" x1="316.0" x2="316.0" y1="220.00000000000003" y2="273.33333333333337" /><line stroke="black" stroke-width="1" x1="322.0" x2="322.0" y1="220.00000000000003" y2="273.33333333333337" /><line stroke="black" stroke-width="1" x1="328.0" x2="328.0" y1="220.00000000000003" y2="273.33333333333337" /><line stroke="black" stroke-width="1" x1="334.0" x2="334.0" y1="220.00000000000003" y2="273.33333333333337" /><line stroke="black" stroke-width="1" x1="340.0" x2="340.0" y1="220.00000000000003" y2="273.33333333333337" /><line stroke="black" stroke-width="1" x1="346.0" x2="346.0" y1="220.00000000000003" y2="273.33333333333337" /><line stroke="black" stroke-width="1" x1="352.0" x2="352.0" y1="220.00000000000003" y2="273.33333333333337" /><line stroke="black" stroke-width="1" x1="358.0" x2="358.0" y1="220.00000000000003" y2="273.33333333333337" /><line stroke="black" stroke-width="1" x1="364.0" x2="364.0" y1="220.00000000000003" y2="273.33333333333337" /><line stroke="black" stroke-width="1" x1="370.0" x2="370.0" y1="220.00000000000003" y2="273.33333333333337" /><line stroke="black" stroke-width="1" x1="376.0" x2="376.0" y1="220.00000000000003" y2="273.33333333333337" /><line stroke="black" stroke-width="1" x1="382.0" x2="382.0" y1="220.00000000000003" y2="273.33333333333337" /><line stroke="black" stroke-width="1" x1="388.0" x2="388.0" y1="220.00000000000003" y2="273.33333333333337" /><line stroke="black" stroke-width="1" x1="394.0" x2="394.0" y1="220.00000000000003" y2="273.33333333333337" /><line stroke="black" stroke-width="1" x1="400.0" x2="400.0" y1="220.00000000000003" y2="273.33333333333337" /><line stroke="black" stroke-width="1" x1="406.0" x2="406.0" y1="220.00000000000003" y2="273.33333333333337" /><line stroke="black" stroke-width="1" x1="412.0" x2="412.0" y1="220.00000000000003" y2="273.33333333333337" /><line stroke="black" stroke-width="1" x1="418.0" x2="418.0" y1="220.00000000000003" y2="273.33333333333337" /><line stroke="black" stroke-width="1" x1="424.0" x2="424.0" y1="220.00000000000003" y2="273.33333333333337" /><line stroke="black" stroke-width="1" x1="430.0" x2="430.0" y1="220.00000000000003" y2="273.33333333333337" /><line stroke="black" stroke-width="1" x1="436.0" x2="436.0" y1="220.00000000000003" y2="273.33333333333337" /><line stroke="black" stroke-width="1" x1="442.0" x2="442.0" y1="220.00000000000003" y2="273.33333333333337" /><line stroke="black" stroke-width="1" x1="448.0" x2="448.0" y1="220.00000000000003" y2="273.33333333333337" /><line stroke="black" stroke-width="1" x1="454.0" x2="454.0" y1="220.00000000000003" y2="273.33333333333337" /><line stroke="black" stroke-width="1" x1="460.0" x2="460.0" y1="220.00000000000003" y2="273.33333333333337" /><line stroke="black" stroke-width="1" x1="466.0" x2="466.0" y1="220.00000000000003" y2="273.33333333333337" /><line stroke="black" stroke-width="1" x1="472.0" x2="472.0" y1="220.00000000000003" y2="273.33333333333337" /><line stroke="black" stroke-width="1" x1="478.0" x2="478.0" y1="220.00000000000003" y2="273.33333333333337" /><line stroke="black" stroke-width="1" x1="484.0" x2="484.0" y1="220.00000000000003" y2="273.33333333333337" /><line stroke="black" stroke-width="1" x1="490.0" x2="490.0" y1="220.00000000000003" y2="273.33333333333337" /><line stroke="black" stroke-width="1" x1="496.0" x2="496.0" y1="220.00000000000003" y2="273.33333333333337" /><line stroke="black" stroke-width="1" x1="502.0" x2="502.0" y1="220.00000000000003" y2="273.33333333333337" /><line stroke="black" stroke-width="1" x1="508.0" x2="508.0" y1="220.00000000000003" y2="273.33333333333337" /><line stroke="black" stroke-width="1" x1="514.0" x2="514.0" y1="220.00000000000003" y2="273.33333333333337" /><line stroke="black" stroke-width="1" x1="520.0" x2="520.0" y1="220.00000000000003" y2="273.33333333333337" /><line stroke="black" stroke-width="1" x1="526.0" x2="526.0" y1="220.00000000000003" y2="273.33333333333337" /><line stroke="black" stroke-width="1" x1="532.0" x2="532.0" y1="220.00000000000003" y2="273.33333333333337" /><line stroke="black" stroke-width="1" x1="538.0" x2="538.0" y1="220.00000000000003" y2="273.33333333333337" /><line stroke="black" stroke-width="1" x1="544.0" x2="544.0" y1="220.00000000000003" y2="273.33333333333337" /><line stroke="black" stroke-width="1" x1="550.0" x2="550.0" y1="220.00000000000003" y2="273.33333333333337" /><line stroke="black" stroke-width="1" x1="556.0" x2="556.0" y1="220.00000000000003" y2="273.33333333333337" /><line stroke="black" stroke-width="1" x1="562.0" x2="562.0" y1="220.00000000000003" y2="273.33333333333337" /><line stroke="black" stroke-width="1" x1="568.0" x2="568.0" y1="220.00000000000003" y2="273.33333333333337" /><line stroke="black" stroke-width="1" x1="574.0" x2="574.0" y1="220.00000000000003" y2="273.33333333333337" /><line stroke="black" stroke-width="1" x1="580.0" x2="580.0" y1="220.00000000000003" y2="273.33333333333337" /><line stroke="black" stroke-width="1" x1="586.0" x2="586.0" y1="220.00000000000003" y2="273.33333333333337" /><line stroke="black" stroke-width="1" x1="592.0" x2="592.0" y1="220.00000000000003" y2="273.33333333333337" /><line stroke="black" stroke-width="1" x1="598.0" x2="598.0" y1="220.00000000000003" y2="273.33333333333337" /><line stroke="black" stroke-width="1" x1="604.0" x2="604.0" y1="220.00000000000003" y2="273.33333333333337" /><line stroke="black" stroke-width="1" x1="610.0" x2="610.0" y1="220.00000000000003" y2="273.33333333333337" /><line stroke="black" stroke-width="1" x1="616.0" x2="616.0" y1="220.00000000000003" y2="273.33333333333337" /><line stroke="black" stroke-width="1" x1="622.0" x2="622.0" y1="220.00000000000003" y2="273.33333333333337" /><line stroke="black" stroke-width="1" x1="628.0" x2="628.0" y1="220.00000000000003" y2="273.33333333333337" /><line stroke="black" stroke-width="1" x1="634.0" x2="634.0" y1="220.00000000000003" y2="273.33333333333337" /><line stroke="black" stroke-width="1" x1="640.0" x2="640.0" y1="220.00000000000003" y2="273.33333333333337" /><line stroke="black" stroke-width="1" x1="646.0" x2="646.0" y1="220.00000000000003" y2="273.33333333333337" /><line stroke="black" stroke-width="1" x1="652.0" x2="652.0" y1="220.00000000000003" y2="273.33333333333337" /><line stroke="black" stroke-width="1" x1="658.0" x2="658.0" y1="220.00000000000003" y2="273.33333333333337" /><line stroke="black" stroke-width="1" x1="664.0" x2="664.0" y1="220.00000000000003" y2="273.33333333333337" /><line stroke="black" stroke-width="1" x1="670.0" x2="670.0" y1="220.00000000000003" y2="273.33333333333337" /><line stroke="black" stroke-width="1" x1="676.0" x2="676.0" y1="220.00000000000003" y2="273.33333333333337" /><line stroke="black" stroke-width="1" x1="682.0" x2="682.0" y1="220.00000000000003" y2="273.33333333333337" /><line stroke="black" stroke-width="1" x1="688.0" x2="688.0" y1="220.00000000000003" y2="273.33333333333337" /><line stroke="black" stroke-width="1" x1="694.0" x2="694.0" y1="220.00000000000003" y2="273.33333333333337" /><line stroke="black" stroke-width="1" x1="700.0" x2="700.0" y1="220.00000000000003" y2="273.33333333333337" /><line stroke="black" stroke-width="1" x1="706.0" x2="706.0" y1="220.00000000000003" y2="273.33333333333337" /><line stroke="black" stroke-width="1" x1="712.0" x2="712.0" y1="220.00000000000003" y2="273.33333333333337" /><line stroke="black" stroke-width="1" x1="718.0" x2="718.0" y1="220.00000000000003" y2="273.33333333333337" /><line stroke="black" stroke-width="1" x1="724.0" x2="724.0" y1="220.00000000000003" y2="273.33333333333337" /><line stroke="black" stroke-width="1" x1="730.0" x2="730.0" y1="220.00000000000003" y2="273.33333333333337" /><line stroke="black" stroke-width="1" x1="736.0" x2="736.0" y1="220.00000000000003" y2="273.33333333333337" /><line stroke="black" stroke-width="1" x1="742.0" x2="742.0" y1="220.00000000000003" y2="273.33333333333337" /><line stroke="black" stroke-width="1" x1="748.0" x2="748.0" y1="220.00000000000003" y2="273.33333333333337" /><line stroke="black" stroke-width="1" x1="754.0" x2="754.0" y1="220.00000000000003" y2="273.33333333333337" /><line stroke="black" stroke-width="1" x1="760.0" x2="760.0" y1="220.00000000000003" y2="273.33333333333337" /><line stroke="black" stroke-width="1" x1="766.0" x2="766.0" y1="220.00000000000003" y2="273.33333333333337" /><line stroke="black" stroke-width="1" x1="772.0" x2="772.0" y1="220.00000000000003" y2="273.33333333333337" /><line stroke="black" stroke-width="1" x1="778.0" x2="778.0" y1="220.00000000000003" y2="273.33333333333337" /><line stroke="black" stroke-width="1" x1="784.0" x2="784.0" y1="220.00000000000003" y2="273.33333333333337" /><line stroke="black" stroke-width="1" x1="790.0" x2="790.0" y1="220.00000000000003" y2="273.33333333333337" /><rect fill="none" height="266.6666666666667" stroke="purple" stroke-width="1" width="780.0" x="10.0" y="273.33333333333337" /><line stroke="gray" stroke-width="1" x1="10.0" x2="790.0" y1="273.33333333333337" y2="273.33333333333337" /><line stroke="gray" stroke-width="1" x1="10.0" x2="790.0" y1="300.00000000000006" y2="300.00000000000006" /><line stroke="gray" stroke-width="1" x1="10.0" x2="790.0" y1="326.6666666666667" y2="326.6666666666667" /><line stroke="gray" stroke-width="1" x1="10.0" x2="790.0" y1="353.33333333333337" y2="353.33333333333337" /><line stroke="gray" stroke-width="1" x1="10.0" x2="790.0" y1="380.00000000000006" y2="380.00000000000006" /><line stroke="gray" stroke-width="1" x1="10.0" x2="790.0" y1="406.66666666666674" y2="406.66666666666674" /><line stroke="gray" stroke-width="1" x1="10.0" x2="790.0" y1="433.33333333333337" y2="433.33333333333337" /><line stroke="gray" stroke-width="1" x1="10.0" x2="790.0" y1="460.00000000000006" y2="460.00000000000006" /><line stroke="gray" stroke-width="1" x1="10.0" x2="790.0" y1="486.66666666666674" y2="486.66666666666674" /><line stroke="gray" stroke-width="1" x1="10.0" x2="790.0" y1="513.3333333333334" y2="513.3333333333334" /><line stroke="gray" stroke-width="1" x1="10.0" x2="790.0" y1="540.0" y2="540.0" /><line stroke="gray" stroke-width="1" x1="196.0" x2="196.0" y1="273.33333333333337" y2="540.0" /><line stroke="gray" stroke-width="1" x1="364.0" x2="364.0" y1="273.33333333333337" y2="540.0" /><line stroke="gray" stroke-width="1" x1="550.0" x2="550.0" y1="273.33333333333337" y2="540.0" /><line stroke="gray" stroke-width="1" x1="730.0" x2="730.0" y1="273.33333333333337" y2="540.0" /><line stroke="gray" stroke-width="1" x1="40.0" x2="40.0" y1="273.33333333333337" y2="540.0" /><line stroke="gray" stroke-width="1" x1="82.0" x2="82.0" y1="273.33333333333337" y2="540.0" /><line stroke="gray" stroke-width="1" x1="124.0" x2="124.0" y1="273.33333333333337" y2="540.0" /><line stroke="gray" stroke-width="1" x1="166.0" x2="166.0" y1="273.33333333333337" y2="540.0" /><line stroke="gray" stroke-width="1" x1="208.0" x2="208.0" y1="273.33333333333337" y2="540.0" /><line stroke="gray" stroke-width="1" x1="250.0" x2="250.0" y1="273.33333333333337" y2="540.0" /><line stroke="gray" stroke-width="1" x1="292.0" x2="292.0" y1="273.33333333333337" y2="540.0" /><line stroke="gray" stroke-width="1" x1="334.0" x2="334.0" y1="273.33333333333337" y2="540.0" /><line stroke="gray" stroke-width="1" x1="376.0" x2="376.0" y1="273.33333333333337" y2="540.0" /><line stroke="gray" stroke-width="1" x1="418.0" x2="418.0" y1="273.33333333333337" y2="540.0" /><line stroke="gray" stroke-width="1" x1="460.0" x2="460.0" y1="273.33333333333337" y2="540.0" /><line stroke="gray" stroke-width="1" x1="502.0" x2="502.0" y1="273.33333333333337" y2="540.0" /><line stroke="gray" stroke-width="1" x1="544.0" x2="544.0" y1="273.33333333333337" y2="540.0" /><line stroke="gray" stroke-width="1" x1="586.0" x2="586.0" y1="273.33333333333337" y2="540.0" /><line stroke="gray" stroke-width="1" x1="628.0" x2="628.0" y1="273.33333333333337" y2="540.0" /><line stroke="gray" stroke-width="1" x1="670.0" x2="670.0" y1="273.33333333333337" y2="540.0" /><line stroke="gray" stroke-width="1" x1="712.0" x2="712.0" y1="273.33333333333337" y2="540.0" /><line stroke="gray" stroke-width="1" x1="754.0" x2="754.0" y1="273.33333333333337" y2="540.0" /><line stroke="gray" stroke-width="1" x1="16.0" x2="16.0" y1="273.33333333333337" y2="540.0" /><line stroke="gray" stroke-width="1" x1="22.0" x2="22.0" y1="273.33333333333337" y2="540.0" /><line stroke="gray" stroke-width="1" x1="28.0" x2="28.0" y1="273.33333333333337" y2="540.0" /><line stroke="gray" stroke-width="1" x1="34.0" x2="34.0" y1="273.33333333333337" y2="540.0" /><line stroke="gray" stroke-width="1" x1="40.0" x2="40.0" y1="273.33333333333337" y2="540.0" /><line stroke="gray" stroke-width="1" x1="46.0" x2="46.0" y1="273.33333333333337" y2="540.0" /><line stroke="gray" stroke-width="1" x1="52.0" x2="52.0" y1="273.33333333333337" y2="540.0" /><line stroke="gray" stroke-width="1" x1="58.0" x2="58.0" y1="273.33333333333337" y2="540.0" /><line stroke="gray" stroke-width="1" x1="64.0" x2="64.0" y1="273.33333333333337" y2="540.0" /><line stroke="gray" stroke-width="1" x1="70.0" x2="70.0" y1="273.33333333333337" y2="540.0" /><line stroke="gray" stroke-width="1" x1="76.0" x2="76.0" y1="273.33333333333337" y2="540.0" /><line stroke="gray" stroke-width="1" x1="82.0" x2="82.0" y1="273.33333333333337" y2="540.0" /><line stroke="gray" stroke-width="1" x1="88.0" x2="88.0" y1="273.33333333333337" y2="540.0" /><line stroke="gray" stroke-width="1" x1="94.0" x2="94.0" y1="273.33333333333337" y2="540.0" /><line stroke="gray" stroke-width="1" x1="100.0" x2="100.0" y1="273.33333333333337" y2="540.0" /><line stroke="gray" stroke-width="1" x1="106.0" x2="106.0" y1="273.33333333333337" y2="540.0" /><line stroke="gray" stroke-width="1" x1="112.0" x2="112.0" y1="273.33333333333337" y2="540.0" /><line stroke="gray" stroke-width="1" x1="118.0" x2="118.0" y1="273.33333333333337" y2="540.0" /><line stroke="gray" stroke-width="1" x1="124.0" x2="124.0" y1="273.33333333333337" y2="540.0" /><line stroke="gray" stroke-width="1" x1="130.0" x2="130.0" y1="273.33333333333337" y2="540.0" /><line stroke="gray" stroke-width="1" x1="136.0" x2="136.0" y1="273.33333333333337" y2="540.0" /><line stroke="gray" stroke-width="1" x1="142.0" x2="142.0" y1="273.33333333333337" y2="540.0" /><line stroke="gray" stroke-width="1" x1="148.0" x2="148.0" y1="273.33333333333337" y2="540.0" /><line stroke="gray" stroke-width="1" x1="154.0" x2="154.0" y1="273.33333333333337" y2="540.0" /><line stroke="gray" stroke-width="1" x1="160.0" x2="160.0" y1="273.33333333333337" y2="540.0" /><line stroke="gray" stroke-width="1" x1="166.0" x2="166.0" y1="273.33333333333337" y2="540.0" /><line stroke="gray" stroke-width="1" x1="172.0" x2="172.0" y1="273.33333333333337" y2="540.0" /><line stroke="gray" stroke-width="1" x1="178.0" x2="178.0" y1="273.33333333333337" y2="540.0" /><line stroke="gray" stroke-width="1" x1="184.0" x2="184.0" y1="273.33333333333337" y2="540.0" /><line stroke="gray" stroke-width="1" x1="190.0" x2="190.0" y1="273.33333333333337" y2="540.0" /><line stroke="gray" stroke-width="1" x1="196.0" x2="196.0" y1="273.33333333333337" y2="540.0" /><line stroke="gray" stroke-width="1" x1="202.0" x2="202.0" y1="273.33333333333337" y2="540.0" /><line stroke="gray" stroke-width="1" x1="208.0" x2="208.0" y1="273.33333333333337" y2="540.0" /><line stroke="gray" stroke-width="1" x1="214.0" x2="214.0" y1="273.33333333333337" y2="540.0" /><line stroke="gray" stroke-width="1" x1="220.0" x2="220.0" y1="273.33333333333337" y2="540.0" /><line stroke="gray" stroke-width="1" x1="226.0" x2="226.0" y1="273.33333333333337" y2="540.0" /><line stroke="gray" stroke-width="1" x1="232.0" x2="232.0" y1="273.33333333333337" y2="540.0" /><line stroke="gray" stroke-width="1" x1="238.0" x2="238.0" y1="273.33333333333337" y2="540.0" /><line stroke="gray" stroke-width="1" x1="244.0" x2="244.0" y1="273.33333333333337" y2="540.0" /><line stroke="gray" stroke-width="1" x1="250.0" x2="250.0" y1="273.33333333333337" y2="540.0" /><line stroke="gray" stroke-width="1" x1="256.0" x2="256.0" y1="273.33333333333337" y2="540.0" /><line stroke="gray" stroke-width="1" x1="262.0" x2="262.0" y1="273.33333333333337" y2="540.0" /><line stroke="gray" stroke-width="1" x1="268.0" x2="268.0" y1="273.33333333333337" y2="540.0" /><line stroke="gray" stroke-width="1" x1="274.0" x2="274.0" y1="273.33333333333337" y2="540.0" /><line stroke="gray" stroke-width="1" x1="280.0" x2="280.0" y1="273.33333333333337" y2="540.0" /><line stroke="gray" stroke-width="1" x1="286.0" x2="286.0" y1="273.33333333333337" y2="540.0" /><line stroke="gray" stroke-width="1" x1="292.0" x2="292.0" y1="273.33333333333337" y2="540.0" /><line stroke="gray" stroke-width="1" x1="298.0" x2="298.0" y1="273.33333333333337" y2="540.0" /><line stroke="gray" stroke-width="1" x1="304.0" x2="304.0" y1="273.33333333333337" y2="540.0" /><line stroke="gray" stroke-width="1" x1="310.0" x2="310.0" y1="273.33333333333337" y2="540.0" /><line stroke="gray" stroke-width="1" x1="316.0" x2="316.0" y1="273.33333333333337" y2="540.0" /><line stroke="gray" stroke-width="1" x1="322.0" x2="322.0" y1="273.33333333333337" y2="540.0" /><line stroke="gray" stroke-width="1" x1="328.0" x2="328.0" y1="273.33333333333337" y2="540.0" /><line stroke="gray" stroke-width="1" x1="334.0" x2="334.0" y1="273.33333333333337" y2="540.0" /><line stroke="gray" stroke-width="1" x1="340.0" x2="340.0" y1="273.33333333333337" y2="540.0" /><line stroke="gray" stroke-width="1" x1="346.0" x2="346.0" y1="273.33333333333337" y2="540.0" /><line stroke="gray" stroke-width="1" x1="352.0" x2="352.0" y1="273.33333333333337" y2="540.0" /><line stroke="gray" stroke-width="1" x1="358.0" x2="358.0" y1="273.33333333333337" y2="540.0" /><line stroke="gray" stroke-width="1" x1="364.0" x2="364.0" y1="273.33333333333337" y2="540.0" /><line stroke="gray" stroke-width="1" x1="370.0" x2="370.0" y1="273.33333333333337" y2="540.0" /><line stroke="gray" stroke-width="1" x1="376.0" x2="376.0" y1="273.33333333333337" y2="540.0" /><line stroke="gray" stroke-width="1" x1="382.0" x2="382.0" y1="273.33333333333337" y2="540.0" /><line stroke="gray" stroke-width="1" x1="388.0" x2="388.0" y1="273.33333333333337" y2="540.0" /><line stroke="gray" stroke-width="1" x1="394.0" x2="394.0" y1="273.33333333333337" y2="540.0" /><line stroke="gray" stroke-width="1" x1="400.0" x2="400.0" y1="273.33333333333337" y2="540.0" /><line stroke="gray" stroke-width="1" x1="406.0" x2="406.0" y1="273.33333333333337" y2="540.0" /><line stroke="gray" stroke-width="1" x1="412.0" x2="412.0" y1="273.33333333333337" y2="540.0" /><line stroke="gray" stroke-width="1" x1="418.0" x2="418.0" y1="273.33333333333337" y2="540.0" /><line stroke="gray" stroke-width="1" x1="424.0" x2="424.0" y1="273.33333333333337" y2="540.0" /><line stroke="gray" stroke-width="1" x1="430.0" x2="430.0" y1="273.33333333333337" y2="540.0" /><line stroke="gray" stroke-width="1" x1="436.0" x2="436.0" y1="273.33333333333337" y2="540.0" /><line stroke="gray" stroke-width="1" x1="442.0" x2="442.0" y1="273.33333333333337" y2="540.0" /><line stroke="gray" stroke-width="1" x1="448.0" x2="448.0" y1="273.33333333333337" y2="540.0" /><line stroke="gray" stroke-width="1" x1="454.0" x2="454.0" y1="273.33333333333337" y2="540.0" /><line stroke="gray" stroke-width="1" x1="460.0" x2="460.0" y1="273.33333333333337" y2="540.0" /><line stroke="gray" stroke-width="1" x1="466.0" x2="466.0" y1="273.33333333333337" y2="540.0" /><line stroke="gray" stroke-width="1" x1="472.0" x2="472.0" y1="273.33333333333337" y2="540.0" /><line stroke="gray" stroke-width="1" x1="478.0" x2="478.0" y1="273.33333333333337" y2="540.0" /><line stroke="gray" stroke-width="1" x1="484.0" x2="484.0" y1="273.33333333333337" y2="540.0" /><line stroke="gray" stroke-width="1" x1="490.0" x2="490.0" y1="273.33333333333337" y2="540.0" /><line stroke="gray" stroke-width="1" x1="496.0" x2="496.0" y1="273.33333333333337" y2="540.0" /><line stroke="gray" stroke-width="1" x1="502.0" x2="502.0" y1="273.33333333333337" y2="540.0" /><line stroke="gray" stroke-width="1" x1="508.0" x2="508.0" y1="273.33333333333337" y2="540.0" /><line stroke="gray" stroke-width="1" x1="514.0" x2="514.0" y1="273.33333333333337" y2="540.0" /><line stroke="gray" stroke-width="1" x1="520.0" x2="520.0" y1="273.33333333333337" y2="540.0" /><line stroke="gray" stroke-width="1" x1="526.0" x2="526.0" y1="273.33333333333337" y2="540.0" /><line stroke="gray" stroke-width="1" x1="532.0" x2="532.0" y1="273.33333333333337" y2="540.0" /><line stroke="gray" stroke-width="1" x1="538.0" x2="538.0" y1="273.33333333333337" y2="540.0" /><line stroke="gray" stroke-width="1" x1="544.0" x2="544.0" y1="273.33333333333337" y2="540.0" /><line stroke="gray" stroke-width="1" x1="550.0" x2="550.0" y1="273.33333333333337" y2="540.0" /><line stroke="gray" stroke-width="1" x1="556.0" x2="556.0" y1="273.33333333333337" y2="540.0" /><line stroke="gray" stroke-width="1" x1="562.0" x2="562.0" y1="273.33333333333337" y2="540.0" /><line stroke="gray" stroke-width="1" x1="568.0" x2="568.0" y1="273.33333333333337" y2="540.0" /><line stroke="gray" stroke-width="1" x1="574.0" x2="574.0" y1="273.33333333333337" y2="540.0" /><line stroke="gray" stroke-width="1" x1="580.0" x2="580.0" y1="273.33333333333337" y2="540.0" /><line stroke="gray" stroke-width="1" x1="586.0" x2="586.0" y1="273.33333333333337" y2="540.0" /><line stroke="gray" stroke-width="1" x1="592.0" x2="592.0" y1="273.33333333333337" y2="540.0" /><line stroke="gray" stroke-width="1" x1="598.0" x2="598.0" y1="273.33333333333337" y2="540.0" /><line stroke="gray" stroke-width="1" x1="604.0" x2="604.0" y1="273.33333333333337" y2="540.0" /><line stroke="gray" stroke-width="1" x1="610.0" x2="610.0" y1="273.33333333333337" y2="540.0" /><line stroke="gray" stroke-width="1" x1="616.0" x2="616.0" y1="273.33333333333337" y2="540.0" /><line stroke="gray" stroke-width="1" x1="622.0" x2="622.0" y1="273.33333333333337" y2="540.0" /><line stroke="gray" stroke-width="1" x1="628.0" x2="628.0" y1="273.33333333333337" y2="540.0" /><line stroke="gray" stroke-width="1" x1="634.0" x2="634.0" y1="273.33333333333337" y2="540.0" /><line stroke="gray" stroke-width="1" x1="640.0" x2="640.0" y1="273.33333333333337" y2="540.0" /><line stroke="gray" stroke-width="1" x1="646.0" x2="646.0" y1="273.33333333333337" y2="540.0" /><line stroke="gray" stroke-width="1" x1="652.0" x2="652.0" y1="273.33333333333337" y2="540.0" /><line stroke="gray" stroke-width="1" x1="658.0" x2="658.0" y1="273.33333333333337" y2="540.0" /><line stroke="gray" stroke-width="1" x1="664.0" x2="664.0" y1="273.33333333333337" y2="540.0" /><line stroke="gray" stroke-width="1" x1="670.0" x2="670.0" y1="273.33333333333337" y2="540.0" /><line stroke="gray" stroke-width="1" x1="676.0" x2="676.0" y1="273.33333333333337" y2="540.0" /><line stroke="gray" stroke-width="1" x1="682.0" x2="682.0" y1="273.33333333333337" y2="540.0" /><line stroke="gray" stroke-width="1" x1="688.0" x2="688.0" y1="273.33333333333337" y2="540.0" /><line stroke="gray" stroke-width="1" x1="694.0" x2="694.0" y1="273.33333333333337" y2="540.0" /><line stroke="gray" stroke-width="1" x1="700.0" x2="700.0" y1="273.33333333333337" y2="540.0" /><line stroke="gray" stroke-width="1" x1="706.0" x2="706.0" y1="273.33333333333337" y2="540.0" /><line stroke="gray" stroke-width="1" x1="712.0" x2="712.0" y1="273.33333333333337" y2="540.0" /><line stroke="gray" stroke-width="1" x1="718.0" x2="718.0" y1="273.33333333333337" y2="540.0" /><line stroke="gray" stroke-width="1" x1="724.0" x2="724.0" y1="273.33333333333337" y2="540.0" /><line stroke="gray" stroke-width="1" x1="730.0" x2="730.0" y1="273.33333333333337" y2="540.0" /><line stroke="gray" stroke-width="1" x1="736.0" x2="736.0" y1="273.33333333333337" y2="540.0" /><line stroke="gray" stroke-width="1" x1="742.0" x2="742.0" y1="273.33333333333337" y2="540.0" /><line stroke="gray" stroke-width="1" x1="748.0" x2="748.0" y1="273.33333333333337" y2="540.0" /><line stroke="gray" stroke-width="1" x1="754.0" x2="754.0" y1="273.33333333333337" y2="540.0" /><line stroke="gray" stroke-width="1" x1="760.0" x2="760.0" y1="273.33333333333337" y2="540.0" /><line stroke="gray" stroke-width="1" x1="766.0" x2="766.0" y1="273.33333333333337" y2="540.0" /><line stroke="gray" stroke-width="1" x1="772.0" x2="772.0" y1="273.33333333333337" y2="540.0" /><line stroke="gray" stroke-width="1" x1="778.0" x2="778.0" y1="273.33333333333337" y2="540.0" /><line stroke="gray" stroke-width="1" x1="784.0" x2="784.0" y1="273.33333333333337" y2="540.0" /><line stroke="gray" stroke-width="1" x1="790.0" x2="790.0" y1="273.33333333333337" y2="540.0" /><rect fill="blue" height="21.333333333333336" width="6.0" x="706.0" y="276.00000000000006" /><text fill="white" font-family="Arial" font-size="10" text-anchor="start" x="706.0" y="289.66666666666674" /></svg>