<?xml version="1.0" encoding="utf-8" ?>
<svg baseProfile="full" height="400" version="1.1" width="800" xmlns="http://www.w3.org/2000/svg" xmlns:ev="http://www.w3.org/2001/xml-events" xmlns:xlink="http://www.w3.org/1999/xlink"><defs /><rect fill="white" height="400" width="800" x="0" y="0" /><rect fill="red" height="300" width="215.3846153846154" x="103.84615384615384" y="50" /><text fill="black" font-size="12" text-anchor="middle" x="211.53846153846155" y="200.0">Curtain 1</text><text font-size="12" x="5" y="70">Task 1</text><rect fill="blue" height="30" width="107.6923076923077" x="103.84615384615384" y="50" /><text font-size="12" x="5" y="100">Task 2</text><rect fill="blue" height="30" width="538.4615384615385" x="157.69230769230768" y="80" /><line stroke="red" stroke-dasharray="4,4" stroke-width="1" x1="319.2307692307692" x2="319.2307692307692" y1="30" y2="350" /><text fill="red" font-size="10" text-anchor="middle" x="319.2307692307692" y="25">Pipe 1</text><line stroke="gray" stroke-width="0.5" x1="50.0" x2="50.0" y1="30" y2="350" /><text font-size="10" text-anchor="middle" x="50.0" y="25">2025-03-25</text><line stroke="gray" stroke-width="0.5" x1="103.84615384615384" x2="103.84615384615384" y1="30" y2="350" /><line stroke="gray" stroke-width="0.5" x1="157.69230769230768" x2="157.69230769230768" y1="30" y2="350" /><line stroke="gray" stroke-width="0.5" x1="211.53846153846155" x2="211.53846153846155" y1="30" y2="350" /><line stroke="gray" stroke-width="0.5" x1="265.38461538461536" x2="265.38461538461536" y1="30" y2="350" /><line stroke="gray" stroke-width="0.5" x1="319.2307692307692" x2="319.2307692307692" y1="30" y2="350" /><text font-size="10" text-anchor="middle" x="319.2307692307692" y="25">2025-03-30</text><line stroke="gray" stroke-width="0.5" x1="373.0769230769231" x2="373.0769230769231" y1="30" y2="350" /><line stroke="gray" stroke-width="0.5" x1="426.9230769230769" x2="426.9230769230769" y1="30" y2="350" /><line stroke="gray" stroke-width="0.5" x1="480.7692307692308" x2="480.7692307692308" y1="30" y2="350" /><line stroke="gray" stroke-width="0.5" x1="534.6153846153846" x2="534.6153846153846" y1="30" y2="350" /><line stroke="gray" stroke-width="0.5" x1="588.4615384615385" x2="588.4615384615385" y1="30" y2="350" /><text font-size="10" text-anchor="middle" x="588.4615384615385" y="25">2025-04-04</text><line stroke="gray" stroke-width="0.5" x1="642.3076923076923" x2="642.3076923076923" y1="30" y2="350" /><line stroke="gray" stroke-width="0.5" x1="696.1538461538462" x2="696.1538461538462" y1="30" y2="350" /><line stroke="gray" stroke-width="0.5" x1="750.0" x2="750.0" y1="30" y2="350" /></svg>