<?xml version="1.0" encoding="utf-8" ?>
<svg baseProfile="full" height="600.0" version="1.1" width="800.0" xmlns="http://www.w3.org/2000/svg" xmlns:ev="http://www.w3.org/2001/xml-events" xmlns:xlink="http://www.w3.org/1999/xlink"><defs /><rect fill="white" height="600.0" stroke="black" stroke-width="2" width="800.0" x="0" y="0" /><rect fill="lightgray" height="50.0" stroke="black" stroke-width="1" width="780.0" x="10.0" y="10.0" /><rect fill="lightgray" height="50.0" stroke="black" stroke-width="1" width="780.0" x="10.0" y="540.0" /><rect fill="none" height="480.0" stroke="blue" stroke-dasharray="4" stroke-width="1" width="780.0" x="10.0" y="60.0" /><rect fill="none" height="480.0" stroke="red" stroke-width="1" width="780.0" x="10.0" y="60.0" /><rect fill="lightgrey" height="53.333333333333336" stroke="black" stroke-width="1" width="780.0" x="10.0" y="60.0" /><text dominant-baseline="middle" font-size="10" text-anchor="middle" x="400.0" y="86.66666666666667">2025</text><rect fill="lightgrey" height="53.333333333333336" stroke="black" stroke-width="1" width="780.0" x="10.0" y="113.33333333333334" /><line stroke="black" stroke-width="1" x1="209.83471074380165" x2="209.83471074380165" y1="113.33333333333334" y2="166.66666666666669" /><text dominant-baseline="middle" font-size="10" text-anchor="middle" x="109.91735537190083" y="140.0">Jan</text><line stroke="black" stroke-width="1" x1="390.3305785123967" x2="390.3305785123967" y1="113.33333333333334" y2="166.66666666666669" /><text dominant-baseline="middle" font-size="10" text-anchor="middle" x="300.08264462809916" y="140.0">Feb</text><line stroke="black" stroke-width="1" x1="590.1652892561983" x2="590.1652892561983" y1="113.33333333333334" y2="166.66666666666669" /><text dominant-baseline="middle" font-size="10" text-anchor="middle" x="490.2479338842975" y="140.0">Mar</text><line stroke="black" stroke-width="1" x1="783.5537190082645" x2="783.5537190082645" y1="113.33333333333334" y2="166.66666666666669" /><text dominant-baseline="middle" font-size="10" text-anchor="middle" x="686.8595041322315" y="140.0">Apr</text><rect fill="lightgrey" height="53.333333333333336" stroke="black" stroke-width="1" width="780.0" x="10.0" y="166.66666666666669" /><line stroke="black" stroke-width="1" x1="42.231404958677686" x2="42.231404958677686" y1="166.66666666666669" y2="220.00000000000003" /><text dominant-baseline="middle" font-size="10" text-anchor="middle" x="26.115702479338843" y="193.33333333333334">01</text><line stroke="black" stroke-width="1" x1="87.35537190082644" x2="87.35537190082644" y1="166.66666666666669" y2="220.00000000000003" /><text dominant-baseline="middle" font-size="10" text-anchor="middle" x="64.79338842975207" y="193.33333333333334">02</text><line stroke="black" stroke-width="1" x1="132.4793388429752" x2="132.4793388429752" y1="166.66666666666669" y2="220.00000000000003" /><text dominant-baseline="middle" font-size="10" text-anchor="middle" x="109.91735537190083" y="193.33333333333334">03</text><line stroke="black" stroke-width="1" x1="177.60330578512395" x2="177.60330578512395" y1="166.66666666666669" y2="220.00000000000003" /><text dominant-baseline="middle" font-size="10" text-anchor="middle" x="155.04132231404958" y="193.33333333333334">04</text><line stroke="black" stroke-width="1" x1="222.72727272727272" x2="222.72727272727272" y1="166.66666666666669" y2="220.00000000000003" /><text dominant-baseline="middle" font-size="10" text-anchor="middle" x="200.16528925619832" y="193.33333333333334">05</text><line stroke="black" stroke-width="1" x1="267.8512396694215" x2="267.8512396694215" y1="166.66666666666669" y2="220.00000000000003" /><text dominant-baseline="middle" font-size="10" text-anchor="middle" x="245.28925619834712" y="193.33333333333334">06</text><line stroke="black" stroke-width="1" x1="312.97520661157023" x2="312.97520661157023" y1="166.66666666666669" y2="220.00000000000003" /><text dominant-baseline="middle" font-size="10" text-anchor="middle" x="290.41322314049586" y="193.33333333333334">07</text><line stroke="black" stroke-width="1" x1="358.099173553719" x2="358.099173553719" y1="166.66666666666669" y2="220.00000000000003" /><text dominant-baseline="middle" font-size="10" text-anchor="middle" x="335.53719008264466" y="193.33333333333334">08</text><line stroke="black" stroke-width="1" x1="403.22314049586777" x2="403.22314049586777" y1="166.66666666666669" y2="220.00000000000003" /><text dominant-baseline="middle" font-size="10" text-anchor="middle" x="380.6611570247934" y="193.33333333333334">09</text><line stroke="black" stroke-width="1" x1="448.3471074380165" x2="448.3471074380165" y1="166.66666666666669" y2="220.00000000000003" /><text dominant-baseline="middle" font-size="10" text-anchor="middle" x="425.78512396694214" y="193.33333333333334">10</text><line stroke="black" stroke-width="1" x1="493.4710743801653" x2="493.4710743801653" y1="166.66666666666669" y2="220.00000000000003" /><text dominant-baseline="middle" font-size="10" text-anchor="middle" x="470.9090909090909" y="193.33333333333334">11</text><line stroke="black" stroke-width="1" x1="538.595041322314" x2="538.595041322314" y1="166.66666666666669" y2="220.00000000000003" /><text dominant-baseline="middle" font-size="10" text-anchor="middle" x="516.0330578512396" y="193.33333333333334">12</text><line stroke="black" stroke-width="1" x1="583.7190082644628" x2="583.7190082644628" y1="166.66666666666669" y2="220.00000000000003" /><text dominant-baseline="middle" font-size="10" text-anchor="middle" x="561.1570247933885" y="193.33333333333334">13</text><line stroke="black" stroke-width="1" x1="628.8429752066115" x2="628.8429752066115" y1="166.66666666666669" y2="220.00000000000003" /><text dominant-baseline="middle" font-size="10" text-anchor="middle" x="606.2809917355371" y="193.33333333333334">14</text><line stroke="black" stroke-width="1" x1="673.9669421487603" x2="673.9669421487603" y1="166.66666666666669" y2="220.00000000000003" /><text dominant-baseline="middle" font-size="10" text-anchor="middle" x="651.404958677686" y="193.33333333333334">15</text><line stroke="black" stroke-width="1" x1="719.0909090909091" x2="719.0909090909091" y1="166.66666666666669" y2="220.00000000000003" /><text dominant-baseline="middle" font-size="10" text-anchor="middle" x="696.5289256198347" y="193.33333333333334">16</text><line stroke="black" stroke-width="1" x1="764.2148760330579" x2="764.2148760330579" y1="166.66666666666669" y2="220.00000000000003" /><text dominant-baseline="middle" font-size="10" text-anchor="middle" x="741.6528925619834" y="193.33333333333334">17</text><text dominant-baseline="middle" font-size="10" text-anchor="middle" x="777.1074380165289" y="193.33333333333334">18</text><rect fill="lightgrey" height="53.333333333333336" stroke="black" stroke-width="1" width="780.0" x="10.0" y="220.00000000000003" /><line stroke="black" stroke-width="1" x1="16.446280991735538" x2="16.446280991735538" y1="220.00000000000003" y2="273.33333333333337" /><line stroke="black" stroke-width="1" x1="22.892561983471076" x2="22.892561983471076" y1="220.00000000000003" y2="273.33333333333337" /><line stroke="black" stroke-width="1" x1="29.33884297520661" x2="29.33884297520661" y1="220.00000000000003" y2="273.33333333333337" /><line stroke="black" stroke-width="1" x1="35.78512396694215" x2="35.78512396694215" y1="220.00000000000003" y2="273.33333333333337" /><line stroke="black" stroke-width="1" x1="42.231404958677686" x2="42.231404958677686" y1="220.00000000000003" y2="273.33333333333337" /><line stroke="black" stroke-width="1" x1="48.67768595041322" x2="48.67768595041322" y1="220.00000000000003" y2="273.33333333333337" /><line stroke="black" stroke-width="1" x1="55.12396694214876" x2="55.12396694214876" y1="220.00000000000003" y2="273.33333333333337" /><line stroke="black" stroke-width="1" x1="61.570247933884296" x2="61.570247933884296" y1="220.00000000000003" y2="273.33333333333337" /><line stroke="black" stroke-width="1" x1="68.01652892561984" x2="68.01652892561984" y1="220.00000000000003" y2="273.33333333333337" /><line stroke="black" stroke-width="1" x1="74.46280991735537" x2="74.46280991735537" y1="220.00000000000003" y2="273.33333333333337" /><line stroke="black" stroke-width="1" x1="80.9090909090909" x2="80.9090909090909" y1="220.00000000000003" y2="273.33333333333337" /><line stroke="black" stroke-width="1" x1="87.35537190082644" x2="87.35537190082644" y1="220.00000000000003" y2="273.33333333333337" /><line stroke="black" stroke-width="1" x1="93.80165289256198" x2="93.80165289256198" y1="220.00000000000003" y2="273.33333333333337" /><line stroke="black" stroke-width="1" x1="100.24793388429752" x2="100.24793388429752" y1="220.00000000000003" y2="273.33333333333337" /><line stroke="black" stroke-width="1" x1="106.69421487603306" x2="106.69421487603306" y1="220.00000000000003" y2="273.33333333333337" /><line stroke="black" stroke-width="1" x1="113.14049586776859" x2="113.14049586776859" y1="220.00000000000003" y2="273.33333333333337" /><line stroke="black" stroke-width="1" x1="119.58677685950413" x2="119.58677685950413" y1="220.00000000000003" y2="273.33333333333337" /><line stroke="black" stroke-width="1" x1="126.03305785123966" x2="126.03305785123966" y1="220.00000000000003" y2="273.33333333333337" /><line stroke="black" stroke-width="1" x1="132.4793388429752" x2="132.4793388429752" y1="220.00000000000003" y2="273.33333333333337" /><line stroke="black" stroke-width="1" x1="138.92561983471074" x2="138.92561983471074" y1="220.00000000000003" y2="273.33333333333337" /><line stroke="black" stroke-width="1" x1="145.37190082644628" x2="145.37190082644628" y1="220.00000000000003" y2="273.33333333333337" /><line stroke="black" stroke-width="1" x1="151.8181818181818" x2="151.8181818181818" y1="220.00000000000003" y2="273.33333333333337" /><line stroke="black" stroke-width="1" x1="158.26446280991735" x2="158.26446280991735" y1="220.00000000000003" y2="273.33333333333337" /><line stroke="black" stroke-width="1" x1="164.71074380165288" x2="164.71074380165288" y1="220.00000000000003" y2="273.33333333333337" /><line stroke="black" stroke-width="1" x1="171.15702479338842" x2="171.15702479338842" y1="220.00000000000003" y2="273.33333333333337" /><line stroke="black" stroke-width="1" x1="177.60330578512395" x2="177.60330578512395" y1="220.00000000000003" y2="273.33333333333337" /><line stroke="black" stroke-width="1" x1="184.0495867768595" x2="184.0495867768595" y1="220.00000000000003" y2="273.33333333333337" /><line stroke="black" stroke-width="1" x1="190.49586776859505" x2="190.49586776859505" y1="220.00000000000003" y2="273.33333333333337" /><line stroke="black" stroke-width="1" x1="196.94214876033058" x2="196.94214876033058" y1="220.00000000000003" y2="273.33333333333337" /><line stroke="black" stroke-width="1" x1="203.38842975206612" x2="203.38842975206612" y1="220.00000000000003" y2="273.33333333333337" /><line stroke="black" stroke-width="1" x1="209.83471074380165" x2="209.83471074380165" y1="220.00000000000003" y2="273.33333333333337" /><line stroke="black" stroke-width="1" x1="216.28099173553719" x2="216.28099173553719" y1="220.00000000000003" y2="273.33333333333337" /><line stroke="black" stroke-width="1" x1="222.72727272727272" x2="222.72727272727272" y1="220.00000000000003" y2="273.33333333333337" /><line stroke="black" stroke-width="1" x1="229.17355371900825" x2="229.17355371900825" y1="220.00000000000003" y2="273.33333333333337" /><line stroke="black" stroke-width="1" x1="235.6198347107438" x2="235.6198347107438" y1="220.00000000000003" y2="273.33333333333337" /><line stroke="black" stroke-width="1" x1="242.06611570247932" x2="242.06611570247932" y1="220.00000000000003" y2="273.33333333333337" /><line stroke="black" stroke-width="1" x1="248.51239669421486" x2="248.51239669421486" y1="220.00000000000003" y2="273.33333333333337" /><line stroke="black" stroke-width="1" x1="254.95867768595042" x2="254.95867768595042" y1="220.00000000000003" y2="273.33333333333337" /><line stroke="black" stroke-width="1" x1="261.40495867768595" x2="261.40495867768595" y1="220.00000000000003" y2="273.33333333333337" /><line stroke="black" stroke-width="1" x1="267.8512396694215" x2="267.8512396694215" y1="220.00000000000003" y2="273.33333333333337" /><line stroke="black" stroke-width="1" x1="274.297520661157" x2="274.297520661157" y1="220.00000000000003" y2="273.33333333333337" /><line stroke="black" stroke-width="1" x1="280.74380165289256" x2="280.74380165289256" y1="220.00000000000003" y2="273.33333333333337" /><line stroke="black" stroke-width="1" x1="287.1900826446281" x2="287.1900826446281" y1="220.00000000000003" y2="273.33333333333337" /><line stroke="black" stroke-width="1" x1="293.6363636363636" x2="293.6363636363636" y1="220.00000000000003" y2="273.33333333333337" /><line stroke="black" stroke-width="1" x1="300.08264462809916" x2="300.08264462809916" y1="220.00000000000003" y2="273.33333333333337" /><line stroke="black" stroke-width="1" x1="306.5289256198347" x2="306.5289256198347" y1="220.00000000000003" y2="273.33333333333337" /><line stroke="black" stroke-width="1" x1="312.97520661157023" x2="312.97520661157023" y1="220.00000000000003" y2="273.33333333333337" /><line stroke="black" stroke-width="1" x1="319.42148760330576" x2="319.42148760330576" y1="220.00000000000003" y2="273.33333333333337" /><line stroke="black" stroke-width="1" x1="325.8677685950413" x2="325.8677685950413" y1="220.00000000000003" y2="273.33333333333337" /><line stroke="black" stroke-width="1" x1="332.31404958677683" x2="332.31404958677683" y1="220.00000000000003" y2="273.33333333333337" /><line stroke="black" stroke-width="1" x1="338.76033057851237" x2="338.76033057851237" y1="220.00000000000003" y2="273.33333333333337" /><line stroke="black" stroke-width="1" x1="345.2066115702479" x2="345.2066115702479" y1="220.00000000000003" y2="273.33333333333337" /><line stroke="black" stroke-width="1" x1="351.65289256198344" x2="351.65289256198344" y1="220.00000000000003" y2="273.33333333333337" /><line stroke="black" stroke-width="1" x1="358.099173553719" x2="358.099173553719" y1="220.00000000000003" y2="273.33333333333337" /><line stroke="black" stroke-width="1" x1="364.54545454545456" x2="364.54545454545456" y1="220.00000000000003" y2="273.33333333333337" /><line stroke="black" stroke-width="1" x1="370.9917355371901" x2="370.9917355371901" y1="220.00000000000003" y2="273.33333333333337" /><line stroke="black" stroke-width="1" x1="377.43801652892563" x2="377.43801652892563" y1="220.00000000000003" y2="273.33333333333337" /><line stroke="black" stroke-width="1" x1="383.88429752066116" x2="383.88429752066116" y1="220.00000000000003" y2="273.33333333333337" /><line stroke="black" stroke-width="1" x1="390.3305785123967" x2="390.3305785123967" y1="220.00000000000003" y2="273.33333333333337" /><line stroke="black" stroke-width="1" x1="396.77685950413223" x2="396.77685950413223" y1="220.00000000000003" y2="273.33333333333337" /><line stroke="black" stroke-width="1" x1="403.22314049586777" x2="403.22314049586777" y1="220.00000000000003" y2="273.33333333333337" /><line stroke="black" stroke-width="1" x1="409.6694214876033" x2="409.6694214876033" y1="220.00000000000003" y2="273.33333333333337" /><line stroke="black" stroke-width="1" x1="416.11570247933884" x2="416.11570247933884" y1="220.00000000000003" y2="273.33333333333337" /><line stroke="black" stroke-width="1" x1="422.56198347107437" x2="422.56198347107437" y1="220.00000000000003" y2="273.33333333333337" /><line stroke="black" stroke-width="1" x1="429.0082644628099" x2="429.0082644628099" y1="220.00000000000003" y2="273.33333333333337" /><line stroke="black" stroke-width="1" x1="435.45454545454544" x2="435.45454545454544" y1="220.00000000000003" y2="273.33333333333337" /><line stroke="black" stroke-width="1" x1="441.900826446281" x2="441.900826446281" y1="220.00000000000003" y2="273.33333333333337" /><line stroke="black" stroke-width="1" x1="448.3471074380165" x2="448.3471074380165" y1="220.00000000000003" y2="273.33333333333337" /><line stroke="black" stroke-width="1" x1="454.79338842975204" x2="454.79338842975204" y1="220.00000000000003" y2="273.33333333333337" /><line stroke="black" stroke-width="1" x1="461.2396694214876" x2="461.2396694214876" y1="220.00000000000003" y2="273.33333333333337" /><line stroke="black" stroke-width="1" x1="467.6859504132231" x2="467.6859504132231" y1="220.00000000000003" y2="273.33333333333337" /><line stroke="black" stroke-width="1" x1="474.13223140495865" x2="474.13223140495865" y1="220.00000000000003" y2="273.33333333333337" /><line stroke="black" stroke-width="1" x1="480.5785123966942" x2="480.5785123966942" y1="220.00000000000003" y2="273.33333333333337" /><line stroke="black" stroke-width="1" x1="487.0247933884297" x2="487.0247933884297" y1="220.00000000000003" y2="273.33333333333337" /><line stroke="black" stroke-width="1" x1="493.4710743801653" x2="493.4710743801653" y1="220.00000000000003" y2="273.33333333333337" /><line stroke="black" stroke-width="1" x1="499.91735537190084" x2="499.91735537190084" y1="220.00000000000003" y2="273.33333333333337" /><line stroke="black" stroke-width="1" x1="506.3636363636364" x2="506.3636363636364" y1="220.00000000000003" y2="273.33333333333337" /><line stroke="black" stroke-width="1" x1="512.8099173553719" x2="512.8099173553719" y1="220.00000000000003" y2="273.33333333333337" /><line stroke="black" stroke-width="1" x1="519.2561983471074" x2="519.2561983471074" y1="220.00000000000003" y2="273.33333333333337" /><line stroke="black" stroke-width="1" x1="525.702479338843" x2="525.702479338843" y1="220.00000000000003" y2="273.33333333333337" /><line stroke="black" stroke-width="1" x1="532.1487603305785" x2="532.1487603305785" y1="220.00000000000003" y2="273.33333333333337" /><line stroke="black" stroke-width="1" x1="538.595041322314" x2="538.595041322314" y1="220.00000000000003" y2="273.33333333333337" /><line stroke="black" stroke-width="1" x1="545.0413223140496" x2="545.0413223140496" y1="220.00000000000003" y2="273.33333333333337" /><line stroke="black" stroke-width="1" x1="551.4876033057851" x2="551.4876033057851" y1="220.00000000000003" y2="273.33333333333337" /><line stroke="black" stroke-width="1" x1="557.9338842975206" x2="557.9338842975206" y1="220.00000000000003" y2="273.33333333333337" /><line stroke="black" stroke-width="1" x1="564.3801652892562" x2="564.3801652892562" y1="220.00000000000003" y2="273.33333333333337" /><line stroke="black" stroke-width="1" x1="570.8264462809917" x2="570.8264462809917" y1="220.00000000000003" y2="273.33333333333337" /><line stroke="black" stroke-width="1" x1="577.2727272727273" x2="577.2727272727273" y1="220.00000000000003" y2="273.33333333333337" /><line stroke="black" stroke-width="1" x1="583.7190082644628" x2="583.7190082644628" y1="220.00000000000003" y2="273.33333333333337" /><line stroke="black" stroke-width="1" x1="590.1652892561983" x2="590.1652892561983" y1="220.00000000000003" y2="273.33333333333337" /><line stroke="black" stroke-width="1" x1="596.6115702479339" x2="596.6115702479339" y1="220.00000000000003" y2="273.33333333333337" /><line stroke="black" stroke-width="1" x1="603.0578512396694" x2="603.0578512396694" y1="220.00000000000003" y2="273.33333333333337" /><line stroke="black" stroke-width="1" x1="609.5041322314049" x2="609.5041322314049" y1="220.00000000000003" y2="273.33333333333337" /><line stroke="black" stroke-width="1" x1="615.9504132231405" x2="615.9504132231405" y1="220.00000000000003" y2="273.33333333333337" /><line stroke="black" stroke-width="1" x1="622.396694214876" x2="622.396694214876" y1="220.00000000000003" y2="273.33333333333337" /><line stroke="black" stroke-width="1" x1="628.8429752066115" x2="628.8429752066115" y1="220.00000000000003" y2="273.33333333333337" /><line stroke="black" stroke-width="1" x1="635.2892561983471" x2="635.2892561983471" y1="220.00000000000003" y2="273.33333333333337" /><line stroke="black" stroke-width="1" x1="641.7355371900826" x2="641.7355371900826" y1="220.00000000000003" y2="273.33333333333337" /><line stroke="black" stroke-width="1" x1="648.1818181818181" x2="648.1818181818181" y1="220.00000000000003" y2="273.33333333333337" /><line stroke="black" stroke-width="1" x1="654.6280991735537" x2="654.6280991735537" y1="220.00000000000003" y2="273.33333333333337" /><line stroke="black" stroke-width="1" x1="661.0743801652892" x2="661.0743801652892" y1="220.00000000000003" y2="273.33333333333337" /><line stroke="black" stroke-width="1" x1="667.5206611570247" x2="667.5206611570247" y1="220.00000000000003" y2="273.33333333333337" /><line stroke="black" stroke-width="1" x1="673.9669421487603" x2="673.9669421487603" y1="220.00000000000003" y2="273.33333333333337" /><line stroke="black" stroke-width="1" x1="680.4132231404958" x2="680.4132231404958" y1="220.00000000000003" y2="273.33333333333337" /><line stroke="black" stroke-width="1" x1="686.8595041322313" x2="686.8595041322313" y1="220.00000000000003" y2="273.33333333333337" /><line stroke="black" stroke-width="1" x1="693.3057851239669" x2="693.3057851239669" y1="220.00000000000003" y2="273.33333333333337" /><line stroke="black" stroke-width="1" x1="699.7520661157025" x2="699.7520661157025" y1="220.00000000000003" y2="273.33333333333337" /><line stroke="black" stroke-width="1" x1="706.198347107438" x2="706.198347107438" y1="220.00000000000003" y2="273.33333333333337" /><line stroke="black" stroke-width="1" x1="712.6446280991736" x2="712.6446280991736" y1="220.00000000000003" y2="273.33333333333337" /><line stroke="black" stroke-width="1" x1="719.0909090909091" x2="719.0909090909091" y1="220.00000000000003" y2="273.33333333333337" /><line stroke="black" stroke-width="1" x1="725.5371900826447" x2="725.5371900826447" y1="220.00000000000003" y2="273.33333333333337" /><line stroke="black" stroke-width="1" x1="731.9834710743802" x2="731.9834710743802" y1="220.00000000000003" y2="273.33333333333337" /><line stroke="black" stroke-width="1" x1="738.4297520661157" x2="738.4297520661157" y1="220.00000000000003" y2="273.33333333333337" /><line stroke="black" stroke-width="1" x1="744.8760330578513" x2="744.8760330578513" y1="220.00000000000003" y2="273.33333333333337" /><line stroke="black" stroke-width="1" x1="751.3223140495868" x2="751.3223140495868" y1="220.00000000000003" y2="273.33333333333337" /><line stroke="black" stroke-width="1" x1="757.7685950413223" x2="757.7685950413223" y1="220.00000000000003" y2="273.33333333333337" /><line stroke="black" stroke-width="1" x1="764.2148760330579" x2="764.2148760330579" y1="220.00000000000003" y2="273.33333333333337" /><line stroke="black" stroke-width="1" x1="770.6611570247934" x2="770.6611570247934" y1="220.00000000000003" y2="273.33333333333337" /><line stroke="black" stroke-width="1" x1="777.1074380165289" x2="777.1074380165289" y1="220.00000000000003" y2="273.33333333333337" /><line stroke="black" stroke-width="1" x1="783.5537190082645" x2="783.5537190082645" y1="220.00000000000003" y2="273.33333333333337" /><line stroke="black" stroke-width="1" x1="790.0" x2="790.0" y1="220.00000000000003" y2="273.33333333333337" /><rect fill="none" height="266.6666666666667" stroke="purple" stroke-width="1" width="780.0" x="10.0" y="273.33333333333337" /><line stroke="gray" stroke-width="1" x1="10.0" x2="790.0" y1="273.33333333333337" y2="273.33333333333337" /><line stroke="gray" stroke-width="1" x1="10.0" x2="790.0" y1="300.00000000000006" y2="300.00000000000006" /><line stroke="gray" stroke-width="1" x1="10.0" x2="790.0" y1="326.6666666666667" y2="326.6666666666667" /><line stroke="gray" stroke-width="1" x1="10.0" x2="790.0" y1="353.33333333333337" y2="353.33333333333337" /><line stroke="gray" stroke-width="1" x1="10.0" x2="790.0" y1="380.00000000000006" y2="380.00000000000006" /><line stroke="gray" stroke-width="1" x1="10.0" x2="790.0" y1="406.66666666666674" y2="406.66666666666674" /><line stroke="gray" stroke-width="1" x1="10.0" x2="790.0" y1="433.33333333333337" y2="433.33333333333337" /><line stroke="gray" stroke-width="1" x1="10.0" x2="790.0" y1="460.00000000000006" y2="460.00000000000006" /><line stroke="gray" stroke-width="1" x1="10.0" x2="790.0" y1="486.66666666666674" y2="486.66666666666674" /><line stroke="gray" stroke-width="1" x1="10.0" x2="790.0" y1="513.3333333333334" y2="513.3333333333334" /><line stroke="gray" stroke-width="1" x1="10.0" x2="790.0" y1="540.0" y2="540.0" /><line stroke="gray" stroke-width="1" x1="209.83471074380165" x2="209.83471074380165" y1="273.33333333333337" y2="540.0" /><line stroke="gray" stroke-width="1" x1="390.3305785123967" x2="390.3305785123967" y1="273.33333333333337" y2="540.0" /><line stroke="gray" stroke-width="1" x1="590.1652892561983" x2="590.1652892561983" y1="273.33333333333337" y2="540.0" /><line stroke="gray" stroke-width="1" x1="783.5537190082645" x2="783.5537190082645" y1="273.33333333333337" y2="540.0" /><line stroke="gray" stroke-width="1" x1="42.231404958677686" x2="42.231404958677686" y1="273.33333333333337" y2="540.0" /><line stroke="gray" stroke-width="1" x1="87.35537190082644" x2="87.35537190082644" y1="273.33333333333337" y2="540.0" /><line stroke="gray" stroke-width="1" x1="132.4793388429752" x2="132.4793388429752" y1="273.33333333333337" y2="540.0" /><line stroke="gray" stroke-width="1" x1="177.60330578512395" x2="177.60330578512395" y1="273.33333333333337" y2="540.0" /><line stroke="gray" stroke-width="1" x1="222.72727272727272" x2="222.72727272727272" y1="273.33333333333337" y2="540.0" /><line stroke="gray" stroke-width="1" x1="267.8512396694215" x2="267.8512396694215" y1="273.33333333333337" y2="540.0" /><line stroke="gray" stroke-width="1" x1="312.97520661157023" x2="312.97520661157023" y1="273.33333333333337" y2="540.0" /><line stroke="gray" stroke-width="1" x1="358.099173553719" x2="358.099173553719" y1="273.33333333333337" y2="540.0" /><line stroke="gray" stroke-width="1" x1="403.22314049586777" x2="403.22314049586777" y1="273.33333333333337" y2="540.0" /><line stroke="gray" stroke-width="1" x1="448.3471074380165" x2="448.3471074380165" y1="273.33333333333337" y2="540.0" /><line stroke="gray" stroke-width="1" x1="493.4710743801653" x2="493.4710743801653" y1="273.33333333333337" y2="540.0" /><line stroke="gray" stroke-width="1" x1="538.595041322314" x2="538.595041322314" y1="273.33333333333337" y2="540.0" /><line stroke="gray" stroke-width="1" x1="583.7190082644628" x2="583.7190082644628" y1="273.33333333333337" y2="540.0" /><line stroke="gray" stroke-width="1" x1="628.8429752066115" x2="628.8429752066115" y1="273.33333333333337" y2="540.0" /><line stroke="gray" stroke-width="1" x1="673.9669421487603" x2="673.9669421487603" y1="273.33333333333337" y2="540.0" /><line stroke="gray" stroke-width="1" x1="719.0909090909091" x2="719.0909090909091" y1="273.33333333333337" y2="540.0" /><line stroke="gray" stroke-width="1" x1="764.2148760330579" x2="764.2148760330579" y1="273.33333333333337" y2="540.0" /><line stroke="gray" stroke-width="1" x1="16.446280991735538" x2="16.446280991735538" y1="273.33333333333337" y2="540.0" /><line stroke="gray" stroke-width="1" x1="22.892561983471076" x2="22.892561983471076" y1="273.33333333333337" y2="540.0" /><line stroke="gray" stroke-width="1" x1="29.33884297520661" x2="29.33884297520661" y1="273.33333333333337" y2="540.0" /><line stroke="gray" stroke-width="1" x1="35.78512396694215" x2="35.78512396694215" y1="273.33333333333337" y2="540.0" /><line stroke="gray" stroke-width="1" x1="42.231404958677686" x2="42.231404958677686" y1="273.33333333333337" y2="540.0" /><line stroke="gray" stroke-width="1" x1="48.67768595041322" x2="48.67768595041322" y1="273.33333333333337" y2="540.0" /><line stroke="gray" stroke-width="1" x1="55.12396694214876" x2="55.12396694214876" y1="273.33333333333337" y2="540.0" /><line stroke="gray" stroke-width="1" x1="61.570247933884296" x2="61.570247933884296" y1="273.33333333333337" y2="540.0" /><line stroke="gray" stroke-width="1" x1="68.01652892561984" x2="68.01652892561984" y1="273.33333333333337" y2="540.0" /><line stroke="gray" stroke-width="1" x1="74.46280991735537" x2="74.46280991735537" y1="273.33333333333337" y2="540.0" /><line stroke="gray" stroke-width="1" x1="80.9090909090909" x2="80.9090909090909" y1="273.33333333333337" y2="540.0" /><line stroke="gray" stroke-width="1" x1="87.35537190082644" x2="87.35537190082644" y1="273.33333333333337" y2="540.0" /><line stroke="gray" stroke-width="1" x1="93.80165289256198" x2="93.80165289256198" y1="273.33333333333337" y2="540.0" /><line stroke="gray" stroke-width="1" x1="100.24793388429752" x2="100.24793388429752" y1="273.33333333333337" y2="540.0" /><line stroke="gray" stroke-width="1" x1="106.69421487603306" x2="106.69421487603306" y1="273.33333333333337" y2="540.0" /><line stroke="gray" stroke-width="1" x1="113.14049586776859" x2="113.14049586776859" y1="273.33333333333337" y2="540.0" /><line stroke="gray" stroke-width="1" x1="119.58677685950413" x2="119.58677685950413" y1="273.33333333333337" y2="540.0" /><line stroke="gray" stroke-width="1" x1="126.03305785123966" x2="126.03305785123966" y1="273.33333333333337" y2="540.0" /><line stroke="gray" stroke-width="1" x1="132.4793388429752" x2="132.4793388429752" y1="273.33333333333337" y2="540.0" /><line stroke="gray" stroke-width="1" x1="138.92561983471074" x2="138.92561983471074" y1="273.33333333333337" y2="540.0" /><line stroke="gray" stroke-width="1" x1="145.37190082644628" x2="145.37190082644628" y1="273.33333333333337" y2="540.0" /><line stroke="gray" stroke-width="1" x1="151.8181818181818" x2="151.8181818181818" y1="273.33333333333337" y2="540.0" /><line stroke="gray" stroke-width="1" x1="158.26446280991735" x2="158.26446280991735" y1="273.33333333333337" y2="540.0" /><line stroke="gray" stroke-width="1" x1="164.71074380165288" x2="164.71074380165288" y1="273.33333333333337" y2="540.0" /><line stroke="gray" stroke-width="1" x1="171.15702479338842" x2="171.15702479338842" y1="273.33333333333337" y2="540.0" /><line stroke="gray" stroke-width="1" x1="177.60330578512395" x2="177.60330578512395" y1="273.33333333333337" y2="540.0" /><line stroke="gray" stroke-width="1" x1="184.0495867768595" x2="184.0495867768595" y1="273.33333333333337" y2="540.0" /><line stroke="gray" stroke-width="1" x1="190.49586776859505" x2="190.49586776859505" y1="273.33333333333337" y2="540.0" /><line stroke="gray" stroke-width="1" x1="196.94214876033058" x2="196.94214876033058" y1="273.33333333333337" y2="540.0" /><line stroke="gray" stroke-width="1" x1="203.38842975206612" x2="203.38842975206612" y1="273.33333333333337" y2="540.0" /><line stroke="gray" stroke-width="1" x1="209.83471074380165" x2="209.83471074380165" y1="273.33333333333337" y2="540.0" /><line stroke="gray" stroke-width="1" x1="216.28099173553719" x2="216.28099173553719" y1="273.33333333333337" y2="540.0" /><line stroke="gray" stroke-width="1" x1="222.72727272727272" x2="222.72727272727272" y1="273.33333333333337" y2="540.0" /><line stroke="gray" stroke-width="1" x1="229.17355371900825" x2="229.17355371900825" y1="273.33333333333337" y2="540.0" /><line stroke="gray" stroke-width="1" x1="235.6198347107438" x2="235.6198347107438" y1="273.33333333333337" y2="540.0" /><line stroke="gray" stroke-width="1" x1="242.06611570247932" x2="242.06611570247932" y1="273.33333333333337" y2="540.0" /><line stroke="gray" stroke-width="1" x1="248.51239669421486" x2="248.51239669421486" y1="273.33333333333337" y2="540.0" /><line stroke="gray" stroke-width="1" x1="254.95867768595042" x2="254.95867768595042" y1="273.33333333333337" y2="540.0" /><line stroke="gray" stroke-width="1" x1="261.40495867768595" x2="261.40495867768595" y1="273.33333333333337" y2="540.0" /><line stroke="gray" stroke-width="1" x1="267.8512396694215" x2="267.8512396694215" y1="273.33333333333337" y2="540.0" /><line stroke="gray" stroke-width="1" x1="274.297520661157" x2="274.297520661157" y1="273.33333333333337" y2="540.0" /><line stroke="gray" stroke-width="1" x1="280.74380165289256" x2="280.74380165289256" y1="273.33333333333337" y2="540.0" /><line stroke="gray" stroke-width="1" x1="287.1900826446281" x2="287.1900826446281" y1="273.33333333333337" y2="540.0" /><line stroke="gray" stroke-width="1" x1="293.6363636363636" x2="293.6363636363636" y1="273.33333333333337" y2="540.0" /><line stroke="gray" stroke-width="1" x1="300.08264462809916" x2="300.08264462809916" y1="273.33333333333337" y2="540.0" /><line stroke="gray" stroke-width="1" x1="306.5289256198347" x2="306.5289256198347" y1="273.33333333333337" y2="540.0" /><line stroke="gray" stroke-width="1" x1="312.97520661157023" x2="312.97520661157023" y1="273.33333333333337" y2="540.0" /><line stroke="gray" stroke-width="1" x1="319.42148760330576" x2="319.42148760330576" y1="273.33333333333337" y2="540.0" /><line stroke="gray" stroke-width="1" x1="325.8677685950413" x2="325.8677685950413" y1="273.33333333333337" y2="540.0" /><line stroke="gray" stroke-width="1" x1="332.31404958677683" x2="332.31404958677683" y1="273.33333333333337" y2="540.0" /><line stroke="gray" stroke-width="1" x1="338.76033057851237" x2="338.76033057851237" y1="273.33333333333337" y2="540.0" /><line stroke="gray" stroke-width="1" x1="345.2066115702479" x2="345.2066115702479" y1="273.33333333333337" y2="540.0" /><line stroke="gray" stroke-width="1" x1="351.65289256198344" x2="351.65289256198344" y1="273.33333333333337" y2="540.0" /><line stroke="gray" stroke-width="1" x1="358.099173553719" x2="358.099173553719" y1="273.33333333333337" y2="540.0" /><line stroke="gray" stroke-width="1" x1="364.54545454545456" x2="364.54545454545456" y1="273.33333333333337" y2="540.0" /><line stroke="gray" stroke-width="1" x1="370.9917355371901" x2="370.9917355371901" y1="273.33333333333337" y2="540.0" /><line stroke="gray" stroke-width="1" x1="377.43801652892563" x2="377.43801652892563" y1="273.33333333333337" y2="540.0" /><line stroke="gray" stroke-width="1" x1="383.88429752066116" x2="383.88429752066116" y1="273.33333333333337" y2="540.0" /><line stroke="gray" stroke-width="1" x1="390.3305785123967" x2="390.3305785123967" y1="273.33333333333337" y2="540.0" /><line stroke="gray" stroke-width="1" x1="396.77685950413223" x2="396.77685950413223" y1="273.33333333333337" y2="540.0" /><line stroke="gray" stroke-width="1" x1="403.22314049586777" x2="403.22314049586777" y1="273.33333333333337" y2="540.0" /><line stroke="gray" stroke-width="1" x1="409.6694214876033" x2="409.6694214876033" y1="273.33333333333337" y2="540.0" /><line stroke="gray" stroke-width="1" x1="416.11570247933884" x2="416.11570247933884" y1="273.33333333333337" y2="540.0" /><line stroke="gray" stroke-width="1" x1="422.56198347107437" x2="422.56198347107437" y1="273.33333333333337" y2="540.0" /><line stroke="gray" stroke-width="1" x1="429.0082644628099" x2="429.0082644628099" y1="273.33333333333337" y2="540.0" /><line stroke="gray" stroke-width="1" x1="435.45454545454544" x2="435.45454545454544" y1="273.33333333333337" y2="540.0" /><line stroke="gray" stroke-width="1" x1="441.900826446281" x2="441.900826446281" y1="273.33333333333337" y2="540.0" /><line stroke="gray" stroke-width="1" x1="448.3471074380165" x2="448.3471074380165" y1="273.33333333333337" y2="540.0" /><line stroke="gray" stroke-width="1" x1="454.79338842975204" x2="454.79338842975204" y1="273.33333333333337" y2="540.0" /><line stroke="gray" stroke-width="1" x1="461.2396694214876" x2="461.2396694214876" y1="273.33333333333337" y2="540.0" /><line stroke="gray" stroke-width="1" x1="467.6859504132231" x2="467.6859504132231" y1="273.33333333333337" y2="540.0" /><line stroke="gray" stroke-width="1" x1="474.13223140495865" x2="474.13223140495865" y1="273.33333333333337" y2="540.0" /><line stroke="gray" stroke-width="1" x1="480.5785123966942" x2="480.5785123966942" y1="273.33333333333337" y2="540.0" /><line stroke="gray" stroke-width="1" x1="487.0247933884297" x2="487.0247933884297" y1="273.33333333333337" y2="540.0" /><line stroke="gray" stroke-width="1" x1="493.4710743801653" x2="493.4710743801653" y1="273.33333333333337" y2="540.0" /><line stroke="gray" stroke-width="1" x1="499.91735537190084" x2="499.91735537190084" y1="273.33333333333337" y2="540.0" /><line stroke="gray" stroke-width="1" x1="506.3636363636364" x2="506.3636363636364" y1="273.33333333333337" y2="540.0" /><line stroke="gray" stroke-width="1" x1="512.8099173553719" x2="512.8099173553719" y1="273.33333333333337" y2="540.0" /><line stroke="gray" stroke-width="1" x1="519.2561983471074" x2="519.2561983471074" y1="273.33333333333337" y2="540.0" /><line stroke="gray" stroke-width="1" x1="525.702479338843" x2="525.702479338843" y1="273.33333333333337" y2="540.0" /><line stroke="gray" stroke-width="1" x1="532.1487603305785" x2="532.1487603305785" y1="273.33333333333337" y2="540.0" /><line stroke="gray" stroke-width="1" x1="538.595041322314" x2="538.595041322314" y1="273.33333333333337" y2="540.0" /><line stroke="gray" stroke-width="1" x1="545.0413223140496" x2="545.0413223140496" y1="273.33333333333337" y2="540.0" /><line stroke="gray" stroke-width="1" x1="551.4876033057851" x2="551.4876033057851" y1="273.33333333333337" y2="540.0" /><line stroke="gray" stroke-width="1" x1="557.9338842975206" x2="557.9338842975206" y1="273.33333333333337" y2="540.0" /><line stroke="gray" stroke-width="1" x1="564.3801652892562" x2="564.3801652892562" y1="273.33333333333337" y2="540.0" /><line stroke="gray" stroke-width="1" x1="570.8264462809917" x2="570.8264462809917" y1="273.33333333333337" y2="540.0" /><line stroke="gray" stroke-width="1" x1="577.2727272727273" x2="577.2727272727273" y1="273.33333333333337" y2="540.0" /><line stroke="gray" stroke-width="1" x1="583.7190082644628" x2="583.7190082644628" y1="273.33333333333337" y2="540.0" /><line stroke="gray" stroke-width="1" x1="590.1652892561983" x2="590.1652892561983" y1="273.33333333333337" y2="540.0" /><line stroke="gray" stroke-width="1" x1="596.6115702479339" x2="596.6115702479339" y1="273.33333333333337" y2="540.0" /><line stroke="gray" stroke-width="1" x1="603.0578512396694" x2="603.0578512396694" y1="273.33333333333337" y2="540.0" /><line stroke="gray" stroke-width="1" x1="609.5041322314049" x2="609.5041322314049" y1="273.33333333333337" y2="540.0" /><line stroke="gray" stroke-width="1" x1="615.9504132231405" x2="615.9504132231405" y1="273.33333333333337" y2="540.0" /><line stroke="gray" stroke-width="1" x1="622.396694214876" x2="622.396694214876" y1="273.33333333333337" y2="540.0" /><line stroke="gray" stroke-width="1" x1="628.8429752066115" x2="628.8429752066115" y1="273.33333333333337" y2="540.0" /><line stroke="gray" stroke-width="1" x1="635.2892561983471" x2="635.2892561983471" y1="273.33333333333337" y2="540.0" /><line stroke="gray" stroke-width="1" x1="641.7355371900826" x2="641.7355371900826" y1="273.33333333333337" y2="540.0" /><line stroke="gray" stroke-width="1" x1="648.1818181818181" x2="648.1818181818181" y1="273.33333333333337" y2="540.0" /><line stroke="gray" stroke-width="1" x1="654.6280991735537" x2="654.6280991735537" y1="273.33333333333337" y2="540.0" /><line stroke="gray" stroke-width="1" x1="661.0743801652892" x2="661.0743801652892" y1="273.33333333333337" y2="540.0" /><line stroke="gray" stroke-width="1" x1="667.5206611570247" x2="667.5206611570247" y1="273.33333333333337" y2="540.0" /><line stroke="gray" stroke-width="1" x1="673.9669421487603" x2="673.9669421487603" y1="273.33333333333337" y2="540.0" /><line stroke="gray" stroke-width="1" x1="680.4132231404958" x2="680.4132231404958" y1="273.33333333333337" y2="540.0" /><line stroke="gray" stroke-width="1" x1="686.8595041322313" x2="686.8595041322313" y1="273.33333333333337" y2="540.0" /><line stroke="gray" stroke-width="1" x1="693.3057851239669" x2="693.3057851239669" y1="273.33333333333337" y2="540.0" /><line stroke="gray" stroke-width="1" x1="699.7520661157025" x2="699.7520661157025" y1="273.33333333333337" y2="540.0" /><line stroke="gray" stroke-width="1" x1="706.198347107438" x2="706.198347107438" y1="273.33333333333337" y2="540.0" /><line stroke="gray" stroke-width="1" x1="712.6446280991736" x2="712.6446280991736" y1="273.33333333333337" y2="540.0" /><line stroke="gray" stroke-width="1" x1="719.0909090909091" x2="719.0909090909091" y1="273.33333333333337" y2="540.0" /><line stroke="gray" stroke-width="1" x1="725.5371900826447" x2="725.5371900826447" y1="273.33333333333337" y2="540.0" /><line stroke="gray" stroke-width="1" x1="731.9834710743802" x2="731.9834710743802" y1="273.33333333333337" y2="540.0" /><line stroke="gray" stroke-width="1" x1="738.4297520661157" x2="738.4297520661157" y1="273.33333333333337" y2="540.0" /><line stroke="gray" stroke-width="1" x1="744.8760330578513" x2="744.8760330578513" y1="273.33333333333337" y2="540.0" /><line stroke="gray" stroke-width="1" x1="751.3223140495868" x2="751.3223140495868" y1="273.33333333333337" y2="540.0" /><line stroke="gray" stroke-width="1" x1="757.7685950413223" x2="757.7685950413223" y1="273.33333333333337" y2="540.0" /><line stroke="gray" stroke-width="1" x1="764.2148760330579" x2="764.2148760330579" y1="273.33333333333337" y2="540.0" /><line stroke="gray" stroke-width="1" x1="770.6611570247934" x2="770.6611570247934" y1="273.33333333333337" y2="540.0" /><line stroke="gray" stroke-width="1" x1="777.1074380165289" x2="777.1074380165289" y1="273.33333333333337" y2="540.0" /><line stroke="gray" stroke-width="1" x1="783.5537190082645" x2="783.5537190082645" y1="273.33333333333337" y2="540.0" /><line stroke="gray" stroke-width="1" x1="790.0" x2="790.0" y1="273.33333333333337" y2="540.0" /><rect fill="blue" height="21.333333333333336" width="6.446280991735537" x="744.8760330578513" y="276.00000000000006" /><text fill="white" font-family="Arial" font-size="10" text-anchor="start" x="744.8760330578513" y="289.66666666666674" /><rect fill="blue" height="21.333333333333336" width="6.446280991735537" x="744.8760330578513" y="302.66666666666674" /><text fill="white" font-family="Arial" font-size="10" text-anchor="start" x="744.8760330578513" y="316.3333333333334" /></svg>