<?xml version="1.0" encoding="utf-8" ?>
<svg baseProfile="full" height="600.0" version="1.1" width="800.0" xmlns="http://www.w3.org/2000/svg" xmlns:ev="http://www.w3.org/2001/xml-events" xmlns:xlink="http://www.w3.org/1999/xlink"><defs /><rect fill="white" height="600.0" stroke="black" stroke-width="2" width="800.0" x="0" y="0" /><rect fill="lightgray" height="50.0" stroke="black" stroke-width="1" width="780.0" x="10.0" y="10.0" /><rect fill="lightgray" height="50.0" stroke="black" stroke-width="1" width="780.0" x="10.0" y="540.0" /><rect fill="none" height="480.0" stroke="blue" stroke-dasharray="4" stroke-width="1" width="780.0" x="10.0" y="60.0" /><rect fill="none" height="480.0" stroke="red" stroke-width="1" width="390.0" x="10.0" y="60.0" /><rect fill="lightgrey" height="53.333333333333336" stroke="black" stroke-width="1" width="390.0" x="10.0" y="60.0" /><text dominant-baseline="middle" font-size="10" text-anchor="middle" x="205.0" y="86.66666666666667">2025</text><rect fill="lightgrey" height="53.333333333333336" stroke="black" stroke-width="1" width="390.0" x="10.0" y="113.33333333333334" /><line stroke="black" stroke-width="1" x1="111.59663865546219" x2="111.59663865546219" y1="113.33333333333334" y2="166.66666666666669" /><text dominant-baseline="middle" font-size="10" text-anchor="middle" x="60.79831932773109" y="140.0">Jan</text><line stroke="black" stroke-width="1" x1="203.3613445378151" x2="203.3613445378151" y1="113.33333333333334" y2="166.66666666666669" /><text dominant-baseline="middle" font-size="10" text-anchor="middle" x="157.47899159663865" y="140.0">Feb</text><line stroke="black" stroke-width="1" x1="304.9579831932773" x2="304.9579831932773" y1="113.33333333333334" y2="166.66666666666669" /><text dominant-baseline="middle" font-size="10" text-anchor="middle" x="254.1596638655462" y="140.0">Mar</text><text dominant-baseline="middle" font-size="10" text-anchor="middle" x="352.47899159663865" y="140.0">Apr</text><rect fill="lightgrey" height="53.333333333333336" stroke="black" stroke-width="1" width="390.0" x="10.0" y="166.66666666666669" /><line stroke="black" stroke-width="1" x1="26.386554621848738" x2="26.386554621848738" y1="166.66666666666669" y2="220.00000000000003" /><line stroke="black" stroke-width="1" x1="49.32773109243698" x2="49.32773109243698" y1="166.66666666666669" y2="220.00000000000003" /><text dominant-baseline="middle" font-size="10" text-anchor="middle" x="37.85714285714286" y="193.33333333333334">02</text><line stroke="black" stroke-width="1" x1="72.26890756302521" x2="72.26890756302521" y1="166.66666666666669" y2="220.00000000000003" /><text dominant-baseline="middle" font-size="10" text-anchor="middle" x="60.79831932773109" y="193.33333333333334">03</text><line stroke="black" stroke-width="1" x1="95.21008403361344" x2="95.21008403361344" y1="166.66666666666669" y2="220.00000000000003" /><text dominant-baseline="middle" font-size="10" text-anchor="middle" x="83.73949579831933" y="193.33333333333334">04</text><line stroke="black" stroke-width="1" x1="118.15126050420167" x2="118.15126050420167" y1="166.66666666666669" y2="220.00000000000003" /><text dominant-baseline="middle" font-size="10" text-anchor="middle" x="106.68067226890756" y="193.33333333333334">05</text><line stroke="black" stroke-width="1" x1="141.0924369747899" x2="141.0924369747899" y1="166.66666666666669" y2="220.00000000000003" /><text dominant-baseline="middle" font-size="10" text-anchor="middle" x="129.6218487394958" y="193.33333333333334">06</text><line stroke="black" stroke-width="1" x1="164.03361344537814" x2="164.03361344537814" y1="166.66666666666669" y2="220.00000000000003" /><text dominant-baseline="middle" font-size="10" text-anchor="middle" x="152.56302521008402" y="193.33333333333334">07</text><line stroke="black" stroke-width="1" x1="186.97478991596637" x2="186.97478991596637" y1="166.66666666666669" y2="220.00000000000003" /><text dominant-baseline="middle" font-size="10" text-anchor="middle" x="175.50420168067225" y="193.33333333333334">08</text><line stroke="black" stroke-width="1" x1="209.91596638655463" x2="209.91596638655463" y1="166.66666666666669" y2="220.00000000000003" /><text dominant-baseline="middle" font-size="10" text-anchor="middle" x="198.4453781512605" y="193.33333333333334">09</text><line stroke="black" stroke-width="1" x1="232.85714285714286" x2="232.85714285714286" y1="166.66666666666669" y2="220.00000000000003" /><text dominant-baseline="middle" font-size="10" text-anchor="middle" x="221.38655462184875" y="193.33333333333334">10</text><line stroke="black" stroke-width="1" x1="255.7983193277311" x2="255.7983193277311" y1="166.66666666666669" y2="220.00000000000003" /><text dominant-baseline="middle" font-size="10" text-anchor="middle" x="244.32773109243698" y="193.33333333333334">11</text><line stroke="black" stroke-width="1" x1="278.7394957983193" x2="278.7394957983193" y1="166.66666666666669" y2="220.00000000000003" /><text dominant-baseline="middle" font-size="10" text-anchor="middle" x="267.2689075630252" y="193.33333333333334">12</text><line stroke="black" stroke-width="1" x1="301.68067226890753" x2="301.68067226890753" y1="166.66666666666669" y2="220.00000000000003" /><text dominant-baseline="middle" font-size="10" text-anchor="middle" x="290.2100840336134" y="193.33333333333334">13</text><line stroke="black" stroke-width="1" x1="324.6218487394958" x2="324.6218487394958" y1="166.66666666666669" y2="220.00000000000003" /><text dominant-baseline="middle" font-size="10" text-anchor="middle" x="313.1512605042017" y="193.33333333333334">14</text><line stroke="black" stroke-width="1" x1="347.56302521008405" x2="347.56302521008405" y1="166.66666666666669" y2="220.00000000000003" /><text dominant-baseline="middle" font-size="10" text-anchor="middle" x="336.09243697478996" y="193.33333333333334">15</text><line stroke="black" stroke-width="1" x1="370.5042016806723" x2="370.5042016806723" y1="166.66666666666669" y2="220.00000000000003" /><text dominant-baseline="middle" font-size="10" text-anchor="middle" x="359.03361344537814" y="193.33333333333334">16</text><line stroke="black" stroke-width="1" x1="393.4453781512605" x2="393.4453781512605" y1="166.66666666666669" y2="220.00000000000003" /><text dominant-baseline="middle" font-size="10" text-anchor="middle" x="381.9747899159664" y="193.33333333333334">17</text><rect fill="lightgrey" height="53.333333333333336" stroke="black" stroke-width="1" width="390.0" x="10.0" y="220.00000000000003" /><rect fill="none" height="266.6666666666667" stroke="purple" stroke-width="1" width="390.0" x="10.0" y="273.33333333333337" /><line stroke="gray" stroke-width="1" x1="10.0" x2="400.0" y1="273.33333333333337" y2="273.33333333333337" /><line stroke="gray" stroke-width="1" x1="10.0" x2="400.0" y1="540.0" y2="540.0" /><line stroke="gray" stroke-width="1" x1="111.59663865546219" x2="111.59663865546219" y1="273.33333333333337" y2="540.0" /><line stroke="gray" stroke-width="1" x1="203.3613445378151" x2="203.3613445378151" y1="273.33333333333337" y2="540.0" /><line stroke="gray" stroke-width="1" x1="304.9579831932773" x2="304.9579831932773" y1="273.33333333333337" y2="540.0" /><line stroke="gray" stroke-width="1" x1="26.386554621848738" x2="26.386554621848738" y1="273.33333333333337" y2="540.0" /><line stroke="gray" stroke-width="1" x1="49.32773109243698" x2="49.32773109243698" y1="273.33333333333337" y2="540.0" /><line stroke="gray" stroke-width="1" x1="72.26890756302521" x2="72.26890756302521" y1="273.33333333333337" y2="540.0" /><line stroke="gray" stroke-width="1" x1="95.21008403361344" x2="95.21008403361344" y1="273.33333333333337" y2="540.0" /><line stroke="gray" stroke-width="1" x1="118.15126050420167" x2="118.15126050420167" y1="273.33333333333337" y2="540.0" /><line stroke="gray" stroke-width="1" x1="141.0924369747899" x2="141.0924369747899" y1="273.33333333333337" y2="540.0" /><line stroke="gray" stroke-width="1" x1="164.03361344537814" x2="164.03361344537814" y1="273.33333333333337" y2="540.0" /><line stroke="gray" stroke-width="1" x1="186.97478991596637" x2="186.97478991596637" y1="273.33333333333337" y2="540.0" /><line stroke="gray" stroke-width="1" x1="209.91596638655463" x2="209.91596638655463" y1="273.33333333333337" y2="540.0" /><line stroke="gray" stroke-width="1" x1="232.85714285714286" x2="232.85714285714286" y1="273.33333333333337" y2="540.0" /><line stroke="gray" stroke-width="1" x1="255.7983193277311" x2="255.7983193277311" y1="273.33333333333337" y2="540.0" /><line stroke="gray" stroke-width="1" x1="278.7394957983193" x2="278.7394957983193" y1="273.33333333333337" y2="540.0" /><line stroke="gray" stroke-width="1" x1="301.68067226890753" x2="301.68067226890753" y1="273.33333333333337" y2="540.0" /><line stroke="gray" stroke-width="1" x1="324.6218487394958" x2="324.6218487394958" y1="273.33333333333337" y2="540.0" /><line stroke="gray" stroke-width="1" x1="347.56302521008405" x2="347.56302521008405" y1="273.33333333333337" y2="540.0" /><line stroke="gray" stroke-width="1" x1="370.5042016806723" x2="370.5042016806723" y1="273.33333333333337" y2="540.0" /><line stroke="gray" stroke-width="1" x1="393.4453781512605" x2="393.4453781512605" y1="273.33333333333337" y2="540.0" /><line stroke="gray" stroke-width="1" x1="13.277310924369747" x2="13.277310924369747" y1="273.33333333333337" y2="540.0" /><line stroke="gray" stroke-width="1" x1="16.554621848739494" x2="16.554621848739494" y1="273.33333333333337" y2="540.0" /><line stroke="gray" stroke-width="1" x1="19.831932773109244" x2="19.831932773109244" y1="273.33333333333337" y2="540.0" /><line stroke="gray" stroke-width="1" x1="23.10924369747899" x2="23.10924369747899" y1="273.33333333333337" y2="540.0" /><line stroke="gray" stroke-width="1" x1="26.386554621848738" x2="26.386554621848738" y1="273.33333333333337" y2="540.0" /><line stroke="gray" stroke-width="1" x1="29.66386554621849" x2="29.66386554621849" y1="273.33333333333337" y2="540.0" /><line stroke="gray" stroke-width="1" x1="32.94117647058823" x2="32.94117647058823" y1="273.33333333333337" y2="540.0" /><line stroke="gray" stroke-width="1" x1="36.21848739495798" x2="36.21848739495798" y1="273.33333333333337" y2="540.0" /><line stroke="gray" stroke-width="1" x1="39.49579831932773" x2="39.49579831932773" y1="273.33333333333337" y2="540.0" /><line stroke="gray" stroke-width="1" x1="42.773109243697476" x2="42.773109243697476" y1="273.33333333333337" y2="540.0" /><line stroke="gray" stroke-width="1" x1="46.05042016806723" x2="46.05042016806723" y1="273.33333333333337" y2="540.0" /><line stroke="gray" stroke-width="1" x1="49.32773109243698" x2="49.32773109243698" y1="273.33333333333337" y2="540.0" /><line stroke="gray" stroke-width="1" x1="52.60504201680672" x2="52.60504201680672" y1="273.33333333333337" y2="540.0" /><line stroke="gray" stroke-width="1" x1="55.88235294117647" x2="55.88235294117647" y1="273.33333333333337" y2="540.0" /><line stroke="gray" stroke-width="1" x1="59.159663865546214" x2="59.159663865546214" y1="273.33333333333337" y2="540.0" /><line stroke="gray" stroke-width="1" x1="62.436974789915965" x2="62.436974789915965" y1="273.33333333333337" y2="540.0" /><line stroke="gray" stroke-width="1" x1="65.71428571428572" x2="65.71428571428572" y1="273.33333333333337" y2="540.0" /><line stroke="gray" stroke-width="1" x1="68.99159663865547" x2="68.99159663865547" y1="273.33333333333337" y2="540.0" /><line stroke="gray" stroke-width="1" x1="72.26890756302521" x2="72.26890756302521" y1="273.33333333333337" y2="540.0" /><line stroke="gray" stroke-width="1" x1="75.54621848739495" x2="75.54621848739495" y1="273.33333333333337" y2="540.0" /><line stroke="gray" stroke-width="1" x1="78.82352941176471" x2="78.82352941176471" y1="273.33333333333337" y2="540.0" /><line stroke="gray" stroke-width="1" x1="82.10084033613445" x2="82.10084033613445" y1="273.33333333333337" y2="540.0" /><line stroke="gray" stroke-width="1" x1="85.3781512605042" x2="85.3781512605042" y1="273.33333333333337" y2="540.0" /><line stroke="gray" stroke-width="1" x1="88.65546218487395" x2="88.65546218487395" y1="273.33333333333337" y2="540.0" /><line stroke="gray" stroke-width="1" x1="91.9327731092437" x2="91.9327731092437" y1="273.33333333333337" y2="540.0" /><line stroke="gray" stroke-width="1" x1="95.21008403361344" x2="95.21008403361344" y1="273.33333333333337" y2="540.0" /><line stroke="gray" stroke-width="1" x1="98.48739495798318" x2="98.48739495798318" y1="273.33333333333337" y2="540.0" /><line stroke="gray" stroke-width="1" x1="101.76470588235294" x2="101.76470588235294" y1="273.33333333333337" y2="540.0" /><line stroke="gray" stroke-width="1" x1="105.04201680672269" x2="105.04201680672269" y1="273.33333333333337" y2="540.0" /><line stroke="gray" stroke-width="1" x1="108.31932773109243" x2="108.31932773109243" y1="273.33333333333337" y2="540.0" /><line stroke="gray" stroke-width="1" x1="111.59663865546219" x2="111.59663865546219" y1="273.33333333333337" y2="540.0" /><line stroke="gray" stroke-width="1" x1="114.87394957983193" x2="114.87394957983193" y1="273.33333333333337" y2="540.0" /><line stroke="gray" stroke-width="1" x1="118.15126050420167" x2="118.15126050420167" y1="273.33333333333337" y2="540.0" /><line stroke="gray" stroke-width="1" x1="121.42857142857143" x2="121.42857142857143" y1="273.33333333333337" y2="540.0" /><line stroke="gray" stroke-width="1" x1="124.70588235294117" x2="124.70588235294117" y1="273.33333333333337" y2="540.0" /><line stroke="gray" stroke-width="1" x1="127.98319327731092" x2="127.98319327731092" y1="273.33333333333337" y2="540.0" /><line stroke="gray" stroke-width="1" x1="131.26050420168067" x2="131.26050420168067" y1="273.33333333333337" y2="540.0" /><line stroke="gray" stroke-width="1" x1="134.53781512605042" x2="134.53781512605042" y1="273.33333333333337" y2="540.0" /><line stroke="gray" stroke-width="1" x1="137.81512605042016" x2="137.81512605042016" y1="273.33333333333337" y2="540.0" /><line stroke="gray" stroke-width="1" x1="141.0924369747899" x2="141.0924369747899" y1="273.33333333333337" y2="540.0" /><line stroke="gray" stroke-width="1" x1="144.36974789915965" x2="144.36974789915965" y1="273.33333333333337" y2="540.0" /><line stroke="gray" stroke-width="1" x1="147.64705882352942" x2="147.64705882352942" y1="273.33333333333337" y2="540.0" /><line stroke="gray" stroke-width="1" x1="150.92436974789916" x2="150.92436974789916" y1="273.33333333333337" y2="540.0" /><line stroke="gray" stroke-width="1" x1="154.2016806722689" x2="154.2016806722689" y1="273.33333333333337" y2="540.0" /><line stroke="gray" stroke-width="1" x1="157.47899159663865" x2="157.47899159663865" y1="273.33333333333337" y2="540.0" /><line stroke="gray" stroke-width="1" x1="160.7563025210084" x2="160.7563025210084" y1="273.33333333333337" y2="540.0" /><line stroke="gray" stroke-width="1" x1="164.03361344537814" x2="164.03361344537814" y1="273.33333333333337" y2="540.0" /><line stroke="gray" stroke-width="1" x1="167.3109243697479" x2="167.3109243697479" y1="273.33333333333337" y2="540.0" /><line stroke="gray" stroke-width="1" x1="170.58823529411765" x2="170.58823529411765" y1="273.33333333333337" y2="540.0" /><line stroke="gray" stroke-width="1" x1="173.8655462184874" x2="173.8655462184874" y1="273.33333333333337" y2="540.0" /><line stroke="gray" stroke-width="1" x1="177.14285714285714" x2="177.14285714285714" y1="273.33333333333337" y2="540.0" /><line stroke="gray" stroke-width="1" x1="180.42016806722688" x2="180.42016806722688" y1="273.33333333333337" y2="540.0" /><line stroke="gray" stroke-width="1" x1="183.69747899159663" x2="183.69747899159663" y1="273.33333333333337" y2="540.0" /><line stroke="gray" stroke-width="1" x1="186.97478991596637" x2="186.97478991596637" y1="273.33333333333337" y2="540.0" /><line stroke="gray" stroke-width="1" x1="190.25210084033614" x2="190.25210084033614" y1="273.33333333333337" y2="540.0" /><line stroke="gray" stroke-width="1" x1="193.52941176470588" x2="193.52941176470588" y1="273.33333333333337" y2="540.0" /><line stroke="gray" stroke-width="1" x1="196.80672268907563" x2="196.80672268907563" y1="273.33333333333337" y2="540.0" /><line stroke="gray" stroke-width="1" x1="200.08403361344537" x2="200.08403361344537" y1="273.33333333333337" y2="540.0" /><line stroke="gray" stroke-width="1" x1="203.3613445378151" x2="203.3613445378151" y1="273.33333333333337" y2="540.0" /><line stroke="gray" stroke-width="1" x1="206.63865546218486" x2="206.63865546218486" y1="273.33333333333337" y2="540.0" /><line stroke="gray" stroke-width="1" x1="209.91596638655463" x2="209.91596638655463" y1="273.33333333333337" y2="540.0" /><line stroke="gray" stroke-width="1" x1="213.19327731092437" x2="213.19327731092437" y1="273.33333333333337" y2="540.0" /><line stroke="gray" stroke-width="1" x1="216.47058823529412" x2="216.47058823529412" y1="273.33333333333337" y2="540.0" /><line stroke="gray" stroke-width="1" x1="219.74789915966386" x2="219.74789915966386" y1="273.33333333333337" y2="540.0" /><line stroke="gray" stroke-width="1" x1="223.0252100840336" x2="223.0252100840336" y1="273.33333333333337" y2="540.0" /><line stroke="gray" stroke-width="1" x1="226.30252100840335" x2="226.30252100840335" y1="273.33333333333337" y2="540.0" /><line stroke="gray" stroke-width="1" x1="229.5798319327731" x2="229.5798319327731" y1="273.33333333333337" y2="540.0" /><line stroke="gray" stroke-width="1" x1="232.85714285714286" x2="232.85714285714286" y1="273.33333333333337" y2="540.0" /><line stroke="gray" stroke-width="1" x1="236.1344537815126" x2="236.1344537815126" y1="273.33333333333337" y2="540.0" /><line stroke="gray" stroke-width="1" x1="239.41176470588235" x2="239.41176470588235" y1="273.33333333333337" y2="540.0" /><line stroke="gray" stroke-width="1" x1="242.6890756302521" x2="242.6890756302521" y1="273.33333333333337" y2="540.0" /><line stroke="gray" stroke-width="1" x1="245.96638655462183" x2="245.96638655462183" y1="273.33333333333337" y2="540.0" /><line stroke="gray" stroke-width="1" x1="249.24369747899158" x2="249.24369747899158" y1="273.33333333333337" y2="540.0" /><line stroke="gray" stroke-width="1" x1="252.52100840336135" x2="252.52100840336135" y1="273.33333333333337" y2="540.0" /><line stroke="gray" stroke-width="1" x1="255.7983193277311" x2="255.7983193277311" y1="273.33333333333337" y2="540.0" /><line stroke="gray" stroke-width="1" x1="259.07563025210084" x2="259.07563025210084" y1="273.33333333333337" y2="540.0" /><line stroke="gray" stroke-width="1" x1="262.3529411764706" x2="262.3529411764706" y1="273.33333333333337" y2="540.0" /><line stroke="gray" stroke-width="1" x1="265.6302521008403" x2="265.6302521008403" y1="273.33333333333337" y2="540.0" /><line stroke="gray" stroke-width="1" x1="268.9075630252101" x2="268.9075630252101" y1="273.33333333333337" y2="540.0" /><line stroke="gray" stroke-width="1" x1="272.1848739495798" x2="272.1848739495798" y1="273.33333333333337" y2="540.0" /><line stroke="gray" stroke-width="1" x1="275.4621848739496" x2="275.4621848739496" y1="273.33333333333337" y2="540.0" /><line stroke="gray" stroke-width="1" x1="278.7394957983193" x2="278.7394957983193" y1="273.33333333333337" y2="540.0" /><line stroke="gray" stroke-width="1" x1="282.01680672268907" x2="282.01680672268907" y1="273.33333333333337" y2="540.0" /><line stroke="gray" stroke-width="1" x1="285.29411764705884" x2="285.29411764705884" y1="273.33333333333337" y2="540.0" /><line stroke="gray" stroke-width="1" x1="288.57142857142856" x2="288.57142857142856" y1="273.33333333333337" y2="540.0" /><line stroke="gray" stroke-width="1" x1="291.8487394957983" x2="291.8487394957983" y1="273.33333333333337" y2="540.0" /><line stroke="gray" stroke-width="1" x1="295.12605042016804" x2="295.12605042016804" y1="273.33333333333337" y2="540.0" /><line stroke="gray" stroke-width="1" x1="298.4033613445378" x2="298.4033613445378" y1="273.33333333333337" y2="540.0" /><line stroke="gray" stroke-width="1" x1="301.68067226890753" x2="301.68067226890753" y1="273.33333333333337" y2="540.0" /><line stroke="gray" stroke-width="1" x1="304.9579831932773" x2="304.9579831932773" y1="273.33333333333337" y2="540.0" /><line stroke="gray" stroke-width="1" x1="308.2352941176471" x2="308.2352941176471" y1="273.33333333333337" y2="540.0" /><line stroke="gray" stroke-width="1" x1="311.5126050420168" x2="311.5126050420168" y1="273.33333333333337" y2="540.0" /><line stroke="gray" stroke-width="1" x1="314.78991596638656" x2="314.78991596638656" y1="273.33333333333337" y2="540.0" /><line stroke="gray" stroke-width="1" x1="318.0672268907563" x2="318.0672268907563" y1="273.33333333333337" y2="540.0" /><line stroke="gray" stroke-width="1" x1="321.34453781512605" x2="321.34453781512605" y1="273.33333333333337" y2="540.0" /><line stroke="gray" stroke-width="1" x1="324.6218487394958" x2="324.6218487394958" y1="273.33333333333337" y2="540.0" /><line stroke="gray" stroke-width="1" x1="327.89915966386553" x2="327.89915966386553" y1="273.33333333333337" y2="540.0" /><line stroke="gray" stroke-width="1" x1="331.1764705882353" x2="331.1764705882353" y1="273.33333333333337" y2="540.0" /><line stroke="gray" stroke-width="1" x1="334.453781512605" x2="334.453781512605" y1="273.33333333333337" y2="540.0" /><line stroke="gray" stroke-width="1" x1="337.7310924369748" x2="337.7310924369748" y1="273.33333333333337" y2="540.0" /><line stroke="gray" stroke-width="1" x1="341.0084033613445" x2="341.0084033613445" y1="273.33333333333337" y2="540.0" /><line stroke="gray" stroke-width="1" x1="344.2857142857143" x2="344.2857142857143" y1="273.33333333333337" y2="540.0" /><line stroke="gray" stroke-width="1" x1="347.56302521008405" x2="347.56302521008405" y1="273.33333333333337" y2="540.0" /><line stroke="gray" stroke-width="1" x1="350.84033613445376" x2="350.84033613445376" y1="273.33333333333337" y2="540.0" /><line stroke="gray" stroke-width="1" x1="354.11764705882354" x2="354.11764705882354" y1="273.33333333333337" y2="540.0" /><line stroke="gray" stroke-width="1" x1="357.39495798319325" x2="357.39495798319325" y1="273.33333333333337" y2="540.0" /><line stroke="gray" stroke-width="1" x1="360.672268907563" x2="360.672268907563" y1="273.33333333333337" y2="540.0" /><line stroke="gray" stroke-width="1" x1="363.94957983193274" x2="363.94957983193274" y1="273.33333333333337" y2="540.0" /><line stroke="gray" stroke-width="1" x1="367.2268907563025" x2="367.2268907563025" y1="273.33333333333337" y2="540.0" /><line stroke="gray" stroke-width="1" x1="370.5042016806723" x2="370.5042016806723" y1="273.33333333333337" y2="540.0" /><line stroke="gray" stroke-width="1" x1="373.781512605042" x2="373.781512605042" y1="273.33333333333337" y2="540.0" /><line stroke="gray" stroke-width="1" x1="377.05882352941177" x2="377.05882352941177" y1="273.33333333333337" y2="540.0" /><line stroke="gray" stroke-width="1" x1="380.3361344537815" x2="380.3361344537815" y1="273.33333333333337" y2="540.0" /><line stroke="gray" stroke-width="1" x1="383.61344537815125" x2="383.61344537815125" y1="273.33333333333337" y2="540.0" /><line stroke="gray" stroke-width="1" x1="386.89075630252097" x2="386.89075630252097" y1="273.33333333333337" y2="540.0" /><line stroke="gray" stroke-width="1" x1="390.16806722689074" x2="390.16806722689074" y1="273.33333333333337" y2="540.0" /><line stroke="gray" stroke-width="1" x1="393.4453781512605" x2="393.4453781512605" y1="273.33333333333337" y2="540.0" /><line stroke="gray" stroke-width="1" x1="396.7226890756302" x2="396.7226890756302" y1="273.33333333333337" y2="540.0" /><line stroke="gray" stroke-width="1" x1="400.0" x2="400.0" y1="273.33333333333337" y2="540.0" /><rect fill="blue" height="213.33333333333337" width="3.277310924369748" x="377.05882352941177" y="300.0" /><text fill="white" font-family="Arial" font-size="10" text-anchor="start" x="377.05882352941177" y="409.6666666666667" /></svg>