<?xml version="1.0" encoding="utf-8" ?>
<svg baseProfile="full" height="600.0" version="1.1" width="800.0" xmlns="http://www.w3.org/2000/svg" xmlns:ev="http://www.w3.org/2001/xml-events" xmlns:xlink="http://www.w3.org/1999/xlink"><defs /><rect fill="white" height="600.0" stroke="black" stroke-width="2" width="800.0" x="0" y="0" /><rect fill="lightgray" height="50.0" stroke="black" stroke-width="1" width="780.0" x="10.0" y="10.0" /><text font-size="14" text-anchor="middle" x="400.0" y="35.0">trial</text><rect fill="lightgray" height="50.0" stroke="black" stroke-width="1" width="780.0" x="10.0" y="540.0" /><rect fill="none" height="480.0" stroke="blue" stroke-dasharray="4" stroke-width="1" width="780.0" x="10.0" y="60.0" /><rect fill="none" height="480.0" stroke="red" stroke-width="1" width="546.0" x="10.0" y="60.0" /><rect fill="lightgrey" height="53.333333333333336" stroke="black" stroke-width="1" width="546.0" x="10.0" y="60.0" /><text dominant-baseline="middle" font-size="10" text-anchor="middle" x="283.0" y="86.66666666666667">2025</text><rect fill="lightgrey" height="53.333333333333336" stroke="black" stroke-width="1" width="546.0" x="10.0" y="113.33333333333334" /><line stroke="black" stroke-width="1" x1="184.49484536082477" x2="184.49484536082477" y1="113.33333333333334" y2="166.66666666666669" /><text dominant-baseline="middle" font-size="10" text-anchor="middle" x="97.24742268041238" y="140.0">Jan</text><line stroke="black" stroke-width="1" x1="342.1030927835052" x2="342.1030927835052" y1="113.33333333333334" y2="166.66666666666669" /><text dominant-baseline="middle" font-size="10" text-anchor="middle" x="263.298969072165" y="140.0">Feb</text><line stroke="black" stroke-width="1" x1="516.5979381443299" x2="516.5979381443299" y1="113.33333333333334" y2="166.66666666666669" /><text dominant-baseline="middle" font-size="10" text-anchor="middle" x="429.35051546391753" y="140.0">Mar</text><text dominant-baseline="middle" font-size="10" text-anchor="middle" x="536.2989690721649" y="140.0">A</text><rect fill="lightgrey" height="53.333333333333336" stroke="black" stroke-width="1" width="546.0" x="10.0" y="166.66666666666669" /><line stroke="black" stroke-width="1" x1="38.14432989690722" x2="38.14432989690722" y1="166.66666666666669" y2="220.00000000000003" /><text dominant-baseline="middle" font-size="10" text-anchor="middle" x="24.07216494845361" y="193.33333333333334">01</text><line stroke="black" stroke-width="1" x1="77.54639175257732" x2="77.54639175257732" y1="166.66666666666669" y2="220.00000000000003" /><text dominant-baseline="middle" font-size="10" text-anchor="middle" x="57.84536082474227" y="193.33333333333334">02</text><line stroke="black" stroke-width="1" x1="116.94845360824743" x2="116.94845360824743" y1="166.66666666666669" y2="220.00000000000003" /><text dominant-baseline="middle" font-size="10" text-anchor="middle" x="97.24742268041237" y="193.33333333333334">03</text><line stroke="black" stroke-width="1" x1="156.35051546391753" x2="156.35051546391753" y1="166.66666666666669" y2="220.00000000000003" /><text dominant-baseline="middle" font-size="10" text-anchor="middle" x="136.64948453608247" y="193.33333333333334">04</text><line stroke="black" stroke-width="1" x1="195.75257731958763" x2="195.75257731958763" y1="166.66666666666669" y2="220.00000000000003" /><text dominant-baseline="middle" font-size="10" text-anchor="middle" x="176.0515463917526" y="193.33333333333334">05</text><line stroke="black" stroke-width="1" x1="235.15463917525776" x2="235.15463917525776" y1="166.66666666666669" y2="220.00000000000003" /><text dominant-baseline="middle" font-size="10" text-anchor="middle" x="215.4536082474227" y="193.33333333333334">06</text><line stroke="black" stroke-width="1" x1="274.55670103092785" x2="274.55670103092785" y1="166.66666666666669" y2="220.00000000000003" /><text dominant-baseline="middle" font-size="10" text-anchor="middle" x="254.8556701030928" y="193.33333333333334">07</text><line stroke="black" stroke-width="1" x1="313.958762886598" x2="313.958762886598" y1="166.66666666666669" y2="220.00000000000003" /><text dominant-baseline="middle" font-size="10" text-anchor="middle" x="294.2577319587629" y="193.33333333333334">08</text><line stroke="black" stroke-width="1" x1="353.36082474226805" x2="353.36082474226805" y1="166.66666666666669" y2="220.00000000000003" /><text dominant-baseline="middle" font-size="10" text-anchor="middle" x="333.659793814433" y="193.33333333333334">09</text><line stroke="black" stroke-width="1" x1="392.7628865979382" x2="392.7628865979382" y1="166.66666666666669" y2="220.00000000000003" /><text dominant-baseline="middle" font-size="10" text-anchor="middle" x="373.0618556701031" y="193.33333333333334">10</text><line stroke="black" stroke-width="1" x1="432.1649484536083" x2="432.1649484536083" y1="166.66666666666669" y2="220.00000000000003" /><text dominant-baseline="middle" font-size="10" text-anchor="middle" x="412.46391752577324" y="193.33333333333334">11</text><line stroke="black" stroke-width="1" x1="471.5670103092784" x2="471.5670103092784" y1="166.66666666666669" y2="220.00000000000003" /><text dominant-baseline="middle" font-size="10" text-anchor="middle" x="451.86597938144337" y="193.33333333333334">12</text><line stroke="black" stroke-width="1" x1="510.9690721649485" x2="510.9690721649485" y1="166.66666666666669" y2="220.00000000000003" /><text dominant-baseline="middle" font-size="10" text-anchor="middle" x="491.26804123711344" y="193.33333333333334">13</text><line stroke="black" stroke-width="1" x1="550.3711340206186" x2="550.3711340206186" y1="166.66666666666669" y2="220.00000000000003" /><text dominant-baseline="middle" font-size="10" text-anchor="middle" x="530.6701030927835" y="193.33333333333334">14</text><rect fill="lightgrey" height="53.333333333333336" stroke="black" stroke-width="1" width="546.0" x="10.0" y="220.00000000000003" /><line stroke="black" stroke-width="1" x1="15.628865979381445" x2="15.628865979381445" y1="220.00000000000003" y2="273.33333333333337" /><line stroke="black" stroke-width="1" x1="21.25773195876289" x2="21.25773195876289" y1="220.00000000000003" y2="273.33333333333337" /><line stroke="black" stroke-width="1" x1="26.88659793814433" x2="26.88659793814433" y1="220.00000000000003" y2="273.33333333333337" /><line stroke="black" stroke-width="1" x1="32.51546391752578" x2="32.51546391752578" y1="220.00000000000003" y2="273.33333333333337" /><line stroke="black" stroke-width="1" x1="38.14432989690722" x2="38.14432989690722" y1="220.00000000000003" y2="273.33333333333337" /><line stroke="black" stroke-width="1" x1="43.77319587628866" x2="43.77319587628866" y1="220.00000000000003" y2="273.33333333333337" /><line stroke="black" stroke-width="1" x1="49.402061855670105" x2="49.402061855670105" y1="220.00000000000003" y2="273.33333333333337" /><line stroke="black" stroke-width="1" x1="55.03092783505155" x2="55.03092783505155" y1="220.00000000000003" y2="273.33333333333337" /><line stroke="black" stroke-width="1" x1="60.659793814432994" x2="60.659793814432994" y1="220.00000000000003" y2="273.33333333333337" /><line stroke="black" stroke-width="1" x1="66.28865979381445" x2="66.28865979381445" y1="220.00000000000003" y2="273.33333333333337" /><line stroke="black" stroke-width="1" x1="71.91752577319588" x2="71.91752577319588" y1="220.00000000000003" y2="273.33333333333337" /><line stroke="black" stroke-width="1" x1="77.54639175257732" x2="77.54639175257732" y1="220.00000000000003" y2="273.33333333333337" /><line stroke="black" stroke-width="1" x1="83.17525773195877" x2="83.17525773195877" y1="220.00000000000003" y2="273.33333333333337" /><line stroke="black" stroke-width="1" x1="88.80412371134021" x2="88.80412371134021" y1="220.00000000000003" y2="273.33333333333337" /><line stroke="black" stroke-width="1" x1="94.43298969072166" x2="94.43298969072166" y1="220.00000000000003" y2="273.33333333333337" /><line stroke="black" stroke-width="1" x1="100.0618556701031" x2="100.0618556701031" y1="220.00000000000003" y2="273.33333333333337" /><line stroke="black" stroke-width="1" x1="105.69072164948454" x2="105.69072164948454" y1="220.00000000000003" y2="273.33333333333337" /><line stroke="black" stroke-width="1" x1="111.31958762886599" x2="111.31958762886599" y1="220.00000000000003" y2="273.33333333333337" /><line stroke="black" stroke-width="1" x1="116.94845360824743" x2="116.94845360824743" y1="220.00000000000003" y2="273.33333333333337" /><line stroke="black" stroke-width="1" x1="122.57731958762888" x2="122.57731958762888" y1="220.00000000000003" y2="273.33333333333337" /><line stroke="black" stroke-width="1" x1="128.20618556701032" x2="128.20618556701032" y1="220.00000000000003" y2="273.33333333333337" /><line stroke="black" stroke-width="1" x1="133.83505154639175" x2="133.83505154639175" y1="220.00000000000003" y2="273.33333333333337" /><line stroke="black" stroke-width="1" x1="139.4639175257732" x2="139.4639175257732" y1="220.00000000000003" y2="273.33333333333337" /><line stroke="black" stroke-width="1" x1="145.09278350515464" x2="145.09278350515464" y1="220.00000000000003" y2="273.33333333333337" /><line stroke="black" stroke-width="1" x1="150.7216494845361" x2="150.7216494845361" y1="220.00000000000003" y2="273.33333333333337" /><line stroke="black" stroke-width="1" x1="156.35051546391753" x2="156.35051546391753" y1="220.00000000000003" y2="273.33333333333337" /><line stroke="black" stroke-width="1" x1="161.979381443299" x2="161.979381443299" y1="220.00000000000003" y2="273.33333333333337" /><line stroke="black" stroke-width="1" x1="167.60824742268042" x2="167.60824742268042" y1="220.00000000000003" y2="273.33333333333337" /><line stroke="black" stroke-width="1" x1="173.23711340206188" x2="173.23711340206188" y1="220.00000000000003" y2="273.33333333333337" /><line stroke="black" stroke-width="1" x1="178.8659793814433" x2="178.8659793814433" y1="220.00000000000003" y2="273.33333333333337" /><line stroke="black" stroke-width="1" x1="184.49484536082477" x2="184.49484536082477" y1="220.00000000000003" y2="273.33333333333337" /><line stroke="black" stroke-width="1" x1="190.1237113402062" x2="190.1237113402062" y1="220.00000000000003" y2="273.33333333333337" /><line stroke="black" stroke-width="1" x1="195.75257731958763" x2="195.75257731958763" y1="220.00000000000003" y2="273.33333333333337" /><line stroke="black" stroke-width="1" x1="201.3814432989691" x2="201.3814432989691" y1="220.00000000000003" y2="273.33333333333337" /><line stroke="black" stroke-width="1" x1="207.01030927835052" x2="207.01030927835052" y1="220.00000000000003" y2="273.33333333333337" /><line stroke="black" stroke-width="1" x1="212.63917525773198" x2="212.63917525773198" y1="220.00000000000003" y2="273.33333333333337" /><line stroke="black" stroke-width="1" x1="218.2680412371134" x2="218.2680412371134" y1="220.00000000000003" y2="273.33333333333337" /><line stroke="black" stroke-width="1" x1="223.89690721649487" x2="223.89690721649487" y1="220.00000000000003" y2="273.33333333333337" /><line stroke="black" stroke-width="1" x1="229.5257731958763" x2="229.5257731958763" y1="220.00000000000003" y2="273.33333333333337" /><line stroke="black" stroke-width="1" x1="235.15463917525776" x2="235.15463917525776" y1="220.00000000000003" y2="273.33333333333337" /><line stroke="black" stroke-width="1" x1="240.7835051546392" x2="240.7835051546392" y1="220.00000000000003" y2="273.33333333333337" /><line stroke="black" stroke-width="1" x1="246.41237113402065" x2="246.41237113402065" y1="220.00000000000003" y2="273.33333333333337" /><line stroke="black" stroke-width="1" x1="252.04123711340208" x2="252.04123711340208" y1="220.00000000000003" y2="273.33333333333337" /><line stroke="black" stroke-width="1" x1="257.6701030927835" x2="257.6701030927835" y1="220.00000000000003" y2="273.33333333333337" /><line stroke="black" stroke-width="1" x1="263.29896907216494" x2="263.29896907216494" y1="220.00000000000003" y2="273.33333333333337" /><line stroke="black" stroke-width="1" x1="268.9278350515464" x2="268.9278350515464" y1="220.00000000000003" y2="273.33333333333337" /><line stroke="black" stroke-width="1" x1="274.55670103092785" x2="274.55670103092785" y1="220.00000000000003" y2="273.33333333333337" /><line stroke="black" stroke-width="1" x1="280.1855670103093" x2="280.1855670103093" y1="220.00000000000003" y2="273.33333333333337" /><line stroke="black" stroke-width="1" x1="285.8144329896907" x2="285.8144329896907" y1="220.00000000000003" y2="273.33333333333337" /><line stroke="black" stroke-width="1" x1="291.4432989690722" x2="291.4432989690722" y1="220.00000000000003" y2="273.33333333333337" /><line stroke="black" stroke-width="1" x1="297.07216494845363" x2="297.07216494845363" y1="220.00000000000003" y2="273.33333333333337" /><line stroke="black" stroke-width="1" x1="302.70103092783506" x2="302.70103092783506" y1="220.00000000000003" y2="273.33333333333337" /><line stroke="black" stroke-width="1" x1="308.3298969072165" x2="308.3298969072165" y1="220.00000000000003" y2="273.33333333333337" /><line stroke="black" stroke-width="1" x1="313.958762886598" x2="313.958762886598" y1="220.00000000000003" y2="273.33333333333337" /><line stroke="black" stroke-width="1" x1="319.5876288659794" x2="319.5876288659794" y1="220.00000000000003" y2="273.33333333333337" /><line stroke="black" stroke-width="1" x1="325.21649484536084" x2="325.21649484536084" y1="220.00000000000003" y2="273.33333333333337" /><line stroke="black" stroke-width="1" x1="330.8453608247423" x2="330.8453608247423" y1="220.00000000000003" y2="273.33333333333337" /><line stroke="black" stroke-width="1" x1="336.47422680412376" x2="336.47422680412376" y1="220.00000000000003" y2="273.33333333333337" /><line stroke="black" stroke-width="1" x1="342.1030927835052" x2="342.1030927835052" y1="220.00000000000003" y2="273.33333333333337" /><line stroke="black" stroke-width="1" x1="347.7319587628866" x2="347.7319587628866" y1="220.00000000000003" y2="273.33333333333337" /><line stroke="black" stroke-width="1" x1="353.36082474226805" x2="353.36082474226805" y1="220.00000000000003" y2="273.33333333333337" /><line stroke="black" stroke-width="1" x1="358.98969072164954" x2="358.98969072164954" y1="220.00000000000003" y2="273.33333333333337" /><line stroke="black" stroke-width="1" x1="364.61855670103097" x2="364.61855670103097" y1="220.00000000000003" y2="273.33333333333337" /><line stroke="black" stroke-width="1" x1="370.2474226804124" x2="370.2474226804124" y1="220.00000000000003" y2="273.33333333333337" /><line stroke="black" stroke-width="1" x1="375.87628865979383" x2="375.87628865979383" y1="220.00000000000003" y2="273.33333333333337" /><line stroke="black" stroke-width="1" x1="381.50515463917526" x2="381.50515463917526" y1="220.00000000000003" y2="273.33333333333337" /><line stroke="black" stroke-width="1" x1="387.13402061855675" x2="387.13402061855675" y1="220.00000000000003" y2="273.33333333333337" /><line stroke="black" stroke-width="1" x1="392.7628865979382" x2="392.7628865979382" y1="220.00000000000003" y2="273.33333333333337" /><line stroke="black" stroke-width="1" x1="398.3917525773196" x2="398.3917525773196" y1="220.00000000000003" y2="273.33333333333337" /><line stroke="black" stroke-width="1" x1="404.02061855670104" x2="404.02061855670104" y1="220.00000000000003" y2="273.33333333333337" /><line stroke="black" stroke-width="1" x1="409.6494845360825" x2="409.6494845360825" y1="220.00000000000003" y2="273.33333333333337" /><line stroke="black" stroke-width="1" x1="415.27835051546396" x2="415.27835051546396" y1="220.00000000000003" y2="273.33333333333337" /><line stroke="black" stroke-width="1" x1="420.9072164948454" x2="420.9072164948454" y1="220.00000000000003" y2="273.33333333333337" /><line stroke="black" stroke-width="1" x1="426.5360824742268" x2="426.5360824742268" y1="220.00000000000003" y2="273.33333333333337" /><line stroke="black" stroke-width="1" x1="432.1649484536083" x2="432.1649484536083" y1="220.00000000000003" y2="273.33333333333337" /><line stroke="black" stroke-width="1" x1="437.79381443298973" x2="437.79381443298973" y1="220.00000000000003" y2="273.33333333333337" /><line stroke="black" stroke-width="1" x1="443.42268041237116" x2="443.42268041237116" y1="220.00000000000003" y2="273.33333333333337" /><line stroke="black" stroke-width="1" x1="449.0515463917526" x2="449.0515463917526" y1="220.00000000000003" y2="273.33333333333337" /><line stroke="black" stroke-width="1" x1="454.6804123711341" x2="454.6804123711341" y1="220.00000000000003" y2="273.33333333333337" /><line stroke="black" stroke-width="1" x1="460.3092783505155" x2="460.3092783505155" y1="220.00000000000003" y2="273.33333333333337" /><line stroke="black" stroke-width="1" x1="465.93814432989694" x2="465.93814432989694" y1="220.00000000000003" y2="273.33333333333337" /><line stroke="black" stroke-width="1" x1="471.5670103092784" x2="471.5670103092784" y1="220.00000000000003" y2="273.33333333333337" /><line stroke="black" stroke-width="1" x1="477.1958762886598" x2="477.1958762886598" y1="220.00000000000003" y2="273.33333333333337" /><line stroke="black" stroke-width="1" x1="482.8247422680413" x2="482.8247422680413" y1="220.00000000000003" y2="273.33333333333337" /><line stroke="black" stroke-width="1" x1="488.4536082474227" x2="488.4536082474227" y1="220.00000000000003" y2="273.33333333333337" /><line stroke="black" stroke-width="1" x1="494.08247422680415" x2="494.08247422680415" y1="220.00000000000003" y2="273.33333333333337" /><line stroke="black" stroke-width="1" x1="499.7113402061856" x2="499.7113402061856" y1="220.00000000000003" y2="273.33333333333337" /><line stroke="black" stroke-width="1" x1="505.34020618556707" x2="505.34020618556707" y1="220.00000000000003" y2="273.33333333333337" /><line stroke="black" stroke-width="1" x1="510.9690721649485" x2="510.9690721649485" y1="220.00000000000003" y2="273.33333333333337" /><line stroke="black" stroke-width="1" x1="516.5979381443299" x2="516.5979381443299" y1="220.00000000000003" y2="273.33333333333337" /><line stroke="black" stroke-width="1" x1="522.2268041237114" x2="522.2268041237114" y1="220.00000000000003" y2="273.33333333333337" /><line stroke="black" stroke-width="1" x1="527.8556701030928" x2="527.8556701030928" y1="220.00000000000003" y2="273.33333333333337" /><line stroke="black" stroke-width="1" x1="533.4845360824743" x2="533.4845360824743" y1="220.00000000000003" y2="273.33333333333337" /><line stroke="black" stroke-width="1" x1="539.1134020618557" x2="539.1134020618557" y1="220.00000000000003" y2="273.33333333333337" /><line stroke="black" stroke-width="1" x1="544.7422680412371" x2="544.7422680412371" y1="220.00000000000003" y2="273.33333333333337" /><line stroke="black" stroke-width="1" x1="550.3711340206186" x2="550.3711340206186" y1="220.00000000000003" y2="273.33333333333337" /><line stroke="black" stroke-width="1" x1="556.0" x2="556.0" y1="220.00000000000003" y2="273.33333333333337" /><rect fill="none" height="266.6666666666667" stroke="purple" stroke-width="1" width="546.0" x="10.0" y="273.33333333333337" /><line stroke="gray" stroke-width="1" x1="10.0" x2="556.0" y1="273.33333333333337" y2="273.33333333333337" /><line stroke="gray" stroke-width="1" x1="10.0" x2="556.0" y1="284.44444444444446" y2="284.44444444444446" /><line stroke="gray" stroke-width="1" x1="10.0" x2="556.0" y1="295.5555555555556" y2="295.5555555555556" /><line stroke="gray" stroke-width="1" x1="10.0" x2="556.0" y1="306.6666666666667" y2="306.6666666666667" /><line stroke="gray" stroke-width="1" x1="10.0" x2="556.0" y1="317.7777777777778" y2="317.7777777777778" /><line stroke="gray" stroke-width="1" x1="10.0" x2="556.0" y1="328.8888888888889" y2="328.8888888888889" /><line stroke="gray" stroke-width="1" x1="10.0" x2="556.0" y1="340.00000000000006" y2="340.00000000000006" /><line stroke="gray" stroke-width="1" x1="10.0" x2="556.0" y1="351.11111111111114" y2="351.11111111111114" /><line stroke="gray" stroke-width="1" x1="10.0" x2="556.0" y1="362.2222222222223" y2="362.2222222222223" /><line stroke="gray" stroke-width="1" x1="10.0" x2="556.0" y1="373.33333333333337" y2="373.33333333333337" /><line stroke="gray" stroke-width="1" x1="10.0" x2="556.0" y1="384.4444444444445" y2="384.4444444444445" /><line stroke="gray" stroke-width="1" x1="10.0" x2="556.0" y1="395.5555555555556" y2="395.5555555555556" /><line stroke="gray" stroke-width="1" x1="10.0" x2="556.0" y1="406.66666666666674" y2="406.66666666666674" /><line stroke="gray" stroke-width="1" x1="10.0" x2="556.0" y1="417.7777777777778" y2="417.7777777777778" /><line stroke="gray" stroke-width="1" x1="10.0" x2="556.0" y1="428.8888888888889" y2="428.8888888888889" /><line stroke="gray" stroke-width="1" x1="10.0" x2="556.0" y1="440.00000000000006" y2="440.00000000000006" /><line stroke="gray" stroke-width="1" x1="10.0" x2="556.0" y1="451.1111111111112" y2="451.1111111111112" /><line stroke="gray" stroke-width="1" x1="10.0" x2="556.0" y1="462.2222222222223" y2="462.2222222222223" /><line stroke="gray" stroke-width="1" x1="10.0" x2="556.0" y1="473.33333333333337" y2="473.33333333333337" /><line stroke="gray" stroke-width="1" x1="10.0" x2="556.0" y1="484.4444444444445" y2="484.4444444444445" /><line stroke="gray" stroke-width="1" x1="10.0" x2="556.0" y1="495.55555555555566" y2="495.55555555555566" /><line stroke="gray" stroke-width="1" x1="10.0" x2="556.0" y1="506.66666666666674" y2="506.66666666666674" /><line stroke="gray" stroke-width="1" x1="10.0" x2="556.0" y1="517.7777777777778" y2="517.7777777777778" /><line stroke="gray" stroke-width="1" x1="10.0" x2="556.0" y1="528.8888888888889" y2="528.8888888888889" /><line stroke="gray" stroke-width="1" x1="10.0" x2="556.0" y1="540.0" y2="540.0" /><line stroke="gray" stroke-width="1" x1="184.49484536082477" x2="184.49484536082477" y1="273.33333333333337" y2="540.0" /><line stroke="gray" stroke-width="1" x1="342.1030927835052" x2="342.1030927835052" y1="273.33333333333337" y2="540.0" /><line stroke="gray" stroke-width="1" x1="516.5979381443299" x2="516.5979381443299" y1="273.33333333333337" y2="540.0" /><line stroke="gray" stroke-width="1" x1="38.14432989690722" x2="38.14432989690722" y1="273.33333333333337" y2="540.0" /><line stroke="gray" stroke-width="1" x1="77.54639175257732" x2="77.54639175257732" y1="273.33333333333337" y2="540.0" /><line stroke="gray" stroke-width="1" x1="116.94845360824743" x2="116.94845360824743" y1="273.33333333333337" y2="540.0" /><line stroke="gray" stroke-width="1" x1="156.35051546391753" x2="156.35051546391753" y1="273.33333333333337" y2="540.0" /><line stroke="gray" stroke-width="1" x1="195.75257731958763" x2="195.75257731958763" y1="273.33333333333337" y2="540.0" /><line stroke="gray" stroke-width="1" x1="235.15463917525776" x2="235.15463917525776" y1="273.33333333333337" y2="540.0" /><line stroke="gray" stroke-width="1" x1="274.55670103092785" x2="274.55670103092785" y1="273.33333333333337" y2="540.0" /><line stroke="gray" stroke-width="1" x1="313.958762886598" x2="313.958762886598" y1="273.33333333333337" y2="540.0" /><line stroke="gray" stroke-width="1" x1="353.36082474226805" x2="353.36082474226805" y1="273.33333333333337" y2="540.0" /><line stroke="gray" stroke-width="1" x1="392.7628865979382" x2="392.7628865979382" y1="273.33333333333337" y2="540.0" /><line stroke="gray" stroke-width="1" x1="432.1649484536083" x2="432.1649484536083" y1="273.33333333333337" y2="540.0" /><line stroke="gray" stroke-width="1" x1="471.5670103092784" x2="471.5670103092784" y1="273.33333333333337" y2="540.0" /><line stroke="gray" stroke-width="1" x1="510.9690721649485" x2="510.9690721649485" y1="273.33333333333337" y2="540.0" /><line stroke="gray" stroke-width="1" x1="550.3711340206186" x2="550.3711340206186" y1="273.33333333333337" y2="540.0" /><line stroke="gray" stroke-width="1" x1="15.628865979381445" x2="15.628865979381445" y1="273.33333333333337" y2="540.0" /><line stroke="gray" stroke-width="1" x1="21.25773195876289" x2="21.25773195876289" y1="273.33333333333337" y2="540.0" /><line stroke="gray" stroke-width="1" x1="26.88659793814433" x2="26.88659793814433" y1="273.33333333333337" y2="540.0" /><line stroke="gray" stroke-width="1" x1="32.51546391752578" x2="32.51546391752578" y1="273.33333333333337" y2="540.0" /><line stroke="gray" stroke-width="1" x1="38.14432989690722" x2="38.14432989690722" y1="273.33333333333337" y2="540.0" /><line stroke="gray" stroke-width="1" x1="43.77319587628866" x2="43.77319587628866" y1="273.33333333333337" y2="540.0" /><line stroke="gray" stroke-width="1" x1="49.402061855670105" x2="49.402061855670105" y1="273.33333333333337" y2="540.0" /><line stroke="gray" stroke-width="1" x1="55.03092783505155" x2="55.03092783505155" y1="273.33333333333337" y2="540.0" /><line stroke="gray" stroke-width="1" x1="60.659793814432994" x2="60.659793814432994" y1="273.33333333333337" y2="540.0" /><line stroke="gray" stroke-width="1" x1="66.28865979381445" x2="66.28865979381445" y1="273.33333333333337" y2="540.0" /><line stroke="gray" stroke-width="1" x1="71.91752577319588" x2="71.91752577319588" y1="273.33333333333337" y2="540.0" /><line stroke="gray" stroke-width="1" x1="77.54639175257732" x2="77.54639175257732" y1="273.33333333333337" y2="540.0" /><line stroke="gray" stroke-width="1" x1="83.17525773195877" x2="83.17525773195877" y1="273.33333333333337" y2="540.0" /><line stroke="gray" stroke-width="1" x1="88.80412371134021" x2="88.80412371134021" y1="273.33333333333337" y2="540.0" /><line stroke="gray" stroke-width="1" x1="94.43298969072166" x2="94.43298969072166" y1="273.33333333333337" y2="540.0" /><line stroke="gray" stroke-width="1" x1="100.0618556701031" x2="100.0618556701031" y1="273.33333333333337" y2="540.0" /><line stroke="gray" stroke-width="1" x1="105.69072164948454" x2="105.69072164948454" y1="273.33333333333337" y2="540.0" /><line stroke="gray" stroke-width="1" x1="111.31958762886599" x2="111.31958762886599" y1="273.33333333333337" y2="540.0" /><line stroke="gray" stroke-width="1" x1="116.94845360824743" x2="116.94845360824743" y1="273.33333333333337" y2="540.0" /><line stroke="gray" stroke-width="1" x1="122.57731958762888" x2="122.57731958762888" y1="273.33333333333337" y2="540.0" /><line stroke="gray" stroke-width="1" x1="128.20618556701032" x2="128.20618556701032" y1="273.33333333333337" y2="540.0" /><line stroke="gray" stroke-width="1" x1="133.83505154639175" x2="133.83505154639175" y1="273.33333333333337" y2="540.0" /><line stroke="gray" stroke-width="1" x1="139.4639175257732" x2="139.4639175257732" y1="273.33333333333337" y2="540.0" /><line stroke="gray" stroke-width="1" x1="145.09278350515464" x2="145.09278350515464" y1="273.33333333333337" y2="540.0" /><line stroke="gray" stroke-width="1" x1="150.7216494845361" x2="150.7216494845361" y1="273.33333333333337" y2="540.0" /><line stroke="gray" stroke-width="1" x1="156.35051546391753" x2="156.35051546391753" y1="273.33333333333337" y2="540.0" /><line stroke="gray" stroke-width="1" x1="161.979381443299" x2="161.979381443299" y1="273.33333333333337" y2="540.0" /><line stroke="gray" stroke-width="1" x1="167.60824742268042" x2="167.60824742268042" y1="273.33333333333337" y2="540.0" /><line stroke="gray" stroke-width="1" x1="173.23711340206188" x2="173.23711340206188" y1="273.33333333333337" y2="540.0" /><line stroke="gray" stroke-width="1" x1="178.8659793814433" x2="178.8659793814433" y1="273.33333333333337" y2="540.0" /><line stroke="gray" stroke-width="1" x1="184.49484536082477" x2="184.49484536082477" y1="273.33333333333337" y2="540.0" /><line stroke="gray" stroke-width="1" x1="190.1237113402062" x2="190.1237113402062" y1="273.33333333333337" y2="540.0" /><line stroke="gray" stroke-width="1" x1="195.75257731958763" x2="195.75257731958763" y1="273.33333333333337" y2="540.0" /><line stroke="gray" stroke-width="1" x1="201.3814432989691" x2="201.3814432989691" y1="273.33333333333337" y2="540.0" /><line stroke="gray" stroke-width="1" x1="207.01030927835052" x2="207.01030927835052" y1="273.33333333333337" y2="540.0" /><line stroke="gray" stroke-width="1" x1="212.63917525773198" x2="212.63917525773198" y1="273.33333333333337" y2="540.0" /><line stroke="gray" stroke-width="1" x1="218.2680412371134" x2="218.2680412371134" y1="273.33333333333337" y2="540.0" /><line stroke="gray" stroke-width="1" x1="223.89690721649487" x2="223.89690721649487" y1="273.33333333333337" y2="540.0" /><line stroke="gray" stroke-width="1" x1="229.5257731958763" x2="229.5257731958763" y1="273.33333333333337" y2="540.0" /><line stroke="gray" stroke-width="1" x1="235.15463917525776" x2="235.15463917525776" y1="273.33333333333337" y2="540.0" /><line stroke="gray" stroke-width="1" x1="240.7835051546392" x2="240.7835051546392" y1="273.33333333333337" y2="540.0" /><line stroke="gray" stroke-width="1" x1="246.41237113402065" x2="246.41237113402065" y1="273.33333333333337" y2="540.0" /><line stroke="gray" stroke-width="1" x1="252.04123711340208" x2="252.04123711340208" y1="273.33333333333337" y2="540.0" /><line stroke="gray" stroke-width="1" x1="257.6701030927835" x2="257.6701030927835" y1="273.33333333333337" y2="540.0" /><line stroke="gray" stroke-width="1" x1="263.29896907216494" x2="263.29896907216494" y1="273.33333333333337" y2="540.0" /><line stroke="gray" stroke-width="1" x1="268.9278350515464" x2="268.9278350515464" y1="273.33333333333337" y2="540.0" /><line stroke="gray" stroke-width="1" x1="274.55670103092785" x2="274.55670103092785" y1="273.33333333333337" y2="540.0" /><line stroke="gray" stroke-width="1" x1="280.1855670103093" x2="280.1855670103093" y1="273.33333333333337" y2="540.0" /><line stroke="gray" stroke-width="1" x1="285.8144329896907" x2="285.8144329896907" y1="273.33333333333337" y2="540.0" /><line stroke="gray" stroke-width="1" x1="291.4432989690722" x2="291.4432989690722" y1="273.33333333333337" y2="540.0" /><line stroke="gray" stroke-width="1" x1="297.07216494845363" x2="297.07216494845363" y1="273.33333333333337" y2="540.0" /><line stroke="gray" stroke-width="1" x1="302.70103092783506" x2="302.70103092783506" y1="273.33333333333337" y2="540.0" /><line stroke="gray" stroke-width="1" x1="308.3298969072165" x2="308.3298969072165" y1="273.33333333333337" y2="540.0" /><line stroke="gray" stroke-width="1" x1="313.958762886598" x2="313.958762886598" y1="273.33333333333337" y2="540.0" /><line stroke="gray" stroke-width="1" x1="319.5876288659794" x2="319.5876288659794" y1="273.33333333333337" y2="540.0" /><line stroke="gray" stroke-width="1" x1="325.21649484536084" x2="325.21649484536084" y1="273.33333333333337" y2="540.0" /><line stroke="gray" stroke-width="1" x1="330.8453608247423" x2="330.8453608247423" y1="273.33333333333337" y2="540.0" /><line stroke="gray" stroke-width="1" x1="336.47422680412376" x2="336.47422680412376" y1="273.33333333333337" y2="540.0" /><line stroke="gray" stroke-width="1" x1="342.1030927835052" x2="342.1030927835052" y1="273.33333333333337" y2="540.0" /><line stroke="gray" stroke-width="1" x1="347.7319587628866" x2="347.7319587628866" y1="273.33333333333337" y2="540.0" /><line stroke="gray" stroke-width="1" x1="353.36082474226805" x2="353.36082474226805" y1="273.33333333333337" y2="540.0" /><line stroke="gray" stroke-width="1" x1="358.98969072164954" x2="358.98969072164954" y1="273.33333333333337" y2="540.0" /><line stroke="gray" stroke-width="1" x1="364.61855670103097" x2="364.61855670103097" y1="273.33333333333337" y2="540.0" /><line stroke="gray" stroke-width="1" x1="370.2474226804124" x2="370.2474226804124" y1="273.33333333333337" y2="540.0" /><line stroke="gray" stroke-width="1" x1="375.87628865979383" x2="375.87628865979383" y1="273.33333333333337" y2="540.0" /><line stroke="gray" stroke-width="1" x1="381.50515463917526" x2="381.50515463917526" y1="273.33333333333337" y2="540.0" /><line stroke="gray" stroke-width="1" x1="387.13402061855675" x2="387.13402061855675" y1="273.33333333333337" y2="540.0" /><line stroke="gray" stroke-width="1" x1="392.7628865979382" x2="392.7628865979382" y1="273.33333333333337" y2="540.0" /><line stroke="gray" stroke-width="1" x1="398.3917525773196" x2="398.3917525773196" y1="273.33333333333337" y2="540.0" /><line stroke="gray" stroke-width="1" x1="404.02061855670104" x2="404.02061855670104" y1="273.33333333333337" y2="540.0" /><line stroke="gray" stroke-width="1" x1="409.6494845360825" x2="409.6494845360825" y1="273.33333333333337" y2="540.0" /><line stroke="gray" stroke-width="1" x1="415.27835051546396" x2="415.27835051546396" y1="273.33333333333337" y2="540.0" /><line stroke="gray" stroke-width="1" x1="420.9072164948454" x2="420.9072164948454" y1="273.33333333333337" y2="540.0" /><line stroke="gray" stroke-width="1" x1="426.5360824742268" x2="426.5360824742268" y1="273.33333333333337" y2="540.0" /><line stroke="gray" stroke-width="1" x1="432.1649484536083" x2="432.1649484536083" y1="273.33333333333337" y2="540.0" /><line stroke="gray" stroke-width="1" x1="437.79381443298973" x2="437.79381443298973" y1="273.33333333333337" y2="540.0" /><line stroke="gray" stroke-width="1" x1="443.42268041237116" x2="443.42268041237116" y1="273.33333333333337" y2="540.0" /><line stroke="gray" stroke-width="1" x1="449.0515463917526" x2="449.0515463917526" y1="273.33333333333337" y2="540.0" /><line stroke="gray" stroke-width="1" x1="454.6804123711341" x2="454.6804123711341" y1="273.33333333333337" y2="540.0" /><line stroke="gray" stroke-width="1" x1="460.3092783505155" x2="460.3092783505155" y1="273.33333333333337" y2="540.0" /><line stroke="gray" stroke-width="1" x1="465.93814432989694" x2="465.93814432989694" y1="273.33333333333337" y2="540.0" /><line stroke="gray" stroke-width="1" x1="471.5670103092784" x2="471.5670103092784" y1="273.33333333333337" y2="540.0" /><line stroke="gray" stroke-width="1" x1="477.1958762886598" x2="477.1958762886598" y1="273.33333333333337" y2="540.0" /><line stroke="gray" stroke-width="1" x1="482.8247422680413" x2="482.8247422680413" y1="273.33333333333337" y2="540.0" /><line stroke="gray" stroke-width="1" x1="488.4536082474227" x2="488.4536082474227" y1="273.33333333333337" y2="540.0" /><line stroke="gray" stroke-width="1" x1="494.08247422680415" x2="494.08247422680415" y1="273.33333333333337" y2="540.0" /><line stroke="gray" stroke-width="1" x1="499.7113402061856" x2="499.7113402061856" y1="273.33333333333337" y2="540.0" /><line stroke="gray" stroke-width="1" x1="505.34020618556707" x2="505.34020618556707" y1="273.33333333333337" y2="540.0" /><line stroke="gray" stroke-width="1" x1="510.9690721649485" x2="510.9690721649485" y1="273.33333333333337" y2="540.0" /><line stroke="gray" stroke-width="1" x1="516.5979381443299" x2="516.5979381443299" y1="273.33333333333337" y2="540.0" /><line stroke="gray" stroke-width="1" x1="522.2268041237114" x2="522.2268041237114" y1="273.33333333333337" y2="540.0" /><line stroke="gray" stroke-width="1" x1="527.8556701030928" x2="527.8556701030928" y1="273.33333333333337" y2="540.0" /><line stroke="gray" stroke-width="1" x1="533.4845360824743" x2="533.4845360824743" y1="273.33333333333337" y2="540.0" /><line stroke="gray" stroke-width="1" x1="539.1134020618557" x2="539.1134020618557" y1="273.33333333333337" y2="540.0" /><line stroke="gray" stroke-width="1" x1="544.7422680412371" x2="544.7422680412371" y1="273.33333333333337" y2="540.0" /><line stroke="gray" stroke-width="1" x1="550.3711340206186" x2="550.3711340206186" y1="273.33333333333337" y2="540.0" /><line stroke="gray" stroke-width="1" x1="556.0" x2="556.0" y1="273.33333333333337" y2="540.0" /><rect fill="blue" height="8.888888888888891" width="61.917525773195884" x="60.659793814432994" y="274.44444444444446" /><text fill="white" font-size="10" text-anchor="start" x="60.659793814432994" y="281.8888888888889">task_inside</text><rect fill="blue" height="8.888888888888891" width="213.89690721649487" x="173.23711340206188" y="296.6666666666667" /><text fill="black" font-size="10" text-anchor="end" x="167.60824742268045" y="304.11111111111114">task_left</text><line stroke="black" stroke-width="1" x1="167.60824742268045" x2="173.23711340206188" y1="301.11111111111114" y2="301.11111111111114" /><rect fill="blue" height="8.888888888888891" width="213.89690721649487" x="173.23711340206188" y="318.8888888888889" /><text fill="black" font-size="10" text-anchor="start" x="392.7628865979382" y="326.33333333333337">task_right</text><line stroke="black" stroke-width="1" x1="392.7628865979382" x2="387.13402061855675" y1="323.33333333333337" y2="323.33333333333337" /><rect fill="blue" height="8.888888888888891" width="61.917525773195884" x="60.659793814432994" y="341.11111111111114" /><text fill="black" font-size="10" text-anchor="middle" x="91.61855670103094" y="321.8888888888889">task_above</text><line stroke="black" stroke-width="1" x1="91.61855670103094" x2="91.61855670103094" y1="322.8888888888889" y2="341.11111111111114" /><rect fill="blue" height="8.888888888888891" width="118.20618556701032" x="60.659793814432994" y="363.33333333333337" /><text fill="black" font-size="10" text-anchor="middle" x="119.76288659793815" y="397.4444444444445">task_below</text><line stroke="black" stroke-width="1" x1="119.76288659793815" x2="119.76288659793815" y1="387.4444444444445" y2="372.2222222222223" /><polygon fill="red" points="387.13402061855675,385.5555555555556 391.5784650630012,390.00000000000006 387.13402061855675,394.4444444444445 382.6895761741123,390.00000000000006" stroke="black" stroke-width="1" /><text fill="black" font-size="10" text-anchor="end" x="381.5051546391753" y="415.2222222222223">milestone_left</text><line stroke="black" stroke-width="1" x1="381.5051546391753" x2="382.6895761741123" y1="412.2222222222223" y2="412.2222222222223" /><polygon fill="red" points="387.13402061855675,407.7777777777778 391.5784650630012,412.2222222222223 387.13402061855675,416.66666666666674 382.6895761741123,412.2222222222223" stroke="black" stroke-width="1" /><text fill="black" font-size="10" text-anchor="start" x="392.7628865979382" y="437.44444444444446">milestone_right</text><line stroke="black" stroke-width="1" x1="392.7628865979382" x2="391.5784650630012" y1="434.44444444444446" y2="434.44444444444446" /><polygon fill="red" points="387.13402061855675,430.0 391.5784650630012,434.44444444444446 387.13402061855675,438.8888888888889 382.6895761741123,434.44444444444446" stroke="black" stroke-width="1" /><text fill="black" font-size="10" text-anchor="middle" x="66.28865979381445" y="444.1111111111112">milestone_above</text><line stroke="black" stroke-width="1" x1="66.28865979381445" x2="66.28865979381445" y1="445.1111111111112" y2="452.2222222222223" /><polygon fill="red" points="66.28865979381445,452.2222222222223 70.73310423825889,456.66666666666674 66.28865979381445,461.1111111111112 61.84421534937,456.66666666666674" stroke="black" stroke-width="1" /><text fill="black" font-size="10" text-anchor="middle" x="66.28865979381445" y="497.44444444444446">milestone_below</text><line stroke="black" stroke-width="1" x1="66.28865979381445" x2="66.28865979381445" y1="487.44444444444446" y2="483.33333333333337" /><polygon fill="red" points="66.28865979381445,474.44444444444446 70.73310423825889,478.8888888888889 66.28865979381445,483.33333333333337 61.84421534937,478.8888888888889" stroke="black" stroke-width="1" /><rect fill="blue" height="8.888888888888891" width="213.89690721649487" x="173.23711340206188" y="496.66666666666674" /><text fill="black" font-size="10" text-anchor="end" x="161.979381443299" y="504.1111111111112">t-l-s</text><line stroke="black" stroke-width="1" x1="161.979381443299" x2="173.23711340206188" y1="501.1111111111112" y2="501.1111111111112" /><rect fill="blue" height="8.888888888888891" width="213.89690721649487" x="173.23711340206188" y="518.8888888888889" /><text fill="black" font-size="10" text-anchor="end" x="116.94845360824743" y="526.3333333333334">task_left_long</text><line stroke="black" stroke-width="1" x1="116.94845360824743" x2="173.23711340206188" y1="523.3333333333334" y2="523.3333333333334" /><rect fill="none" height="480.0" stroke="red" stroke-width="1" width="234.0" x="556.0" y="60.0" /><rect fill="lightgrey" height="53.333333333333336" stroke="black" stroke-width="1" width="234.0" x="556.0" y="60.0" /><text dominant-baseline="middle" font-size="10" text-anchor="middle" x="673.0" y="86.66666666666667">2025</text><rect fill="lightgrey" height="53.333333333333336" stroke="black" stroke-width="1" width="234.0" x="556.0" y="113.33333333333334" /><line stroke="black" stroke-width="1" x1="641.8" x2="641.8" y1="113.33333333333334" y2="166.66666666666669" /><text dominant-baseline="middle" font-size="10" text-anchor="middle" x="598.9" y="140.0">Apr</text><line stroke="black" stroke-width="1" x1="762.7" x2="762.7" y1="113.33333333333334" y2="166.66666666666669" /><text dominant-baseline="middle" font-size="10" text-anchor="middle" x="702.25" y="140.0">May</text><text dominant-baseline="middle" font-size="10" text-anchor="middle" x="776.35" y="140.0">J</text><rect fill="lightgrey" height="53.333333333333336" stroke="black" stroke-width="1" width="234.0" x="556.0" y="166.66666666666669" /><line stroke="black" stroke-width="1" x1="575.5" x2="575.5" y1="166.66666666666669" y2="220.00000000000003" /><line stroke="black" stroke-width="1" x1="602.8" x2="602.8" y1="166.66666666666669" y2="220.00000000000003" /><text dominant-baseline="middle" font-size="10" text-anchor="middle" x="589.15" y="193.33333333333334">16</text><line stroke="black" stroke-width="1" x1="630.1" x2="630.1" y1="166.66666666666669" y2="220.00000000000003" /><text dominant-baseline="middle" font-size="10" text-anchor="middle" x="616.45" y="193.33333333333334">17</text><line stroke="black" stroke-width="1" x1="657.4" x2="657.4" y1="166.66666666666669" y2="220.00000000000003" /><text dominant-baseline="middle" font-size="10" text-anchor="middle" x="643.75" y="193.33333333333334">18</text><line stroke="black" stroke-width="1" x1="684.7" x2="684.7" y1="166.66666666666669" y2="220.00000000000003" /><text dominant-baseline="middle" font-size="10" text-anchor="middle" x="671.05" y="193.33333333333334">19</text><line stroke="black" stroke-width="1" x1="712.0" x2="712.0" y1="166.66666666666669" y2="220.00000000000003" /><text dominant-baseline="middle" font-size="10" text-anchor="middle" x="698.35" y="193.33333333333334">20</text><line stroke="black" stroke-width="1" x1="739.3" x2="739.3" y1="166.66666666666669" y2="220.00000000000003" /><text dominant-baseline="middle" font-size="10" text-anchor="middle" x="725.65" y="193.33333333333334">21</text><line stroke="black" stroke-width="1" x1="766.6" x2="766.6" y1="166.66666666666669" y2="220.00000000000003" /><text dominant-baseline="middle" font-size="10" text-anchor="middle" x="752.95" y="193.33333333333334">22</text><text dominant-baseline="middle" font-size="10" text-anchor="middle" x="778.3" y="193.33333333333334">23</text><rect fill="lightgrey" height="53.333333333333336" stroke="black" stroke-width="1" width="234.0" x="556.0" y="220.00000000000003" /><rect fill="none" height="266.6666666666667" stroke="purple" stroke-width="1" width="234.0" x="556.0" y="273.33333333333337" /><line stroke="gray" stroke-width="1" x1="556.0" x2="790.0" y1="273.33333333333337" y2="273.33333333333337" /><line stroke="gray" stroke-width="1" x1="556.0" x2="790.0" y1="284.44444444444446" y2="284.44444444444446" /><line stroke="gray" stroke-width="1" x1="556.0" x2="790.0" y1="295.5555555555556" y2="295.5555555555556" /><line stroke="gray" stroke-width="1" x1="556.0" x2="790.0" y1="306.6666666666667" y2="306.6666666666667" /><line stroke="gray" stroke-width="1" x1="556.0" x2="790.0" y1="317.7777777777778" y2="317.7777777777778" /><line stroke="gray" stroke-width="1" x1="556.0" x2="790.0" y1="328.8888888888889" y2="328.8888888888889" /><line stroke="gray" stroke-width="1" x1="556.0" x2="790.0" y1="340.00000000000006" y2="340.00000000000006" /><line stroke="gray" stroke-width="1" x1="556.0" x2="790.0" y1="351.11111111111114" y2="351.11111111111114" /><line stroke="gray" stroke-width="1" x1="556.0" x2="790.0" y1="362.2222222222223" y2="362.2222222222223" /><line stroke="gray" stroke-width="1" x1="556.0" x2="790.0" y1="373.33333333333337" y2="373.33333333333337" /><line stroke="gray" stroke-width="1" x1="556.0" x2="790.0" y1="384.4444444444445" y2="384.4444444444445" /><line stroke="gray" stroke-width="1" x1="556.0" x2="790.0" y1="395.5555555555556" y2="395.5555555555556" /><line stroke="gray" stroke-width="1" x1="556.0" x2="790.0" y1="406.66666666666674" y2="406.66666666666674" /><line stroke="gray" stroke-width="1" x1="556.0" x2="790.0" y1="417.7777777777778" y2="417.7777777777778" /><line stroke="gray" stroke-width="1" x1="556.0" x2="790.0" y1="428.8888888888889" y2="428.8888888888889" /><line stroke="gray" stroke-width="1" x1="556.0" x2="790.0" y1="440.00000000000006" y2="440.00000000000006" /><line stroke="gray" stroke-width="1" x1="556.0" x2="790.0" y1="451.1111111111112" y2="451.1111111111112" /><line stroke="gray" stroke-width="1" x1="556.0" x2="790.0" y1="462.2222222222223" y2="462.2222222222223" /><line stroke="gray" stroke-width="1" x1="556.0" x2="790.0" y1="473.33333333333337" y2="473.33333333333337" /><line stroke="gray" stroke-width="1" x1="556.0" x2="790.0" y1="484.4444444444445" y2="484.4444444444445" /><line stroke="gray" stroke-width="1" x1="556.0" x2="790.0" y1="495.55555555555566" y2="495.55555555555566" /><line stroke="gray" stroke-width="1" x1="556.0" x2="790.0" y1="506.66666666666674" y2="506.66666666666674" /><line stroke="gray" stroke-width="1" x1="556.0" x2="790.0" y1="517.7777777777778" y2="517.7777777777778" /><line stroke="gray" stroke-width="1" x1="556.0" x2="790.0" y1="528.8888888888889" y2="528.8888888888889" /><line stroke="gray" stroke-width="1" x1="556.0" x2="790.0" y1="540.0" y2="540.0" /><line stroke="gray" stroke-width="1" x1="641.8" x2="641.8" y1="273.33333333333337" y2="540.0" /><line stroke="gray" stroke-width="1" x1="762.7" x2="762.7" y1="273.33333333333337" y2="540.0" /><line stroke="gray" stroke-width="1" x1="575.5" x2="575.5" y1="273.33333333333337" y2="540.0" /><line stroke="gray" stroke-width="1" x1="602.8" x2="602.8" y1="273.33333333333337" y2="540.0" /><line stroke="gray" stroke-width="1" x1="630.1" x2="630.1" y1="273.33333333333337" y2="540.0" /><line stroke="gray" stroke-width="1" x1="657.4" x2="657.4" y1="273.33333333333337" y2="540.0" /><line stroke="gray" stroke-width="1" x1="684.7" x2="684.7" y1="273.33333333333337" y2="540.0" /><line stroke="gray" stroke-width="1" x1="712.0" x2="712.0" y1="273.33333333333337" y2="540.0" /><line stroke="gray" stroke-width="1" x1="739.3" x2="739.3" y1="273.33333333333337" y2="540.0" /><line stroke="gray" stroke-width="1" x1="766.6" x2="766.6" y1="273.33333333333337" y2="540.0" /><line stroke="gray" stroke-width="1" x1="559.9" x2="559.9" y1="273.33333333333337" y2="540.0" /><line stroke="gray" stroke-width="1" x1="563.8" x2="563.8" y1="273.33333333333337" y2="540.0" /><line stroke="gray" stroke-width="1" x1="567.7" x2="567.7" y1="273.33333333333337" y2="540.0" /><line stroke="gray" stroke-width="1" x1="571.6" x2="571.6" y1="273.33333333333337" y2="540.0" /><line stroke="gray" stroke-width="1" x1="575.5" x2="575.5" y1="273.33333333333337" y2="540.0" /><line stroke="gray" stroke-width="1" x1="579.4" x2="579.4" y1="273.33333333333337" y2="540.0" /><line stroke="gray" stroke-width="1" x1="583.3" x2="583.3" y1="273.33333333333337" y2="540.0" /><line stroke="gray" stroke-width="1" x1="587.2" x2="587.2" y1="273.33333333333337" y2="540.0" /><line stroke="gray" stroke-width="1" x1="591.1" x2="591.1" y1="273.33333333333337" y2="540.0" /><line stroke="gray" stroke-width="1" x1="595.0" x2="595.0" y1="273.33333333333337" y2="540.0" /><line stroke="gray" stroke-width="1" x1="598.9" x2="598.9" y1="273.33333333333337" y2="540.0" /><line stroke="gray" stroke-width="1" x1="602.8" x2="602.8" y1="273.33333333333337" y2="540.0" /><line stroke="gray" stroke-width="1" x1="606.7" x2="606.7" y1="273.33333333333337" y2="540.0" /><line stroke="gray" stroke-width="1" x1="610.6" x2="610.6" y1="273.33333333333337" y2="540.0" /><line stroke="gray" stroke-width="1" x1="614.5" x2="614.5" y1="273.33333333333337" y2="540.0" /><line stroke="gray" stroke-width="1" x1="618.4" x2="618.4" y1="273.33333333333337" y2="540.0" /><line stroke="gray" stroke-width="1" x1="622.3" x2="622.3" y1="273.33333333333337" y2="540.0" /><line stroke="gray" stroke-width="1" x1="626.2" x2="626.2" y1="273.33333333333337" y2="540.0" /><line stroke="gray" stroke-width="1" x1="630.1" x2="630.1" y1="273.33333333333337" y2="540.0" /><line stroke="gray" stroke-width="1" x1="634.0" x2="634.0" y1="273.33333333333337" y2="540.0" /><line stroke="gray" stroke-width="1" x1="637.9" x2="637.9" y1="273.33333333333337" y2="540.0" /><line stroke="gray" stroke-width="1" x1="641.8" x2="641.8" y1="273.33333333333337" y2="540.0" /><line stroke="gray" stroke-width="1" x1="645.7" x2="645.7" y1="273.33333333333337" y2="540.0" /><line stroke="gray" stroke-width="1" x1="649.6" x2="649.6" y1="273.33333333333337" y2="540.0" /><line stroke="gray" stroke-width="1" x1="653.5" x2="653.5" y1="273.33333333333337" y2="540.0" /><line stroke="gray" stroke-width="1" x1="657.4" x2="657.4" y1="273.33333333333337" y2="540.0" /><line stroke="gray" stroke-width="1" x1="661.3" x2="661.3" y1="273.33333333333337" y2="540.0" /><line stroke="gray" stroke-width="1" x1="665.2" x2="665.2" y1="273.33333333333337" y2="540.0" /><line stroke="gray" stroke-width="1" x1="669.1" x2="669.1" y1="273.33333333333337" y2="540.0" /><line stroke="gray" stroke-width="1" x1="673.0" x2="673.0" y1="273.33333333333337" y2="540.0" /><line stroke="gray" stroke-width="1" x1="676.9" x2="676.9" y1="273.33333333333337" y2="540.0" /><line stroke="gray" stroke-width="1" x1="680.8" x2="680.8" y1="273.33333333333337" y2="540.0" /><line stroke="gray" stroke-width="1" x1="684.7" x2="684.7" y1="273.33333333333337" y2="540.0" /><line stroke="gray" stroke-width="1" x1="688.6" x2="688.6" y1="273.33333333333337" y2="540.0" /><line stroke="gray" stroke-width="1" x1="692.5" x2="692.5" y1="273.33333333333337" y2="540.0" /><line stroke="gray" stroke-width="1" x1="696.4" x2="696.4" y1="273.33333333333337" y2="540.0" /><line stroke="gray" stroke-width="1" x1="700.3" x2="700.3" y1="273.33333333333337" y2="540.0" /><line stroke="gray" stroke-width="1" x1="704.2" x2="704.2" y1="273.33333333333337" y2="540.0" /><line stroke="gray" stroke-width="1" x1="708.1" x2="708.1" y1="273.33333333333337" y2="540.0" /><line stroke="gray" stroke-width="1" x1="712.0" x2="712.0" y1="273.33333333333337" y2="540.0" /><line stroke="gray" stroke-width="1" x1="715.9" x2="715.9" y1="273.33333333333337" y2="540.0" /><line stroke="gray" stroke-width="1" x1="719.8" x2="719.8" y1="273.33333333333337" y2="540.0" /><line stroke="gray" stroke-width="1" x1="723.7" x2="723.7" y1="273.33333333333337" y2="540.0" /><line stroke="gray" stroke-width="1" x1="727.6" x2="727.6" y1="273.33333333333337" y2="540.0" /><line stroke="gray" stroke-width="1" x1="731.5" x2="731.5" y1="273.33333333333337" y2="540.0" /><line stroke="gray" stroke-width="1" x1="735.4" x2="735.4" y1="273.33333333333337" y2="540.0" /><line stroke="gray" stroke-width="1" x1="739.3" x2="739.3" y1="273.33333333333337" y2="540.0" /><line stroke="gray" stroke-width="1" x1="743.2" x2="743.2" y1="273.33333333333337" y2="540.0" /><line stroke="gray" stroke-width="1" x1="747.1" x2="747.1" y1="273.33333333333337" y2="540.0" /><line stroke="gray" stroke-width="1" x1="751.0" x2="751.0" y1="273.33333333333337" y2="540.0" /><line stroke="gray" stroke-width="1" x1="754.9" x2="754.9" y1="273.33333333333337" y2="540.0" /><line stroke="gray" stroke-width="1" x1="758.8" x2="758.8" y1="273.33333333333337" y2="540.0" /><line stroke="gray" stroke-width="1" x1="762.7" x2="762.7" y1="273.33333333333337" y2="540.0" /><line stroke="gray" stroke-width="1" x1="766.6" x2="766.6" y1="273.33333333333337" y2="540.0" /><line stroke="gray" stroke-width="1" x1="770.5" x2="770.5" y1="273.33333333333337" y2="540.0" /><line stroke="gray" stroke-width="1" x1="774.4" x2="774.4" y1="273.33333333333337" y2="540.0" /><line stroke="gray" stroke-width="1" x1="778.3" x2="778.3" y1="273.33333333333337" y2="540.0" /><line stroke="gray" stroke-width="1" x1="782.2" x2="782.2" y1="273.33333333333337" y2="540.0" /><line stroke="gray" stroke-width="1" x1="786.1" x2="786.1" y1="273.33333333333337" y2="540.0" /><line stroke="gray" stroke-width="1" x1="790.0" x2="790.0" y1="273.33333333333337" y2="540.0" /></svg>