<?xml version="1.0" encoding="utf-8" ?>
<svg baseProfile="full" height="600.0" version="1.1" width="800.0" xmlns="http://www.w3.org/2000/svg" xmlns:ev="http://www.w3.org/2001/xml-events" xmlns:xlink="http://www.w3.org/1999/xlink"><defs /><rect fill="white" height="600.0" stroke="black" stroke-width="2" width="800.0" x="0" y="0" /><rect fill="lightgray" height="50.0" stroke="black" stroke-width="1" width="780.0" x="10.0" y="10.0" /><text font-size="14" text-anchor="middle" x="400.0" y="35.0">header</text><rect fill="lightgray" height="50.0" stroke="black" stroke-width="1" width="780.0" x="10.0" y="540.0" /><text font-size="14" text-anchor="middle" x="400.0" y="565.0">footer</text><rect fill="none" height="480.0" stroke="blue" stroke-dasharray="4" stroke-width="1" width="780.0" x="10.0" y="60.0" /><rect fill="none" height="480.0" stroke="red" stroke-width="1" width="546.0" x="10.0" y="60.0" /><rect fill="none" height="48.0" stroke="green" stroke-width="1" width="546.0" x="10.0" y="60.0" /><rect fill="none" height="24.0" stroke="orange" stroke-width="1" width="546.0" x="10.0" y="108.0" /><rect fill="none" height="408.0" stroke="purple" stroke-width="1" width="546.0" x="10.0" y="132.0" /><line stroke="gray" stroke-width="1" x1="10.0" x2="556.0" y1="132.0" y2="132.0" /><line stroke="gray" stroke-width="1" x1="10.0" x2="556.0" y1="172.8" y2="172.8" /><line stroke="gray" stroke-width="1" x1="10.0" x2="556.0" y1="213.6" y2="213.6" /><line stroke="gray" stroke-width="1" x1="10.0" x2="556.0" y1="254.39999999999998" y2="254.39999999999998" /><line stroke="gray" stroke-width="1" x1="10.0" x2="556.0" y1="295.2" y2="295.2" /><line stroke="gray" stroke-width="1" x1="10.0" x2="556.0" y1="336.0" y2="336.0" /><line stroke="gray" stroke-width="1" x1="10.0" x2="556.0" y1="376.79999999999995" y2="376.79999999999995" /><line stroke="gray" stroke-width="1" x1="10.0" x2="556.0" y1="417.59999999999997" y2="417.59999999999997" /><line stroke="gray" stroke-width="1" x1="10.0" x2="556.0" y1="458.4" y2="458.4" /><line stroke="gray" stroke-width="1" x1="10.0" x2="556.0" y1="499.2" y2="499.2" /><line stroke="gray" stroke-width="1" x1="10.0" x2="556.0" y1="540.0" y2="540.0" /><line stroke="black" stroke-width="2" x1="554.5081967213115" x2="554.5081967213115" y1="132.0" y2="540.0" /><text font-size="12" font-weight="bold" text-anchor="middle" x="554.5081967213115" y="58.0">2024</text><line stroke="gray" stroke-width="1" x1="54.75409836065574" x2="54.75409836065574" y1="132.0" y2="540.0" /><line stroke="gray" stroke-width="1" x1="98.01639344262296" x2="98.01639344262296" y1="132.0" y2="540.0" /><line stroke="gray" stroke-width="1" x1="144.2622950819672" x2="144.2622950819672" y1="132.0" y2="540.0" /><line stroke="gray" stroke-width="1" x1="189.01639344262296" x2="189.01639344262296" y1="132.0" y2="540.0" /><line stroke="gray" stroke-width="1" x1="235.26229508196724" x2="235.26229508196724" y1="132.0" y2="540.0" /><line stroke="gray" stroke-width="1" x1="280.016393442623" x2="280.016393442623" y1="132.0" y2="540.0" /><line stroke="gray" stroke-width="1" x1="326.26229508196724" x2="326.26229508196724" y1="132.0" y2="540.0" /><line stroke="gray" stroke-width="1" x1="372.5081967213115" x2="372.5081967213115" y1="132.0" y2="540.0" /><line stroke="gray" stroke-width="1" x1="417.26229508196724" x2="417.26229508196724" y1="132.0" y2="540.0" /><line stroke="gray" stroke-width="1" x1="463.5081967213115" x2="463.5081967213115" y1="132.0" y2="540.0" /><line stroke="gray" stroke-width="1" x1="508.26229508196724" x2="508.26229508196724" y1="132.0" y2="540.0" /><line stroke="gray" stroke-width="1" x1="554.5081967213115" x2="554.5081967213115" y1="132.0" y2="540.0" /><text font-size="10" text-anchor="middle" x="54.75409836065574" y="106.0">Jan 31</text><text font-size="10" text-anchor="middle" x="144.2622950819672" y="106.0">Mar 31</text><text font-size="10" text-anchor="middle" x="235.26229508196724" y="106.0">May 31</text><text font-size="10" text-anchor="middle" x="326.26229508196724" y="106.0">Jul 31</text><text font-size="10" text-anchor="middle" x="417.26229508196724" y="106.0">Sep 30</text><text font-size="10" text-anchor="middle" x="508.26229508196724" y="106.0">Nov 30</text><rect fill="none" height="480.0" stroke="red" stroke-width="1" width="234.0" x="556.0" y="60.0" /><rect fill="none" height="48.0" stroke="green" stroke-width="1" width="234.0" x="556.0" y="60.0" /><rect fill="none" height="24.0" stroke="orange" stroke-width="1" width="234.0" x="556.0" y="108.0" /><rect fill="none" height="408.0" stroke="purple" stroke-width="1" width="234.0" x="556.0" y="132.0" /><line stroke="gray" stroke-width="1" x1="556.0" x2="790.0" y1="132.0" y2="132.0" /><line stroke="gray" stroke-width="1" x1="556.0" x2="790.0" y1="172.8" y2="172.8" /><line stroke="gray" stroke-width="1" x1="556.0" x2="790.0" y1="213.6" y2="213.6" /><line stroke="gray" stroke-width="1" x1="556.0" x2="790.0" y1="254.39999999999998" y2="254.39999999999998" /><line stroke="gray" stroke-width="1" x1="556.0" x2="790.0" y1="295.2" y2="295.2" /><line stroke="gray" stroke-width="1" x1="556.0" x2="790.0" y1="336.0" y2="336.0" /><line stroke="gray" stroke-width="1" x1="556.0" x2="790.0" y1="376.79999999999995" y2="376.79999999999995" /><line stroke="gray" stroke-width="1" x1="556.0" x2="790.0" y1="417.59999999999997" y2="417.59999999999997" /><line stroke="gray" stroke-width="1" x1="556.0" x2="790.0" y1="458.4" y2="458.4" /><line stroke="gray" stroke-width="1" x1="556.0" x2="790.0" y1="499.2" y2="499.2" /><line stroke="gray" stroke-width="1" x1="556.0" x2="790.0" y1="540.0" y2="540.0" /><line stroke="black" stroke-width="2" x1="789.3571428571429" x2="789.3571428571429" y1="132.0" y2="540.0" /><text font-size="12" font-weight="bold" text-anchor="middle" x="789.3571428571429" y="58.0">2025</text><line stroke="gray" stroke-width="1" x1="574.6428571428571" x2="574.6428571428571" y1="132.0" y2="540.0" /><line stroke="gray" stroke-width="1" x1="592.6428571428571" x2="592.6428571428571" y1="132.0" y2="540.0" /><line stroke="gray" stroke-width="1" x1="612.5714285714286" x2="612.5714285714286" y1="132.0" y2="540.0" /><line stroke="gray" stroke-width="1" x1="631.8571428571429" x2="631.8571428571429" y1="132.0" y2="540.0" /><line stroke="gray" stroke-width="1" x1="651.7857142857143" x2="651.7857142857143" y1="132.0" y2="540.0" /><line stroke="gray" stroke-width="1" x1="671.0714285714286" x2="671.0714285714286" y1="132.0" y2="540.0" /><line stroke="gray" stroke-width="1" x1="691.0" x2="691.0" y1="132.0" y2="540.0" /><line stroke="gray" stroke-width="1" x1="710.9285714285714" x2="710.9285714285714" y1="132.0" y2="540.0" /><line stroke="gray" stroke-width="1" x1="730.2142857142858" x2="730.2142857142858" y1="132.0" y2="540.0" /><line stroke="gray" stroke-width="1" x1="750.1428571428571" x2="750.1428571428571" y1="132.0" y2="540.0" /><line stroke="gray" stroke-width="1" x1="769.4285714285714" x2="769.4285714285714" y1="132.0" y2="540.0" /><line stroke="gray" stroke-width="1" x1="789.3571428571429" x2="789.3571428571429" y1="132.0" y2="540.0" /><text font-size="10" text-anchor="middle" x="574.6428571428571" y="106.0">Jan 31</text><text font-size="10" text-anchor="middle" x="631.8571428571429" y="106.0">Apr 30</text><text font-size="10" text-anchor="middle" x="691.0" y="106.0">Jul 31</text><text font-size="10" text-anchor="middle" x="750.1428571428571" y="106.0">Oct 31</text></svg>